<svg width="14" height="14" viewBox="0 0 14 14" fill="none" xmlns="http://www.w3.org/2000/svg">
<path d="M9.44331 1.43679C9.60735 1.60088 9.6995 1.8234 9.6995 2.05542C9.6995 2.28743 9.60735 2.50995 9.44331 2.67404L5.11206 7.00529L9.44331 11.3365C9.6027 11.5016 9.6909 11.7226 9.6889 11.952C9.68691 12.1814 9.59489 12.4009 9.43265 12.5631C9.27042 12.7254 9.05096 12.8174 8.82154 12.8194C8.59212 12.8214 8.37109 12.7332 8.20606 12.5738L3.25619 7.62392C3.09215 7.45983 3 7.23731 3 7.00529C3 6.77327 3.09215 6.55075 3.25619 6.38667L8.20606 1.43679C8.37015 1.27275 8.59267 1.1806 8.82469 1.1806C9.05671 1.1806 9.27923 1.27275 9.44331 1.43679Z" fill="white"/>
</svg>
