<svg width="14" height="14" viewBox="0 0 14 14" fill="none" xmlns="http://www.w3.org/2000/svg">
<path d="M1.43173 4.63176C1.59581 4.46772 1.81833 4.37557 2.05035 4.37557C2.28237 4.37557 2.50489 4.46772 2.66898 4.63176L7.00022 8.96301L11.3315 4.63176C11.4965 4.47237 11.7175 4.38418 11.947 4.38617C12.1764 4.38816 12.3958 4.48019 12.5581 4.64242C12.7203 4.80465 12.8123 5.02411 12.8143 5.25353C12.8163 5.48296 12.7281 5.70398 12.5687 5.86901L7.61885 10.8189C7.45476 10.9829 7.23224 11.0751 7.00022 11.0751C6.76821 11.0751 6.54569 10.9829 6.3816 10.8189L1.43173 5.86901C1.26769 5.70492 1.17554 5.4824 1.17554 5.25039C1.17554 5.01837 1.26769 4.79585 1.43173 4.63176Z" fill="black"/>
</svg>
