<svg width="23" height="23" viewBox="0 0 23 23" fill="none" xmlns="http://www.w3.org/2000/svg">
<path d="M9.58317 5.74984H13.4165C13.4165 5.24151 13.2146 4.75399 12.8551 4.39455C12.4957 4.0351 12.0082 3.83317 11.4998 3.83317C10.9915 3.83317 10.504 4.0351 10.1445 4.39455C9.7851 4.75399 9.58317 5.24151 9.58317 5.74984ZM7.6665 5.74984C7.6665 4.73317 8.07037 3.75815 8.78926 3.03926C9.50815 2.32037 10.4832 1.9165 11.4998 1.9165C12.5165 1.9165 13.4915 2.32037 14.2104 3.03926C14.9293 3.75815 15.3332 4.73317 15.3332 5.74984H20.1248C20.379 5.74984 20.6228 5.8508 20.8025 6.03053C20.9822 6.21025 21.0832 6.454 21.0832 6.70817C21.0832 6.96234 20.9822 7.20609 20.8025 7.38581C20.6228 7.56554 20.379 7.6665 20.1248 7.6665H19.2796L18.4305 17.5757C18.3489 18.5325 17.9111 19.4239 17.2037 20.0734C16.4963 20.7229 15.5709 21.0833 14.6106 21.0832H8.38909C7.42875 21.0833 6.50335 20.7229 5.79598 20.0734C5.08861 19.4239 4.6508 18.5325 4.56917 17.5757L3.72009 7.6665H2.87484C2.62067 7.6665 2.37692 7.56554 2.19719 7.38581C2.01747 7.20609 1.9165 6.96234 1.9165 6.70817C1.9165 6.454 2.01747 6.21025 2.19719 6.03053C2.37692 5.8508 2.62067 5.74984 2.87484 5.74984H7.6665ZM14.3748 11.4998C14.3748 11.2457 14.2739 11.0019 14.0941 10.8222C13.9144 10.6425 13.6707 10.5415 13.4165 10.5415C13.1623 10.5415 12.9186 10.6425 12.7389 10.8222C12.5591 11.0019 12.4582 11.2457 12.4582 11.4998V15.3332C12.4582 15.5873 12.5591 15.8311 12.7389 16.0108C12.9186 16.1905 13.1623 16.2915 13.4165 16.2915C13.6707 16.2915 13.9144 16.1905 14.0941 16.0108C14.2739 15.8311 14.3748 15.5873 14.3748 15.3332V11.4998ZM9.58317 10.5415C9.329 10.5415 9.08525 10.6425 8.90553 10.8222C8.7258 11.0019 8.62484 11.2457 8.62484 11.4998V15.3332C8.62484 15.5873 8.7258 15.8311 8.90553 16.0108C9.08525 16.1905 9.329 16.2915 9.58317 16.2915C9.83734 16.2915 10.0811 16.1905 10.2608 16.0108C10.4405 15.8311 10.5415 15.5873 10.5415 15.3332V11.4998C10.5415 11.2457 10.4405 11.0019 10.2608 10.8222C10.0811 10.6425 9.83734 10.5415 9.58317 10.5415Z" fill="#DB0000"/>
</svg>
