<svg width="18" height="18" viewBox="0 0 18 18" fill="none" xmlns="http://www.w3.org/2000/svg">
<path d="M7.76925 0.431914C8.11839 0.152486 8.55225 0.000244141 8.99944 0.000244141C9.44662 0.000244141 9.88049 0.152486 10.2296 0.431914L16.1359 5.15691C16.6028 5.53041 16.875 6.09629 16.875 6.69479V14.5912C16.875 15.1133 16.6676 15.6141 16.2984 15.9833C15.9292 16.3525 15.4284 16.5599 14.9062 16.5599H12.0938C11.87 16.5599 11.6554 16.471 11.4971 16.3128C11.3389 16.1546 11.25 15.9399 11.25 15.7162V9.80991H6.75V15.7162C6.75 15.9399 6.66111 16.1546 6.50287 16.3128C6.34464 16.471 6.13003 16.5599 5.90625 16.5599H3.09375C2.57161 16.5599 2.07085 16.3525 1.70163 15.9833C1.33242 15.6141 1.125 15.1133 1.125 14.5912V6.69366C1.125 6.09629 1.39725 5.53041 1.86412 5.15691L7.76925 0.431914Z" fill="#0959FF"/>
</svg>
