<svg width="16" height="17" viewBox="0 0 16 17" fill="none" xmlns="http://www.w3.org/2000/svg">
<path d="M6.76925 0.432006C7.11839 0.152577 7.55225 0.000335693 7.99944 0.000335693C8.44662 0.000335693 8.88049 0.152577 9.22963 0.432006L15.1359 5.15701C15.6028 5.53051 15.875 6.09638 15.875 6.69488V14.5913C15.875 15.1134 15.6676 15.6142 15.2984 15.9834C14.9292 16.3526 14.4284 16.56 13.9062 16.56H11.0938C10.87 16.56 10.6554 16.4711 10.4971 16.3129C10.3389 16.1546 10.25 15.94 10.25 15.7163V9.81001H5.75V15.7163C5.75 15.94 5.66111 16.1546 5.50287 16.3129C5.34464 16.4711 5.13003 16.56 4.90625 16.56H2.09375C1.57161 16.56 1.07085 16.3526 0.701634 15.9834C0.332421 15.6142 0.125 15.1134 0.125 14.5913V6.69376C0.125 6.09638 0.39725 5.53051 0.864125 5.15701L6.76925 0.432006Z" fill="#0959FF"/>
</svg>
