<svg width="18" height="18" viewBox="0 0 18 18" fill="none" xmlns="http://www.w3.org/2000/svg">
<path d="M7.76925 0.432036C8.11839 0.152608 8.55225 0.000366211 8.99944 0.000366211C9.44662 0.000366211 9.88049 0.152608 10.2296 0.432036L16.1359 5.15704C16.6028 5.53054 16.875 6.09641 16.875 6.69491V14.5913C16.875 15.1134 16.6676 15.6142 16.2984 15.9834C15.9292 16.3526 15.4284 16.56 14.9062 16.56H12.0938C11.87 16.56 11.6554 16.4711 11.4971 16.3129C11.3389 16.1547 11.25 15.9401 11.25 15.7163V9.81004H6.75V15.7163C6.75 15.9401 6.66111 16.1547 6.50287 16.3129C6.34464 16.4711 6.13003 16.56 5.90625 16.56H3.09375C2.57161 16.56 2.07085 16.3526 1.70163 15.9834C1.33242 15.6142 1.125 15.1134 1.125 14.5913V6.69379C1.125 6.09641 1.39725 5.53054 1.86412 5.15704L7.76925 0.432036Z" fill="white"/>
</svg>
