<svg width="29" height="29" viewBox="0 0 29 29" fill="none" xmlns="http://www.w3.org/2000/svg">
<path d="M14.5 13.8209C15.2211 13.8209 15.9126 13.5345 16.4224 13.0246C16.9323 12.5148 17.2188 11.8232 17.2188 11.1022C17.2188 10.3811 16.9323 9.6896 16.4224 9.17973C15.9126 8.66987 15.2211 8.38343 14.5 8.38343C13.7789 8.38343 13.0874 8.66987 12.5776 9.17973C12.0677 9.6896 11.7812 10.3811 11.7812 11.1022C11.7812 11.8232 12.0677 12.5148 12.5776 13.0246C13.0874 13.5345 13.7789 13.8209 14.5 13.8209ZM24.3419 3.62622C24.0156 9.1036 18.7823 13.6916 16.2134 15.3084C17.7592 15.6587 19.3637 15.6595 20.9099 15.3106C22.456 14.9617 23.9047 14.2719 25.1502 13.2917C25.8027 9.1048 24.8784 5.1016 24.3346 3.62743L24.3419 3.62622Z" fill="white"/>
<path d="M24.3407 15.3096C11.339 20.1332 5.92328 9.53133 4.83578 3.625C0.370991 16.9179 9.30662 23.3607 14.587 25.3726C20.4329 23.1166 23.5251 17.7202 24.3407 15.3072" fill="white"/>
</svg>
