<svg width="24" height="24" viewBox="0 0 24 24" fill="none" xmlns="http://www.w3.org/2000/svg">
<path d="M12.0141 0.935181C10.0922 0.935181 8.54062 2.46799 8.54062 4.36971C8.54062 5.4469 8.91563 5.95315 9.32812 6.6094C9.60469 7.04534 9.89062 7.55159 10.0547 8.27815H13.9453C14.1094 7.53284 14.3953 7.0219 14.6719 6.58127C15.0891 5.92034 15.4594 5.42346 15.4594 4.36971C15.4594 2.46799 13.9219 0.935181 12.0141 0.935181ZM5.35312 1.29612L3.79688 1.6594L7.60312 3.54612L5.35312 1.29612ZM18.6469 1.29612L16.3969 3.54612L20.2031 1.6594L18.6469 1.29612ZM9.86719 3.71252L12 4.77659L14.1328 3.71252L13.1578 7.60315L12.3422 7.3969L12.8672 5.28752L12 5.72346L11.1328 5.28752L11.6578 7.3969L10.8422 7.60315L9.86719 3.71252ZM3 4.50143V6.00471L7.5 5.25002L3 4.50143ZM21 4.50143L16.5 5.25002L21 6.00002V4.50143ZM15.6656 6.76409L17.5359 9.73127L18.6656 9.01409L15.6656 6.76409ZM8.33438 6.76877L5.33438 9.01877L6.46406 9.73596L8.33438 6.76877ZM10.125 8.95315V9.70315H13.875V8.95315H10.125ZM11.7375 10.2797C11.0953 10.2797 10.4766 10.3031 10.0641 10.3266C6.86719 10.8281 6.17812 15.2672 6.9375 19.3078H8.04375L7.99688 14.3672L8.86875 14.3578C8.80312 17.3438 8.94375 20.2922 9.12656 23.25H11.5359V18.2953H12.4125V23.25H14.775C14.9859 20.2031 15.0516 17.086 15.0797 14.3578L15.9562 14.3672L15.9047 19.3078H17.0578C17.9156 15.1594 16.8328 10.9219 13.9125 10.3735C13.4719 10.3078 12.7453 10.2797 12.0094 10.2797H11.7375Z" fill="white"/>
</svg>
