<svg width="25" height="20" viewBox="0 0 25 20" fill="none" xmlns="http://www.w3.org/2000/svg">
<g clip-path="url(#clip0_100_7468)">
<path d="M3.1251 1.875C3.1251 1.37772 3.32264 0.900805 3.67427 0.549175C4.0259 0.197544 4.50282 0 5.0001 0C5.49738 0 5.97429 0.197544 6.32592 0.549175C6.67755 0.900805 6.8751 1.37772 6.8751 1.875C6.8751 2.37228 6.67755 2.84919 6.32592 3.20083C5.97429 3.55246 5.49738 3.75 5.0001 3.75C4.50282 3.75 4.0259 3.55246 3.67427 3.20083C3.32264 2.84919 3.1251 2.37228 3.1251 1.875ZM5.6251 9.44141V11.9844L7.61728 13.9766C7.89463 14.2539 8.07822 14.6094 8.14072 14.9961L8.73447 18.5469C8.84775 19.2266 8.38682 19.8711 7.70713 19.9844C7.02744 20.0977 6.38291 19.6367 6.26963 18.957L5.71103 15.6016L2.60947 12.5C2.14072 12.0312 1.8751 11.3945 1.8751 10.7305V7.28906C1.8751 6.02344 2.89853 5 4.16416 5C5.10557 5 5.98057 5.46875 6.504 6.25L8.35557 9.02734L8.7501 9.22266V6.24609C8.7501 5.55469 9.30869 4.99609 10.0001 4.99609H15.0001C15.6915 4.99609 16.2501 5.55469 16.2501 6.24609V9.22266L16.6446 9.02734L18.4962 6.25C19.0157 5.46875 19.8946 5 20.836 5C22.1017 5 23.1251 6.02344 23.1251 7.28906V10.7305C23.1251 11.3945 22.8634 12.0312 22.3946 12.5L19.2931 15.6016L18.7345 18.957C18.6212 19.6367 17.9767 20.0977 17.297 19.9844C16.6173 19.8711 16.1563 19.2266 16.2696 18.5469L16.8634 14.9961C16.9259 14.6094 17.1095 14.2539 17.3868 13.9766L19.379 11.9844V9.44141L18.6368 10.5547C18.4571 10.8281 18.2071 11.0469 17.9142 11.1914L15.586 12.3555C15.4923 12.4062 15.3946 12.4414 15.2892 12.4648C15.1876 12.4883 15.0821 12.5 14.9806 12.4961H10.0313C9.93369 12.5 9.83603 12.4883 9.73838 12.4688C9.6251 12.4453 9.51963 12.4062 9.42197 12.3516L7.09775 11.1875C6.80478 11.043 6.55869 10.8203 6.3751 10.5508L5.63291 9.4375L5.6251 9.44141ZM0.0899405 18.2852L1.95713 13.6172L3.879 15.5391L2.41025 19.2109C2.15244 19.8516 1.42588 20.1641 0.785253 19.9062C0.144628 19.6484 -0.167872 18.9258 0.0899405 18.2852ZM20.0001 0C20.4974 0 20.9743 0.197544 21.3259 0.549175C21.6776 0.900805 21.8751 1.37772 21.8751 1.875C21.8751 2.37228 21.6776 2.84919 21.3259 3.20083C20.9743 3.55246 20.4974 3.75 20.0001 3.75C19.5028 3.75 19.0259 3.55246 18.6743 3.20083C18.3226 2.84919 18.1251 2.37228 18.1251 1.875C18.1251 1.37772 18.3226 0.900805 18.6743 0.549175C19.0259 0.197544 19.5028 0 20.0001 0ZM23.0431 13.6172L24.9103 18.2852C25.1681 18.9258 24.8556 19.6523 24.2149 19.9102C23.5743 20.168 22.8478 19.8555 22.5899 19.2148L21.1212 15.543L23.0431 13.6211V13.6172Z" fill="white"/>
</g>
<defs>
<clipPath id="clip0_100_7468">
<rect width="25" height="20" fill="white"/>
</clipPath>
</defs>
</svg>
