<svg width="216" height="173" viewBox="0 0 216 173" fill="none" xmlns="http://www.w3.org/2000/svg">
<path d="M31.6318 155.639C73.8076 177.673 142.192 177.673 184.368 155.639C226.544 133.606 226.544 97.8829 184.368 75.8451C142.192 53.8072 73.8268 53.812 31.6318 75.8451C-10.5632 97.8781 -10.5246 133.606 31.6318 155.639Z" fill="#F5F5F5"/>
<path d="M19.8751 119.506L6.16528 111.593V82.1864L19.8751 90.1046V119.506Z" fill="#E0E0E0"/>
<path d="M19.875 90.1045L39.4631 78.7963V108.198L19.875 119.506V90.1045Z" fill="#EBEBEB"/>
<path d="M39.4632 78.7962L19.8751 90.1045L6.16528 82.1863L25.7534 70.8781L39.4632 78.7962Z" fill="#F5F5F5"/>
<path d="M21.8378 91.233L37.5054 82.1864L37.8671 82.3938V93.2873L22.1947 102.334L21.833 102.127L21.8378 91.233Z" fill="#E0E0E0"/>
<path d="M22.1946 91.4452L37.867 82.3937V93.2873L22.1946 102.334V91.4452Z" fill="#F5F5F5"/>
<path d="M28.3383 89.7429L31.005 88.2046C31.3474 88.0021 31.6271 88.0937 31.6271 88.4071C31.6023 88.5991 31.5331 88.7827 31.4252 88.9434C31.3172 89.1041 31.1734 89.2375 31.005 89.333L28.3383 90.8713C27.9911 91.0739 27.7114 90.9822 27.7114 90.6688C27.7364 90.4763 27.8061 90.2922 27.915 90.1315C28.0239 89.9707 28.1688 89.8376 28.3383 89.7429Z" fill="#E0E0E0"/>
<path d="M21.4761 105.015L37.1437 95.9685V106.862L37.5054 107.069L21.8329 116.116L21.4761 115.909V105.015Z" fill="#E0E0E0"/>
<path d="M21.833 105.222L37.5054 96.1758V107.069L21.833 116.116V105.222Z" fill="#F5F5F5"/>
<path d="M27.9766 103.525L30.6674 101.992C31.0146 101.789 31.2943 101.881 31.2943 102.194C31.2693 102.387 31.1996 102.571 31.0907 102.731C30.9819 102.892 30.8369 103.025 30.6674 103.12L28.0007 104.658C27.6535 104.861 27.3738 104.769 27.3738 104.456C27.3954 104.265 27.4612 104.081 27.5658 103.92C27.6703 103.758 27.811 103.623 27.9766 103.525Z" fill="#E0E0E0"/>
<path d="M19.8751 88.4071L6.16528 80.4889V51.0874L19.8751 59.0008V88.4071Z" fill="#E0E0E0"/>
<path d="M19.875 59.0008L39.4631 47.6925V77.0988L19.875 88.4071V59.0008Z" fill="#EBEBEB"/>
<path d="M39.4632 47.6925L19.8751 59.0008L6.16528 51.0874L25.7534 39.7792L39.4632 47.6925Z" fill="#F5F5F5"/>
<path d="M21.833 60.134L37.5054 51.0874L37.8671 51.2948V62.1883L22.1947 71.2349L21.833 71.0227V60.134Z" fill="#E0E0E0"/>
<path d="M28.3383 58.6391L31.0002 57.1008C31.3474 56.9031 31.6271 56.9947 31.6271 57.3081C31.6014 57.5004 31.5314 57.6842 31.4226 57.8448C31.3138 58.0055 31.1692 58.1387 31.0002 58.234L28.3383 59.7723C27.9911 59.97 27.7114 59.8832 27.7114 59.5698C27.7368 59.3767 27.8066 59.1922 27.9154 59.0307C28.0242 58.8692 28.169 58.7352 28.3383 58.6391Z" fill="#E0E0E0"/>
<path d="M21.4761 73.9161L37.1437 64.8695V75.7582L37.5054 75.9656L21.8329 85.0122L21.4761 84.8048V73.9161Z" fill="#E0E0E0"/>
<path d="M21.833 74.1235L37.5054 65.0769V75.9656L21.833 85.0122V74.1235Z" fill="#F5F5F5"/>
<path d="M27.9765 72.4212L30.6673 70.8829C31.0097 70.6852 31.2942 70.7768 31.2942 71.0902C31.2671 71.2821 31.1965 71.4652 31.0879 71.6257C30.9792 71.7861 30.8354 71.9197 30.6673 72.0161L27.9765 73.54C27.6293 73.7377 27.3496 73.6461 27.3496 73.3374C27.3771 73.1469 27.4479 72.9653 27.5566 72.8065C27.6653 72.6476 27.8089 72.5158 27.9765 72.4212Z" fill="#E0E0E0"/>
<path d="M21.833 60.134L37.5054 51.0874V61.9761L21.833 71.0227V60.134Z" fill="#E0E0E0"/>
<path d="M45.3415 56.4691L36.7627 51.5166V61.113L45.3415 66.0606V56.4691Z" fill="#E0E0E0"/>
<path d="M27.7114 72.5755V59.0008L31.0726 57.0526L31.6271 57.8724L41.4212 52.2158V64.6573L27.7114 72.5755Z" fill="#EBEBEB"/>
<path d="M27.7114 72.5755L28.6903 60.6982L42.4001 52.7849L41.4212 64.6573L27.7114 72.5755Z" fill="#F5F5F5"/>
<path d="M29.6691 65.5157L22.1946 61.1998V70.7961L29.6691 75.1072V65.5157Z" fill="#EBEBEB"/>
<path d="M29.6689 64.6573L45.3414 55.6107V66.4994L29.6689 75.5461V64.6573Z" fill="#F5F5F5"/>
<path d="M35.8127 62.9551L38.4746 61.4168C38.8218 61.219 39.1015 61.3107 39.1015 61.6241C39.0754 61.8163 39.0052 61.9999 38.8965 62.1605C38.7878 62.3211 38.6434 62.4544 38.4746 62.55L35.8127 64.0883C35.4655 64.286 35.1858 64.1944 35.1858 63.8858C35.2112 63.6927 35.281 63.5082 35.3898 63.3467C35.4986 63.1852 35.6433 63.0511 35.8127 62.9551Z" fill="#E0E0E0"/>
<path d="M29.6692 64.6573L29.1484 64.3583V75.2471L29.6692 75.546V64.6573Z" fill="#E0E0E0"/>
<path d="M29.1484 64.3584L44.8161 55.3069L45.3417 55.6108L29.6692 64.6574L29.1484 64.3584Z" fill="#EBEBEB"/>
<path d="M181.846 101.693L168.132 93.7743V64.3728L181.846 72.2862V101.693Z" fill="#E0E0E0"/>
<path d="M181.846 72.2862L201.434 60.9779V90.3842L181.846 101.693V72.2862Z" fill="#EBEBEB"/>
<path d="M201.434 60.978L181.846 72.2862L168.132 64.3728L187.725 53.0598L201.434 60.978Z" fill="#F5F5F5"/>
<path d="M183.804 73.4194L199.476 64.3728L199.838 64.5802L199.833 75.4689L184.166 84.5155L183.804 84.3081V73.4194Z" fill="#E0E0E0"/>
<path d="M184.166 73.6268L199.838 64.5802L199.833 75.4689L184.166 84.5155V73.6268Z" fill="#F5F5F5"/>
<path d="M190.309 71.9246L192.971 70.3863C193.318 70.1886 193.598 70.2802 193.598 70.5888C193.573 70.7819 193.503 70.9664 193.394 71.1279C193.285 71.2894 193.141 71.4234 192.971 71.5195L190.309 73.0578C189.962 73.2555 189.682 73.1639 189.682 72.8553C189.708 72.6622 189.778 72.4777 189.886 72.3162C189.995 72.1547 190.14 72.0206 190.309 71.9246Z" fill="#E0E0E0"/>
<path d="M183.442 87.2015L199.115 78.1501V89.0436L199.476 89.251L183.804 98.2976L183.442 98.0903V87.2015Z" fill="#E0E0E0"/>
<path d="M183.804 87.4089L199.476 78.3623V89.251L183.804 98.2976V87.4089Z" fill="#F5F5F5"/>
<path d="M189.947 85.7066L192.614 84.1683C192.957 83.9706 193.236 84.0622 193.236 84.3709C193.211 84.5632 193.141 84.7472 193.033 84.9086C192.926 85.0699 192.782 85.2044 192.614 85.3016L189.947 86.8399C189.6 87.0376 189.321 86.946 189.321 86.6325C189.347 86.4403 189.417 86.2567 189.526 86.0961C189.634 85.9355 189.779 85.8022 189.947 85.7066Z" fill="#E0E0E0"/>
<path d="M51.4033 132.425C51.4033 132.425 51.4564 124.777 46.6341 119.043C42.3663 113.965 40.095 110.744 41.4405 109.259C42.7859 107.773 45.6793 107.417 49.5805 111.525C53.4817 115.634 53.7855 127.014 53.2454 129.589L51.4033 132.425Z" fill="#45AAFF"/>
<path opacity="0.2" d="M51.4033 132.425C51.4033 132.425 51.4564 124.777 46.6341 119.043C42.3663 113.965 40.095 110.744 41.4405 109.259C42.7859 107.773 45.6793 107.417 49.5805 111.525C53.4817 115.634 53.7855 127.014 53.2454 129.589L51.4033 132.425Z" fill="black"/>
<path d="M52.2133 124.203C52.1584 124.203 52.1051 124.185 52.0621 124.151C52.0191 124.116 51.9891 124.069 51.977 124.015C50.2892 116.121 45.9588 111.757 43.5236 109.857C43.4732 109.818 43.4403 109.76 43.4321 109.697C43.424 109.634 43.4413 109.57 43.4802 109.519C43.5201 109.468 43.5784 109.435 43.6425 109.427C43.7065 109.419 43.7712 109.437 43.8226 109.476C46.306 111.405 50.7281 115.87 52.4496 123.914C52.4567 123.944 52.4575 123.976 52.4521 124.007C52.4467 124.038 52.4351 124.068 52.418 124.095C52.4009 124.121 52.3787 124.144 52.3527 124.162C52.3266 124.18 52.2973 124.192 52.2664 124.198L52.2133 124.203Z" fill="white"/>
<path d="M51.22 135.265L49.2573 136.399C49.048 135.826 48.6949 135.318 48.2321 134.922C47.7693 134.526 47.2123 134.255 46.6147 134.137C44.4688 133.655 42.2409 133.737 40.7364 131.875C39.2318 130.014 41.0643 127.988 40.7364 126.619C40.4084 125.249 40.1963 124.854 37.5054 123.484C34.8146 122.115 33.7537 119.844 35.779 118.305C37.8044 116.767 41.0836 117.895 43.0704 119.27C44.8353 120.475 46.5135 120.794 48.4858 121.04C50.4581 121.285 53.6697 122.38 53.1779 126.961C52.8558 129.797 52.1986 132.584 51.22 135.265Z" fill="#45AAFF"/>
<path d="M43.6875 129.247C43.6361 129.247 43.5861 129.23 43.5446 129.2C43.5031 129.17 43.4721 129.127 43.456 129.078C43.4377 129.017 43.4442 128.951 43.4739 128.894C43.5036 128.837 43.5543 128.794 43.6151 128.774C43.7887 128.721 47.9552 127.4 49.725 128.818C49.7689 128.859 49.7957 128.916 49.8 128.976C49.8043 129.036 49.7858 129.096 49.7482 129.143C49.7106 129.191 49.6567 129.222 49.597 129.231C49.5373 129.241 49.4763 129.227 49.426 129.194C47.8636 127.94 43.8032 129.223 43.7598 129.237L43.6875 129.247Z" fill="white"/>
<path d="M51.437 134.899C51.3783 134.899 51.3216 134.878 51.2779 134.838C51.2342 134.799 51.2067 134.745 51.2007 134.687C50.1253 124.531 37.8912 119.713 37.7706 119.665C37.7407 119.654 37.7134 119.637 37.6901 119.615C37.6669 119.593 37.6482 119.567 37.6352 119.538C37.6222 119.509 37.6151 119.477 37.6143 119.445C37.6136 119.413 37.6192 119.382 37.6308 119.352C37.6545 119.293 37.6997 119.246 37.7572 119.22C37.8146 119.194 37.8798 119.191 37.9394 119.212C38.0696 119.265 50.5738 124.184 51.6781 134.643C51.6849 134.707 51.6664 134.77 51.6266 134.82C51.5869 134.869 51.5291 134.901 51.4659 134.908L51.437 134.899Z" fill="white"/>
<path d="M171.382 128.596C171.435 128.427 173.504 117.78 171.382 110.228C169.453 103.303 166.936 100.747 163.348 100.183C159.76 99.6189 158.203 102.204 160.107 105.705C162.012 109.206 166.598 113.85 167.722 121.671C168.204 124.893 168.571 127.689 168.571 127.689L171.382 128.596Z" fill="#45AAFF"/>
<path opacity="0.2" d="M171.382 128.596C171.435 128.427 173.504 117.78 171.382 110.228C169.453 103.303 166.936 100.747 163.348 100.183C159.76 99.6189 158.203 102.204 160.107 105.705C162.012 109.206 166.598 113.85 167.722 121.671C168.204 124.893 168.571 127.689 168.571 127.689L171.382 128.596Z" fill="black"/>
<path d="M170.171 122.481C170.14 122.48 170.109 122.472 170.08 122.458C170.052 122.444 170.026 122.424 170.005 122.401C169.984 122.377 169.968 122.349 169.957 122.319C169.947 122.289 169.943 122.258 169.945 122.226C170.427 113.604 167.611 105.907 162.562 102.131C162.511 102.093 162.477 102.036 162.468 101.973C162.459 101.909 162.475 101.845 162.514 101.794C162.553 101.744 162.61 101.711 162.673 101.702C162.736 101.693 162.8 101.708 162.851 101.746C168.025 105.603 170.928 113.473 170.422 122.255C170.418 122.318 170.39 122.377 170.343 122.419C170.296 122.462 170.235 122.484 170.171 122.481Z" fill="white"/>
<path d="M176.932 134.142C176.658 132.16 177.796 129.189 180.501 128.485C183.206 127.781 184.412 126.228 183.438 124.531C182.464 122.833 182.69 121.276 185.145 120.572C187.599 119.868 189.75 118.643 188.337 116.048C187.31 114.173 187.083 112.957 189.601 109.264C191.689 106.197 189.982 104.398 187.368 104.735C184.754 105.073 183.139 108.188 181.504 108.709C179.869 109.23 179.493 106.452 177.337 107.696C175.182 108.94 175.312 112.128 175.245 114.351C175.177 116.574 175.032 117.076 173.084 116.806C171.136 116.536 169.226 116.854 169.27 121.565C169.304 125.606 171.459 130.612 171.459 130.612L176.932 134.142Z" fill="#45AAFF"/>
<path d="M173.513 131.128H173.489C173.425 131.121 173.366 131.088 173.325 131.037C173.284 130.987 173.265 130.922 173.272 130.858C174.632 118.71 185.058 108.463 187.778 106.385C187.829 106.346 187.893 106.329 187.957 106.337C188.021 106.346 188.079 106.379 188.118 106.43C188.157 106.482 188.174 106.546 188.165 106.61C188.156 106.674 188.123 106.731 188.072 106.77C185.386 108.82 175.095 118.932 173.754 130.911C173.747 130.97 173.719 131.025 173.675 131.065C173.63 131.105 173.573 131.127 173.513 131.128Z" fill="white"/>
<path d="M178.268 118.141C178.219 118.141 178.172 118.126 178.131 118.099C178.091 118.071 178.06 118.032 178.042 117.987C178.021 117.926 178.024 117.86 178.051 117.801C178.078 117.743 178.127 117.697 178.186 117.674C182.073 116.227 186.481 116.912 186.669 116.941C186.731 116.951 186.787 116.986 186.824 117.038C186.861 117.089 186.876 117.153 186.866 117.215C186.855 117.278 186.82 117.333 186.769 117.371C186.718 117.408 186.654 117.425 186.592 117.418C186.548 117.418 182.121 116.724 178.355 118.127C178.327 118.136 178.298 118.141 178.268 118.141Z" fill="white"/>
<path d="M174.806 125.442C174.772 125.442 174.738 125.434 174.708 125.42C174.677 125.406 174.65 125.386 174.627 125.36C173.011 123.478 171.915 121.205 171.449 118.768C171.445 118.737 171.446 118.705 171.454 118.674C171.461 118.643 171.475 118.614 171.494 118.589C171.512 118.563 171.536 118.542 171.563 118.525C171.59 118.509 171.62 118.498 171.652 118.493C171.683 118.489 171.715 118.49 171.746 118.498C171.777 118.505 171.806 118.519 171.831 118.538C171.857 118.556 171.878 118.58 171.895 118.607C171.911 118.634 171.922 118.665 171.927 118.696C172.388 121.037 173.442 123.22 174.989 125.037C175.019 125.073 175.038 125.116 175.045 125.162C175.051 125.208 175.045 125.255 175.025 125.298C175.006 125.34 174.975 125.376 174.936 125.402C174.898 125.427 174.852 125.441 174.806 125.442Z" fill="white"/>
<path d="M51.22 60.6307V135.27L127.615 91.1655L127.61 23.311L70.8081 56.1074L68.8454 50.4509L51.22 60.6307Z" fill="#45AAFF"/>
<path opacity="0.7" d="M51.22 60.6307V135.27L127.615 91.1655L127.61 23.311L70.8081 56.1074L68.8454 50.4509L51.22 60.6307Z" fill="black"/>
<path d="M51.22 135.27L55.1357 67.4157L131.53 23.311L127.615 91.1655L51.22 135.27Z" fill="#E0E0E0"/>
<path d="M51.22 135.27L57.0935 68.5489L133.488 24.4394L127.615 91.1654L51.22 135.27Z" fill="#45AAFF"/>
<path opacity="0.7" d="M51.22 135.27L57.0935 68.5489L133.488 24.4394L127.615 91.1654L51.22 135.27Z" fill="black"/>
<path d="M62.9717 67.4157V142.06L139.366 97.9504V30.096L82.5598 62.8924L80.602 57.2359L62.9717 67.4157Z" fill="#45AAFF"/>
<path opacity="0.5" d="M62.9717 67.4157V142.06L139.366 97.9504V30.096L82.5598 62.8924L80.602 57.2359L62.9717 67.4157Z" fill="black"/>
<path d="M62.9717 142.06L66.8874 74.2007L143.282 30.096L139.366 97.9504L62.9717 142.06Z" fill="#E0E0E0"/>
<path d="M62.9717 142.06L68.8452 75.3338L145.24 31.2244L139.366 97.9504L62.9717 142.06Z" fill="#45AAFF"/>
<path opacity="0.5" d="M62.9717 142.06L68.8452 75.3338L145.24 31.2244L139.366 97.9504L62.9717 142.06Z" fill="black"/>
<path d="M127.595 165.81C113.881 157.891 101.16 149.284 95.3535 139.186L113.003 128.996L127.595 165.81Z" fill="#E0E0E0"/>
<path d="M76.6816 75.3339V149.973L153.076 105.869V38.0142L96.2698 70.8106L94.3119 65.1541L76.6816 75.3339Z" fill="#45AAFF"/>
<path opacity="0.2" d="M76.6816 75.3339V149.973L153.076 105.869V38.0142L96.2698 70.8106L94.3119 65.1541L76.6816 75.3339Z" fill="black"/>
<path d="M98.6906 97.4006C98.4977 97.4006 98.4688 97.1788 98.4688 97.0486V33.3944C98.4842 33.1475 98.5567 32.9075 98.6806 32.6933C98.8044 32.4791 98.9762 32.2965 99.1824 32.1599L154.321 0.332774C154.396 0.285677 154.482 0.25908 154.571 0.255615C154.764 0.255615 154.793 0.477442 154.793 0.607644V64.2619C154.778 64.5095 154.706 64.7503 154.582 64.9654C154.458 65.1804 154.286 65.3638 154.079 65.5012L98.9413 97.3283C98.8652 97.3731 98.7789 97.398 98.6906 97.4006Z" fill="white"/>
<path d="M154.542 0.477483C154.546 0.512738 154.546 0.548318 154.542 0.583574V64.2378C154.526 64.4431 154.465 64.6423 154.362 64.8208C154.26 64.9993 154.119 65.1527 153.949 65.2698L98.8111 97.0969L98.7147 97.1403C98.7082 97.1052 98.7082 97.0693 98.7147 97.0342V33.38C98.7312 33.1755 98.793 32.9773 98.8956 32.7996C98.9982 32.622 99.139 32.4694 99.3078 32.3528L154.446 0.525705C154.476 0.504432 154.511 0.48966 154.547 0.482306M154.576 7.70382e-05C154.445 0.00398656 154.317 0.0422279 154.205 0.110991L99.0667 31.9381C98.8243 32.0973 98.6226 32.3111 98.4777 32.5623C98.3328 32.8136 98.2488 33.0952 98.2324 33.3848V97.039C98.2324 97.4151 98.4205 97.6321 98.7147 97.6321C98.8461 97.6287 98.9742 97.5904 99.086 97.5212L154.224 65.6941C154.467 65.536 154.67 65.3225 154.815 65.071C154.96 64.8196 155.043 64.5373 155.058 64.2474V0.59322C155.058 0.217082 154.87 -0.00474525 154.576 7.70382e-05Z" fill="#45AAFF"/>
<path opacity="0.7" d="M154.542 0.477483C154.546 0.512738 154.546 0.548318 154.542 0.583574V64.2378C154.526 64.4431 154.465 64.6423 154.362 64.8208C154.26 64.9993 154.119 65.1527 153.949 65.2698L98.8111 97.0969L98.7147 97.1403C98.7082 97.1052 98.7082 97.0693 98.7147 97.0342V33.38C98.7312 33.1755 98.793 32.9773 98.8956 32.7996C98.9982 32.622 99.139 32.4694 99.3078 32.3528L154.446 0.525705C154.476 0.504432 154.511 0.48966 154.547 0.482306M154.576 7.70382e-05C154.445 0.00398656 154.317 0.0422279 154.205 0.110991L99.0667 31.9381C98.8243 32.0973 98.6226 32.3111 98.4777 32.5623C98.3328 32.8136 98.2488 33.0952 98.2324 33.3848V97.039C98.2324 97.4151 98.4205 97.6321 98.7147 97.6321C98.8461 97.6287 98.9742 97.5904 99.086 97.5212L154.224 65.6941C154.467 65.536 154.67 65.3225 154.815 65.071C154.96 64.8196 155.043 64.5373 155.058 64.2474V0.59322C155.058 0.217082 154.87 -0.00474525 154.576 7.70382e-05Z" fill="white"/>
<path d="M104.106 35.8104L123.694 24.5021V47.1187L104.106 58.4269V35.8104Z" fill="#45AAFF"/>
<path opacity="0.8" d="M104.106 35.8104L123.694 24.5021V47.1187L104.106 58.4269V35.8104Z" fill="white"/>
<path d="M120.757 30.1394V36.9388L120.14 37.2812V35.2028C120.14 34.0551 119.209 33.6645 118.052 34.33L109.753 39.1282C108.6 39.7936 107.665 41.2644 107.665 42.4121V44.4905L107.052 44.857V38.0721L120.757 30.1394Z" fill="white"/>
<path d="M116.986 47.4514C115.983 48.03 115.169 47.4224 115.169 46.0867V35.2028L112.646 36.5723V47.543C112.646 48.8739 111.831 50.4364 110.828 51.0006L109.006 52.0518V52.7752L118.8 47.1186V46.4001L116.986 47.4514Z" fill="white"/>
<path d="M127.595 23.3881C127.595 24.015 128.16 24.1935 128.849 23.798L147.907 12.7791C148.245 12.5875 148.534 12.3201 148.752 11.998C148.969 11.6759 149.109 11.3078 149.161 10.9225C149.161 10.3005 148.597 10.1172 147.907 10.5175L128.864 21.5123C128.52 21.7036 128.226 21.973 128.006 22.2989C127.785 22.6248 127.645 22.9979 127.595 23.3881Z" fill="#455A64"/>
<path d="M127.595 30.1394C127.595 30.7663 128.16 30.9495 128.849 30.5493L147.892 19.5544C148.231 19.3628 148.52 19.0954 148.737 18.7733C148.955 18.4512 149.095 18.0831 149.146 17.6979C149.146 17.0758 148.582 16.8925 147.892 17.2928L128.849 28.2876C128.512 28.4788 128.223 28.7454 128.005 29.0666C127.788 29.3878 127.648 29.755 127.595 30.1394Z" fill="#455A64"/>
<path d="M127.595 36.9388C127.595 37.5657 128.16 37.749 128.849 37.3487L147.892 26.3539C148.23 26.1627 148.519 25.8961 148.736 25.5749C148.954 25.2537 149.094 24.8865 149.146 24.5021C149.146 23.8752 148.582 23.692 147.892 24.0922L128.849 35.0871C128.512 35.2782 128.223 35.5449 128.005 35.8661C127.788 36.1873 127.648 36.5544 127.595 36.9388Z" fill="#455A64"/>
<path d="M127.595 43.7238C127.595 44.3507 128.16 44.5339 128.849 44.1337L147.892 33.1389C148.23 32.9477 148.519 32.6811 148.736 32.3599C148.954 32.0387 149.094 31.6715 149.146 31.2871C149.146 30.6602 148.582 30.477 147.892 30.8772L128.849 41.872C128.512 42.0632 128.223 42.3298 128.005 42.651C127.788 42.9723 127.648 43.3394 127.595 43.7238Z" fill="#455A64"/>
<path d="M104.106 64.0835C104.106 64.7104 104.665 64.8936 105.36 64.4934L147.907 39.8997C148.245 39.7091 148.534 39.4426 148.752 39.1213C148.969 38.8 149.109 38.4325 149.161 38.0479C149.161 37.421 148.596 37.2426 147.907 37.638L105.36 62.2317C105.021 62.422 104.732 62.6884 104.515 63.0098C104.297 63.3311 104.157 63.6987 104.106 64.0835Z" fill="#455A64"/>
<path d="M104.106 70.8685C104.106 71.4954 104.665 71.6786 105.36 71.2784L147.907 46.7136C148.245 46.522 148.534 46.2546 148.752 45.9325C148.969 45.6104 149.109 45.2423 149.161 44.857C149.161 44.235 148.596 44.0517 147.907 44.452L105.36 69.0167C105.021 69.207 104.732 69.4734 104.515 69.7948C104.297 70.1161 104.157 70.4837 104.106 70.8685Z" fill="#455A64"/>
<path d="M104.106 77.6582C104.106 78.2803 104.665 78.4635 105.36 78.0633L147.907 53.4985C148.245 53.3069 148.534 53.0395 148.752 52.7174C148.969 52.3953 149.109 52.0272 149.161 51.6419C149.161 51.0199 148.596 50.8366 147.907 51.2369L105.36 75.8016C105.021 75.9924 104.731 76.2595 104.514 76.5818C104.296 76.9041 104.156 77.2726 104.106 77.6582Z" fill="#455A64"/>
<path d="M76.6816 149.973L90.3914 90.037L166.786 45.9276L153.076 105.869L76.6816 149.973Z" fill="#45AAFF"/>
<path d="M95.3728 94.7291V139.186L113.003 129.006V84.5541L95.3728 94.7291Z" fill="#45AAFF"/>
<path opacity="0.2" d="M95.3728 94.7291V139.186L113.003 129.006V84.5541L95.3728 94.7291Z" fill="black"/>
<path d="M127.629 165.52C126.129 164.402 111.672 153.354 104.323 137.551C96.5013 120.75 96.511 101.152 96.511 93.7791V93.5476L148.92 63.2926C148.92 70.7334 148.92 90.3601 156.775 107.219C163.956 122.65 177.858 133.558 180.062 135.227L127.629 165.52Z" fill="white"/>
<path d="M148.678 63.7266C148.678 71.4808 148.828 90.7314 156.558 107.339C163.497 122.24 176.691 132.955 179.628 135.217L127.644 165.231C125.613 163.702 111.701 152.838 104.545 137.469C96.7326 120.716 96.7327 101.157 96.7327 93.7936V93.7019L148.659 63.7218M149.141 62.8875L96.2504 93.4271C96.2504 100.366 96.1058 120.528 104.087 137.672C111.942 154.497 127.595 165.81 127.595 165.81L180.501 135.265C180.501 135.265 164.828 123.952 156.997 107.127C149.011 89.984 149.161 69.822 149.161 62.8827L149.141 62.8875Z" fill="#45AAFF"/>
<path opacity="0.7" d="M148.678 63.7266C148.678 71.4808 148.828 90.7314 156.558 107.339C163.497 122.24 176.691 132.955 179.628 135.217L127.644 165.231C125.613 163.702 111.701 152.838 104.545 137.469C96.7326 120.716 96.7327 101.157 96.7327 93.7936V93.7019L148.659 63.7218M149.141 62.8875L96.2504 93.4271C96.2504 100.366 96.1058 120.528 104.087 137.672C111.942 154.497 127.595 165.81 127.595 165.81L180.501 135.265C180.501 135.265 164.828 123.952 156.997 107.127C149.011 89.984 149.161 69.822 149.161 62.8827L149.141 62.8875Z" fill="white"/>
<path d="M143.176 73.1301L126.453 82.7747C126.118 82.9589 125.832 83.2213 125.621 83.5395C125.409 83.8577 125.278 84.2224 125.237 84.6023C125.261 85.2148 125.845 85.3884 126.535 84.9881L143.263 75.3435C143.594 75.161 143.876 74.9021 144.087 74.5884C144.297 74.2747 144.43 73.9153 144.473 73.54C144.444 72.9035 143.871 72.7299 143.176 73.1301Z" fill="#455A64"/>
<path d="M143.533 79.7125L126.809 89.3571C126.479 89.535 126.198 89.7936 125.994 90.1089C125.79 90.4242 125.669 90.786 125.642 91.1606C125.695 91.7538 126.303 91.9129 126.993 91.5127L143.721 81.8681C144.05 81.6909 144.329 81.4328 144.53 81.1181C144.732 80.8034 144.85 80.4424 144.874 80.0694C144.825 79.4714 144.227 79.3267 143.533 79.7125Z" fill="#455A64"/>
<path d="M144.203 86.1117L127.475 95.7563C126.785 96.1565 126.284 96.9522 126.366 97.5261C126.448 98.0999 127.079 98.2494 127.774 97.8492L144.502 88.2046C145.192 87.8043 145.684 87.0135 145.597 86.4396C145.51 85.8658 144.893 85.7115 144.203 86.1117Z" fill="#455A64"/>
<path d="M145.206 92.318L128.478 101.963C127.788 102.363 127.311 103.144 127.426 103.703C127.542 104.263 128.198 104.388 128.873 103.988L145.597 94.3434C146.291 93.9431 146.754 93.1667 146.638 92.6074C146.523 92.048 145.92 91.9178 145.206 92.318Z" fill="#455A64"/>
<path d="M146.566 98.3169L129.838 107.961C129.148 108.362 128.7 109.124 128.873 109.659C129.047 110.194 129.707 110.315 130.397 109.914L147.126 100.27C147.82 99.8696 148.254 99.1125 148.09 98.5724C147.926 98.0324 147.256 97.9166 146.566 98.3169Z" fill="#455A64"/>
<path d="M148.331 104.099L107.563 127.636C106.874 128.037 106.454 128.779 106.642 129.295C106.83 129.811 107.549 129.908 108.239 129.508L149.006 105.97C149.701 105.57 150.101 104.832 149.913 104.311C149.725 103.79 148.997 103.699 148.331 104.099Z" fill="#455A64"/>
<path d="M150.477 109.62L109.714 133.158C109.02 133.558 108.639 134.282 108.871 134.773C109.102 135.265 109.835 135.342 110.539 134.942L151.307 111.405C152.001 111.004 152.372 110.281 152.141 109.789C151.909 109.297 151.172 109.225 150.477 109.62Z" fill="#455A64"/>
<path d="M153.153 114.881L112.386 138.419C111.691 138.819 111.349 139.523 111.624 139.991C111.899 140.459 112.685 140.507 113.379 140.107L154.118 116.569C154.807 116.174 155.14 115.475 154.865 115.007C154.59 114.539 153.828 114.481 153.153 114.881Z" fill="#455A64"/>
<path d="M156.273 119.858L115.511 143.391C114.816 143.791 114.508 144.481 114.821 144.919C115.134 145.358 115.959 145.402 116.653 144.997L157.416 121.459C158.111 121.059 158.41 120.379 158.096 119.935C157.783 119.492 156.968 119.458 156.273 119.858Z" fill="#455A64"/>
<path d="M159.832 124.589L119.065 148.122C118.375 148.522 118.1 149.192 118.448 149.612C118.795 150.031 119.648 150.05 120.343 149.65L161.11 126.103C161.8 125.703 162.075 125.042 161.718 124.623C161.361 124.203 160.527 124.174 159.832 124.589Z" fill="#455A64"/>
<path d="M163.763 129.093L123.009 152.626C122.315 153.026 122.045 153.682 122.45 154.072C122.855 154.463 123.713 154.473 124.403 154.072L165.171 130.535C165.865 130.134 166.106 129.488 165.72 129.088C165.335 128.688 164.467 128.697 163.763 129.093Z" fill="#455A64"/>
<path d="M168.103 133.399L127.335 156.932C126.645 157.332 126.419 157.973 126.853 158.354C127.287 158.735 128.174 158.721 128.868 158.321L169.602 134.783C170.292 134.383 170.509 133.756 170.085 133.37C169.66 132.984 168.778 132.999 168.103 133.399Z" fill="#455A64"/>
<path d="M120.391 86.2902L101.16 97.3814C101.372 104.35 102.168 114.399 105.08 124.521L124.316 113.43C121.399 103.308 120.603 93.2535 120.391 86.2902Z" fill="#45AAFF"/>
<path opacity="0.8" d="M120.391 86.2902L101.16 97.3814C101.372 104.35 102.168 114.399 105.08 124.521L124.316 113.43C121.399 103.308 120.603 93.2535 120.391 86.2902Z" fill="white"/>
<path d="M109.001 95.8479C109.027 95.3981 108.957 94.9479 108.795 94.5273C108.634 94.1066 108.385 93.725 108.065 93.4078L101.16 97.391C101.218 99.2332 101.314 101.292 101.483 103.511C102.381 103.614 103.29 103.446 104.092 103.028C106.807 101.784 109.001 98.558 109.001 95.8479Z" fill="#45AAFF"/>
<path opacity="0.6" d="M109.001 95.8479C109.027 95.3981 108.957 94.9479 108.795 94.5273C108.634 94.1066 108.385 93.725 108.065 93.4078L101.16 97.391C101.218 99.2332 101.314 101.292 101.483 103.511C102.381 103.614 103.29 103.446 104.092 103.028C106.807 101.784 109.001 98.558 109.001 95.8479Z" fill="white"/>
<path d="M122.682 106.775C121.399 105.16 118.79 100.169 117.676 97.9938C117.632 97.9078 117.564 97.837 117.479 97.7904C117.395 97.7438 117.298 97.7236 117.202 97.7324C117.106 97.7413 117.015 97.7787 116.94 97.8399C116.866 97.9011 116.811 97.9833 116.784 98.0758C115.579 102.195 114.879 106.446 114.701 110.734C113.095 109.459 111.714 107.924 110.616 106.192C110.569 106.125 110.504 106.072 110.429 106.041C110.353 106.009 110.27 106 110.19 106.015C110.109 106.029 110.034 106.066 109.974 106.121C109.914 106.176 109.871 106.248 109.85 106.327C107.747 114.423 108.803 122.39 108.803 122.39L124.316 113.43C123.67 111.192 123.135 108.965 122.682 106.775Z" fill="#45AAFF"/>
<path opacity="0.6" d="M122.682 106.775C121.399 105.16 118.79 100.169 117.676 97.9938C117.632 97.9078 117.564 97.837 117.479 97.7904C117.395 97.7438 117.298 97.7236 117.202 97.7324C117.106 97.7413 117.015 97.7787 116.94 97.8399C116.866 97.9011 116.811 97.9833 116.784 98.0758C115.579 102.195 114.879 106.446 114.701 110.734C113.095 109.459 111.714 107.924 110.616 106.192C110.569 106.125 110.504 106.072 110.429 106.041C110.353 106.009 110.27 106 110.19 106.015C110.109 106.029 110.034 106.066 109.974 106.121C109.914 106.176 109.871 106.248 109.85 106.327C107.747 114.423 108.803 122.39 108.803 122.39L124.316 113.43C123.67 111.192 123.135 108.965 122.682 106.775Z" fill="white"/>
</svg>
