<svg width="180" height="180" viewBox="0 0 180 180" fill="none" xmlns="http://www.w3.org/2000/svg">
<path d="M148.824 46.901L152.741 49.3305L153.485 48.1325C153.593 47.9603 153.746 47.8214 153.928 47.7313C154.11 47.6413 154.314 47.6037 154.516 47.6228C154.747 47.6414 154.974 47.6489 155.204 47.6451C155.407 47.6379 155.608 47.6873 155.784 47.7878C155.96 47.8884 156.105 48.0361 156.201 48.2144L156.867 49.4607L160.93 47.2805L160.264 46.0379C160.172 45.858 160.13 45.6564 160.143 45.4546C160.156 45.2528 160.224 45.0583 160.339 44.8919C160.469 44.7022 160.592 44.5199 160.711 44.3041C160.806 44.1248 160.949 43.9757 161.125 43.8737C161.3 43.7718 161.501 43.7211 161.704 43.7274L163.114 43.7721L163.259 39.1623L161.842 39.1214C161.639 39.1135 161.442 39.0491 161.274 38.9353C161.105 38.8216 160.972 38.6631 160.889 38.4778C160.841 38.3773 160.789 38.2768 160.737 38.1764C160.685 38.0759 160.625 37.9755 160.566 37.8787C160.463 37.706 160.408 37.5087 160.408 37.3076C160.408 37.1066 160.463 36.9093 160.566 36.7365L161.31 35.5274L157.392 33.0979L156.648 34.2996C156.54 34.4718 156.385 34.6103 156.203 34.6997C156.02 34.7891 155.816 34.8258 155.614 34.8056C155.387 34.787 155.16 34.7795 154.929 34.7833C154.727 34.7866 154.528 34.735 154.353 34.6341C154.178 34.5332 154.034 34.3867 153.936 34.2103L153.266 32.9677L149.203 35.1479L149.869 36.3905C149.962 36.57 150.005 36.7715 149.992 36.9733C149.98 37.1751 149.913 37.3698 149.798 37.5365C149.662 37.7233 149.538 37.9184 149.426 38.1206C149.33 38.2999 149.186 38.4489 149.01 38.5508C148.834 38.6527 148.633 38.7034 148.429 38.6973L147.015 38.6563L146.874 43.2624L148.288 43.307C148.49 43.3174 148.685 43.3825 148.853 43.4952C149.02 43.6079 149.154 43.764 149.24 43.9469C149.289 44.0511 149.337 44.1516 149.393 44.2557C149.449 44.3599 149.501 44.4529 149.56 44.5497C149.667 44.7224 149.723 44.9214 149.723 45.1245C149.723 45.3275 149.667 45.5265 149.56 45.6993L148.824 46.901ZM151.733 42.9982C151.381 42.3397 151.232 41.5915 151.304 40.8482C151.377 40.1049 151.669 39.3999 152.142 38.8224C152.616 38.2448 153.25 37.8206 153.965 37.6035C154.679 37.3863 155.442 37.3859 156.157 37.6023C156.872 37.8188 157.506 38.2423 157.981 38.8193C158.455 39.3964 158.747 40.1011 158.821 40.8443C158.894 41.5875 158.746 42.3359 158.394 42.9947C158.043 43.6536 157.503 44.1934 156.845 44.5459C156.408 44.78 155.929 44.9257 155.435 44.9746C154.942 45.0235 154.443 44.9747 153.968 44.831C153.494 44.6872 153.052 44.4514 152.668 44.1369C152.285 43.8225 151.967 43.4355 151.733 42.9982Z" fill="#EBEBEB"/>
<path d="M144.991 65.3139L146.606 68.1118L147.462 67.617C147.585 67.5431 147.726 67.5063 147.869 67.5109C148.013 67.5155 148.151 67.5614 148.269 67.643C148.403 67.7315 148.543 67.8123 148.686 67.8848C148.814 67.946 148.922 68.0426 148.998 68.1632C149.073 68.2839 149.112 68.4235 149.11 68.5657V69.5554H152.343V68.5657C152.341 68.4235 152.381 68.2839 152.456 68.1632C152.531 68.0426 152.639 67.946 152.767 67.8848C152.911 67.8123 153.05 67.7315 153.184 67.643C153.302 67.5614 153.441 67.5155 153.584 67.5109C153.727 67.5063 153.869 67.5431 153.991 67.617L154.847 68.1118L156.462 65.3139L155.602 64.8154C155.48 64.7432 155.381 64.6385 155.315 64.5129C155.25 64.3874 155.22 64.2461 155.23 64.1048C155.23 64.0266 155.23 63.9448 155.23 63.8667C155.23 63.7885 155.23 63.7067 155.23 63.6285C155.221 63.4873 155.25 63.3461 155.316 63.2207C155.382 63.0952 155.481 62.9905 155.602 62.9179L156.466 62.4231L154.851 59.6253L153.991 60.1201C153.868 60.1905 153.727 60.225 153.585 60.2197C153.443 60.2145 153.306 60.1697 153.188 60.0903C153.054 60.0048 152.912 59.9229 152.771 59.8485C152.643 59.7874 152.535 59.6908 152.459 59.5701C152.384 59.4495 152.345 59.3098 152.347 59.1676V58.178H149.114V59.1676C149.116 59.3098 149.076 59.4495 149.001 59.5701C148.926 59.6908 148.818 59.7874 148.69 59.8485C148.548 59.9229 148.411 60.0048 148.277 60.0903C148.158 60.1696 148.02 60.2143 147.877 60.2196C147.735 60.2248 147.593 60.1904 147.469 60.1201L146.61 59.6253L144.995 62.4231L145.855 62.9179C145.977 62.9901 146.076 63.0949 146.142 63.2204C146.207 63.3459 146.237 63.4872 146.227 63.6285C146.227 63.7067 146.227 63.7848 146.227 63.8667C146.227 63.9485 146.227 64.0266 146.227 64.1048C146.236 64.2465 146.207 64.3882 146.141 64.5142C146.075 64.6402 145.976 64.7457 145.855 64.8191L144.991 65.3139ZM148.079 63.8667C148.079 63.3426 148.235 62.8303 148.526 62.3946C148.817 61.9589 149.231 61.6193 149.716 61.4189C150.2 61.2186 150.733 61.1663 151.247 61.2688C151.761 61.3713 152.233 61.624 152.603 61.9948C152.973 62.3657 153.225 62.838 153.327 63.3521C153.429 63.8663 153.376 64.399 153.175 64.883C152.974 65.367 152.634 65.7804 152.198 66.071C151.761 66.3617 151.249 66.5164 150.725 66.5157C150.377 66.5157 150.033 66.4471 149.712 66.314C149.39 66.1808 149.099 65.9856 148.853 65.7396C148.607 65.4935 148.413 65.2015 148.28 64.8801C148.147 64.5587 148.079 64.2144 148.079 63.8667Z" fill="#EBEBEB"/>
<path d="M16.0603 97.2993L17.675 100.097L18.5307 99.6023C18.6542 99.5319 18.7948 99.4974 18.9368 99.5027C19.0788 99.5079 19.2165 99.5527 19.3344 99.6321C19.472 99.7176 19.6097 99.7995 19.7548 99.8739C19.8815 99.9371 19.9882 100.034 20.063 100.154C20.1379 100.275 20.178 100.413 20.1789 100.555V101.533H23.4009V100.544C23.3995 100.401 23.4391 100.261 23.5149 100.14C23.5908 100.02 23.6997 99.9233 23.8288 99.8627C23.9701 99.7883 24.1115 99.7065 24.2455 99.6209C24.3633 99.5416 24.501 99.4968 24.643 99.4915C24.785 99.4863 24.9257 99.5208 25.0491 99.5911L25.9085 100.086L27.5195 97.2881L26.6601 96.7933C26.5382 96.7211 26.4388 96.6164 26.3731 96.4909C26.3074 96.3653 26.2779 96.224 26.288 96.0827C26.288 96.0046 26.288 95.9227 26.288 95.8446C26.288 95.7664 26.288 95.6846 26.288 95.6065C26.2779 95.4651 26.3074 95.3238 26.3731 95.1983C26.4388 95.0728 26.5382 94.968 26.6601 94.8958L27.5195 94.3973L25.9085 91.5994L25.0491 92.0943C24.9263 92.1681 24.7848 92.205 24.6416 92.2004C24.4984 92.1957 24.3595 92.1499 24.2417 92.0682C24.1076 91.9797 23.9685 91.899 23.825 91.8264C23.7 91.764 23.5944 91.6687 23.5197 91.5506C23.4449 91.4326 23.4038 91.2964 23.4009 91.1567V90.1671H20.1789V91.1567C20.178 91.2983 20.1379 91.4369 20.063 91.5571C19.9882 91.6772 19.8815 91.7743 19.7548 91.8376C19.6114 91.9101 19.4722 91.9909 19.3381 92.0794C19.2207 92.1603 19.0826 92.2057 18.9401 92.2103C18.7976 92.2149 18.6568 92.1785 18.5345 92.1054L17.675 91.6106L16.0603 94.4085L16.9197 94.907C17.0402 94.9799 17.1385 95.0842 17.204 95.2087C17.2696 95.3333 17.2999 95.4734 17.2918 95.6139C17.2918 95.6958 17.2918 95.7739 17.2918 95.8557C17.2918 95.9376 17.2918 96.0157 17.2918 96.0939C17.3015 96.2351 17.2718 96.3763 17.2062 96.5017C17.1405 96.6271 17.0413 96.7319 16.9197 96.8045L16.0603 97.2993ZM19.1483 95.8557C19.1483 95.3325 19.3035 94.8211 19.5942 94.3861C19.8848 93.9511 20.298 93.612 20.7813 93.4118C21.2647 93.2116 21.7966 93.1592 22.3097 93.2613C22.8228 93.3633 23.2942 93.6153 23.6641 93.9852C24.0341 94.3552 24.286 94.8265 24.3881 95.3397C24.4902 95.8528 24.4378 96.3847 24.2376 96.868C24.0374 97.3514 23.6983 97.7646 23.2633 98.0552C22.8283 98.3459 22.3168 98.501 21.7936 98.501C21.4462 98.501 21.1023 98.4326 20.7813 98.2997C20.4604 98.1667 20.1688 97.9719 19.9231 97.7262C19.6775 97.4806 19.4826 97.189 19.3497 96.868C19.2168 96.5471 19.1483 96.2031 19.1483 95.8557Z" fill="#EBEBEB"/>
<path d="M63.6906 10.1199H14.6726V85.282H63.6906V10.1199Z" fill="#EBEBEB"/>
<path d="M38.045 13.1298H17.344V46.5625H38.045V13.1298Z" fill="white"/>
<path d="M61.0227 13.1298H40.3254V46.5625H61.0227V13.1298Z" fill="white"/>
<path d="M38.045 48.8394H17.344V82.272H38.045V48.8394Z" fill="white"/>
<path d="M61.0227 48.8394H40.3254V82.272H61.0227V48.8394Z" fill="white"/>
<path d="M29.8785 13.1298L17.344 25.6643V18.2679L22.4858 13.1298H29.8785Z" fill="#EBEBEB"/>
<path d="M17.344 81.0368L38.045 60.3358V67.7248L23.5015 82.272H17.344V81.0368Z" fill="#EBEBEB"/>
<path d="M56.9342 48.8394L40.322 65.4515V58.0588L49.5415 48.8394H56.9342Z" fill="#EBEBEB"/>
<path d="M61.0227 37.3616V44.7506L59.2108 46.5625H51.8181L61.0227 37.3616Z" fill="#EBEBEB"/>
<path d="M61.0229 74.5259V81.9186L60.6695 82.2721H53.2805L61.0229 74.5259Z" fill="#EBEBEB"/>
<path d="M18.5308 48.8394H22.2253L17.344 53.7207V50.0225L18.5308 48.8394Z" fill="#EBEBEB"/>
<path d="M20.8076 46.5625L38.0448 29.3215V33.016L24.5021 46.5625H20.8076Z" fill="#EBEBEB"/>
<path d="M57.935 13.1298L40.322 30.7391V27.0446L54.2405 13.1298H57.935Z" fill="#EBEBEB"/>
<path d="M35.9541 13.1298L17.344 31.7399V30.8135L35.0277 13.1298H35.9541Z" fill="#EBEBEB"/>
<path d="M28.9148 82.2721L38.045 73.1382V74.0646L29.8412 82.2721H28.9148Z" fill="#EBEBEB"/>
<path d="M61.023 50.1677V51.0866L40.322 71.7876V70.8612L61.023 50.1677Z" fill="#EBEBEB"/>
<path d="M123.721 10.1199H74.7034V85.282H123.721V10.1199Z" fill="#EBEBEB"/>
<path d="M98.0755 13.1298H77.3745V46.5625H98.0755V13.1298Z" fill="white"/>
<path d="M121.05 13.1298H100.353V46.5625H121.05V13.1298Z" fill="white"/>
<path d="M98.0755 48.8394H77.3745V82.272H98.0755V48.8394Z" fill="white"/>
<path d="M121.05 48.8394H100.353V82.272H121.05V48.8394Z" fill="white"/>
<path d="M77.3745 48.8394H79.3241L77.3745 50.7889V48.8394Z" fill="#EBEBEB"/>
<path d="M77.3745 43.3963L98.0755 22.6915V30.0879L81.601 46.5624H77.3745V43.3963Z" fill="#EBEBEB"/>
<path d="M115.034 13.1298L100.353 27.811V20.4146L107.637 13.1298H115.034Z" fill="#EBEBEB"/>
<path d="M121.05 59.6959V67.0885L105.87 82.272H100.353V80.3932L121.05 59.6959Z" fill="#EBEBEB"/>
<path d="M98.0755 13.1298V13.8144L77.3745 34.5154V30.8172L95.0582 13.1298H98.0755Z" fill="#EBEBEB"/>
<path d="M89.8606 82.2721L98.0755 74.0572V77.7517L93.5551 82.2721H89.8606Z" fill="#EBEBEB"/>
<path d="M121.05 51.0792V54.7774L100.353 75.4747V71.7802L121.05 51.0792Z" fill="#EBEBEB"/>
<path d="M81.8391 48.8394H82.7656L77.3745 54.2304V53.3077L81.8391 48.8394Z" fill="#EBEBEB"/>
<path d="M84.1162 46.5625L98.0756 32.6031V33.5295L85.0426 46.5625H84.1162Z" fill="#EBEBEB"/>
<path d="M118.475 13.1298L100.353 31.2525V30.3261L117.549 13.1298H118.475Z" fill="#EBEBEB"/>
<path d="M77.3745 81.5763L98.0755 60.8753V61.798L77.6015 82.2721H77.3745V81.5763Z" fill="#EBEBEB"/>
<path d="M111.034 48.8394L100.353 59.521V58.5983L110.108 48.8394H111.034Z" fill="#EBEBEB"/>
<path d="M121.05 37.8973V38.8237L113.311 46.5624H112.385L121.05 37.8973Z" fill="#EBEBEB"/>
<path d="M89.9984 159.763C120.196 159.763 144.675 156.463 144.675 152.393C144.675 148.322 120.196 145.022 89.9984 145.022C59.8012 145.022 35.3215 148.322 35.3215 152.393C35.3215 156.463 59.8012 159.763 89.9984 159.763Z" fill="#EBEBEB"/>
<path d="M155.063 155.529C163.541 155.529 170.414 154.168 170.414 152.49C170.414 150.811 163.541 149.45 155.063 149.45C146.585 149.45 139.712 150.811 139.712 152.49C139.712 154.168 146.585 155.529 155.063 155.529Z" fill="#EBEBEB"/>
<path d="M59.6685 166.84C91.3164 166.84 116.972 163.835 116.972 160.128C116.972 156.421 91.3164 153.416 59.6685 153.416C28.0207 153.416 2.36499 156.421 2.36499 160.128C2.36499 163.835 28.0207 166.84 59.6685 166.84Z" fill="#EBEBEB"/>
<path d="M9.41187 143.385L29.5585 143.296L49.7052 143.263L89.9985 143.199L130.292 143.263L150.438 143.296L170.585 143.385L150.438 143.478L130.292 143.508L89.9985 143.571L49.7052 143.508L29.5585 143.478L9.41187 143.385Z" fill="#263238"/>
<path d="M50.066 138.08L44.7605 152.393H50.9887L62.5223 144.535L50.066 138.08Z" fill="#59B3FF"/>
<path opacity="0.1" d="M50.066 138.08L44.7605 152.393H50.9887L62.5223 144.535L50.066 138.08Z" fill="black"/>
<path d="M129.931 138.08L135.236 152.393H129.008L117.474 144.535L129.931 138.08Z" fill="#59B3FF"/>
<path opacity="0.1" d="M129.931 138.08L135.236 152.393H129.008L117.474 144.535L129.931 138.08Z" fill="black"/>
<path d="M135 135C159.853 110.147 159.853 69.8528 135 45C110.147 20.1472 69.8528 20.1472 45 45C20.1472 69.8528 20.1472 110.147 45 135C69.8528 159.853 110.147 159.853 135 135Z" fill="#59B3FF"/>
<path opacity="0.1" d="M89.2245 149.681C122.763 149.681 149.951 122.492 149.951 88.9542C149.951 55.4159 122.763 28.2277 89.2245 28.2277C55.6862 28.2277 28.498 55.4159 28.498 88.9542C28.498 122.492 55.6862 149.681 89.2245 149.681Z" fill="black"/>
<path d="M130.225 129.958C152.443 107.74 152.443 71.7193 130.225 49.5021C108.008 27.285 71.9871 27.285 49.7699 49.5021C27.5528 71.7193 27.5528 107.74 49.7699 129.958C71.9871 152.175 108.008 152.175 130.225 129.958Z" fill="white"/>
<path d="M145.591 77.6437C119.685 93.3406 77.1068 119.09 53.3215 133.206C46.5924 127.533 41.2703 120.377 37.7734 112.3L116.474 39.3558C123.827 43.2269 130.243 48.6602 135.273 55.2746C140.303 61.8889 143.825 69.5239 145.591 77.6437Z" fill="#EBEBEB"/>
<path d="M146.84 91.7036C146.634 98.0335 145.362 104.283 143.079 110.191L72.1397 143.746C69.0464 142.724 66.0476 141.436 63.177 139.896C84.5961 127.51 123.766 104.975 146.84 91.7036Z" fill="#EBEBEB"/>
<path d="M90.5453 36.9672H89.4478V45.5913H90.5453V36.9672Z" fill="#C7C7C7"/>
<path d="M64.0966 43.7542L63.1428 44.3048L67.4549 51.7736L68.4086 51.2229L64.0966 43.7542Z" fill="#C7C7C7"/>
<path d="M44.5783 62.8648L44.0295 63.8153L51.4983 68.1274L52.0471 67.1769L44.5783 62.8648Z" fill="#C7C7C7"/>
<path d="M45.8617 89.1774H37.2375V90.2749H45.8617V89.1774Z" fill="#C7C7C7"/>
<path d="M51.492 111.324L44.0232 115.636L44.572 116.586L52.0407 112.274L51.492 111.324Z" fill="#C7C7C7"/>
<path d="M67.4522 127.684L63.144 135.155L64.0981 135.706L68.4062 128.235L67.4522 127.684Z" fill="#C7C7C7"/>
<path d="M90.5453 133.865H89.4478V142.489H90.5453V133.865Z" fill="#C7C7C7"/>
<path d="M112.547 127.675L111.593 128.225L115.905 135.694L116.859 135.143L112.547 127.675Z" fill="#C7C7C7"/>
<path d="M128.494 111.313L127.945 112.263L135.414 116.575L135.963 115.625L128.494 111.313Z" fill="#C7C7C7"/>
<path d="M142.759 89.1774H134.135V90.2749H142.759V89.1774Z" fill="#C7C7C7"/>
<path d="M135.416 62.881L127.948 67.1931L128.496 68.1436L135.965 63.8315L135.416 62.881Z" fill="#C7C7C7"/>
<path d="M115.905 43.7658L111.597 51.2368L112.551 51.787L116.859 44.3159L115.905 43.7658Z" fill="#C7C7C7"/>
<path d="M142.331 90.461L87.1521 92.0013L87.2191 86.6065L142.346 88.9951L142.331 90.461Z" fill="#59B3FF"/>
<path d="M90.3778 50.9266L92.7664 92.9165L87.3679 92.8458L88.9157 50.908L90.3778 50.9266Z" fill="#263238"/>
<path d="M89.9984 91.5697C91.0155 91.5697 91.8401 90.7451 91.8401 89.728C91.8401 88.7109 91.0155 87.8864 89.9984 87.8864C88.9813 87.8864 88.1567 88.7109 88.1567 89.728C88.1567 90.7451 88.9813 91.5697 89.9984 91.5697Z" fill="#59B3FF"/>
<path d="M140.795 89.6945C140.59 89.0769 129.633 74.6078 128.889 74.3324C128.803 74.2952 123.911 77.7777 123.911 77.7777C123.706 78.0455 114.405 76.0811 114.405 76.0811L114.312 87.3022L131.259 86.9302C131.259 86.9302 133.547 88.277 135.642 89.3745C136.532 89.8753 137.451 90.3214 138.395 90.7102C139.254 90.9409 141.003 90.3084 140.795 89.6945Z" fill="#DD6A57"/>
<path d="M138.406 90.7214C137.461 90.335 136.541 89.8889 135.653 89.3857C133.558 88.2695 131.27 86.9413 131.27 86.9413L127.498 87.0232L121.586 77.4949C122.884 77.7256 123.848 77.8669 123.915 77.7777C123.915 77.7777 128.807 74.2915 128.893 74.3324C129.637 74.6078 140.59 89.0732 140.799 89.6945C141.007 90.3158 139.254 90.9409 138.406 90.7214Z" fill="white"/>
<path d="M140.895 89.7131C140.679 89.0806 129.682 74.6227 128.911 74.3362C128.621 74.2246 126.229 75.7053 123.915 77.7777L131.014 87.079C131.014 87.079 137.565 90.5502 138.455 90.7735C139.344 90.9967 141.111 90.3456 140.895 89.7131Z" fill="#A6A6A6"/>
<path d="M140.158 89.9438C138.254 87.5664 130.801 77.7963 129.101 75.2998C129.101 75.2701 129.101 75.2775 129.101 75.2998C131.036 77.614 138.402 87.4474 140.181 89.9252C140.225 89.9662 140.199 89.9996 140.158 89.9438Z" fill="#263238"/>
<path d="M137.216 90.2489C137.003 89.9854 136.849 89.6806 136.761 89.3539C136.673 89.0272 136.654 88.6857 136.706 88.3514C136.791 87.7467 137.107 87.1984 137.588 86.8223C137.588 86.8223 137.621 86.8223 137.61 86.852C137.191 87.2981 136.927 87.8685 136.86 88.4771C136.793 89.0858 136.926 89.6998 137.238 90.2265C137.241 90.2273 137.244 90.2289 137.247 90.2312C137.249 90.2335 137.251 90.2364 137.252 90.2396C137.253 90.2427 137.253 90.2461 137.252 90.2493C137.251 90.2525 137.249 90.2555 137.247 90.2578C137.245 90.2602 137.242 90.2618 137.238 90.2627C137.235 90.2635 137.232 90.2635 137.229 90.2626C137.225 90.2616 137.223 90.2599 137.22 90.2575C137.218 90.2551 137.216 90.2521 137.216 90.2489Z" fill="#263238"/>
<path d="M131.836 87.6668C131.092 86.7069 130.571 85.3192 130.906 84.1137C130.906 84.0653 130.987 84.0877 130.991 84.1137C131.192 85.3013 131.52 86.4638 131.97 87.5812C131.981 87.599 131.985 87.6205 131.98 87.6411C131.976 87.6617 131.963 87.6797 131.945 87.691C131.928 87.7023 131.906 87.7062 131.886 87.7016C131.865 87.6971 131.847 87.6846 131.836 87.6668Z" fill="#263238"/>
<path d="M132.699 88.1914C131.955 87.2316 131.434 85.8475 131.769 84.6421C131.769 84.5937 131.847 84.6123 131.854 84.6421C132.056 85.8279 132.382 86.989 132.829 88.1059C132.84 88.1231 132.844 88.1442 132.84 88.1644C132.836 88.1847 132.824 88.2024 132.807 88.2138C132.789 88.2251 132.768 88.2291 132.748 88.225C132.728 88.2208 132.71 88.2087 132.699 88.1914Z" fill="#263238"/>
<path d="M133.558 88.7198C132.814 87.7599 132.293 86.3721 132.628 85.1667C132.628 85.122 132.71 85.1406 132.718 85.1667C132.916 86.3533 133.242 87.5148 133.692 88.6305C133.704 88.6482 133.708 88.67 133.704 88.6909C133.7 88.7118 133.688 88.7302 133.67 88.7421C133.652 88.7539 133.631 88.7582 133.61 88.754C133.589 88.7499 133.57 88.7375 133.558 88.7198Z" fill="#263238"/>
<path d="M134.421 89.2555C133.677 88.2956 133.156 86.9115 133.491 85.7061C133.491 85.6577 133.569 85.6763 133.577 85.7061C133.778 86.8919 134.105 88.053 134.552 89.1699C134.563 89.1872 134.567 89.2082 134.563 89.2285C134.559 89.2487 134.547 89.2664 134.529 89.2778C134.512 89.2891 134.491 89.2932 134.471 89.289C134.451 89.2848 134.433 89.2727 134.421 89.2555Z" fill="#263238"/>
<path d="M127.271 77.6698C126.445 76.5759 128.137 75.2924 128.967 76.3862C129.797 77.48 128.097 78.7599 127.271 77.6698Z" fill="#263238"/>
<path d="M131.408 89.5233C131.687 88.4853 131.504 87.3654 131.456 86.3125C131.453 86.2891 131.445 86.2668 131.431 86.2473C131.418 86.2279 131.4 86.2118 131.38 86.2006C131.359 86.1893 131.336 86.1831 131.312 86.1825C131.289 86.1819 131.265 86.187 131.244 86.1972C131.241 86.1933 131.238 86.1902 131.233 86.188C131.229 86.1859 131.225 86.1848 131.22 86.1848C131.215 86.1848 131.21 86.1859 131.206 86.188C131.202 86.1902 131.198 86.1933 131.196 86.1972C130.36 86.9458 129.736 87.9001 129.384 88.9652C129.19 89.5903 129.265 90.513 130.046 90.6953C130.827 90.8776 131.248 90.1298 131.408 89.5233ZM130.638 90.1781C129.521 90.885 129.596 89.3187 129.756 88.8611C129.862 88.5695 129.986 88.2849 130.128 88.0091C130.44 87.4465 130.78 86.9002 131.147 86.372C131.147 86.8892 131.177 87.4063 131.188 87.9235C131.214 88.5411 131.263 89.7912 130.638 90.1781Z" fill="#263238"/>
<path d="M127.948 83.2134C127.371 83.7715 127.784 84.5974 128.272 85.0327C129.12 85.7653 130.147 86.2618 131.248 86.4726C131.253 86.4731 131.257 86.4726 131.262 86.4712C131.266 86.4697 131.271 86.4674 131.274 86.4642C131.278 86.461 131.28 86.4572 131.282 86.4528C131.284 86.4485 131.285 86.4438 131.285 86.4391C131.308 86.4362 131.331 86.4281 131.35 86.4153C131.37 86.4024 131.386 86.3853 131.398 86.3652C131.41 86.345 131.417 86.3224 131.419 86.2991C131.42 86.2758 131.417 86.2524 131.408 86.2308C130.906 85.3043 130.481 84.2477 129.711 83.5036C129.269 83.0683 128.498 82.6851 127.948 83.2134ZM130.362 84.9807C130.619 85.4308 130.854 85.8922 131.129 86.3312C130.54 86.0676 129.965 85.7746 129.406 85.4532C129.14 85.2925 128.884 85.1148 128.64 84.9211C128.268 84.616 127.386 83.3139 128.714 83.3362C129.458 83.3511 130.061 84.4449 130.37 84.9807H130.362Z" fill="#263238"/>
<path d="M113.895 72.6396H106.291C106.291 72.6396 98.3324 68.8149 91.9257 70.3552C84.5776 72.1225 83.6364 81.3494 89.1278 84.6123C96.089 88.7458 127.051 87.9608 127.051 87.9608L120.358 76.6057C120.358 76.6057 110.06 74.4404 100.721 74.7455L113.895 76.5425V72.6396Z" fill="#455A64"/>
<path d="M120.801 77.3499C120.799 77.3301 120.799 77.3101 120.801 77.2903V77.242C120.801 77.2085 120.782 77.1713 120.775 77.1341C120.767 77.0969 120.722 76.9852 120.696 76.9108C120.67 76.8364 120.633 76.7657 120.6 76.695C120.565 76.6247 120.523 76.5575 120.477 76.4941C120.477 76.4941 120.477 76.4941 120.458 76.4941C119.324 76.2821 111.629 75.1808 110.487 75.0506C109.345 74.9204 108.177 74.8125 107.02 74.7157C104.711 74.5155 102.394 74.4323 100.077 74.4665H99.4262C99.3815 74.4665 99.3294 74.4441 99.2848 74.433L98.9499 74.3548C98.7416 74.3176 98.5295 74.2841 98.3212 74.2544C97.8821 74.1874 97.4431 74.139 97.0041 74.0572C96.978 74.0572 96.9706 74.0944 97.0041 74.0981C97.4431 74.1986 97.871 74.3251 98.31 74.4181L98.682 74.4999C97.8338 74.5446 96.9855 74.6115 96.1372 74.686C96.1112 74.686 96.1112 74.7306 96.1372 74.7306C97.2906 74.6599 98.4551 74.6525 99.6085 74.6711C100.762 74.6897 101.9 74.7157 103.046 74.7827C105.364 74.9166 107.678 75.1213 109.985 75.3631C111.28 75.5008 119.126 76.643 120.425 76.6988H120.443C120.453 76.7291 120.464 76.7589 120.477 76.7881L120.589 77.0001C120.626 77.0671 120.663 77.1303 120.704 77.1936L120.767 77.2903L120.801 77.335C120.801 77.335 120.83 77.3685 120.834 77.3833C120.838 77.3982 120.819 77.3499 120.801 77.3499Z" fill="#263238"/>
<path d="M124.637 87.2576C124.227 86.5953 123.855 85.9071 123.483 85.2039C123.111 84.5007 122.739 83.831 122.341 83.1464C121.578 81.781 118.847 77.1936 118.576 76.8624C118.576 76.8438 118.524 76.8624 118.531 76.8885C118.661 77.2605 120.369 80.2891 120.764 80.9811C121.549 82.3391 122.375 83.6673 123.189 85.0104C123.42 85.3825 123.662 85.7545 123.896 86.1489C124.131 86.5433 124.384 86.893 124.599 87.2948C124.599 87.3022 124.652 87.2799 124.637 87.2576Z" fill="#263238"/>
<path d="M118.501 78.0084C117.82 77.8409 117.121 77.7368 116.429 77.6066L114.353 77.2159C112.969 76.9679 111.582 76.7198 110.193 76.4718C107.421 76.003 104.638 75.6161 101.841 75.3556C100.263 75.2068 98.6819 75.1064 97.097 74.9836C97.0635 74.9836 97.0672 75.0319 97.097 75.0357C99.9134 75.1622 102.726 75.5417 105.517 75.9435C108.307 76.3453 111.034 76.7769 113.787 77.2419L116.116 77.64C116.905 77.7777 117.694 77.9451 118.486 78.0456C118.52 78.0567 118.535 78.0121 118.501 78.0084Z" fill="#263238"/>
<path d="M126.37 126.61C125.704 126.543 109.118 119.087 108.664 118.402C108.493 118.145 109.438 115.668 110.662 112.702C110.93 112.062 111.205 111.404 111.492 110.738C113.352 106.4 115.402 101.838 115.402 101.838L126.511 106.794L122.296 115.556L121.373 117.479C121.373 117.479 126.445 123.172 126.861 123.975C127.278 124.779 127.04 126.677 126.37 126.61Z" fill="#DD6A57"/>
<path d="M126.37 126.61C125.704 126.543 109.118 119.087 108.664 118.402C108.456 118.09 109.892 114.496 111.492 110.738L122.281 115.556L121.359 117.479C121.359 117.479 126.43 123.172 126.846 123.975C127.263 124.779 127.04 126.677 126.37 126.61Z" fill="white"/>
<path d="M126.37 126.61C125.704 126.543 109.118 119.087 108.664 118.402C108.493 118.145 109.438 115.668 110.662 112.702L121.373 117.479C121.373 117.479 126.445 123.172 126.861 123.975C127.278 124.779 127.04 126.677 126.37 126.61Z" fill="#A6A6A6"/>
<path d="M126.434 125.839C123.684 124.522 112.467 119.466 109.65 118.372C109.621 118.372 109.624 118.372 109.65 118.372C112.348 119.738 123.606 124.697 126.422 125.869C126.46 125.91 126.489 125.865 126.434 125.839Z" fill="#263238"/>
<path d="M126.061 122.9C125.756 122.753 125.423 122.672 125.084 122.66C124.746 122.649 124.408 122.708 124.093 122.833C123.524 123.053 123.062 123.485 122.806 124.039C122.806 124.039 122.828 124.069 122.839 124.039C123.181 123.53 123.678 123.146 124.256 122.945C124.835 122.743 125.463 122.736 126.046 122.923C126.049 122.922 126.051 122.921 126.053 122.92C126.055 122.918 126.057 122.917 126.059 122.915C126.06 122.913 126.061 122.91 126.061 122.908C126.062 122.905 126.062 122.903 126.061 122.9Z" fill="#263238"/>
<path d="M122.326 118.238C121.21 117.725 119.751 117.539 118.654 118.138C118.609 118.16 118.654 118.22 118.684 118.216C119.887 118.145 121.094 118.202 122.285 118.387C122.304 118.389 122.322 118.385 122.338 118.374C122.353 118.364 122.364 118.348 122.369 118.33C122.374 118.312 122.372 118.293 122.365 118.276C122.357 118.259 122.343 118.246 122.326 118.238Z" fill="#263238"/>
<path d="M123.033 118.96C121.917 118.447 120.462 118.257 119.361 118.856C119.32 118.882 119.361 118.942 119.394 118.938C120.596 118.865 121.802 118.921 122.992 119.105C123.002 119.108 123.012 119.109 123.021 119.108C123.031 119.106 123.041 119.103 123.049 119.098C123.058 119.094 123.066 119.087 123.072 119.079C123.078 119.072 123.082 119.063 123.085 119.053C123.088 119.044 123.089 119.034 123.087 119.024C123.086 119.014 123.083 119.005 123.078 118.996C123.074 118.987 123.067 118.98 123.059 118.974C123.051 118.967 123.043 118.963 123.033 118.96Z" fill="#263238"/>
<path d="M123.744 119.682C122.627 119.165 121.169 118.979 120.071 119.578C120.027 119.6 120.071 119.663 120.101 119.66C121.303 119.587 122.509 119.643 123.699 119.827C123.716 119.828 123.734 119.823 123.748 119.813C123.762 119.803 123.773 119.789 123.778 119.772C123.783 119.755 123.783 119.737 123.776 119.721C123.77 119.705 123.759 119.691 123.744 119.682Z" fill="#263238"/>
<path d="M124.451 120.404C123.334 119.887 121.88 119.701 120.778 120.3C120.737 120.322 120.778 120.381 120.812 120.381C122.014 120.309 123.22 120.365 124.41 120.549C124.429 120.554 124.449 120.552 124.467 120.542C124.484 120.532 124.497 120.516 124.503 120.497C124.508 120.478 124.506 120.457 124.496 120.439C124.486 120.422 124.47 120.409 124.451 120.404Z" fill="#263238"/>
<path d="M111.544 116.043C110.294 115.485 109.423 117.427 110.677 117.989C111.931 118.551 112.798 116.605 111.544 116.043Z" fill="#263238"/>
<path d="M124.864 115.813C124.51 115.091 123.595 115.229 123.029 115.556C122.07 116.138 121.28 116.964 120.741 117.948C120.738 117.952 120.736 117.957 120.735 117.962C120.734 117.968 120.734 117.973 120.736 117.978C120.738 117.983 120.741 117.987 120.746 117.99C120.75 117.994 120.755 117.996 120.76 117.997C120.755 118.019 120.756 118.043 120.762 118.066C120.768 118.088 120.779 118.109 120.795 118.126C120.81 118.144 120.83 118.157 120.851 118.166C120.873 118.174 120.897 118.177 120.92 118.175C121.958 117.985 123.093 117.907 124.041 117.401C124.599 117.107 125.198 116.493 124.864 115.813ZM122.434 117.561C121.928 117.669 121.415 117.751 120.912 117.878C121.359 117.412 121.787 116.929 122.278 116.508C122.513 116.303 122.762 116.113 123.022 115.939C123.431 115.682 124.942 115.243 124.51 116.505C124.268 117.197 123.04 117.435 122.434 117.561Z" fill="#263238"/>
<path d="M117.791 117.118C118.691 117.703 119.815 117.863 120.834 118.156C120.938 118.186 121.013 118.082 121.009 117.989C121.014 117.989 121.019 117.987 121.023 117.984C121.027 117.981 121.03 117.977 121.032 117.973C121.034 117.968 121.036 117.963 121.035 117.958C121.035 117.954 121.034 117.949 121.031 117.944C120.578 116.917 119.862 116.028 118.955 115.366C118.419 114.994 117.519 114.775 117.095 115.463C116.671 116.151 117.262 116.787 117.791 117.118ZM117.4 116.181C117.076 114.89 118.546 115.455 118.929 115.749C119.173 115.944 119.404 116.154 119.621 116.378C120.062 116.852 120.478 117.349 120.868 117.866C120.376 117.699 119.874 117.572 119.379 117.424C118.784 117.238 117.579 116.895 117.4 116.181Z" fill="#263238"/>
<path d="M111.745 109.718L124.227 115.366C124.227 115.366 139.109 86.8223 139.481 78.0828C139.813 70.6417 134.645 67.7769 117.902 72.5876L113.81 72.6397V75.4673C115.607 75.7054 120.41 76.4606 120.41 76.4606C123.904 77.7777 125.027 78.3209 124.971 78.4362C116.273 96.0269 111.745 109.718 111.745 109.718Z" fill="#455A64"/>
<path d="M127.029 75.2961C126.527 75.9695 126.058 76.6689 125.611 77.3833C122.899 76.2245 120.031 75.4723 117.099 75.151C116.278 75.0493 115.452 74.9761 114.621 74.9315C114.587 74.9315 114.587 74.9798 114.621 74.9835C117.563 75.1803 120.472 75.7248 123.286 76.6057C124.064 76.8438 124.826 77.1228 125.593 77.3982C125.057 78.2576 124.551 79.1357 124.067 80.0211C123.16 81.6808 122.344 83.3886 121.623 85.1369C121.221 86.1005 120.83 87.0715 120.484 88.0575C120.484 88.0872 120.522 88.1058 120.533 88.0761C122.063 84.673 123.73 81.3419 125.533 78.0827C126.043 77.1638 126.575 76.256 127.073 75.3296C127.088 75.3035 127.047 75.2737 127.029 75.2961Z" fill="#263238"/>
<path d="M124.514 112.349C123.77 112.062 123.078 111.709 122.363 111.389L120.216 110.425C118.791 109.785 113.851 107.739 113.441 107.642C113.415 107.642 113.4 107.676 113.423 107.691C113.739 107.895 116.927 109.313 117.646 109.622C119.089 110.239 120.544 110.812 121.999 111.4C122.415 111.567 122.832 111.724 123.249 111.891C123.665 112.059 124.09 112.204 124.495 112.386C124.521 112.397 124.536 112.356 124.514 112.349Z" fill="#263238"/>
<path d="M126.969 76.6057C125.983 78.466 125.143 80.4416 124.287 82.3763C123.431 84.3109 122.605 86.2419 121.798 88.1877C120.193 92.067 118.705 95.9909 117.333 99.9595C116.548 102.192 115.815 104.461 115.101 106.727C115.101 106.757 115.142 106.772 115.153 106.727C116.477 102.72 117.91 98.7503 119.409 94.8214C120.909 90.8926 122.49 86.986 124.168 83.1278C124.639 82.0464 125.118 80.9662 125.604 79.8872C126.091 78.8083 126.597 77.7368 127.055 76.6467C127.055 76.5797 126.992 76.5425 126.969 76.6057Z" fill="#263238"/>
<path d="M106.369 73.5474C106.652 73.8265 124.023 73.659 124.108 73.5474C124.335 73.2423 121.735 62.2966 119.781 58.1445C117.281 52.8241 115.96 52.3814 115.168 52.0837C114.107 51.7839 112.985 51.7749 111.92 52.0577C111.429 52.2772 109.353 54.7662 108.769 56.7418C107.597 60.7079 106.12 73.3019 106.369 73.5474Z" fill="#59B3FF"/>
<path d="M118.088 53.4529C125.756 58.8328 132.487 66.4301 131.944 68.9229C131.371 71.557 126.292 74.6525 121.742 75.3966C120.812 75.5491 117.69 68.7815 118.639 68.4317C119.383 68.1639 122.732 67.0886 123.133 66.6087C123.405 66.2738 117.895 59.0337 116.064 55.2164C114.126 51.2243 116.042 52.0131 118.088 53.4529Z" fill="#DD6A57"/>
<path d="M120.563 68.1638C120.563 68.1638 117.716 68.5359 115.863 68.8782C114.833 69.0679 113.092 69.5441 112.396 70.0315C111.358 70.757 107.47 74.4515 108.348 75.4151C109.14 76.2857 110.245 74.831 110.245 74.831C110.245 74.831 108.887 76.3192 109.94 76.9257C110.993 77.5321 112.258 75.5193 112.258 75.5193C112.258 75.5193 110.707 76.9852 111.886 77.5433C112.913 78.0269 114.617 75.8393 114.617 75.8393C114.617 75.8393 112.82 77.201 113.825 77.8C114.941 78.4622 117.917 75.5044 117.917 75.5044C119.822 75.7218 121.751 75.5303 123.576 74.9426C123.881 74.8422 120.563 68.1638 120.563 68.1638Z" fill="#DD6A57"/>
<path d="M111.841 76.0104L112.165 75.5491C112.366 75.2428 112.585 74.9483 112.82 74.6673C113.054 74.3994 113.3 74.1427 113.564 73.8897C113.828 73.6367 114.129 73.3874 114.39 73.1159C114.391 73.1126 114.394 73.1098 114.397 73.1077C114.399 73.1055 114.403 73.1041 114.406 73.1035C114.41 73.1029 114.413 73.1031 114.417 73.1042C114.42 73.1053 114.423 73.1072 114.426 73.1097C114.428 73.1122 114.43 73.1153 114.431 73.1187C114.432 73.1221 114.433 73.1257 114.432 73.1292C114.431 73.1328 114.43 73.1361 114.428 73.1389C114.426 73.1418 114.423 73.1441 114.42 73.1456C114.157 73.4112 113.908 73.6906 113.676 73.9827L112.98 74.8273C112.753 75.1063 112.511 75.3631 112.277 75.6346C112.161 75.7686 112.05 75.91 111.942 76.0476C111.844 76.186 111.736 76.3166 111.618 76.4383L111.592 76.4197C111.662 76.2758 111.746 76.1388 111.841 76.0104Z" fill="#263238"/>
<path d="M109.97 75.1436C110.323 74.5631 110.717 74.0085 111.15 73.4842C111.588 72.9614 112.078 72.484 112.612 72.0592C112.616 72.0573 112.621 72.0566 112.625 72.0574C112.63 72.0582 112.634 72.0603 112.637 72.0636C112.64 72.0669 112.643 72.0711 112.643 72.0756C112.644 72.0802 112.644 72.0848 112.642 72.089C112.203 72.6136 111.756 73.1308 111.313 73.6442C111.094 73.8972 110.141 75.0766 110.026 75.1882C109.996 75.2143 109.955 75.1733 109.97 75.1436Z" fill="#263238"/>
<path d="M113.583 76.8736C113.928 76.3357 114.308 75.8211 114.721 75.3333C115.184 74.8742 115.682 74.4513 116.209 74.0683C116.213 74.0664 116.218 74.0657 116.223 74.0665C116.227 74.0673 116.231 74.0694 116.235 74.0727C116.238 74.076 116.24 74.0802 116.241 74.0847C116.242 74.0893 116.241 74.0939 116.239 74.0981C115.774 74.5557 115.301 75.0022 114.862 75.4859C114.647 75.7203 113.843 76.7025 113.616 76.9071C113.605 76.9257 113.571 76.8997 113.583 76.8736Z" fill="#263238"/>
<path d="M126.638 60.1163L121.057 63.9968C121.057 63.9968 116.615 57.5864 115.417 54.5206C114.219 51.4549 115.499 51.4066 118.564 53.557C121.63 55.7075 126.638 60.1163 126.638 60.1163Z" fill="#59B3FF"/>
<path d="M125.317 59.3425C123.84 60.5525 122.289 61.6708 120.674 62.6909C120.656 62.6909 120.633 62.6723 120.656 62.6575C121.08 62.3821 123.349 60.5963 125.295 59.309C125.317 59.2904 125.343 59.3239 125.317 59.3425Z" fill="#263238"/>
<path d="M108.705 53.5384C102.73 56.8869 97.1716 60.92 96.167 63.6211C95.5494 65.3214 96.4796 68.335 97.2162 70.1432C97.5883 71.0212 105.866 67.2821 105.145 66.5677C103.359 64.7968 103.057 64.0713 103.232 63.6955C103.34 63.4574 109.803 57.4673 111.581 54.8071C114.063 51.0978 111.317 52.0763 108.705 53.5384Z" fill="#DD6A57"/>
<path d="M108.601 74.7082C107.82 75.1807 106.823 73.1605 106.823 73.1605C106.806 73.5528 106.651 73.9267 106.387 74.2171C105.9 74.7045 104.918 74.1538 104.918 74.1538C104.814 74.5568 104.593 74.9196 104.281 75.1956C103.764 75.616 102.696 75.1956 102.696 75.1956C102.396 75.5124 101.992 75.7116 101.558 75.7574C100.393 75.8318 99.3554 74.3845 98.6858 73.4693C98.0161 72.554 96.9743 69.3395 96.7139 68.7442L102.54 64.3986C102.54 64.3986 106.707 67.6392 107.34 68.826C107.857 69.8343 109.777 74.0013 108.601 74.7082Z" fill="#DD6A57"/>
<path d="M106.819 73.1308C106.464 71.9418 105.964 70.8009 105.331 69.7339C105.331 69.7116 105.283 69.7339 105.294 69.7562C105.893 70.8203 106.224 72.0667 106.782 73.1531C106.786 73.1542 106.79 73.1545 106.794 73.154C106.798 73.1534 106.802 73.1521 106.805 73.15C106.809 73.1479 106.812 73.1451 106.814 73.1418C106.817 73.1385 106.818 73.1347 106.819 73.1308Z" fill="#263238"/>
<path d="M104.962 74.0795C104.866 73.8149 104.735 73.5646 104.572 73.3354C104.415 73.0787 104.252 72.8294 104.088 72.5913C103.758 72.0952 103.415 71.5991 103.057 71.1031C103.057 71.0807 103.005 71.1031 103.02 71.1031C103.351 71.6016 103.671 72.1039 103.98 72.6173C104.133 72.874 104.285 73.1307 104.434 73.3875C104.561 73.6408 104.715 73.8802 104.892 74.1018C104.897 74.1075 104.904 74.1116 104.911 74.1136C104.919 74.1156 104.927 74.1155 104.934 74.1131C104.942 74.1108 104.948 74.1064 104.953 74.1004C104.958 74.0945 104.961 74.0872 104.962 74.0795Z" fill="#263238"/>
<path d="M102.667 75.1808C102.575 74.9417 102.443 74.7202 102.276 74.526L101.815 73.8488C101.51 73.3986 101.205 72.9447 100.914 72.4834C100.914 72.4574 100.862 72.4834 100.877 72.502C101.167 72.9745 101.454 73.4507 101.752 73.9195C101.897 74.1502 102.042 74.3809 102.191 74.6078C102.306 74.8289 102.46 75.0278 102.644 75.1957L102.667 75.1808Z" fill="#263238"/>
<path d="M100.081 58.5611L104.672 62.7765C104.672 62.7765 110.353 57.4078 111.949 54.5281C113.545 51.6484 112.288 51.4326 108.973 53.1478C105.658 54.8629 100.081 58.5611 100.081 58.5611Z" fill="#59B3FF"/>
<path d="M100.081 58.5611L104.672 62.7765C104.672 62.7765 110.353 57.4078 111.949 54.5281C113.545 51.6484 112.288 51.4326 108.973 53.1478C105.658 54.8629 100.081 58.5611 100.081 58.5611Z" fill="#59B3FF"/>
<path d="M105.561 61.6082C104.132 60.4343 102.779 59.1704 101.51 57.8245C101.491 57.8245 101.51 57.7835 101.536 57.8022C101.878 58.1519 103.999 59.9749 105.591 61.5785C105.625 61.5971 105.58 61.6231 105.561 61.6082Z" fill="#263238"/>
<path d="M109.304 55.6777C109.096 56.1614 108.888 56.6451 108.716 57.1436C108.718 57.1102 108.718 57.0766 108.716 57.0432C108.732 56.741 108.768 56.4402 108.824 56.1428C108.824 56.1093 108.78 56.0982 108.776 56.1428C108.716 56.4404 108.664 56.7418 108.627 57.0469C108.608 57.192 108.601 57.3371 108.594 57.4822C108.594 57.4822 108.594 57.5157 108.594 57.5343C108.4 58.1965 108.285 58.8699 108.121 59.5359C108.121 59.5694 108.166 59.5806 108.173 59.5359C108.333 58.8811 108.575 58.2449 108.783 57.605C108.992 56.965 109.155 56.314 109.353 55.674C109.345 55.6703 109.315 55.6554 109.304 55.6777Z" fill="#263238"/>
<path d="M112.418 55.0564C113.404 55.2946 115.105 53.7915 115.767 52.5749C115.812 52.4893 115.689 51.6075 115.588 50.5248C115.529 49.87 115.48 49.1371 115.48 48.4674C115.48 48.3297 111.269 49.4719 111.269 49.4719C111.504 50.3122 111.637 51.178 111.663 52.0503C111.663 52.1428 111.653 52.2351 111.633 52.3256C111.635 52.3404 111.635 52.3554 111.633 52.3702C111.552 52.8948 111.466 54.8258 112.418 55.0564Z" fill="#DD6A57"/>
<path d="M115.235 48.4822C115.034 49.617 114.316 52.3553 112.068 52.3962C111.925 52.4013 111.782 52.3926 111.64 52.3702C111.64 52.3516 111.64 52.3404 111.64 52.3255C111.659 52.2349 111.671 52.1428 111.674 52.0502C111.647 51.1777 111.514 50.3118 111.276 49.4719C111.276 49.4719 114.319 48.6459 115.235 48.4822Z" fill="#263238"/>
<path d="M115.268 42.9052C116.012 44.2781 116.083 48.6609 115.231 49.8105C113.996 51.481 111.551 52.1061 110.022 50.5248C108.493 48.9436 108.534 43.281 109.539 42.1909C111.004 40.5836 114.182 40.8887 115.268 42.9052Z" fill="#DD6A57"/>
<path d="M111.95 46.8192C111.95 46.8192 111.972 46.8191 111.972 46.8452C111.972 47.1428 112.016 47.4814 112.284 47.5893C111.95 47.5521 111.894 47.1019 111.95 46.8192Z" fill="#263238"/>
<path d="M112.199 46.5067C112.671 46.462 112.731 47.4107 112.292 47.4554C111.853 47.5 111.801 46.5476 112.199 46.5067Z" fill="#263238"/>
<path d="M110.294 46.9308C110.294 46.9308 110.271 46.9308 110.271 46.9568C110.301 47.2507 110.271 47.593 110.022 47.7009C110.346 47.6563 110.364 47.2135 110.294 46.9308Z" fill="#263238"/>
<path d="M110.011 46.6368C109.535 46.6368 109.557 47.5856 110.011 47.5893C110.465 47.593 110.409 46.6443 110.011 46.6368Z" fill="#263238"/>
<path d="M112.593 45.7253C112.459 45.7253 112.333 45.6993 112.202 45.6844C112.063 45.6903 111.926 45.6498 111.812 45.569C111.782 45.5362 111.763 45.4947 111.758 45.4505C111.754 45.4064 111.763 45.3618 111.786 45.3235C111.844 45.2554 111.919 45.204 112.003 45.1746C112.087 45.1451 112.178 45.1388 112.266 45.1561C112.447 45.1642 112.619 45.2383 112.749 45.3644C112.777 45.3951 112.796 45.4332 112.803 45.4742C112.809 45.5151 112.804 45.5572 112.788 45.5953C112.771 45.6334 112.744 45.6659 112.71 45.689C112.675 45.712 112.635 45.7246 112.593 45.7253Z" fill="#263238"/>
<path d="M109.531 45.9709C109.658 45.9378 109.782 45.8968 109.903 45.8481C110.046 45.829 110.178 45.7605 110.275 45.6546C110.299 45.6166 110.309 45.5718 110.304 45.5274C110.3 45.4829 110.28 45.4412 110.249 45.4091C110.175 45.3497 110.086 45.3129 109.991 45.3031C109.897 45.2932 109.802 45.3106 109.717 45.3532C109.54 45.3996 109.387 45.5096 109.286 45.662C109.266 45.6991 109.258 45.7409 109.262 45.7825C109.266 45.8241 109.282 45.8636 109.308 45.8963C109.334 45.929 109.369 45.9535 109.408 45.9667C109.448 45.9799 109.491 45.9814 109.531 45.9709Z" fill="#263238"/>
<path d="M112.601 49.5277C112.534 49.6021 112.47 49.7026 112.362 49.7174C112.253 49.721 112.144 49.702 112.042 49.6616C112.087 49.7154 112.145 49.7565 112.21 49.7806C112.275 49.8048 112.346 49.8113 112.415 49.7993C112.474 49.7802 112.526 49.7437 112.565 49.6947C112.603 49.6456 112.626 49.5862 112.63 49.524C112.63 49.524 112.612 49.5165 112.601 49.5277Z" fill="#263238"/>
<path d="M112.236 48.6645C112.169 48.7856 112.077 48.8914 111.967 48.9753C111.857 49.0592 111.731 49.1194 111.596 49.1519C111.474 49.1816 111.349 49.1953 111.224 49.1928H111.153H111.09C111.074 49.1906 111.059 49.1832 111.048 49.1718C111.037 49.1604 111.029 49.1456 111.027 49.1296V49.0738C111.005 48.8468 111.008 48.5008 111.008 48.5008C110.927 48.5455 110.517 48.7612 110.514 48.6422C110.48 47.6185 110.548 46.594 110.718 45.5839C110.72 45.5782 110.724 45.5733 110.729 45.5698C110.734 45.5664 110.74 45.5645 110.746 45.5645C110.752 45.5645 110.758 45.5664 110.763 45.5698C110.768 45.5733 110.772 45.5782 110.774 45.5839C110.811 46.5327 110.685 47.4777 110.707 48.4301C110.854 48.3517 111.01 48.2929 111.172 48.2553C111.206 48.2553 111.172 48.925 111.172 49.0254C111.358 49.034 111.544 49.0055 111.719 48.9417C111.894 48.8778 112.055 48.7798 112.192 48.6534C112.229 48.6236 112.255 48.6422 112.236 48.6645Z" fill="#263238"/>
<path d="M111.362 49.0738C111.496 49.2283 111.668 49.3461 111.86 49.4161C111.967 49.4495 112.081 49.4495 112.188 49.4161C112.418 49.338 112.411 49.1222 112.359 48.9399C112.329 48.8437 112.288 48.7513 112.236 48.6646C111.996 48.8911 111.69 49.0346 111.362 49.0738Z" fill="#263238"/>
<path d="M111.86 49.4087C111.967 49.4421 112.081 49.4421 112.188 49.4087C112.418 49.3305 112.411 49.1147 112.359 48.9324C112.234 48.9445 112.117 48.998 112.027 49.0844C111.937 49.1707 111.878 49.2849 111.86 49.4087Z" fill="#FF98B9"/>
<path d="M109.23 44.1516C110.781 44.9626 112.578 43.2438 112.578 43.2438C112.737 43.5426 112.989 43.782 113.295 43.9262C113.602 44.0703 113.947 44.1115 114.278 44.0437C114.278 44.0437 114.848 46.4397 115.484 46.3578C116.459 46.2351 116.369 42.8903 115.986 42.2653C115.839 42.0726 115.654 41.9124 115.442 41.7946C115.23 41.6769 114.996 41.604 114.755 41.5807C114.616 41.1985 114.338 40.8824 113.977 40.6952C113.233 40.2636 111.034 41.2235 111.034 41.2235C110.868 40.9246 110.634 40.6695 110.35 40.4794C110.282 40.4335 110.205 40.4017 110.125 40.386C110.044 40.3702 109.961 40.3709 109.881 40.3879C109.801 40.405 109.725 40.438 109.658 40.485C109.591 40.5321 109.534 40.5921 109.49 40.6617C109.636 40.8258 109.74 41.0222 109.795 41.2347C109.996 41.9304 109.423 41.9974 109.345 41.3537C109.308 41.1131 109.359 40.8672 109.49 40.6617C109.155 40.2897 108.672 40.1929 108.415 40.4534C107.935 40.9519 107.942 43.493 109.23 44.1516Z" fill="#263238"/>
<path d="M109.795 48.2367C109.352 48.2665 108.954 47.7493 108.91 47.0833C108.865 46.4174 109.181 45.8444 109.624 45.8146C110.067 45.7849 110.461 46.302 110.51 46.968C110.558 47.634 110.238 48.2032 109.795 48.2367ZM109.635 45.9783C109.282 46.0007 109.029 46.4918 109.07 47.0722C109.111 47.6526 109.442 48.099 109.784 48.073C110.126 48.047 110.39 47.5596 110.346 46.9792C110.301 46.3988 109.985 45.9523 109.635 45.9783Z" fill="#59B3FF"/>
<path d="M112.508 48.0432C112.266 48.0769 112.02 48.0371 111.801 47.929C111.582 47.8208 111.401 47.6493 111.28 47.4368C111.16 47.2243 111.107 46.9805 111.127 46.7372C111.148 46.4939 111.241 46.2623 111.394 46.0726C111.548 45.8829 111.755 45.7438 111.989 45.6733C112.223 45.6029 112.472 45.6045 112.705 45.6778C112.938 45.7511 113.143 45.8927 113.295 46.0843C113.446 46.276 113.536 46.5086 113.553 46.7522C113.585 47.0618 113.492 47.3712 113.296 47.613C113.101 47.8548 112.817 48.0094 112.508 48.0432ZM112.348 45.7811C112.135 45.7794 111.927 45.8418 111.751 45.9602C111.574 46.0786 111.437 46.2474 111.358 46.4447C111.279 46.6419 111.262 46.8584 111.308 47.0659C111.353 47.2734 111.461 47.4623 111.616 47.6078C111.771 47.7533 111.966 47.8487 112.176 47.8816C112.386 47.9145 112.601 47.8833 112.793 47.7921C112.985 47.7009 113.145 47.554 113.252 47.3704C113.359 47.1869 113.408 46.9753 113.393 46.7633C113.384 46.4949 113.268 46.2411 113.073 46.0572C112.877 45.8733 112.616 45.7741 112.348 45.7811Z" fill="#59B3FF"/>
<path d="M111.339 46.8005C110.718 46.6294 110.458 46.8489 110.458 46.8489L110.346 46.7299C110.346 46.7299 110.666 46.4471 111.38 46.6443L111.339 46.8005Z" fill="#59B3FF"/>
<path d="M113.464 46.6517L113.423 46.4918C113.527 46.4657 115.964 45.8332 116.232 45.7997C116.598 45.8406 116.952 45.9505 117.277 46.1234L117.21 46.2685C116.914 46.1158 116.595 46.0116 116.265 45.9597C116.042 45.9858 114.338 46.4248 113.464 46.6517Z" fill="#59B3FF"/>
<path d="M115.056 46.529C115.056 46.529 115.767 44.985 116.451 45.2156C117.136 45.4463 116.771 47.5633 116.079 47.9688C115.996 48.028 115.901 48.0694 115.801 48.0902C115.7 48.1111 115.597 48.1111 115.497 48.0901C115.396 48.0692 115.302 48.0278 115.218 47.9685C115.135 47.9092 115.064 47.8333 115.011 47.7456L115.056 46.529Z" fill="#DD6A57"/>
<path d="M116.295 52.8687C115.855 53.4538 115.383 54.014 114.881 54.5467C114.419 55.0676 113.8 55.4252 113.118 55.5661C112.455 55.6554 111.786 55.5661 111.507 54.7401C111.302 54.0475 111.255 53.3178 111.369 52.6045C111.369 52.5673 111.321 52.5599 111.317 52.6045C111.209 53.6798 111.12 55.3354 112.106 55.6628C113.222 56.0349 114.245 55.4284 114.974 54.6471C115.485 54.1123 115.935 53.5235 116.317 52.891C116.317 52.891 116.306 52.8575 116.295 52.8687Z" fill="#263238"/>
<path d="M122.94 77.1414H102.979V78.0381H122.94V77.1414Z" fill="#263238"/>
<path d="M117.817 78.0344H98.3621L96.7437 64.8228H116.195L117.817 78.0344Z" fill="#263238"/>
<path d="M108.463 71.4304C108.467 71.5852 108.439 71.7391 108.382 71.883C108.325 72.0269 108.24 72.1579 108.131 72.2682C108.023 72.3785 107.893 72.4659 107.75 72.5252C107.607 72.5846 107.454 72.6146 107.299 72.6136C106.983 72.6117 106.681 72.4872 106.456 72.2663C106.231 72.0455 106.101 71.7457 106.093 71.4304C106.09 71.2755 106.117 71.1215 106.174 70.9774C106.231 70.8333 106.317 70.702 106.425 70.5914C106.534 70.4808 106.663 70.393 106.806 70.3333C106.949 70.2736 107.103 70.2431 107.258 70.2436C107.574 70.2455 107.876 70.3705 108.102 70.5922C108.327 70.8138 108.457 71.1146 108.463 71.4304Z" fill="white"/>
<path d="M104.966 160.76H33.2008L20.6589 108.684H92.4242L104.966 160.76Z" fill="#A6A6A6"/>
<path d="M7.90845 160.76H79.6737L92.2156 108.684H20.4503L7.90845 160.76Z" fill="#DBDBDB"/>
<path d="M81.8094 118.469L80.2096 125.121L80.1129 125.531L78.4572 132.44L78.3605 132.849L76.7049 139.75L76.6044 140.16L74.9451 147.065L74.8483 147.478L73.2262 154.242H20.5398L22.1619 147.478L22.2587 147.065L23.918 140.16L24.0185 139.75L25.6741 132.849L25.7746 132.44L27.4302 125.531L27.5269 125.121L29.1268 118.469H81.8094Z" fill="white"/>
<path d="M36.8433 118.469L35.2434 125.121L35.1467 125.531L33.4911 132.44L33.3943 132.849L31.7387 139.75L31.6383 140.16L29.9826 147.065L29.8822 147.478L28.26 154.242H27.8396L29.4655 147.478L29.5622 147.065L31.2178 140.16L31.3183 139.75L32.9702 132.849L33.0707 132.44L34.73 125.531L34.8267 125.121L36.4191 118.469H36.8433Z" fill="#EBEBEB"/>
<path d="M44.3474 118.469L42.7476 125.121L42.6509 125.531L40.9952 132.44L40.8985 132.849L39.2429 139.75L39.1424 140.16L37.4868 147.065L37.3863 147.478L35.7642 154.242H35.3438L36.9696 147.478L37.0664 147.065L38.722 140.16L38.8224 139.75L40.4744 132.849L40.5748 132.44L42.2342 125.531L42.3309 125.121L43.9233 118.469H44.3474Z" fill="#EBEBEB"/>
<path d="M51.8555 118.469L50.2594 125.121L50.1589 125.531L48.5033 132.44L48.4066 132.849L46.7509 139.75L46.6542 140.16L44.9948 147.065L44.8944 147.478L43.2722 154.242H42.8518L44.4777 147.478L44.5781 147.065L46.23 140.16L46.3305 139.75L47.9861 132.849L48.0829 132.44L49.7422 125.531L49.839 125.121L51.4351 118.469H51.8555Z" fill="#EBEBEB"/>
<path d="M59.3596 118.469L57.7635 125.121L57.6631 125.531L56.0074 132.44L55.9107 132.849L54.2551 139.75L54.1583 140.16L52.499 147.065L52.3985 147.478L50.7764 154.242H50.356L51.9818 147.478L52.0823 147.065L53.7342 140.16L53.8347 139.75L55.4903 132.849L55.587 132.44L57.2464 125.531L57.3431 125.121L58.9392 118.469H59.3596Z" fill="#EBEBEB"/>
<path d="M66.8679 118.469L65.2718 125.121L65.1714 125.531L63.5195 132.44L63.419 132.849L61.7634 139.75L61.6666 140.16L60.0073 147.065L59.9105 147.478L58.2884 154.242H57.8643L59.4901 147.478L59.5906 147.065L61.2462 140.16L61.3429 139.75L62.9986 132.849L63.0953 132.44L64.7547 125.531L64.8514 125.121L66.4475 118.469H66.8679Z" fill="#EBEBEB"/>
<path d="M74.3721 118.469L72.776 125.121L72.6755 125.531L71.0236 132.44L70.9232 132.849L69.2675 139.75L69.1708 140.16L67.5114 147.065L67.4147 147.478L65.7925 154.242H65.3684L66.9943 147.478L67.0947 147.065L68.7504 140.16L68.8471 139.75L70.5027 132.849L70.5995 132.44L72.2588 125.531L72.3593 125.121L73.9517 118.469H74.3721Z" fill="#EBEBEB"/>
<path d="M80.2096 125.121L80.1128 125.531H27.4302L27.5269 125.121H80.2096Z" fill="#EBEBEB"/>
<path d="M78.4574 132.44L78.3607 132.849H25.6743L25.7748 132.44H78.4574Z" fill="#EBEBEB"/>
<path d="M76.7048 139.75L76.6044 140.16H23.918L24.0184 139.75H76.7048Z" fill="#EBEBEB"/>
<path d="M74.945 147.065L74.8482 147.478H22.1619L22.2586 147.065H74.945Z" fill="#EBEBEB"/>
<path d="M34.1196 133.074L33.3293 133.713L37.9153 139.392L38.7055 138.754L34.1196 133.074Z" fill="#C7C7C7"/>
<path d="M38.7885 133.019L32.4424 138.804L33.1266 139.554L39.4728 133.769L38.7885 133.019Z" fill="#C7C7C7"/>
<path d="M50.7741 125.957L49.9839 126.595L54.5698 132.275L55.36 131.637L50.7741 125.957Z" fill="#C7C7C7"/>
<path d="M55.445 125.904L49.0989 131.689L49.7831 132.439L56.1293 126.655L55.445 125.904Z" fill="#C7C7C7"/>
<path d="M29.7631 132.313L27.8247 128.924L28.7065 128.418L29.9194 130.538L34.3394 125.207L35.1207 125.854L29.7631 132.313Z" fill="#59B3FF"/>
<path d="M39.1425 153.855L37.2041 150.466L38.0859 149.96L39.295 152.08L43.715 146.749L44.4963 147.396L39.1425 153.855Z" fill="#59B3FF"/>
<path d="M65.8149 133.158C64.8752 133.674 64.0092 134.315 63.2403 135.063C62.4962 135.807 61.8451 136.711 61.7521 137.727C61.7137 137.963 61.7243 138.205 61.7832 138.437C61.8421 138.67 61.948 138.887 62.0944 139.077C62.4374 139.433 62.8793 139.678 63.3631 139.78C64.382 139.994 65.4368 139.967 66.4437 139.702C67.4624 139.486 68.4182 139.039 69.2378 138.396C69.6355 138.078 69.9656 137.683 70.2088 137.235C70.4506 136.806 70.5557 136.313 70.5102 135.822C70.468 135.581 70.3773 135.351 70.2436 135.146C70.1099 134.942 69.9361 134.766 69.7326 134.631C69.3052 134.335 68.8235 134.126 68.3151 134.017C67.2726 133.772 66.186 133.783 65.1489 134.051C66.1789 133.674 67.2893 133.571 68.3709 133.753C68.9262 133.843 69.4576 134.045 69.9335 134.345C70.1843 134.501 70.4015 134.705 70.5727 134.946C70.7438 135.187 70.8655 135.459 70.9306 135.747C71.0186 136.333 70.9114 136.932 70.6255 137.451C70.3612 137.959 69.9982 138.41 69.5577 138.776C68.68 139.478 67.6571 139.975 66.563 140.233C65.469 140.49 64.3315 140.501 63.2328 140.264C62.6598 140.13 62.141 139.825 61.7446 139.39C61.5531 139.151 61.4251 138.868 61.3726 138.567C61.328 138.278 61.328 137.983 61.3726 137.693C61.5437 136.536 62.2841 135.61 63.0877 134.891C63.906 134.182 64.8251 133.598 65.8149 133.158Z" fill="#59B3FF"/>
<path d="M35.195 120.322H29.5994L29.7556 119.637H35.3513L35.195 120.322Z" fill="#C7C7C7"/>
<path d="M32.6202 121.49H29.3313L29.4876 120.809H32.7765L32.6202 121.49Z" fill="#C7C7C7"/>
<path d="M57.9385 141.819H54.5342L54.6904 141.138H58.0947L57.9385 141.819Z" fill="#C7C7C7"/>
<path d="M57.3992 144.204H53.9949L54.1511 143.523H57.5591L57.3992 144.204Z" fill="#C7C7C7"/>
<path d="M59.6014 142.991H54.2625L54.4224 142.307H59.7577L59.6014 142.991Z" fill="#C7C7C7"/>
<path d="M66.7563 136.562H63.3521L63.5083 135.877H66.9163L66.7563 136.562Z" fill="#C7C7C7"/>
<path d="M68.4193 137.73H63.0803L63.2403 137.049H68.5755L68.4193 137.73Z" fill="#C7C7C7"/>
<path d="M21.0347 123.935L24.3199 121.479C24.6891 121.204 24.952 120.81 25.064 120.363C25.1081 120.195 25.1167 120.019 25.0892 119.847C25.0616 119.676 24.9986 119.512 24.904 119.366C24.7925 119.208 24.6432 119.08 24.4697 118.994C24.2962 118.908 24.104 118.867 23.9106 118.875C23.5081 118.875 23.1165 119.005 22.7945 119.247L22.4522 119.503C22.4344 119.523 22.4126 119.539 22.3882 119.55C22.3639 119.561 22.3375 119.567 22.3108 119.567C22.2841 119.567 22.2577 119.561 22.2334 119.55C22.209 119.539 22.1872 119.523 22.1694 119.503C22.1555 119.48 22.1463 119.454 22.1425 119.427C22.1387 119.4 22.1403 119.373 22.1472 119.346C22.1541 119.32 22.1662 119.295 22.1828 119.274C22.1994 119.252 22.2202 119.234 22.2438 119.221L22.5861 118.953C22.9908 118.646 23.4813 118.475 23.9888 118.462C24.2374 118.448 24.4852 118.5 24.7082 118.61C24.9311 118.721 25.1216 118.888 25.2612 119.094C25.3836 119.28 25.4651 119.489 25.5004 119.708C25.5357 119.928 25.5239 120.152 25.4658 120.367C25.3216 120.933 24.9865 121.432 24.5171 121.78L21.7044 123.882H24.4538C24.479 123.882 24.5038 123.888 24.5262 123.9C24.5487 123.911 24.5681 123.928 24.583 123.948C24.5978 123.968 24.6077 123.992 24.6117 124.017C24.6158 124.041 24.614 124.067 24.6064 124.091C24.5917 124.146 24.56 124.195 24.516 124.231C24.4719 124.267 24.4176 124.288 24.3608 124.292H21.0905C21.0649 124.294 21.0391 124.29 21.0157 124.28C20.9922 124.269 20.9718 124.253 20.9565 124.232C20.9306 124.182 20.9243 124.123 20.9387 124.068C20.9531 124.014 20.9873 123.966 21.0347 123.935Z" fill="#A6A6A6"/>
<path d="M19.4086 131.364C19.5751 130.613 19.9239 129.914 20.4243 129.329C20.6273 129.079 20.879 128.872 21.1643 128.722C21.4495 128.572 21.7623 128.481 22.0836 128.455C22.3556 128.459 22.6202 128.544 22.8431 128.7C23.066 128.856 23.2369 129.075 23.3337 129.329C23.5766 129.981 23.6104 130.692 23.4305 131.364C23.2583 132.115 22.9029 132.812 22.3962 133.392C22.1957 133.643 21.9462 133.851 21.6628 134.003C21.3795 134.154 21.0682 134.247 20.748 134.274C20.475 134.27 20.2096 134.184 19.9865 134.026C19.7634 133.869 19.5931 133.648 19.4979 133.392C19.2558 132.742 19.2246 132.033 19.4086 131.364ZM19.8178 131.364C19.654 131.959 19.6787 132.589 19.8885 133.169C19.9593 133.368 20.0884 133.541 20.2589 133.666C20.4294 133.791 20.6336 133.861 20.8447 133.868C21.0937 133.842 21.3348 133.765 21.5534 133.643C21.7721 133.521 21.9638 133.356 22.1171 133.158C22.5627 132.643 22.8757 132.028 23.0287 131.364C23.1878 130.769 23.1579 130.138 22.9431 129.56C22.8757 129.359 22.748 129.185 22.5776 129.059C22.4071 128.934 22.2021 128.865 21.9906 128.861C21.741 128.882 21.4985 128.955 21.2788 129.076C21.059 129.196 20.8668 129.361 20.7145 129.56C20.272 130.079 19.964 130.698 19.8178 131.364Z" fill="#A6A6A6"/>
<path d="M16.4249 143.903L19.7101 141.447C20.0793 141.172 20.3422 140.778 20.4542 140.331C20.4983 140.163 20.5069 139.987 20.4794 139.815C20.4518 139.644 20.3888 139.48 20.2942 139.334C20.1827 139.178 20.0344 139.051 19.8624 138.966C19.6904 138.881 19.5 138.84 19.3083 138.846C18.9058 138.846 18.5141 138.977 18.1921 139.218L17.8498 139.475C17.832 139.495 17.8102 139.511 17.7859 139.522C17.7615 139.533 17.7351 139.538 17.7084 139.538C17.6818 139.538 17.6554 139.533 17.631 139.522C17.6066 139.511 17.5849 139.495 17.5671 139.475C17.5531 139.452 17.5439 139.426 17.5401 139.399C17.5363 139.372 17.5379 139.344 17.5448 139.318C17.5518 139.292 17.5639 139.267 17.5805 139.246C17.5971 139.224 17.6178 139.206 17.6415 139.192L17.9838 138.925C18.3884 138.618 18.879 138.446 19.3864 138.433C19.6313 138.423 19.8749 138.474 20.0942 138.584C20.3136 138.693 20.5015 138.856 20.6402 139.058C20.7626 139.244 20.8442 139.453 20.8795 139.673C20.9147 139.892 20.9029 140.116 20.8448 140.331C20.7006 140.897 20.3655 141.397 19.8961 141.745L17.0797 143.847H19.8329C19.858 143.847 19.8828 143.853 19.9053 143.864C19.9277 143.875 19.9471 143.892 19.962 143.912C19.9769 143.933 19.9867 143.956 19.9908 143.981C19.9949 144.006 19.993 144.031 19.9854 144.055C19.9707 144.11 19.9391 144.159 19.895 144.195C19.8509 144.231 19.7967 144.253 19.7398 144.256H16.4807C16.4551 144.259 16.4293 144.254 16.4059 144.244C16.3824 144.233 16.362 144.217 16.3467 144.197C16.3219 144.146 16.3161 144.089 16.3305 144.035C16.3449 143.981 16.3784 143.934 16.4249 143.903Z" fill="#A6A6A6"/>
<path d="M14.7992 151.332C14.9689 150.58 15.3216 149.881 15.826 149.297C16.028 149.045 16.2793 148.836 16.5646 148.684C16.8499 148.532 17.1632 148.439 17.4854 148.412C17.7573 148.416 18.0219 148.501 18.2448 148.657C18.4677 148.813 18.6386 149.032 18.7355 149.286C18.9764 149.938 19.0102 150.649 18.8322 151.321C18.6584 152.072 18.3033 152.768 17.7979 153.349C17.5962 153.602 17.3449 153.81 17.0595 153.962C16.7741 154.113 16.4607 154.205 16.1386 154.231C15.8655 154.227 15.5998 154.141 15.3766 153.984C15.1534 153.827 14.9832 153.605 14.8885 153.349C14.6488 152.703 14.6176 151.997 14.7992 151.332ZM15.2084 151.332C15.0445 151.927 15.0692 152.557 15.2791 153.137C15.3508 153.335 15.4801 153.508 15.6504 153.633C15.8207 153.757 16.0244 153.828 16.2353 153.836C16.4834 153.811 16.724 153.736 16.9426 153.616C17.1611 153.496 17.3533 153.333 17.5077 153.137C17.9578 152.621 18.2724 152.001 18.423 151.332C18.5863 150.737 18.5576 150.106 18.3411 149.528C18.2737 149.328 18.146 149.153 17.9756 149.028C17.8051 148.902 17.6001 148.833 17.3886 148.829C17.139 148.85 16.8965 148.923 16.6768 149.044C16.457 149.164 16.2648 149.329 16.1125 149.528C15.67 150.047 15.362 150.666 15.2159 151.332H15.2084Z" fill="#A6A6A6"/>
<path d="M82.7283 117.059C82.7283 117.059 81.1359 123.961 80.4625 126.885C79.789 129.809 77.0135 131.67 77.0135 131.67H61.8152C61.8152 131.67 64.52 128.451 65.0706 126.063L67.1504 117.059H82.7283Z" fill="#59B3FF"/>
<path d="M22.694 112.241C22.4298 112.233 22.1701 112.171 21.9317 112.057C21.6933 111.942 21.4815 111.78 21.3099 111.579C20.9379 111.151 20.4133 110.169 20.9379 108.386C21.4327 106.753 22.6195 106.08 23.5422 106.255C24.2491 106.389 25.0304 107.107 24.8928 108.688C24.8891 108.747 24.8735 108.805 24.8469 108.857C24.8204 108.91 24.7834 108.957 24.7382 108.996C24.693 109.034 24.6406 109.062 24.584 109.08C24.5275 109.097 24.468 109.103 24.4091 109.097C24.2906 109.086 24.1813 109.028 24.1048 108.937C24.0282 108.846 23.9905 108.728 23.9999 108.61C24.0705 107.787 23.8287 107.222 23.3748 107.121C22.8614 107.025 22.1322 107.52 21.7973 108.632C21.4922 109.648 21.5555 110.492 21.9796 110.98C22.0685 111.097 22.1839 111.192 22.3165 111.257C22.449 111.322 22.5949 111.354 22.7423 111.352C22.803 111.338 22.8657 111.338 22.9265 111.35C22.9874 111.362 23.0451 111.387 23.096 111.422C23.1469 111.458 23.1899 111.504 23.2223 111.556C23.2547 111.609 23.2758 111.668 23.2843 111.73C23.2928 111.791 23.2885 111.854 23.2717 111.914C23.2548 111.973 23.2258 112.029 23.1864 112.077C23.147 112.125 23.0982 112.164 23.0429 112.193C22.9876 112.221 22.9271 112.237 22.8651 112.241C22.8081 112.244 22.751 112.244 22.694 112.241Z" fill="#A6A6A6"/>
<path d="M28.2376 112.241C27.9709 112.236 27.7082 112.174 27.467 112.06C27.2258 111.946 27.0117 111.782 26.8387 111.579C26.4667 111.151 25.9421 110.169 26.4667 108.386C26.9578 106.753 28.1484 106.08 29.071 106.255C29.7779 106.389 30.5593 107.107 30.4216 108.688C30.4174 108.747 30.4015 108.804 30.3747 108.857C30.348 108.909 30.311 108.956 30.266 108.994C30.2209 109.032 30.1687 109.061 30.1123 109.079C30.056 109.096 29.9967 109.103 29.9379 109.097C29.82 109.083 29.7123 109.023 29.6379 108.931C29.5635 108.838 29.5283 108.72 29.5398 108.602C29.6105 107.78 29.3687 107.214 28.9148 107.114C28.3976 107.017 27.6721 107.512 27.3373 108.625C27.0285 109.64 27.0954 110.485 27.5196 110.972C27.6085 111.09 27.7239 111.185 27.8564 111.249C27.989 111.314 28.1349 111.347 28.2823 111.344C28.3429 111.331 28.4057 111.33 28.4665 111.343C28.5274 111.355 28.5851 111.379 28.636 111.415C28.6869 111.45 28.7299 111.496 28.7623 111.549C28.7947 111.602 28.8158 111.661 28.8243 111.722C28.8328 111.784 28.8285 111.847 28.8116 111.906C28.7948 111.966 28.7658 112.022 28.7264 112.07C28.687 112.118 28.6381 112.157 28.5829 112.185C28.5276 112.213 28.467 112.23 28.4051 112.233C28.3494 112.239 28.2935 112.242 28.2376 112.241Z" fill="#A6A6A6"/>
<path d="M33.7478 112.241C33.4842 112.233 33.2251 112.171 32.9873 112.056C32.7495 111.942 32.5384 111.78 32.3675 111.579C31.9955 111.151 31.4709 110.169 31.9955 108.386C32.4866 106.753 33.6772 106.08 34.5999 106.255C35.3068 106.389 36.0881 107.107 35.9504 108.688C35.9462 108.747 35.9303 108.804 35.9035 108.857C35.8768 108.909 35.8398 108.956 35.7948 108.994C35.7497 109.032 35.6975 109.061 35.6411 109.079C35.5848 109.096 35.5255 109.103 35.4667 109.097C35.3478 109.087 35.238 109.029 35.1612 108.938C35.0845 108.847 35.0472 108.729 35.0575 108.61C35.1282 107.787 34.8863 107.222 34.4287 107.121C33.9711 107.021 33.1898 107.52 32.8549 108.632C32.5461 109.648 32.6131 110.492 33.0372 110.98C33.1243 111.095 33.2367 111.188 33.3658 111.253C33.4948 111.317 33.637 111.351 33.7813 111.352C33.842 111.338 33.9047 111.338 33.9656 111.35C34.0264 111.362 34.0841 111.387 34.135 111.422C34.1859 111.458 34.2289 111.504 34.2613 111.556C34.2937 111.609 34.3149 111.668 34.3233 111.73C34.3318 111.791 34.3275 111.854 34.3107 111.914C34.2938 111.973 34.2648 112.029 34.2254 112.077C34.1861 112.125 34.1372 112.164 34.0819 112.193C34.0266 112.221 33.9661 112.237 33.9041 112.241C33.8521 112.244 33.7999 112.244 33.7478 112.241Z" fill="#A6A6A6"/>
<path d="M39.2764 112.241C39.015 112.233 38.7583 112.169 38.523 112.055C38.2878 111.941 38.0792 111.779 37.9109 111.579C37.5389 111.151 37.0106 110.169 37.5389 108.386C38.03 106.753 39.2206 106.08 40.1432 106.255C40.8501 106.389 41.6315 107.107 41.4975 108.688C41.4924 108.746 41.4758 108.803 41.4486 108.856C41.4214 108.908 41.3842 108.954 41.3391 108.992C41.294 109.03 41.2419 109.058 41.1858 109.076C41.1297 109.094 41.0706 109.1 41.012 109.095C40.9534 109.09 40.8963 109.073 40.8441 109.046C40.7919 109.019 40.7456 108.982 40.7077 108.937C40.6699 108.892 40.6413 108.84 40.6236 108.783C40.6059 108.727 40.5995 108.668 40.6046 108.61C40.6716 107.787 40.4334 107.222 39.9758 107.121C39.5182 107.021 38.7369 107.52 38.402 108.632C38.0932 109.648 38.1602 110.492 38.5843 110.98C38.6712 111.095 38.7836 111.189 38.9127 111.253C39.0418 111.318 39.1841 111.351 39.3284 111.352C39.3891 111.338 39.4518 111.338 39.5127 111.35C39.5735 111.362 39.6312 111.387 39.6821 111.422C39.733 111.458 39.776 111.504 39.8085 111.556C39.8409 111.609 39.862 111.668 39.8705 111.73C39.8789 111.791 39.8746 111.854 39.8578 111.914C39.8409 111.973 39.8119 112.029 39.7725 112.077C39.7332 112.125 39.6843 112.164 39.629 112.193C39.5737 112.221 39.5132 112.237 39.4512 112.241C39.393 112.244 39.3346 112.244 39.2764 112.241Z" fill="#A6A6A6"/>
<path d="M44.805 112.241C44.5394 112.231 44.2789 112.165 44.0404 112.048C43.8019 111.931 43.5909 111.764 43.421 111.56C43.0489 111.132 42.5244 110.15 43.0489 108.368C43.5401 106.735 44.7306 106.061 45.6533 106.236C46.3602 106.37 47.1415 107.088 47.0076 108.669C47.0025 108.728 46.9858 108.785 46.9587 108.837C46.9315 108.889 46.8943 108.936 46.8492 108.973C46.8041 109.011 46.752 109.04 46.6959 109.058C46.6398 109.075 46.5807 109.082 46.5221 109.077C46.4634 109.071 46.4064 109.055 46.3542 109.028C46.302 109 46.2556 108.963 46.2178 108.918C46.18 108.873 46.1514 108.821 46.1337 108.765C46.116 108.709 46.1095 108.65 46.1147 108.591C46.1816 107.769 45.9435 107.203 45.4859 107.103C45.0283 107.002 44.247 107.501 43.9121 108.613C43.6033 109.629 43.6666 110.474 44.0944 110.961C44.1811 111.077 44.2934 111.17 44.4226 111.235C44.5517 111.299 44.6941 111.333 44.8385 111.333C44.8992 111.32 44.9619 111.319 45.0228 111.331C45.0836 111.344 45.1413 111.368 45.1922 111.404C45.2431 111.439 45.2861 111.485 45.3185 111.538C45.3509 111.591 45.372 111.65 45.3805 111.711C45.389 111.773 45.3847 111.835 45.3679 111.895C45.351 111.955 45.322 112.01 45.2826 112.058C45.2432 112.106 45.1944 112.146 45.1391 112.174C45.0838 112.202 45.0233 112.219 44.9613 112.222C44.9096 112.231 44.8574 112.237 44.805 112.241Z" fill="#A6A6A6"/>
<path d="M50.3338 112.241C50.0682 112.231 49.8077 112.165 49.5692 112.048C49.3307 111.931 49.1197 111.764 48.9498 111.56C48.5778 111.132 48.0532 110.15 48.5778 108.368C49.0689 106.735 50.2594 106.061 51.1821 106.236C51.889 106.37 52.6703 107.088 52.5364 108.669C52.5317 108.728 52.5154 108.786 52.4882 108.838C52.4611 108.891 52.4238 108.938 52.3784 108.976C52.3331 109.014 52.2806 109.043 52.224 109.06C52.1675 109.078 52.108 109.084 52.049 109.078C51.9305 109.067 51.8212 109.01 51.7447 108.918C51.6681 108.827 51.6304 108.71 51.6397 108.591C51.7104 107.769 51.4723 107.203 51.0147 107.103C50.5013 107.006 49.772 107.501 49.4372 108.613C49.1321 109.629 49.1954 110.474 49.6195 110.961C49.7086 111.078 49.8241 111.173 49.9566 111.238C50.089 111.303 50.2348 111.335 50.3822 111.333C50.4954 111.326 50.6069 111.363 50.6945 111.434C50.7821 111.506 50.8394 111.609 50.8549 111.721C50.8704 111.833 50.843 111.947 50.7781 112.04C50.7133 112.133 50.6157 112.198 50.505 112.222C50.4484 112.232 50.3912 112.238 50.3338 112.241Z" fill="#A6A6A6"/>
<path d="M55.8624 112.241C55.5968 112.231 55.3363 112.165 55.0978 112.048C54.8593 111.931 54.6482 111.764 54.4784 111.56C54.1063 111.132 53.5817 110.15 54.1063 108.368C54.6012 106.735 55.7917 106.061 56.7107 106.236C57.4176 106.37 58.1989 107.088 58.065 108.669C58.0603 108.728 58.0439 108.786 58.0168 108.838C57.9897 108.891 57.9524 108.938 57.907 108.976C57.8616 109.014 57.8091 109.043 57.7526 109.06C57.696 109.078 57.6365 109.084 57.5776 109.078C57.4591 109.067 57.3498 109.01 57.2732 108.918C57.1967 108.827 57.159 108.71 57.1683 108.591C57.239 107.769 56.9972 107.203 56.5433 107.103C56.0298 107.006 55.3006 107.501 54.9658 108.613C54.6607 109.629 54.7239 110.474 55.1481 110.961C55.2351 111.076 55.3475 111.17 55.4766 111.234C55.6057 111.299 55.7479 111.333 55.8922 111.333C55.9528 111.32 56.0155 111.319 56.0764 111.331C56.1373 111.344 56.195 111.368 56.2459 111.404C56.2968 111.439 56.3398 111.485 56.3722 111.538C56.4046 111.591 56.4257 111.65 56.4342 111.711C56.4427 111.773 56.4384 111.835 56.4215 111.895C56.4047 111.955 56.3756 112.01 56.3363 112.058C56.2969 112.106 56.248 112.146 56.1927 112.174C56.1374 112.202 56.0769 112.219 56.015 112.222C55.9645 112.231 55.9135 112.237 55.8624 112.241Z" fill="#A6A6A6"/>
<path d="M61.3912 112.241C61.1256 112.231 60.8651 112.165 60.6266 112.048C60.3881 111.931 60.177 111.764 60.0072 111.56C59.6351 111.132 59.1105 110.15 59.6351 108.368C60.13 106.735 61.3168 106.061 62.2395 106.236C62.9464 106.37 63.7277 107.088 63.5901 108.669C63.5864 108.728 63.5708 108.786 63.5442 108.839C63.5176 108.892 63.4806 108.939 63.4355 108.977C63.3903 109.015 63.3378 109.044 63.2813 109.061C63.2247 109.079 63.1652 109.085 63.1064 109.078C62.9879 109.067 62.8786 109.01 62.802 108.918C62.7255 108.827 62.6878 108.71 62.6971 108.591C62.7678 107.769 62.526 107.203 62.0721 107.103C61.5586 107.006 60.8294 107.501 60.4946 108.613C60.1895 109.629 60.2527 110.474 60.6769 110.961C60.7658 111.079 60.8812 111.174 61.0137 111.238C61.1463 111.303 61.2922 111.335 61.4396 111.333C61.5527 111.326 61.6642 111.363 61.7519 111.434C61.8395 111.506 61.8968 111.609 61.9123 111.721C61.9278 111.833 61.9003 111.947 61.8355 112.04C61.7706 112.133 61.6731 112.198 61.5624 112.222C61.5057 112.232 61.4486 112.238 61.3912 112.241Z" fill="#A6A6A6"/>
<path d="M66.931 112.241C66.6659 112.231 66.4059 112.165 66.168 112.048C65.9302 111.931 65.7198 111.764 65.5506 111.56C65.1786 111.132 64.654 110.15 65.1786 108.368C65.6697 106.735 66.8603 106.061 67.783 106.236C68.4899 106.37 69.2712 107.088 69.1335 108.669C69.1293 108.728 69.1134 108.786 69.0867 108.838C69.0599 108.891 69.0229 108.938 68.9779 108.976C68.9328 109.014 68.8806 109.043 68.8242 109.06C68.7679 109.078 68.7086 109.084 68.6498 109.078C68.531 109.068 68.4211 109.011 68.3443 108.919C68.2676 108.828 68.2303 108.71 68.2406 108.591C68.3113 107.769 68.0694 107.203 67.6118 107.103C67.1542 107.002 66.3729 107.501 66.038 108.613C65.7292 109.629 65.7962 110.474 66.2203 110.961C66.3074 111.076 66.4198 111.17 66.5489 111.234C66.6779 111.299 66.8201 111.333 66.9644 111.333C67.0251 111.32 67.0878 111.319 67.1487 111.331C67.2095 111.344 67.2672 111.368 67.3181 111.404C67.369 111.439 67.412 111.485 67.4444 111.538C67.4769 111.591 67.498 111.65 67.5065 111.711C67.5149 111.773 67.5106 111.835 67.4938 111.895C67.4769 111.955 67.4479 112.01 67.4085 112.058C67.3692 112.106 67.3203 112.146 67.265 112.174C67.2097 112.202 67.1492 112.219 67.0872 112.222C67.0355 112.231 66.9833 112.237 66.931 112.241Z" fill="#A6A6A6"/>
<path d="M72.4448 112.241C72.1795 112.232 71.919 112.167 71.6809 112.05C71.4428 111.932 71.2327 111.765 71.0645 111.56C70.6924 111.132 70.1641 110.15 70.6924 108.368C71.1835 106.735 72.3741 106.061 73.2968 106.236C74.0074 106.37 74.785 107.088 74.6511 108.669C74.6469 108.728 74.6309 108.786 74.6042 108.838C74.5775 108.891 74.5405 108.938 74.4954 108.976C74.4504 109.014 74.3981 109.043 74.3418 109.06C74.2855 109.078 74.2262 109.084 74.1674 109.078C74.0485 109.068 73.9386 109.011 73.8619 108.919C73.7851 108.828 73.7478 108.71 73.7582 108.591C73.8251 107.769 73.587 107.203 73.1294 107.103C72.616 107.006 71.8904 107.501 71.5556 108.613C71.2468 109.629 71.3138 110.474 71.7379 110.961C71.8268 111.079 71.9422 111.174 72.0748 111.238C72.2073 111.303 72.3532 111.335 72.5006 111.333C72.6138 111.326 72.7253 111.363 72.8129 111.434C72.9005 111.506 72.9578 111.609 72.9733 111.721C72.9888 111.833 72.9614 111.947 72.8965 112.04C72.8316 112.133 72.7341 112.198 72.6234 112.222C72.5643 112.232 72.5047 112.238 72.4448 112.241Z" fill="#A6A6A6"/>
<path d="M77.9737 112.241C77.7121 112.231 77.4553 112.168 77.2196 112.054C76.9839 111.94 76.7745 111.778 76.6046 111.579C76.2325 111.151 75.7079 110.169 76.2325 108.386C76.7237 106.753 77.9142 106.08 78.8369 106.255C79.5438 106.389 80.3251 107.107 80.1912 108.688C80.187 108.747 80.1711 108.804 80.1443 108.857C80.1176 108.909 80.0806 108.956 80.0355 108.994C79.9905 109.032 79.9382 109.061 79.8819 109.079C79.8256 109.096 79.7663 109.103 79.7075 109.097C79.6485 109.092 79.5909 109.076 79.5383 109.049C79.4856 109.022 79.4389 108.984 79.4008 108.939C79.3627 108.894 79.334 108.841 79.3164 108.785C79.2988 108.728 79.2926 108.669 79.2983 108.61C79.3652 107.787 79.1271 107.222 78.6695 107.121C78.2119 107.021 77.4306 107.52 77.0957 108.632C76.7869 109.648 76.8539 110.492 77.278 110.98C77.3648 111.095 77.4772 111.189 77.6063 111.253C77.7355 111.318 77.8778 111.351 78.0221 111.352C78.0828 111.338 78.1455 111.338 78.2063 111.35C78.2672 111.362 78.3249 111.387 78.3758 111.422C78.4267 111.458 78.4697 111.504 78.5021 111.556C78.5345 111.609 78.5556 111.668 78.5641 111.73C78.5726 111.791 78.5683 111.854 78.5515 111.914C78.5346 111.973 78.5056 112.029 78.4662 112.077C78.4268 112.125 78.378 112.164 78.3227 112.193C78.2674 112.221 78.2069 112.237 78.1449 112.241C78.0879 112.244 78.0308 112.244 77.9737 112.241Z" fill="#A6A6A6"/>
<path d="M83.5023 112.241C83.2367 112.231 82.9761 112.165 82.7377 112.048C82.4992 111.931 82.2881 111.764 82.1183 111.56C81.7462 111.132 81.2216 110.15 81.7462 108.368C82.2373 106.735 83.4279 106.061 84.3506 106.236C85.0575 106.37 85.8388 107.088 85.7049 108.669C85.6997 108.728 85.6831 108.785 85.6559 108.837C85.6287 108.889 85.5915 108.936 85.5465 108.973C85.5014 109.011 85.4493 109.04 85.3931 109.058C85.337 109.075 85.278 109.082 85.2193 109.077C85.1607 109.071 85.1036 109.055 85.0514 109.028C84.9992 109 84.9529 108.963 84.9151 108.918C84.8772 108.873 84.8487 108.821 84.831 108.765C84.8133 108.709 84.8068 108.65 84.8119 108.591C84.8789 107.769 84.6408 107.203 84.1832 107.103C83.6697 107.006 82.9442 107.501 82.6057 108.613C82.3006 109.629 82.3638 110.474 82.788 110.961C82.875 111.076 82.9874 111.17 83.1165 111.234C83.2455 111.299 83.3878 111.333 83.5321 111.333C83.6457 111.325 83.7582 111.36 83.8469 111.432C83.9355 111.503 83.9938 111.606 84.0098 111.719C84.0259 111.832 83.9985 111.946 83.9333 112.04C83.8682 112.133 83.77 112.198 83.6586 112.222C83.6068 112.231 83.5547 112.237 83.5023 112.241Z" fill="#A6A6A6"/>
<path d="M89.0309 112.241C88.7653 112.231 88.5047 112.165 88.2662 112.048C88.0277 111.931 87.8167 111.764 87.6468 111.56C87.2748 111.132 86.7502 110.15 87.2748 108.368C87.7659 106.735 88.9565 106.061 89.8791 106.236C90.586 106.37 91.3674 107.088 91.2334 108.669C91.2288 108.728 91.2124 108.786 91.1853 108.838C91.1581 108.891 91.1208 108.938 91.0754 108.976C91.0301 109.014 90.9776 109.043 90.921 109.06C90.8645 109.078 90.805 109.084 90.746 109.078C90.6275 109.067 90.5182 109.01 90.4417 108.918C90.3651 108.827 90.3275 108.71 90.3368 108.591C90.4075 107.769 90.1656 107.203 89.7117 107.103C89.1983 107.006 88.4728 107.501 88.1342 108.613C87.8291 109.629 87.8924 110.474 88.3165 110.961C88.4054 111.079 88.5209 111.174 88.6534 111.238C88.7859 111.303 88.9318 111.335 89.0792 111.333C89.1924 111.326 89.3039 111.363 89.3915 111.434C89.4791 111.506 89.5364 111.609 89.5519 111.721C89.5674 111.833 89.54 111.947 89.4751 112.04C89.4103 112.133 89.3127 112.198 89.202 112.222C89.1454 112.232 89.0882 112.238 89.0309 112.241Z" fill="#A6A6A6"/>
<path d="M151.302 116.14C151.396 114.542 151.621 112.954 151.975 111.393C152.257 109.955 152.835 108.592 153.672 107.389C154.062 106.841 154.557 106.376 155.127 106.02C155.698 105.665 156.334 105.426 156.998 105.317C158.3 105.157 159.52 105.737 160.495 106.56C161.704 107.575 162.627 108.922 163.494 110.224C164.45 111.684 165.32 113.198 166.098 114.76C166.102 114.77 166.101 114.781 166.097 114.791C166.093 114.8 166.086 114.809 166.077 114.814C166.067 114.818 166.056 114.82 166.046 114.818C166.036 114.815 166.026 114.809 166.02 114.801C165.35 113.478 164.577 112.21 163.706 111.009C162.914 109.856 162.021 108.775 161.038 107.78C160.145 106.906 159.007 106.091 157.712 106.05C157.077 106.058 156.453 106.213 155.889 106.504C155.324 106.794 154.835 107.212 154.46 107.724C153.59 108.84 153.151 110.221 152.82 111.575C152.469 113.061 152.239 114.573 152.131 116.095C151.875 119.221 151.808 122.368 151.737 125.505C151.697 127.278 151.67 129.053 151.655 130.829L151.633 133.526C151.667 134.396 151.632 135.266 151.529 136.13C151.518 136.167 151.495 136.2 151.464 136.223C151.433 136.246 151.396 136.258 151.357 136.258C151.319 136.258 151.282 136.246 151.251 136.223C151.22 136.2 151.197 136.167 151.186 136.13C151.08 135.313 151.04 134.488 151.067 133.664C151.052 132.813 151.041 131.961 151.034 131.108C151.019 129.451 151.013 127.794 151.015 126.137C151.034 122.8 151.075 119.459 151.302 116.14Z" fill="#263238"/>
<path d="M155.77 113.785C155.937 112.899 156.235 111.746 156.737 111.061C157.645 109.83 158.62 110.366 157.716 111.727C157.049 112.736 156.616 113.879 156.447 115.076C156.447 115.076 157.969 117.249 159.795 118.32C159.717 117.483 159.479 116.2 159.643 114.972C159.996 112.289 161.618 112.438 161.217 114.574C160.924 115.991 160.799 117.439 160.844 118.886C161.457 119.284 162.115 119.608 162.805 119.849C162.701 119.537 162.589 119.165 162.467 118.711C161.812 116.304 163.419 115.552 163.471 116.906C163.573 118.062 163.782 119.205 164.096 120.322C164.978 120.62 165.707 120.82 166.154 120.977C167.311 121.404 168.345 122.111 169.164 123.034C170.001 122.279 170.696 121.381 171.217 120.381C170.656 119.898 169.77 119.18 168.539 118.309C166.228 116.679 167.05 114.622 168.862 115.902C170.183 116.825 171.206 118.536 171.671 119.414C172.298 117.885 172.653 116.258 172.72 114.607C170.905 112.907 166.422 110.533 167.772 110.533C168.989 110.533 171.712 112.315 172.709 113.004C172.684 112.536 172.633 112.07 172.557 111.608C170.849 110.492 165.298 108.747 166.183 108.26C167.154 107.713 171.02 109.503 172.196 110.072C171.978 109.311 171.632 108.592 171.173 107.947C168.81 104.789 164.558 103.699 162.701 104.301C161.388 104.725 161.771 108.059 161.488 107.947C156.224 105.808 153.828 107.307 155.77 113.785ZM168.706 113.413C169.078 112.963 170.812 114.291 170.313 115.02C169.815 115.749 168.222 113.997 168.706 113.417V113.413ZM159.658 110.57C160.112 110.861 159.438 112.546 158.735 112.036C158.14 111.605 159.2 110.284 159.658 110.574V110.57Z" fill="#59B3FF"/>
<path d="M160.346 111.091C160.584 110.619 160.833 110.154 161.09 109.7C161.341 109.252 161.634 108.828 161.964 108.435L161.737 108.156C161.708 108.119 161.76 108.066 161.793 108.104C161.883 108.204 161.964 108.308 162.05 108.412C162.059 108.416 162.067 108.422 162.073 108.429C162.079 108.436 162.084 108.444 162.087 108.453C162.415 108.825 162.72 109.246 163.014 109.659C163.533 109.776 164.045 109.924 164.546 110.102C165.064 110.276 165.577 110.474 166.079 110.667C166.135 110.689 166.109 110.779 166.053 110.753C165.558 110.533 165.052 110.321 164.535 110.146C164.018 109.971 163.549 109.852 163.047 109.715C163.207 109.942 163.363 110.169 163.516 110.403C164.448 110.702 165.355 111.075 166.228 111.519C167.143 111.954 168.025 112.46 168.903 112.966C168.952 112.996 168.903 113.074 168.855 113.045C167.992 112.541 167.104 112.081 166.195 111.668C165.346 111.27 164.468 110.942 163.613 110.552C165.767 113.9 167.058 117.799 168.788 121.39C168.814 121.442 168.732 121.486 168.71 121.434C168.181 120.173 167.575 118.945 166.998 117.714C166.485 116.598 165.979 115.481 165.462 114.365C165.313 114.042 165.157 113.714 165 113.391C165.093 115.188 165.056 117.014 165.35 118.789C165.35 118.801 165.345 118.812 165.337 118.821C165.329 118.829 165.317 118.834 165.305 118.834C165.294 118.834 165.282 118.829 165.274 118.821C165.266 118.812 165.261 118.801 165.261 118.789C165.138 116.869 164.799 114.979 164.811 113.048C164.811 113.048 164.811 113.048 164.811 113.022C164.446 112.278 164.054 111.558 163.635 110.861C162.921 112.542 162.169 114.25 161.838 116.069C161.838 116.125 161.737 116.099 161.752 116.043C162.236 114.235 162.686 112.423 163.561 110.749C163.102 109.988 162.595 109.257 162.043 108.561C161.801 109.008 161.496 109.432 161.224 109.856C160.952 110.28 160.696 110.693 160.45 111.125C159.917 112.033 159.465 112.987 159.1 113.975C159.081 114.027 158.992 114.001 159.014 113.949C159.461 112.981 159.877 112.021 160.346 111.091Z" fill="#263238"/>
<path d="M145.006 116.3C146.193 114.741 147.544 112.725 149.664 112.442C151.711 112.17 153.433 113.618 154.527 115.199C155.669 116.854 156.265 118.823 156.782 120.742C157.397 123.046 157.893 125.379 158.27 127.733C158.486 129.039 158.642 130.338 158.798 131.666C158.978 132.995 159.057 134.336 159.033 135.677C159.033 135.892 158.683 135.948 158.638 135.721C158.43 134.624 158.326 133.507 158.184 132.402C158.043 131.297 157.879 130.23 157.693 129.147C157.321 126.956 156.864 124.783 156.313 122.632C155.829 120.75 155.386 118.811 154.568 117.052C153.824 115.455 152.607 113.684 150.825 113.178C148.388 112.49 146.383 114.615 145.084 116.356C145.062 116.393 144.973 116.345 145.006 116.3Z" fill="#263238"/>
<path d="M137.387 118.648C137.387 118.93 137.387 119.213 137.387 119.489C138.074 119.022 138.867 118.737 139.693 118.659C141.665 118.544 141.468 120.028 140.155 120.028C139.232 119.996 138.311 120.135 137.439 120.437C137.636 123.042 138.25 125.159 138.354 125.192C140.098 125.174 141.838 125.038 143.563 124.783C143.124 123.722 142.075 122.286 142.651 122.205C143.228 122.123 143.767 123.376 144.032 124.712C145.328 124.528 146.608 124.242 147.86 123.856C147.034 123.071 145.747 122.078 146.275 121.706C146.803 121.334 147.797 122.692 148.385 123.674C148.975 123.467 149.537 123.189 150.059 122.844C148.976 121.081 146.163 120.612 146.591 119.381C147.019 118.149 149.586 120.002 150.684 122.357C152.15 120.973 152.656 118.945 152.593 117.186C151.383 116.985 149.028 117.13 149.244 116.263C149.46 115.396 151.138 115.645 152.499 116.222C152.405 115.522 152.159 114.852 151.778 114.257C150.576 112.55 146.569 114.455 146.569 114.455C146.569 114.455 147.175 110.541 145.713 109.789C144.872 109.358 143.354 109.291 141.788 110.113C142.64 110.224 143.648 110.544 144.046 111.158C144.541 111.94 143.674 112.312 143.168 111.936C142.796 111.672 142.142 110.861 140.884 110.697C140.323 111.123 139.822 111.624 139.396 112.185C139.238 112.388 139.09 112.599 138.953 112.818C139.691 112.526 140.484 112.402 141.275 112.454C142.066 112.506 142.836 112.733 143.529 113.119C145.185 114.042 144.154 115.757 142.726 115.005C141.297 114.254 139.943 113.517 138.376 113.826C137.764 115.195 137.438 116.675 137.42 118.175C138.205 117.662 139.076 117.294 139.991 117.089C141.703 116.717 142.164 117.758 140.3 117.859C139.285 117.92 138.294 118.189 137.387 118.648ZM139.567 116.043C139.478 115.489 140.683 115.388 140.862 115.842C141.007 116.214 139.656 116.579 139.567 116.043ZM149.661 119.559C149.787 119.265 150.572 119.641 150.479 120.009C150.356 120.486 149.527 119.835 149.661 119.544V119.559ZM143.916 121.204C144.512 120.999 145.352 122.495 144.701 122.796C144.05 123.097 143.433 121.36 143.916 121.189V121.204Z" fill="#59B3FF"/>
<path opacity="0.1" d="M137.387 118.648C137.387 118.93 137.387 119.213 137.387 119.489C138.074 119.022 138.867 118.737 139.693 118.659C141.665 118.544 141.468 120.028 140.155 120.028C139.232 119.996 138.311 120.135 137.439 120.437C137.636 123.042 138.25 125.159 138.354 125.192C140.098 125.174 141.838 125.038 143.563 124.783C143.124 123.722 142.075 122.286 142.651 122.205C143.228 122.123 143.767 123.376 144.032 124.712C145.328 124.528 146.608 124.242 147.86 123.856C147.034 123.071 145.747 122.078 146.275 121.706C146.803 121.334 147.797 122.692 148.385 123.674C148.975 123.467 149.537 123.189 150.059 122.844C148.976 121.081 146.163 120.612 146.591 119.381C147.019 118.149 149.586 120.002 150.684 122.357C152.15 120.973 152.656 118.945 152.593 117.186C151.383 116.985 149.028 117.13 149.244 116.263C149.46 115.396 151.138 115.645 152.499 116.222C152.405 115.522 152.159 114.852 151.778 114.257C150.576 112.55 146.569 114.455 146.569 114.455C146.569 114.455 147.175 110.541 145.713 109.789C144.872 109.358 143.354 109.291 141.788 110.113C142.64 110.224 143.648 110.544 144.046 111.158C144.541 111.94 143.674 112.312 143.168 111.936C142.796 111.672 142.142 110.861 140.884 110.697C140.323 111.123 139.822 111.624 139.396 112.185C139.238 112.388 139.09 112.599 138.953 112.818C139.691 112.526 140.484 112.402 141.275 112.454C142.066 112.506 142.836 112.733 143.529 113.119C145.185 114.042 144.154 115.757 142.726 115.005C141.297 114.254 139.943 113.517 138.376 113.826C137.764 115.195 137.438 116.675 137.42 118.175C138.205 117.662 139.076 117.294 139.991 117.089C141.703 116.717 142.164 117.758 140.3 117.859C139.285 117.92 138.294 118.189 137.387 118.648ZM139.567 116.043C139.478 115.489 140.683 115.388 140.862 115.842C141.007 116.214 139.656 116.579 139.567 116.043ZM149.661 119.559C149.787 119.265 150.572 119.641 150.479 120.009C150.356 120.486 149.527 119.835 149.661 119.544V119.559ZM143.916 121.204C144.512 120.999 145.352 122.495 144.701 122.796C144.05 123.097 143.433 121.36 143.916 121.189V121.204Z" fill="black"/>
<path d="M138.604 124.894C139.552 123.466 140.494 122.03 141.487 120.631C141.948 119.981 142.428 119.343 142.927 118.718L142.722 118.659L142.372 118.577C142.105 118.517 141.837 118.465 141.565 118.424C141.31 118.384 141.053 118.357 140.795 118.343C140.52 118.315 140.244 118.315 139.969 118.343C139.935 118.343 139.932 118.298 139.969 118.298C140.244 118.324 140.527 118.298 140.802 118.298C141.078 118.298 141.338 118.328 141.602 118.357C141.866 118.387 142.101 118.421 142.346 118.469L142.752 118.562C142.835 118.577 142.917 118.599 142.997 118.625C143.508 117.993 144.033 117.373 144.571 116.765C143.084 115.952 141.488 115.358 139.831 115.002C139.805 115.002 139.831 114.953 139.831 114.957C141.515 115.273 143.138 115.852 144.642 116.672C144.94 116.341 145.237 116.01 145.539 115.682C145.84 115.355 146.234 114.957 146.539 114.566C146.562 114.54 146.599 114.566 146.577 114.592C146.16 115.01 145.765 115.448 145.393 115.906C146.001 116.374 146.577 116.882 147.116 117.427C147.674 117.974 148.232 118.543 148.749 119.113C148.768 119.135 148.749 119.165 148.716 119.146C148.195 118.573 147.652 118.03 147.079 117.505C146.506 116.981 145.907 116.497 145.33 115.98L144.895 116.497C144.824 116.586 144.75 116.672 144.675 116.758C144.677 116.764 144.677 116.77 144.675 116.776L143.946 117.654C144.194 118.053 144.402 118.476 144.568 118.916C144.746 119.34 144.895 119.775 145.033 120.214C145.304 121.127 145.506 122.06 145.635 123.004C145.635 123.03 145.594 123.042 145.591 123.004C145.448 122.073 145.224 121.155 144.921 120.262C144.772 119.805 144.597 119.358 144.419 118.912C144.24 118.465 144.047 118.112 143.898 117.703L143.273 118.465L143.098 118.692C143.1 118.696 143.101 118.7 143.1 118.705C143.1 118.709 143.099 118.713 143.097 118.717C143.095 118.721 143.091 118.724 143.088 118.726C143.084 118.728 143.08 118.729 143.076 118.729C142.432 119.544 141.814 120.381 141.215 121.226C141.245 121.289 141.268 121.355 141.282 121.423C141.312 121.527 141.342 121.639 141.368 121.747C141.42 121.965 141.461 122.186 141.491 122.409C141.517 122.617 141.535 122.829 141.546 123.038C141.538 123.276 141.544 123.515 141.565 123.752C141.565 123.789 141.513 123.789 141.524 123.752C141.548 123.53 141.541 123.306 141.506 123.086C141.483 122.856 141.453 122.629 141.413 122.402C141.372 122.175 141.327 121.996 141.279 121.795C141.253 121.691 141.226 121.591 141.197 121.494C141.167 121.397 141.156 121.382 141.141 121.326C140.862 121.725 140.583 122.123 140.308 122.528C139.761 123.324 139.221 124.124 138.678 124.924C138.641 124.973 138.577 124.935 138.604 124.894Z" fill="#263238"/>
<path d="M150.915 133.359C150.937 132.615 151.052 131.893 151.13 131.167C151.208 130.442 151.29 129.709 151.368 128.976C151.467 127.559 151.656 126.15 151.934 124.757C152.179 123.556 152.777 122.456 153.653 121.598C154.106 121.144 154.701 120.861 155.338 120.794C155.978 120.774 156.607 120.968 157.124 121.345C157.716 121.78 158.226 122.317 158.631 122.93C159.066 123.537 159.458 124.173 159.803 124.835C159.803 124.861 159.777 124.876 159.762 124.835C159.111 123.73 158.249 122.764 157.225 121.992C156.768 121.618 156.212 121.386 155.625 121.326C155.338 121.322 155.054 121.374 154.787 121.48C154.521 121.586 154.278 121.744 154.073 121.944C153.258 122.731 152.689 123.738 152.436 124.842C152.138 126.128 151.926 127.432 151.804 128.745C151.7 129.514 151.598 130.287 151.499 131.063C151.398 131.83 151.331 132.618 151.171 133.377C151.164 133.408 151.147 133.434 151.122 133.453C151.097 133.471 151.066 133.48 151.035 133.478C151.004 133.476 150.975 133.463 150.953 133.441C150.931 133.419 150.917 133.39 150.915 133.359Z" fill="#263238"/>
<path d="M154.509 127.685C154.734 127.992 155 128.266 155.301 128.5C155.182 127.785 155.037 126.52 155.398 125.847C155.956 124.798 156.614 125.319 156.283 126.219C155.951 127.041 155.768 127.915 155.744 128.801C156.504 129.277 157.319 129.66 158.17 129.943C158.078 129.533 158.049 129.112 158.084 128.693C158.196 127.577 159.051 127.577 158.828 128.756C158.747 129.208 158.708 129.666 158.713 130.125C159.949 130.507 161.213 130.792 162.493 130.977C163.146 130.129 163.673 129.191 164.056 128.191C163.148 127.964 161.302 127.912 161.34 127.261C161.392 126.386 163.2 127.06 164.227 127.696C164.466 126.933 164.571 126.136 164.539 125.337C163.719 125.108 162.877 124.969 162.028 124.92C160.168 124.76 160.246 123.696 161.604 123.722C162.608 123.741 163.877 124.355 164.476 124.671C164.085 122.123 162.139 120.486 160.581 120.422C157.958 120.318 158.899 123.581 158.899 123.581C158.899 123.581 157.12 122.331 155.446 122.364C153.772 122.398 152.715 125.192 154.509 127.685ZM161.514 122.967C161.455 122.595 162.631 122.513 162.686 122.967C162.757 123.51 161.574 123.343 161.514 122.967ZM163.397 126.796C163.375 126.557 163.881 126.517 163.992 126.818C164.07 127.015 163.419 127.034 163.397 126.796ZM157.098 127.019C157.493 127.075 157.719 128.488 157.039 128.462C156.518 128.44 156.763 126.974 157.098 127.019Z" fill="#59B3FF"/>
<path d="M157.645 128.589C157.712 128.414 157.768 128.217 157.823 128.057C157.775 128.239 157.727 128.429 157.693 128.604C157.693 128.608 157.692 128.612 157.69 128.615C157.688 128.618 157.685 128.621 157.682 128.624C157.679 128.626 157.675 128.627 157.671 128.628C157.667 128.629 157.663 128.628 157.659 128.627C157.656 128.626 157.652 128.624 157.649 128.621C157.647 128.619 157.644 128.615 157.643 128.612C157.641 128.608 157.641 128.604 157.641 128.6C157.642 128.596 157.643 128.592 157.645 128.589Z" fill="#263238"/>
<path d="M158.337 126.319C158.46 125.947 158.598 125.598 158.739 125.24C158.817 125.051 158.891 124.868 158.977 124.679C159.035 124.511 159.114 124.351 159.211 124.202C159.129 124.056 159.058 123.903 158.999 123.745C158.999 123.745 158.999 123.719 159.022 123.745C159.217 123.992 159.387 124.257 159.531 124.537C159.606 124.66 159.676 124.787 159.747 124.909C159.896 124.924 160.044 124.947 160.19 124.98C160.346 125.006 160.502 125.04 160.659 125.073L161.127 125.185C161.28 125.218 161.433 125.27 161.593 125.296C161.626 125.296 161.611 125.36 161.593 125.345C161.433 125.288 161.268 125.245 161.101 125.214C160.953 125.185 160.8 125.159 160.648 125.136L160.19 125.081L159.844 125.051C159.903 125.162 159.97 125.27 160.03 125.382C160.03 125.382 160.049 125.415 160.06 125.434C160.185 125.432 160.31 125.447 160.432 125.479C160.566 125.501 160.703 125.527 160.837 125.557C161.109 125.62 161.384 125.683 161.652 125.758C162.221 125.918 162.768 126.1 163.341 126.282C163.371 126.282 163.341 126.338 163.323 126.327C162.766 126.141 162.199 125.985 161.626 125.858C161.358 125.799 161.09 125.735 160.819 125.68L160.417 125.594C160.31 125.578 160.204 125.554 160.101 125.523C160.391 126.059 160.662 126.598 160.912 127.153C161.455 128.355 161.916 129.597 162.381 130.832C162.381 130.862 162.344 130.881 162.333 130.832C161.883 129.604 161.361 128.402 160.77 127.235L160.454 126.598C160.442 126.641 160.432 126.685 160.424 126.729L160.346 127.168C160.298 127.458 160.249 127.752 160.205 128.046C160.08 128.646 160.009 129.256 159.993 129.869C159.993 129.906 159.937 129.902 159.944 129.869C159.989 129.579 159.989 129.274 160.008 128.98C160.026 128.686 160.049 128.366 160.086 128.061C160.123 127.756 160.156 127.473 160.205 127.179L160.283 126.74C160.291 126.63 160.319 126.523 160.365 126.424C160.212 126.115 160.06 125.806 159.903 125.497C159.747 125.188 159.61 124.924 159.461 124.638C159.397 124.515 159.33 124.392 159.263 124.266C159.213 124.416 159.155 124.564 159.089 124.708C159.022 124.872 158.955 125.04 158.884 125.203C158.735 125.575 158.594 125.947 158.456 126.319C158.255 126.844 158.036 127.384 157.876 127.93C158.025 127.395 158.158 126.833 158.337 126.319Z" fill="#263238"/>
<path d="M157.824 128.057C157.824 128.012 157.85 127.971 157.865 127.93C157.85 127.971 157.839 128.012 157.824 128.057Z" fill="#263238"/>
<path d="M144.913 133.571L145.233 138.285L146.059 150.436H164.067L164.889 138.285L165.209 133.571H144.913Z" fill="#37474F"/>
<path d="M144.913 133.571L145.233 138.285H164.889L165.209 133.571H144.913Z" fill="#263238"/>
<path d="M143.634 135.476H166.489V131.666H143.634V135.476Z" fill="#37474F"/>
<path d="M162.608 150.436H159.446V152.43H162.608V150.436Z" fill="#37474F"/>
<path d="M162.608 150.436H159.446V151.433H162.608V150.436Z" fill="#263238"/>
<path d="M150.673 150.436H147.514V152.43H150.673V150.436Z" fill="#37474F"/>
<path d="M150.673 150.436H147.514V151.433H150.673V150.436Z" fill="#263238"/>
<path d="M140.568 36.8593C140.392 38.5595 139.747 40.1773 138.704 41.5319C137.662 42.8865 136.263 43.9244 134.664 44.5297C133.066 45.135 131.33 45.2838 129.652 44.9595C127.974 44.6351 126.419 43.8504 125.161 42.6931L120.548 43.3702L122.854 39.3818C122.277 37.978 122.06 36.4523 122.222 34.9432C122.338 33.731 122.693 32.5537 123.267 31.4794C123.84 30.4051 124.621 29.4551 125.564 28.684C126.506 27.913 127.592 27.3363 128.759 26.9872C129.926 26.6381 131.15 26.5234 132.361 26.6499C133.572 26.7764 134.746 27.1416 135.816 27.7242C136.885 28.3069 137.829 29.0955 138.592 30.0447C139.355 30.9939 139.922 32.0847 140.261 33.2544C140.6 34.424 140.705 35.6492 140.568 36.8593Z" fill="white"/>
<path d="M140.568 36.8593C140.389 38.5596 139.746 40.1777 138.708 41.536C138.448 41.8722 138.168 42.1927 137.87 42.4959C137.563 42.7911 137.237 43.067 136.896 43.3219C136.214 43.8382 135.462 44.2554 134.663 44.5608C133.475 45.0301 132.2 45.2406 130.924 45.1784C130.496 45.1673 130.069 45.1226 129.648 45.0445C127.946 44.7322 126.365 43.9513 125.083 42.7898L125.195 42.8233L120.585 43.5339L120.25 43.5823L120.421 43.2884L122.713 39.2925V39.4488C122.041 37.7984 121.856 35.9903 122.179 34.238C122.502 32.4858 123.32 30.8626 124.536 29.5602C125.752 28.2578 127.315 27.3306 129.041 26.8881C130.767 26.4456 132.584 26.5064 134.276 27.0632C135.609 27.5164 136.824 28.2613 137.833 29.2434C138.833 30.2249 139.599 31.4196 140.072 32.7384C140.546 34.0572 140.715 35.4659 140.568 36.8593ZM140.568 36.8593C140.714 35.4707 140.54 34.0671 140.059 32.7563C139.578 31.4456 138.802 30.2628 137.792 29.2989C136.782 28.3351 135.564 27.6158 134.232 27.1966C132.9 26.7774 131.49 26.6694 130.109 26.8809C128.743 27.0798 127.439 27.5888 126.3 28.3691C125.174 29.1613 124.233 30.1882 123.543 31.379C122.862 32.5737 122.461 33.9074 122.371 35.2796C122.281 36.6517 122.503 38.0264 123.022 39.3L123.052 39.3818L123.011 39.4562L120.689 43.4372L120.522 43.1954L125.139 42.548H125.206L125.25 42.5927C126.482 43.747 128.012 44.5344 129.667 44.8659C130.078 44.9522 130.496 45.0032 130.917 45.0184C131.337 45.0482 131.758 45.0482 132.178 45.0184C133.02 44.9537 133.85 44.7709 134.641 44.4752C135.439 44.1864 136.191 43.7828 136.873 43.2772C137.214 43.0252 137.54 42.7532 137.848 42.4624C138.148 42.1635 138.427 41.8454 138.685 41.51C139.729 40.1629 140.381 38.5534 140.568 36.8593Z" fill="#263238"/>
<path d="M130.314 41.1602L126.378 37.1756L127.698 35.8659L130.001 38.195L134.782 30.7018L136.349 31.7027L130.314 41.1602Z" fill="#59B3FF"/>
</svg>
