<svg width="242" height="234" viewBox="0 0 242 234" fill="none" xmlns="http://www.w3.org/2000/svg">
<path d="M167.436 44.0262L167.512 73.9015C167.513 74.2988 167.436 74.6925 167.286 75.0601C167.135 75.4278 166.914 75.7622 166.634 76.0442C166.354 76.3262 166.021 76.5503 165.655 76.7038C165.288 76.8572 164.895 76.937 164.498 76.9385L117.117 77.061C116.72 77.0617 116.326 76.9842 115.959 76.8329C115.591 76.6816 115.258 76.4594 114.976 76.179C114.695 75.8986 114.471 75.5655 114.318 75.1987C114.166 74.8319 114.087 74.4387 114.086 74.0414L114.01 44.1661C114.009 43.7966 114.08 43.4305 114.22 43.0886C114.36 42.7468 114.566 42.4359 114.827 42.1738C115.087 41.9118 115.397 41.7036 115.738 41.5614C116.079 41.4191 116.444 41.3455 116.814 41.3447L164.614 41.2223C164.984 41.2207 165.35 41.2921 165.692 41.4323C166.034 41.5724 166.345 41.7786 166.607 42.039C166.869 42.2995 167.077 42.6091 167.219 42.95C167.361 43.291 167.435 43.6567 167.436 44.0262Z" fill="#EBEBEB"/>
<path d="M159.799 69.716C159.801 70.2659 159.639 70.8039 159.334 71.2618C159.03 71.7197 158.596 72.077 158.088 72.2885C157.581 72.5 157.022 72.5563 156.482 72.4501C155.943 72.3439 155.447 72.0802 155.057 71.6921C154.667 71.304 154.401 70.8092 154.293 70.27C154.184 69.7308 154.238 69.1716 154.448 68.6631C154.657 68.1546 155.013 67.7196 155.469 67.4131C155.926 67.1066 156.463 66.9424 157.013 66.9412C157.378 66.9405 157.74 67.0116 158.078 67.1507C158.415 67.2897 158.722 67.4939 158.981 67.7515C159.24 68.0092 159.445 68.3153 159.586 68.6523C159.726 68.9894 159.799 69.3508 159.799 69.716Z" fill="#DBDBDB"/>
<path d="M163.227 69.7043C163.228 70.254 163.066 70.7917 162.762 71.2495C162.458 71.7073 162.024 72.0646 161.517 72.2763C161.01 72.488 160.451 72.5445 159.912 72.4389C159.372 72.3332 158.876 72.07 158.486 71.6825C158.096 71.295 157.83 70.8007 157.721 70.2619C157.612 69.7231 157.665 69.1641 157.874 68.6555C158.082 68.1469 158.437 67.7115 158.892 67.4043C159.348 67.0971 159.885 66.9319 160.435 66.9296C160.8 66.9281 161.163 66.9987 161.501 67.1373C161.839 67.276 162.147 67.4801 162.406 67.7378C162.666 67.9955 162.872 68.3019 163.012 68.6394C163.153 68.9768 163.226 69.3387 163.227 69.7043Z" fill="#8ACBFF"/>
<path d="M126.08 46.4474L120.951 46.4609C119.598 46.4644 118.505 47.5634 118.509 48.9156L118.514 50.95C118.517 52.3022 119.616 53.3954 120.969 53.3919L126.098 53.3785C127.451 53.3749 128.544 52.2759 128.54 50.9238L128.535 48.8893C128.531 47.5372 127.432 46.4439 126.08 46.4474Z" fill="#8ACBFF"/>
<path d="M161.274 50.1586H156.739C156.489 50.1594 156.241 50.1108 156.01 50.0156C155.779 49.9205 155.569 49.7806 155.391 49.6041C155.214 49.4275 155.074 49.2178 154.978 48.9869C154.882 48.7559 154.833 48.5083 154.833 48.2583C154.832 48.009 154.88 47.762 154.975 47.5315C155.07 47.3009 155.21 47.0914 155.386 46.9149C155.562 46.7383 155.771 46.5982 156.001 46.5027C156.231 46.4071 156.478 46.3579 156.727 46.3579H161.263C161.512 46.3564 161.76 46.4042 161.991 46.4988C162.222 46.5933 162.433 46.7326 162.61 46.9087C162.787 47.0847 162.927 47.2941 163.023 47.5247C163.119 47.7553 163.169 48.0027 163.169 48.2524C163.169 48.502 163.121 48.7493 163.026 48.9801C162.931 49.211 162.792 49.4209 162.616 49.5979C162.44 49.7749 162.231 49.9155 162.001 50.0117C161.771 50.1079 161.524 50.1579 161.274 50.1586Z" fill="white"/>
<path d="M143.926 67.2522L118.557 67.3186L118.56 68.566L143.929 68.4996L143.926 67.2522Z" fill="#DBDBDB"/>
<path d="M136.53 70.0463L118.57 70.0933L118.573 71.3408L136.533 71.2937L136.53 70.0463Z" fill="#DBDBDB"/>
<path d="M153.087 46.3768L140.432 46.4099L140.435 47.6574L153.091 47.6242L153.087 46.3768Z" fill="#DBDBDB"/>
<path d="M119.682 60.6164H119.507V62.511H119.682V60.6164Z" fill="#C7C7C7"/>
<path d="M120.539 61.4792H118.645V61.654H120.539V61.4792Z" fill="#C7C7C7"/>
<path d="M120.203 60.8296L118.86 62.1734L118.983 62.297L120.327 60.9533L120.203 60.8296Z" fill="#C7C7C7"/>
<path d="M118.989 60.8354L118.865 60.9591L120.209 62.3028L120.333 62.1792L118.989 60.8354Z" fill="#C7C7C7"/>
<path d="M121.961 60.6164H121.786V62.511H121.961V60.6164Z" fill="#C7C7C7"/>
<path d="M122.824 61.4792H120.93V61.654H122.824V61.4792Z" fill="#C7C7C7"/>
<path d="M122.485 60.8327L121.146 62.1723L121.269 62.2959L122.609 60.9563L122.485 60.8327Z" fill="#C7C7C7"/>
<path d="M121.265 60.8284L121.141 60.9521L122.481 62.2919L122.604 62.1683L121.265 60.8284Z" fill="#C7C7C7"/>
<path d="M124.246 60.6164H124.072V62.511H124.246V60.6164Z" fill="#C7C7C7"/>
<path d="M125.103 61.4792H123.209V61.654H125.103V61.4792Z" fill="#C7C7C7"/>
<path d="M123.547 62.2953L123.425 62.1729L124.765 60.8321L124.894 60.9545L123.547 62.2953Z" fill="#C7C7C7"/>
<path d="M124.765 62.2953L123.425 60.9545L123.547 60.8321L124.894 62.1729L124.765 62.2953Z" fill="#C7C7C7"/>
<path d="M126.526 60.6164H126.351V62.511H126.526V60.6164Z" fill="#C7C7C7"/>
<path d="M127.388 61.4792H125.494V61.654H127.388V61.4792Z" fill="#C7C7C7"/>
<path d="M125.832 62.2953L125.71 62.1729L127.05 60.8321L127.173 60.9545L125.832 62.2953Z" fill="#C7C7C7"/>
<path d="M127.05 62.2953L125.71 60.9545L125.832 60.8321L127.173 62.1729L127.05 62.2953Z" fill="#C7C7C7"/>
<path d="M131.51 60.6164H131.335V62.511H131.51V60.6164Z" fill="#C7C7C7"/>
<path d="M132.367 61.4792H130.472V61.654H132.367V61.4792Z" fill="#C7C7C7"/>
<path d="M130.816 62.2953L130.688 62.1729L132.028 60.8321L132.157 60.9545L130.816 62.2953Z" fill="#C7C7C7"/>
<path d="M132.028 62.2953L130.688 60.9545L130.816 60.8321L132.157 62.1729L132.028 62.2953Z" fill="#C7C7C7"/>
<path d="M133.789 60.6164H133.614V62.511H133.789V60.6164Z" fill="#C7C7C7"/>
<path d="M134.652 61.4792H132.757V61.654H134.652V61.4792Z" fill="#C7C7C7"/>
<path d="M133.095 62.2953L132.973 62.1729L134.314 60.8321L134.436 60.9545L133.095 62.2953Z" fill="#C7C7C7"/>
<path d="M134.314 62.2953L132.973 60.9545L133.095 60.8321L134.436 62.1729L134.314 62.2953Z" fill="#C7C7C7"/>
<path d="M136.074 60.6164H135.899V62.511H136.074V60.6164Z" fill="#C7C7C7"/>
<path d="M136.931 61.4792H135.037V61.654H136.931V61.4792Z" fill="#C7C7C7"/>
<path d="M135.38 62.2953L135.252 62.1729L136.593 60.8321L136.721 60.9545L135.38 62.2953Z" fill="#C7C7C7"/>
<path d="M136.593 62.2953L135.252 60.9545L135.38 60.8321L136.721 62.1729L136.593 62.2953Z" fill="#C7C7C7"/>
<path d="M138.359 60.6164H138.184V62.511H138.359V60.6164Z" fill="#C7C7C7"/>
<path d="M139.216 61.4792H137.322V61.654H139.216V61.4792Z" fill="#C7C7C7"/>
<path d="M137.66 62.2953L137.537 62.1729L138.878 60.8321L139 60.9545L137.66 62.2953Z" fill="#C7C7C7"/>
<path d="M138.878 62.2953L137.537 60.9545L137.66 60.8321L139 62.1729L138.878 62.2953Z" fill="#C7C7C7"/>
<path d="M143.337 60.6164H143.163V62.511H143.337V60.6164Z" fill="#C7C7C7"/>
<path d="M144.2 61.4792H142.305V61.654H144.2V61.4792Z" fill="#C7C7C7"/>
<path d="M142.644 62.2953L142.521 62.1729L143.862 60.8321L143.985 60.9545L142.644 62.2953Z" fill="#C7C7C7"/>
<path d="M143.862 62.2953L142.521 60.9545L142.644 60.8321L143.985 62.1729L143.862 62.2953Z" fill="#C7C7C7"/>
<path d="M145.622 60.6164H145.448V62.511H145.622V60.6164Z" fill="#C7C7C7"/>
<path d="M146.479 61.4792H144.585V61.654H146.479V61.4792Z" fill="#C7C7C7"/>
<path d="M144.923 62.2953L144.801 62.1729L146.141 60.8321L146.27 60.9545L144.923 62.2953Z" fill="#C7C7C7"/>
<path d="M146.141 62.2953L144.801 60.9545L144.923 60.8321L146.27 62.1729L146.141 62.2953Z" fill="#C7C7C7"/>
<path d="M147.902 60.6164H147.727V62.511H147.902V60.6164Z" fill="#C7C7C7"/>
<path d="M148.764 61.4792H146.87V61.654H148.764V61.4792Z" fill="#C7C7C7"/>
<path d="M147.208 62.2953L147.086 62.1729L148.426 60.8321L148.549 60.9545L147.208 62.2953Z" fill="#C7C7C7"/>
<path d="M148.426 62.2953L147.086 60.9545L147.208 60.8321L148.549 62.1729L148.426 62.2953Z" fill="#C7C7C7"/>
<path d="M150.187 60.6164H150.012V62.511H150.187V60.6164Z" fill="#C7C7C7"/>
<path d="M151.044 61.4792H149.149V61.654H151.044V61.4792Z" fill="#C7C7C7"/>
<path d="M149.487 62.2953L149.365 62.1729L150.705 60.8321L150.834 60.9545L149.487 62.2953Z" fill="#C7C7C7"/>
<path d="M150.705 62.2953L149.365 60.9545L149.487 60.8321L150.834 62.1729L150.705 62.2953Z" fill="#C7C7C7"/>
<path d="M155.165 60.6164H154.99V62.511H155.165V60.6164Z" fill="#C7C7C7"/>
<path d="M156.028 61.4792H154.133V61.654H156.028V61.4792Z" fill="#C7C7C7"/>
<path d="M154.472 62.2953L154.349 62.1729L155.69 60.8321L155.812 60.9545L154.472 62.2953Z" fill="#C7C7C7"/>
<path d="M155.69 62.2953L154.349 60.9545L154.472 60.8321L155.812 62.1729L155.69 62.2953Z" fill="#C7C7C7"/>
<path d="M157.45 60.6164H157.275V62.511H157.45V60.6164Z" fill="#C7C7C7"/>
<path d="M158.307 61.4792H156.413V61.654H158.307V61.4792Z" fill="#C7C7C7"/>
<path d="M156.756 62.2953L156.628 62.1729L157.975 60.8321L158.097 60.9545L156.756 62.2953Z" fill="#C7C7C7"/>
<path d="M157.975 62.2953L156.628 60.9545L156.756 60.8321L158.097 62.1729L157.975 62.2953Z" fill="#C7C7C7"/>
<path d="M159.735 60.6164H159.56V62.511H159.735V60.6164Z" fill="#C7C7C7"/>
<path d="M160.592 61.4792H158.698V61.654H160.592V61.4792Z" fill="#C7C7C7"/>
<path d="M159.036 62.2953L158.913 62.1729L160.254 60.8321L160.376 60.9545L159.036 62.2953Z" fill="#C7C7C7"/>
<path d="M160.254 62.2953L158.913 60.9545L159.036 60.8321L160.376 62.1729L160.254 62.2953Z" fill="#C7C7C7"/>
<path d="M162.014 60.6164H161.84V62.511H162.014V60.6164Z" fill="#C7C7C7"/>
<path d="M162.872 61.4792H160.977V61.654H162.872V61.4792Z" fill="#C7C7C7"/>
<path d="M161.321 62.2953L161.193 62.1729L162.533 60.8321L162.662 60.9545L161.321 62.2953Z" fill="#C7C7C7"/>
<path d="M162.533 62.2953L161.193 60.9545L161.321 60.8321L162.662 62.1729L162.533 62.2953Z" fill="#C7C7C7"/>
<path d="M169.593 77.0435H169.068V74.9332C169.044 74.5377 168.869 74.1663 168.581 73.8947C168.292 73.6232 167.911 73.472 167.514 73.472C167.118 73.472 166.737 73.6232 166.448 73.8947C166.159 74.1663 165.985 74.5377 165.961 74.9332V77.0435H165.43V74.9332C165.43 74.3813 165.65 73.852 166.04 73.4617C166.43 73.0714 166.96 72.8522 167.511 72.8522C168.063 72.8522 168.593 73.0714 168.983 73.4617C169.373 73.852 169.593 74.3813 169.593 74.9332V77.0435Z" fill="white"/>
<path d="M43.6985 26.5806L79.0859 32.5025L83.3818 6.83149L47.9944 0.909666L43.6985 26.5806Z" fill="#EBEBEB"/>
<path d="M45.4109 25.3541L77.8604 30.7843L81.6636 8.05703L49.2141 2.62685L45.4109 25.3541Z" fill="white"/>
<path d="M51.957 9.72061C51.8688 10.2516 51.9399 10.7967 52.1614 11.2873C52.3829 11.7778 52.7449 12.1917 53.2015 12.4765C53.6582 12.7614 54.189 12.9046 54.727 12.8879C55.265 12.8711 55.7859 12.6953 56.224 12.3827C56.6621 12.07 56.9976 11.6344 57.1883 11.1311C57.3789 10.6278 57.4161 10.0792 57.295 9.55478C57.174 9.03033 56.9003 8.55353 56.5084 8.18462C56.1164 7.81571 55.624 7.57126 55.0932 7.48215C54.3806 7.36409 53.6502 7.53344 53.0623 7.95306C52.4744 8.37269 52.0769 9.00833 51.957 9.72061Z" fill="#DBDBDB"/>
<path d="M60.6426 22.8716L78.6902 25.897L71.7125 12.1514L60.6426 22.8716Z" fill="#DBDBDB"/>
<path d="M53.5718 21.694L68.4657 24.189L62.3507 14.9787L53.5718 21.694Z" fill="#EBEBEB"/>
<path d="M78.6909 25.8832L46.2415 20.453L45.4217 25.3514L77.8712 30.7816L78.6909 25.8832Z" fill="#EBEBEB"/>
<path d="M33.5365 34.6934L69.416 34.6934V8.66549L33.5365 8.66549V34.6934Z" fill="#EBEBEB"/>
<path d="M35.0229 33.1953L67.9236 33.1953V10.152L35.0229 10.152V33.1953Z" fill="white"/>
<path d="M38.8643 16.7041C38.8631 17.244 39.0221 17.772 39.3212 18.2214C39.6203 18.6708 40.0459 19.0214 40.5443 19.2287C41.0427 19.4361 41.5914 19.491 42.121 19.3864C42.6506 19.2818 43.1373 19.0224 43.5194 18.6411C43.9015 18.2598 44.1619 17.7737 44.2677 17.2443C44.3734 16.715 44.3197 16.1661 44.1134 15.6673C43.9071 15.1685 43.5574 14.742 43.1087 14.442C42.6599 14.142 42.1322 13.9818 41.5924 13.9818C40.8699 13.9818 40.1768 14.2685 39.6654 14.7788C39.1539 15.2892 38.8658 15.9816 38.8643 16.7041Z" fill="#DBDBDB"/>
<path d="M49.6309 28.2404H67.9291L58.7771 15.8356L49.6309 28.2404Z" fill="#DBDBDB"/>
<path d="M42.4551 28.2462H57.5647L50.0099 20.1668L42.4551 28.2462Z" fill="#EBEBEB"/>
<path d="M67.9234 28.2345H35.0227V33.2011H67.9234V28.2345Z" fill="#EBEBEB"/>
<path d="M89.1191 132.125H37.6812V203.307H89.1191V132.125Z" fill="#EBEBEB"/>
<path d="M91.6137 129.484H35.1917V132.125H91.6137V129.484Z" fill="#DBDBDB"/>
<path d="M109.353 129.484H91.6082V132.125H109.353V129.484Z" fill="#EBEBEB"/>
<path d="M106.549 132.125H89.1189V203.307H106.549V132.125Z" fill="#DBDBDB"/>
<path d="M83.5868 165.078H43.2129V142.262H83.5868V165.078ZM43.3645 164.932H83.4352V142.396H43.3586L43.3645 164.932Z" fill="#C7C7C7"/>
<path d="M65.6267 148.925H57.7688V153.443H65.6267V148.925Z" fill="#C7C7C7"/>
<path d="M68.0225 153.174H60.0188V149.193H68.0225V153.174ZM60.1645 153.029H67.8767V149.339H60.1645V153.029Z" fill="#C7C7C7"/>
<path d="M83.5868 193.735H43.2129V170.907H83.5868V193.735ZM43.3645 193.589H83.4352V171.053H43.3586L43.3645 193.589Z" fill="#C7C7C7"/>
<path d="M65.6267 177.582H57.7688V182.099H65.6267V177.582Z" fill="#C7C7C7"/>
<path d="M68.0225 181.831H60.0188V177.85H68.0225V181.831ZM60.1645 181.686H67.8767V177.996H60.1645V181.686Z" fill="#C7C7C7"/>
<path d="M5.63696 203.33L34.5621 203.184L63.4813 203.137L121.326 203.038L179.17 203.132L208.089 203.184L237.014 203.33L208.089 203.47L179.17 203.522L121.326 203.621L63.4813 203.522L34.5621 203.47L5.63696 203.33Z" fill="#263238"/>
<path d="M159.583 137.278L157.887 147.467L146.374 209.626H144.521L152.891 147.467L154.127 137.278H159.583Z" fill="#C7C7C7"/>
<path d="M154.127 137.278H159.584L157.887 147.467H152.892L154.127 137.278Z" fill="#A6A6A6"/>
<path d="M195.731 209.626H193.877L182.365 147.467L180.668 137.278H186.124L187.36 147.467L195.731 209.626Z" fill="#C7C7C7"/>
<path d="M186.124 137.278L187.36 147.467H182.365L180.668 137.278H186.124Z" fill="#A6A6A6"/>
<path d="M230.258 209.626H228.399L216.892 147.467L215.189 137.278H220.646L221.887 147.467L230.258 209.626Z" fill="#C7C7C7"/>
<path d="M221.887 147.467H216.892L215.189 137.278H220.646L221.887 147.467Z" fill="#A6A6A6"/>
<path d="M227.314 142.064H142.97V133.18H174.542L190.986 41.0648H235.755L227.314 142.064Z" fill="#C7C7C7"/>
<path d="M226.953 133.18H142.97V142.064H227.268L226.953 133.18Z" fill="#DBDBDB"/>
<path d="M227.314 142.064H222.715L231.377 41.0648H235.755L227.314 142.064Z" fill="#DBDBDB"/>
<path d="M228.358 28.1704C227.058 26.7422 221.736 22.7491 217.136 20.5923C214.91 19.5255 208.182 17.153 207.226 18.8027C206.27 20.4524 208.188 21.3209 208.188 21.3209C208.188 21.3209 205.192 20.738 204.393 22.4868C203.595 24.2356 206.597 25.4889 206.597 25.4889C206.597 25.4889 203.484 25.1216 202.808 26.9171C202.132 28.7125 205.367 29.4703 205.367 29.4703C205.367 29.4703 202.534 29.004 202.604 30.7178C202.685 32.7814 208.002 33.0495 210.409 34.3611C210.957 34.6526 221.065 41.129 221.065 41.129L228.358 28.1704Z" fill="#EB9481"/>
<path d="M205.408 29.4878C209.319 29.6977 210.998 30.473 214.152 32.7056C214.216 32.7464 214.292 32.6648 214.234 32.6123C211.354 30.1465 209.389 28.8757 205.42 29.2954C205.216 29.3188 205.221 29.4761 205.408 29.4878Z" fill="#263238"/>
<path d="M206.434 25.4015C210.479 25.9844 212.304 26.7947 215.761 28.8991C215.813 28.8991 215.866 28.8466 215.819 28.8116C212.59 26.4799 210.608 25.2499 206.492 25.2091C206.323 25.1974 206.265 25.3723 206.434 25.4015Z" fill="#263238"/>
<path d="M208.52 21.3559C212.397 22.1953 214.437 23.0056 217.538 25.4714C217.614 25.5297 217.708 25.4306 217.638 25.3665C214.723 22.5393 212.181 21.5075 208.561 21.2393C208.311 21.2218 208.276 21.3035 208.52 21.3559Z" fill="#263238"/>
<path d="M222.756 43.3208C222.756 43.3208 217.883 42.6971 215.801 41.9509C213.72 41.2048 207.017 35.5853 208.142 34.058C209.605 32.0935 214.128 34.5768 216.186 36.0808C216.186 36.0808 219.567 31.5339 223.181 32.6123C226.796 33.6908 222.756 43.3208 222.756 43.3208Z" fill="#EB9481"/>
<path d="M208.719 33.6499C211.348 32.8222 213.919 34.9732 216.023 36.2848C216.053 36.3057 216.088 36.3189 216.125 36.3232C216.162 36.3275 216.199 36.3229 216.233 36.3097C216.268 36.2965 216.298 36.2751 216.323 36.2475C216.347 36.2198 216.364 36.1866 216.373 36.1507C217.918 34.3378 220.622 32.2334 223.123 32.4783C223.139 32.4783 223.153 32.4721 223.164 32.4612C223.175 32.4502 223.181 32.4354 223.181 32.42C223.181 32.4045 223.175 32.3897 223.164 32.3787C223.153 32.3678 223.139 32.3617 223.123 32.3617C220.477 31.7379 217.649 33.5917 216.081 35.6844C213.948 34.3028 211.272 32.2626 208.69 33.6266C208.696 33.6325 208.707 33.6558 208.719 33.6499Z" fill="#263238"/>
<path d="M181.56 23.2388C183.309 22.4635 190.1 20.3999 195.189 20.2658C197.655 20.2017 204.767 20.7671 204.965 22.6617C205.163 24.5562 203.065 24.5737 203.065 24.5737C203.065 24.5737 206.032 25.2616 206.055 27.1794C206.078 29.0972 202.82 29.0273 202.82 29.0273C202.82 29.0273 205.816 29.9542 205.705 31.872C205.595 33.7899 202.324 33.1661 202.324 33.1661C202.324 33.1661 205.105 33.8889 204.347 35.4279C203.432 37.2816 198.46 35.3696 195.731 35.5795C195.113 35.6261 183.251 37.4332 183.251 37.4332L181.56 23.2388Z" fill="#EB9481"/>
<path d="M202.277 33.1894C198.617 31.7962 196.769 31.8195 192.991 32.6065C192.916 32.6065 192.875 32.5191 192.951 32.4957C196.588 31.4115 198.896 31.0501 202.353 33.0495C202.522 33.1136 202.452 33.2536 202.277 33.1894Z" fill="#263238"/>
<path d="M202.983 29.0331C199.054 27.9139 197.054 27.9197 193.038 28.4502C192.98 28.4502 192.962 28.3628 193.038 28.3511C196.938 27.5233 199.246 27.1852 203.03 28.8524C203.181 28.8991 203.164 29.0856 202.983 29.0331Z" fill="#263238"/>
<path d="M202.738 24.5096C198.856 23.6993 196.664 23.6119 192.828 24.6028C192.819 24.6059 192.81 24.6072 192.801 24.6067C192.791 24.6061 192.782 24.6037 192.774 24.5997C192.766 24.5956 192.758 24.59 192.752 24.583C192.746 24.576 192.741 24.5679 192.738 24.5591C192.735 24.5503 192.733 24.541 192.734 24.5317C192.735 24.5224 192.737 24.5133 192.741 24.5049C192.745 24.4965 192.751 24.489 192.758 24.4828C192.765 24.4766 192.773 24.4718 192.782 24.4688C196.6 23.0756 199.334 23.163 202.756 24.3871C202.983 24.4571 202.983 24.5445 202.738 24.5096Z" fill="#263238"/>
<path d="M180.785 38.7739C180.785 38.7739 185.489 40.1846 187.687 40.3478C189.884 40.5111 198.325 38.1094 197.911 36.2673C197.369 33.8773 192.228 34.3087 189.75 34.8508C189.75 34.8508 188.509 29.3188 184.754 28.8291C181 28.3394 180.785 38.7739 180.785 38.7739Z" fill="#EB9481"/>
<path d="M197.556 35.6494C195.492 33.819 192.269 34.74 189.814 35.0665C189.778 35.0737 189.741 35.0719 189.705 35.0614C189.67 35.0508 189.638 35.0318 189.611 35.006C189.585 34.9802 189.565 34.9483 189.554 34.9131C189.542 34.8779 189.54 34.8406 189.546 34.8042C188.876 32.5249 187.261 29.4995 184.883 28.7067C184.813 28.7067 184.836 28.5785 184.883 28.5959C187.558 29.0973 189.389 31.9361 189.966 34.4894C192.478 34.093 195.754 33.3235 197.544 35.6086C197.585 35.6436 197.573 35.6611 197.556 35.6494Z" fill="#263238"/>
<path d="M194.968 59.025C181.63 55.4225 160.627 43.3616 162.557 37.5556C164.428 31.9128 172.303 26.0135 182.376 22.8774C183.845 22.4168 183.542 25.5006 184.224 30.8752C184.556 33.4168 189.016 40.2662 186.865 40.2487C185.74 40.2829 184.633 40.5302 183.6 40.9774C182.813 41.2805 192.274 47.5995 197.562 51.5635C204.685 56.8798 200.663 60.5581 194.968 59.025Z" fill="#EB9481"/>
<path d="M175.713 54.9328L190.496 45.6758C190.496 45.6758 199.374 51.0738 201.572 54.0642C203.77 57.0547 202.038 60.29 195.16 60.2958C187.249 60.3016 175.713 54.9328 175.713 54.9328Z" fill="#8ACBFF"/>
<g opacity="0.1">
<path d="M194.28 48.1125H186.614L187.978 47.2614H193.003L194.28 48.1125Z" fill="black"/>
<path d="M198.179 50.9105H182.137L183.495 50.0595H197.054L198.179 50.9105Z" fill="black"/>
<path d="M201.275 53.7028H177.677L179.036 52.8517H200.464C200.773 53.149 201.047 53.4347 201.275 53.7028Z" fill="black"/>
<path d="M202.458 56.5009H179.444C178.633 56.1861 177.922 55.9179 177.345 55.6498H202.353C202.43 55.9267 202.465 56.2135 202.458 56.5009Z" fill="black"/>
<path d="M201.619 58.4479C201.279 58.7918 200.885 59.0774 200.453 59.2931H188.071C187.034 59.0366 186.008 58.751 185.011 58.4479H201.619Z" fill="black"/>
</g>
<path d="M179.619 56.0695C185.571 52.432 191.464 48.3282 192.443 47.5296C192.484 47.4946 192.443 47.4305 192.385 47.4538C187.943 50.041 183.661 52.8928 179.561 55.9938C179.551 56.0015 179.544 56.0129 179.542 56.0255C179.541 56.038 179.544 56.0508 179.552 56.0608C179.56 56.0708 179.571 56.0774 179.584 56.0791C179.596 56.0807 179.609 56.0773 179.619 56.0695Z" fill="#263238"/>
<path d="M195.148 60.2958C192.244 60.2033 189.364 59.735 186.579 58.9026C190.444 56.3085 195.038 53.2481 198.401 51.0854C199.573 51.9468 200.636 52.9471 201.567 54.0642C203.758 57.0488 202.033 60.29 195.148 60.2958Z" fill="#263238"/>
<path d="M146.234 221.471C147.878 221.628 192.537 210.978 193.942 209.544C194.116 209.381 193.236 205.323 191.948 199.786V199.675C191.138 196.177 178.132 167.788 178.132 167.788L149.184 175.856L162.335 202.187C162.335 202.187 156.885 206.122 152.221 209.882C149.336 212.179 146.847 214.236 146.322 214.907C144.917 216.638 144.602 221.325 146.234 221.471Z" fill="#EB9481"/>
<path d="M146.24 221.465C147.872 221.622 192.531 210.972 193.947 209.544C194.116 209.381 193.236 205.324 191.948 199.786V199.681C191.656 198.375 189.651 193.601 187.284 188.139C182.522 189.415 165.442 194.032 159.24 195.95L162.358 202.193C162.358 202.193 156.885 206.128 152.221 209.882C149.336 212.173 146.846 214.237 146.322 214.901C144.917 216.638 144.596 221.331 146.24 221.465Z" fill="#EBEBEB"/>
<path d="M146.089 221.681C147.779 221.826 192.467 211.071 193.889 209.585C194.437 209.002 193.452 201.972 191.004 194.498L162.201 201.494C162.201 201.494 147.494 213.152 146.083 214.936C144.672 216.72 144.404 221.541 146.089 221.681Z" fill="#8ACBFF"/>
<path d="M146.298 219.739C153.748 217.752 183.973 210.412 191.482 209.043C191.546 209.043 191.557 209.072 191.482 209.089C184.148 211.217 153.865 218.288 146.316 219.862C146.17 219.897 146.141 219.792 146.298 219.739Z" fill="#263238"/>
<path d="M148.589 212.616C149.417 212.393 150.283 212.344 151.131 212.473C151.978 212.601 152.79 212.904 153.515 213.362C154.822 214.179 155.765 215.467 156.15 216.959C156.15 217.005 156.08 217.029 156.063 216.959C155.45 215.537 154.393 214.351 153.05 213.581C151.706 212.811 150.15 212.497 148.613 212.686C148.606 212.684 148.6 212.68 148.595 212.675C148.59 212.67 148.586 212.663 148.584 212.657C148.582 212.65 148.581 212.643 148.582 212.636C148.583 212.629 148.585 212.622 148.589 212.616Z" fill="#263238"/>
<path d="M160.056 202.782C163.046 202.018 166.777 202.24 169.231 204.245C169.324 204.327 169.231 204.455 169.114 204.432C166.16 203.69 163.135 203.266 160.091 203.167C160.046 203.161 160.005 203.14 159.974 203.107C159.943 203.075 159.924 203.033 159.92 202.988C159.916 202.944 159.927 202.899 159.952 202.861C159.976 202.824 160.013 202.796 160.056 202.782Z" fill="#263238"/>
<path d="M157.957 204.245C160.948 203.481 164.678 203.703 167.133 205.708C167.226 205.784 167.133 205.918 167.016 205.895C164.063 205.156 161.04 204.733 157.998 204.636C157.972 204.638 157.946 204.636 157.922 204.629C157.897 204.621 157.874 204.609 157.854 204.593C157.834 204.577 157.817 204.557 157.805 204.534C157.793 204.511 157.785 204.486 157.782 204.461C157.78 204.435 157.782 204.409 157.789 204.384C157.797 204.36 157.809 204.337 157.825 204.317C157.841 204.297 157.861 204.28 157.884 204.268C157.907 204.255 157.932 204.248 157.957 204.245Z" fill="#263238"/>
<path d="M155.859 205.702C158.849 204.939 162.58 205.16 165.034 207.166C165.127 207.241 165.034 207.375 164.918 207.352C161.966 206.608 158.942 206.184 155.9 206.087C155.855 206.082 155.813 206.062 155.781 206.03C155.75 205.998 155.73 205.956 155.725 205.911C155.72 205.866 155.731 205.821 155.755 205.783C155.78 205.745 155.816 205.717 155.859 205.702Z" fill="#263238"/>
<path d="M153.766 207.166C156.751 206.402 160.481 206.623 162.936 208.623C163.029 208.705 162.936 208.839 162.819 208.815C159.867 208.074 156.843 207.65 153.801 207.55C153.75 207.555 153.699 207.539 153.66 207.506C153.62 207.474 153.596 207.426 153.591 207.375C153.586 207.324 153.602 207.274 153.635 207.234C153.668 207.195 153.715 207.17 153.766 207.166Z" fill="#263238"/>
<path d="M187.862 202.386C191.231 201.587 192.479 206.816 189.109 207.632C185.74 208.448 184.492 203.184 187.862 202.386Z" fill="#263238"/>
<path d="M156.185 199.902C158.307 201.599 161.087 202.321 163.577 203.283C163.634 203.3 163.694 203.303 163.752 203.291C163.811 203.28 163.866 203.256 163.913 203.219C163.96 203.183 163.998 203.136 164.024 203.082C164.049 203.029 164.062 202.97 164.06 202.91C164.073 202.91 164.085 202.907 164.096 202.901C164.107 202.895 164.117 202.887 164.123 202.876C164.13 202.866 164.135 202.854 164.136 202.842C164.137 202.829 164.135 202.817 164.13 202.805C163.249 200.112 161.673 197.699 159.56 195.81C158.313 194.726 156.103 193.956 154.897 195.583C153.742 197.098 154.949 198.911 156.185 199.902ZM155.45 197.448C154.961 194.114 158.511 195.915 159.397 196.749C159.964 197.295 160.494 197.879 160.983 198.497C161.968 199.795 162.889 201.141 163.74 202.531C162.545 201.983 161.315 201.54 160.102 201.039C158.633 200.45 155.719 199.29 155.45 197.448Z" fill="#263238"/>
<path d="M174.32 198.328C173.615 196.428 171.277 196.539 169.773 197.227C167.211 198.446 165.015 200.32 163.408 202.659C163.401 202.67 163.396 202.682 163.395 202.694C163.393 202.706 163.394 202.719 163.398 202.731C163.402 202.742 163.409 202.753 163.417 202.762C163.426 202.771 163.437 202.778 163.448 202.782C163.43 202.838 163.425 202.898 163.435 202.957C163.444 203.016 163.466 203.071 163.501 203.119C163.536 203.168 163.581 203.207 163.634 203.234C163.686 203.262 163.745 203.277 163.804 203.277C166.462 203.056 169.336 203.149 171.848 202.112C173.317 201.517 174.99 200.124 174.32 198.328ZM167.768 202.117C166.462 202.257 165.156 202.333 163.856 202.52C165.066 201.426 166.331 200.395 167.646 199.43C168.286 198.966 168.96 198.551 169.662 198.188C170.747 197.64 174.658 196.918 173.247 199.978C172.472 201.663 169.324 201.948 167.768 202.117Z" fill="#263238"/>
<path d="M159.753 198.76L190.491 190.529C190.491 190.529 163.478 134.515 165.658 131.431C166.748 129.892 195.556 128.592 204.493 120.542C216.099 110.09 207.652 94.8928 207.652 94.8928H175.439C175.439 94.8928 176.022 101.614 174.798 102.663C173.994 103.363 135.742 107.729 131.912 120.798C127.219 136.823 159.753 198.76 159.753 198.76Z" fill="#263238"/>
<path d="M159.216 194.254C160.032 193.875 160.873 193.556 161.735 193.298C162.627 192.989 163.524 192.68 164.416 192.382C166.165 191.799 167.96 191.252 169.744 190.739C173.341 189.701 176.938 188.687 180.563 187.742C182.452 187.253 186.492 186.186 186.748 186.221C186.865 186.221 186.894 186.442 186.789 186.483C183.291 187.754 179.736 188.844 176.186 189.952C172.635 191.059 169.085 192.138 165.489 193.064C164.492 193.321 163.489 193.554 162.492 193.799C161.449 194.107 160.386 194.341 159.31 194.498C159.216 194.504 159.1 194.306 159.216 194.254Z" fill="#455A64"/>
<path d="M160.073 128.924C160.709 128.341 161.676 128.26 162.481 128.097L176.349 125.357C180.674 124.5 185.028 123.719 189.331 122.751C192.892 121.953 196.506 120.915 199.549 118.875C202.527 116.87 204.685 113.862 205.629 110.399C206.614 106.954 206.579 103.281 206.136 99.7545C206.026 98.8917 205.839 98.0348 205.653 97.1837C205.653 97.1196 205.746 97.0963 205.758 97.1837C207.133 103.748 207.466 111.407 202.68 116.811C200.348 119.446 197.078 121.055 193.732 122.127C189.948 123.346 185.984 123.987 182.073 124.756L168.205 127.496C165.978 127.933 163.716 128.295 161.513 128.825C161.065 128.896 160.649 129.099 160.318 129.408C160.164 129.646 160.071 129.918 160.045 130.201C160.02 130.483 160.063 130.767 160.172 131.029C160.429 132.113 160.755 133.191 161.099 134.252C163.897 142.845 183.495 183.528 184.026 184.466C184.084 184.565 183.927 184.647 183.868 184.548C179.38 177.075 164.772 145.666 161.717 137.552C160.914 135.475 160.246 133.349 159.718 131.186C159.531 130.405 159.414 129.531 160.073 128.924Z" fill="#455A64"/>
<path d="M67.5734 222.59C69.1006 223.202 114.948 225.545 116.709 224.549C116.919 224.444 117.216 220.299 117.531 214.639L117.764 209.287C117.845 207.48 141.448 181.173 141.448 181.173L108.542 179.185L88.419 208.617C88.419 208.617 82.0825 210.861 76.5505 213.135C73.1229 214.545 70.1616 215.799 69.4446 216.294C67.6958 217.583 66.0402 221.995 67.5734 222.59Z" fill="#EB9481"/>
<path d="M123.78 201.377C120.352 205.458 117.793 208.681 117.77 209.276L117.531 214.627C117.216 220.299 116.919 224.444 116.709 224.537C114.96 225.534 69.1007 223.19 67.5676 222.584C66.0345 221.978 67.6609 217.571 69.468 216.283C70.1617 215.793 73.1288 214.534 76.5389 213.117C82.0651 210.85 88.4016 208.605 88.4016 208.605L94.2309 200.106L123.78 201.377Z" fill="#EBEBEB"/>
<path d="M67.3694 222.753C68.9492 223.371 114.861 225.598 116.668 224.578C117.356 224.193 118.417 217.151 118.137 209.293L88.5357 207.888C88.5357 207.888 71.1468 214.93 69.2989 216.259C67.451 217.588 65.7955 222.124 67.3694 222.753Z" fill="#8ACBFF"/>
<path d="M68.1217 220.958C75.8281 221.138 106.887 222.613 114.488 223.383C114.552 223.383 114.552 223.429 114.488 223.429C106.846 223.429 75.7989 221.681 68.1159 221.098C67.9527 221.063 67.9585 220.958 68.1217 220.958Z" fill="#263238"/>
<path d="M72.3186 214.755C73.1764 214.774 74.021 214.97 74.7988 215.332C75.5766 215.695 76.2704 216.215 76.8363 216.86C77.8626 218.009 78.4056 219.511 78.3519 221.051C78.3519 221.098 78.2645 221.092 78.2587 221.051C78.0714 219.515 77.3914 218.081 76.3205 216.964C75.2496 215.846 73.8455 215.106 72.3186 214.854C72.3054 214.854 72.2928 214.849 72.2836 214.84C72.2743 214.831 72.269 214.818 72.269 214.805C72.269 214.792 72.2743 214.779 72.2836 214.77C72.2928 214.761 72.3054 214.755 72.3186 214.755Z" fill="#263238"/>
<path d="M86.0875 208.541C89.1654 208.646 92.6863 209.911 94.4759 212.523C94.5459 212.622 94.4001 212.721 94.3127 212.668C91.6872 211.127 88.9044 209.87 86.0117 208.92C85.9708 208.902 85.9373 208.87 85.9168 208.83C85.8962 208.79 85.8898 208.745 85.8986 208.701C85.9074 208.657 85.9309 208.617 85.9652 208.588C85.9995 208.559 86.0427 208.542 86.0875 208.541Z" fill="#263238"/>
<path d="M83.6624 209.352C86.7462 209.462 90.2612 210.721 92.0567 213.333C92.1208 213.432 91.9809 213.531 91.8876 213.479C89.2642 211.937 86.4833 210.68 83.5925 209.73C83.5422 209.721 83.4977 209.692 83.4688 209.65C83.4398 209.608 83.4287 209.556 83.438 209.506C83.4473 209.456 83.4762 209.411 83.5182 209.382C83.5603 209.353 83.6122 209.342 83.6624 209.352Z" fill="#263238"/>
<path d="M81.2375 210.168C84.3212 210.273 87.8421 211.532 89.6317 214.143C89.7017 214.248 89.556 214.342 89.4685 214.295C86.8444 212.749 84.0614 211.49 81.1676 210.541C81.1247 210.525 81.0888 210.495 81.0663 210.455C81.0437 210.416 81.0359 210.369 81.0443 210.325C81.0527 210.28 81.0767 210.239 81.1121 210.211C81.1475 210.182 81.1919 210.167 81.2375 210.168Z" fill="#263238"/>
<path d="M78.8125 210.978C81.8962 211.083 85.4172 212.342 87.2068 214.959C87.2767 215.058 87.131 215.158 87.0435 215.105C84.4275 213.563 81.6546 212.305 78.7717 211.351C78.7304 211.337 78.6952 211.309 78.6718 211.272C78.6484 211.235 78.6382 211.192 78.643 211.148C78.6477 211.105 78.6671 211.064 78.6979 211.033C78.7287 211.002 78.7691 210.983 78.8125 210.978Z" fill="#263238"/>
<path d="M112.885 215.974C116.342 216.149 116.068 221.523 112.605 221.342C109.142 221.162 109.422 215.793 112.885 215.974Z" fill="#263238"/>
<path d="M83.1786 204.688C84.7408 206.915 87.2066 208.384 89.3285 210.01C89.379 210.045 89.4372 210.067 89.4981 210.074C89.559 210.082 89.6208 210.074 89.6781 210.052C89.7354 210.031 89.7866 209.995 89.8273 209.949C89.8679 209.903 89.8968 209.848 89.9114 209.789C89.9235 209.791 89.936 209.791 89.9481 209.788C89.9601 209.785 89.9713 209.78 89.9808 209.772C89.9904 209.764 89.998 209.754 90.0032 209.743C90.0083 209.732 90.0108 209.72 90.0105 209.707C89.9115 206.878 89.0712 204.124 87.5739 201.721C86.682 200.334 84.7758 198.97 83.1553 200.188C81.5347 201.406 82.2692 203.388 83.1786 204.688ZM83.1786 202.129C83.6508 198.795 86.5479 201.511 87.1658 202.566C87.5567 203.251 87.8995 203.962 88.1918 204.694C88.7751 206.222 89.2809 207.778 89.7074 209.357C88.7164 208.495 87.6555 207.725 86.6354 206.903C85.3996 205.906 82.9046 203.965 83.1611 202.129H83.1786Z" fill="#263238"/>
<path d="M101.028 208.273C100.882 206.25 98.6088 205.702 96.9474 205.941C94.1457 206.395 91.5124 207.577 89.311 209.369C89.3013 209.377 89.2935 209.386 89.2881 209.397C89.2827 209.409 89.2799 209.421 89.2799 209.433C89.2799 209.445 89.2827 209.458 89.2881 209.469C89.2935 209.48 89.3013 209.49 89.311 209.497C89.2747 209.546 89.2509 209.603 89.2418 209.663C89.2326 209.724 89.2384 209.785 89.2585 209.843C89.2786 209.9 89.3125 209.952 89.3573 209.993C89.402 210.035 89.4561 210.065 89.515 210.08C92.1324 210.622 94.8605 211.52 97.5595 211.246C99.1742 211.048 101.162 210.185 101.028 208.273ZM93.6772 210.069C92.3831 209.835 91.1064 209.538 89.8065 209.357C91.2755 208.647 92.7794 208.01 94.3126 207.451C95.0571 207.191 95.8186 206.983 96.5918 206.827C97.7927 206.606 101.751 207.014 99.5356 209.556C98.3173 210.955 95.2161 210.348 93.6772 210.069Z" fill="#263238"/>
<path d="M87.0144 202.45L123.78 206.967C123.78 206.967 160.137 163.469 163.075 160.572C172.181 151.595 204.825 136.089 214.566 121.69C223.31 108.743 214.455 94.9103 214.455 94.9103H178.558C179.478 98.7345 180.702 102.479 182.219 106.108C182.219 106.108 152.402 128.557 136.511 144.582C126.269 154.917 87.0144 202.45 87.0144 202.45Z" fill="#263238"/>
<path d="M175.836 103.788C176.885 103.99 177.913 104.287 178.908 104.674C179.946 105.036 180.971 105.456 181.98 105.904C183.956 106.813 185.88 107.829 187.745 108.947C187.803 108.982 187.745 109.064 187.693 109.035C185.722 108.085 183.694 107.239 181.659 106.429L178.745 105.263C177.735 104.913 176.745 104.51 175.778 104.057C175.632 104.022 175.696 103.788 175.836 103.788Z" fill="#455A64"/>
<path d="M177.724 94.8986C178.185 96.525 178.593 98.163 179.106 99.7719C179.345 100.506 179.578 101.258 179.881 101.975C180.138 102.558 180.517 103.258 181.228 103.374C182.044 103.509 182.26 102.792 182.172 102.139C182.049 101.389 181.888 100.645 181.688 99.9118C181.496 99.0666 180.523 94.9627 180.523 94.9394C180.523 94.9161 180.523 94.8636 180.563 94.817C180.573 94.8084 180.585 94.8037 180.598 94.8037C180.611 94.8037 180.624 94.8084 180.633 94.817C180.791 94.8986 181.799 98.0523 182.009 98.8334C182.219 99.6145 182.446 100.402 182.662 101.165C182.884 101.742 182.958 102.365 182.878 102.978C182.811 103.27 182.653 103.532 182.426 103.727C182.2 103.922 181.917 104.04 181.618 104.062C181.648 104.115 181.683 104.161 181.712 104.22C181.787 104.377 181.846 104.546 181.91 104.709C181.974 104.873 182.038 105.047 182.096 105.217C182.119 105.299 182.137 105.383 182.149 105.467C182.149 105.566 182.149 105.66 182.149 105.753C182.162 105.786 182.161 105.823 182.147 105.856C182.133 105.889 182.106 105.915 182.073 105.928C182.04 105.941 182.003 105.94 181.97 105.926C181.937 105.912 181.911 105.885 181.898 105.852C181.852 105.77 181.787 105.706 181.735 105.625C181.685 105.54 181.644 105.45 181.613 105.356C181.554 105.193 181.502 105.03 181.455 104.867C181.409 104.704 181.35 104.534 181.315 104.371C181.296 104.271 181.282 104.17 181.275 104.068C180.931 104.047 180.601 103.932 180.319 103.736C179.847 103.355 179.493 102.847 179.298 102.273C179.03 101.597 178.82 100.897 178.605 100.203C178.053 98.4931 177.653 96.7375 177.41 94.9569C177.402 94.9152 177.411 94.8721 177.435 94.8371C177.459 94.8021 177.496 94.7781 177.538 94.7704C177.58 94.7626 177.623 94.7718 177.658 94.7959C177.693 94.8199 177.717 94.8569 177.724 94.8986Z" fill="#455A64"/>
<path d="M199.17 98.2738C199.345 99.0783 199.462 99.8944 199.672 100.699C199.881 101.503 200.115 102.261 200.4 103.031C200.652 103.772 201.01 104.472 201.461 105.112C201.927 105.714 202.479 106.244 203.099 106.686C204.282 107.568 205.601 108.252 207.005 108.708C207.711 108.949 208.431 109.144 209.162 109.291C209.541 109.361 209.92 109.419 210.328 109.454C210.644 109.457 210.956 109.52 211.249 109.641C211.276 109.658 211.299 109.681 211.315 109.709C211.331 109.737 211.34 109.769 211.34 109.801C211.34 109.834 211.331 109.865 211.315 109.894C211.299 109.922 211.276 109.945 211.249 109.962C210.702 110.142 210.117 110.178 209.552 110.067C207.685 109.933 205.872 109.382 204.248 108.452C203.153 107.872 202.166 107.107 201.333 106.19C200.54 105.224 199.98 104.09 199.695 102.873C199.275 101.392 199.061 99.86 199.06 98.3204C199.063 98.3098 199.069 98.3001 199.077 98.2919C199.085 98.2837 199.094 98.2772 199.105 98.2728C199.115 98.2684 199.126 98.2663 199.138 98.2664C199.149 98.2666 199.16 98.2691 199.17 98.2738Z" fill="#455A64"/>
<path d="M95.0935 197.058C96.0859 197.032 97.079 197.071 98.0664 197.174C99.1099 197.244 100.148 197.308 101.185 197.39C103.231 197.559 105.266 197.745 107.306 197.973C111.386 198.439 115.514 198.923 119.6 199.488C121.733 199.786 126.31 200.398 126.554 200.532C126.579 200.548 126.598 200.572 126.608 200.599C126.619 200.627 126.62 200.657 126.612 200.685C126.604 200.714 126.588 200.739 126.565 200.758C126.542 200.776 126.514 200.787 126.484 200.788C122.404 200.573 118.323 200.176 114.243 199.791C110.162 199.407 106.082 199.005 102.001 198.439C100.882 198.282 99.7628 198.095 98.6377 197.926C97.4441 197.801 96.2601 197.596 95.0935 197.314C94.9827 197.267 94.9594 197.058 95.0935 197.058Z" fill="#455A64"/>
<path d="M174.239 152.172C172.332 153.396 170.49 154.713 168.642 156.019C166.878 157.168 165.185 158.421 163.571 159.773C162.775 160.522 162.026 161.318 161.327 162.157L159.135 164.693C157.672 166.378 156.22 168.08 154.78 169.788C153.964 170.748 153.154 171.719 152.349 172.703C151.51 173.711 150.729 174.772 149.884 175.781C149.874 175.793 149.869 175.809 149.87 175.825C149.871 175.841 149.878 175.856 149.89 175.867C149.902 175.878 149.917 175.885 149.933 175.885C149.949 175.885 149.965 175.879 149.977 175.868C151.469 174.183 153.055 172.569 154.547 170.878C156.039 169.188 157.532 167.497 159.007 165.783C160.481 164.069 161.799 162.42 163.314 160.852C164.864 159.386 166.547 158.067 168.339 156.911C170.38 155.454 172.42 153.996 174.419 152.475C174.588 152.347 174.431 152.067 174.239 152.172Z" fill="#455A64"/>
<path d="M181.642 106.359C175.509 110.661 169.167 115.47 163.402 120.245C157.636 125.019 151.93 129.892 146.357 134.905C144.802 136.304 143.248 137.723 141.693 139.161C140.143 140.606 138.627 142.419 137.076 143.865C136.995 143.941 137.123 144.063 137.205 143.987C140.009 141.475 142.906 138.741 145.745 136.269C148.584 133.798 151.399 131.373 154.238 128.942C159.943 124.057 165.72 119.255 171.569 114.538C174.81 111.909 178.564 109.25 181.77 106.54C181.892 106.452 181.747 106.277 181.642 106.359Z" fill="#455A64"/>
<path d="M213.365 99.1249C213.015 98.0931 212.642 97.0672 212.257 96.0412C212.257 95.9829 212.141 96.0412 212.164 96.0703C213.61 100.337 215.079 104.709 215.242 109.256C215.343 111.434 215.027 113.61 214.309 115.669C213.56 117.635 212.449 119.445 211.033 121.002C208.177 124.226 204.545 126.768 201.123 129.338C197.393 132.132 193.602 134.853 189.75 137.499C185.915 140.134 181.98 142.647 178.004 145.077C174.029 147.508 170.007 149.7 166.054 152.073C164.138 153.205 162.344 154.533 160.703 156.037C159.047 157.587 157.567 159.307 156.074 161.015C152.88 164.664 149.717 168.34 146.584 172.044C140.293 179.428 134.127 186.922 128.088 194.528C127.349 195.453 126.611 196.383 125.873 197.32C125.838 197.366 125.873 197.431 125.937 197.384C132.155 189.771 138.441 182.212 144.795 174.708C147.95 170.977 151.123 167.266 154.314 163.574C157.374 160.041 160.318 156.293 164.224 153.664C166.107 152.382 168.118 151.292 170.094 150.166C172.165 149.001 174.217 147.8 176.25 146.564C180.303 144.127 184.29 141.601 188.211 138.986C192.111 136.374 195.959 133.699 199.736 130.906C201.617 129.515 203.486 128.097 205.344 126.651C206.951 125.436 208.49 124.134 209.955 122.751C211.404 121.382 212.648 119.811 213.651 118.088C214.659 116.265 215.284 114.256 215.487 112.183C215.93 107.735 214.77 103.287 213.365 99.1249Z" fill="#455A64"/>
<path d="M172.752 101.218C173.393 102.442 218.221 112.806 218.535 112.602C219.317 112.019 221.887 70.9693 210.06 52.6069C207.979 49.3716 202.919 48.7712 200.313 49.4474C199.013 49.7855 193.668 54.3382 191.219 58.8909C188.771 63.4436 172.356 100.436 172.752 101.218Z" fill="#8ACBFF"/>
<g opacity="0.1">
<path d="M208.398 50.9106H198.075C198.483 50.5725 198.862 50.2868 199.194 50.0595H206.86C207.404 50.2815 207.921 50.5672 208.398 50.9106Z" fill="black"/>
<path d="M210.73 53.7028H195.102C195.376 53.4055 195.655 53.1199 195.929 52.8517H210.211C210.392 53.1316 210.561 53.4114 210.73 53.7028Z" fill="black"/>
<path d="M212.211 56.5009H192.752C192.962 56.2094 193.184 55.918 193.405 55.6498H211.791C211.937 55.9296 212.071 56.2153 212.211 56.5009Z" fill="black"/>
<path d="M213.429 59.2932H191.015L191.219 58.8909C191.301 58.7452 191.383 58.5936 191.47 58.4479H213.074C213.19 58.7277 213.307 59.0075 213.429 59.2932Z" fill="black"/>
<path d="M214.432 62.0912H189.657C189.803 61.7881 189.937 61.5083 190.059 61.2401H214.14C214.239 61.52 214.338 61.8172 214.432 62.0912Z" fill="black"/>
<path d="M215.295 64.8893H188.363L188.754 64.0382H215.044C215.131 64.318 215.213 64.6037 215.295 64.8893Z" fill="black"/>
<path d="M216.029 67.6816H187.086C187.214 67.3901 187.343 67.0986 187.471 66.8305H215.819L216.029 67.6816Z" fill="black"/>
<path d="M216.664 70.4796H185.816C185.944 70.194 186.078 69.8967 186.2 69.6285H216.478C216.542 69.9083 216.606 70.194 216.664 70.4796Z" fill="black"/>
<path d="M217.201 73.2777H184.556C184.685 72.9921 184.807 72.6948 184.935 72.4266H217.043C217.102 72.7064 217.154 72.9921 217.201 73.2777Z" fill="black"/>
<path d="M217.673 76.0699H183.315C183.443 75.7843 183.565 75.487 183.694 75.2189H217.51L217.673 76.0699Z" fill="black"/>
<path d="M218.093 78.868H182.073C182.196 78.5882 182.324 78.2851 182.446 78.017H217.953C217.994 78.3026 218.029 78.5824 218.093 78.868Z" fill="black"/>
<path d="M218.401 81.6369H180.843C180.965 81.3513 181.088 81.054 181.216 80.7859H218.302C218.337 81.0948 218.366 81.3746 218.401 81.6369Z" fill="black"/>
<path d="M218.675 84.4583H179.619C179.735 84.1785 179.864 83.8754 179.986 83.6072H218.594C218.623 83.8929 218.675 84.1727 218.675 84.4583Z" fill="black"/>
<path d="M218.897 87.2564H178.401C178.517 86.9766 178.645 86.6735 178.768 86.4053H218.833C218.856 86.6909 218.879 86.9708 218.897 87.2564Z" fill="black"/>
<path d="M219.072 90.0487H177.194L177.555 89.1976H219.025C219.043 89.4832 219.054 89.798 219.072 90.0487Z" fill="black"/>
<path d="M219.194 92.8467H175.999L176.36 91.9957H219.165C219.177 92.2813 219.188 92.5669 219.194 92.8467Z" fill="black"/>
<path d="M219.258 95.6273H174.827L175.183 94.7762H219.258V95.6273Z" fill="black"/>
<path d="M219.317 98.4371H173.696C173.795 98.1689 173.912 97.8833 174.029 97.586H219.311C219.317 97.8716 219.317 98.1572 219.317 98.4371Z" fill="black"/>
<path d="M219.317 100.384C219.317 100.67 219.317 100.967 219.317 101.235H172.764C172.781 100.947 172.853 100.664 172.974 100.402L219.317 100.384Z" fill="black"/>
<path d="M219.258 103.205C219.258 103.497 219.258 103.788 219.258 104.057H181.951C180.785 103.759 179.73 103.474 178.745 103.205H219.258Z" fill="black"/>
<path d="M219.188 105.974C219.188 106.266 219.188 106.557 219.153 106.825H193.201C192.035 106.54 190.869 106.243 189.704 105.974H219.188Z" fill="black"/>
<path d="M219.037 108.767C219.037 109.064 218.996 109.35 218.973 109.618H204.982L201.339 108.767H219.037Z" fill="black"/>
<path d="M218.769 111.565C218.741 111.852 218.69 112.136 218.617 112.416H217.451C216.577 112.241 215.219 111.944 213.511 111.565H218.769Z" fill="black"/>
</g>
<path d="M208.037 62.0504C216.099 61.3975 229.46 58.5062 236.729 54.4723C241.089 52.0356 241.748 48.7654 241.975 46.4803C242.558 40.5694 232.707 30.9743 227.53 27.3951C226.848 26.9229 225.857 30.3972 222.721 34.297C220.069 37.6022 215.067 41.333 215.819 41.9684C216.927 42.9011 222.062 46.4395 221.817 46.865C221.398 47.5937 216.635 49.6165 209.5 53.0733C199.928 57.6901 202.353 62.5168 208.037 62.0504Z" fill="#EB9481"/>
<path d="M229.244 59.7712L215.417 49.1385C215.417 49.1385 206.061 53.662 203.595 56.4251C201.129 59.1882 202.534 62.5751 209.389 63.2454C217.247 64.0091 229.244 59.7712 229.244 59.7712Z" fill="#8ACBFF"/>
<path d="M225.764 60.1034C220.518 55.4807 214.892 51.0505 213.837 50.3393C213.79 50.3101 213.744 50.3801 213.779 50.4151C217.556 53.9068 221.541 57.1674 225.711 60.1792C225.752 60.2083 225.805 60.1384 225.764 60.1034Z" fill="#263238"/>
<path d="M217.387 62.167C216.344 62.345 215.351 62.7424 214.472 63.3329C214.055 63.644 213.681 64.0085 213.359 64.4171C213.193 64.6131 213.044 64.8238 212.916 65.0467C212.786 65.2578 212.674 65.4802 212.584 65.7112C212.584 65.7637 212.642 65.7928 212.671 65.7578C212.84 65.5888 212.98 65.3906 213.155 65.2216C213.33 65.0525 213.487 64.8718 213.668 64.7086C214.035 64.3625 214.424 64.0412 214.834 63.7467C215.605 63.1139 216.484 62.6243 217.428 62.3011C217.437 62.2984 217.445 62.294 217.452 62.2881C217.459 62.2823 217.465 62.2751 217.469 62.267C217.474 62.2589 217.476 62.25 217.477 62.2408C217.478 62.2317 217.477 62.2224 217.475 62.2136C217.472 62.2048 217.467 62.1966 217.462 62.1895C217.456 62.1824 217.449 62.1765 217.44 62.1722C217.432 62.1679 217.423 62.1652 217.414 62.1643C217.405 62.1634 217.396 62.1643 217.387 62.167Z" fill="#263238"/>
<g opacity="0.1">
<path d="M217.72 50.9106H211.96C212.543 50.5958 213.126 50.3276 213.581 50.0595H216.612L217.72 50.9106Z" fill="black"/>
<path d="M221.351 53.7028H207.133C207.576 53.4172 208.043 53.1199 208.509 52.8517H220.243L221.351 53.7028Z" fill="black"/>
<path d="M224.989 56.5009H203.519L203.583 56.4251C203.837 56.1483 204.11 55.8893 204.4 55.6498H223.875L224.989 56.5009Z" fill="black"/>
<path d="M228.62 59.2932H202.482C202.45 59.0113 202.461 58.7262 202.517 58.4479H227.524L228.62 59.2932Z" fill="black"/>
<path d="M224.423 61.2343C223.386 61.5141 222.226 61.8172 220.996 62.0854H204.825C204.364 61.8592 203.935 61.573 203.548 61.2343H224.423Z" fill="black"/>
</g>
<path d="M199.112 57.0314C201.444 57.999 206.16 55.0144 208.287 52.3096C208.427 52.1231 208.946 43.8221 209.22 42.1841C209.272 41.8518 198.547 42.9652 198.547 42.9652C198.791 45.1066 198.771 47.27 198.488 49.4066C198.447 49.6456 196.879 56.0928 199.112 57.0314Z" fill="#EB9481"/>
<path d="M198.308 50.0653C198.308 50.1003 198.308 50.1353 198.273 50.1761H198.325C198.651 50.2789 198.984 50.3531 199.322 50.3976C204.918 51.2021 207.938 44.6615 208.9 42.1141C207.151 42.0617 198.547 42.9536 198.547 42.9536C198.791 45.095 198.772 47.2583 198.489 49.395C198.489 49.4766 198.459 49.5524 198.448 49.6223C198.415 49.774 198.368 49.9223 198.308 50.0653Z" fill="#263238"/>
<path d="M197.142 23.8509C197.142 23.8509 193.644 25.2616 192.968 28.7941C192.292 32.3267 193.061 36.0458 193.365 36.2323C193.668 36.4189 197.142 23.8509 197.142 23.8509Z" fill="#263238"/>
<path d="M210.625 29.1322C211.739 32.8222 209.774 43.4665 207.128 45.8391C203.321 49.2725 197.101 49.5873 194.186 45.0113C191.359 40.581 194.186 26.7539 197.101 24.6087C201.438 21.4317 208.97 23.6876 210.625 29.1322Z" fill="#EB9481"/>
<path d="M193.446 33.1894C193.223 34.1665 193.086 35.1613 193.038 36.1624C192.968 37.1942 192.956 38.226 192.962 39.2577C192.962 39.316 193.056 39.3102 193.056 39.2577C193.056 38.2434 193.125 37.2291 193.213 36.2207C193.3 35.2122 193.464 34.2096 193.516 33.2011C193.522 33.1544 193.458 33.1544 193.446 33.1894Z" fill="#263238"/>
<path d="M200.022 35.5853C200.022 35.5561 200.074 35.6261 200.068 35.6552C199.917 36.3722 199.864 37.2117 200.471 37.5673C200.471 37.5673 200.471 37.6139 200.471 37.6081C199.695 37.3341 199.777 36.2149 200.022 35.5853Z" fill="#263238"/>
<path d="M200.815 34.9266C201.98 35.049 201.654 37.3749 200.57 37.2583C199.485 37.1417 199.829 34.8275 200.815 34.9266Z" fill="#263238"/>
<path d="M196.034 35.1131C196.034 35.084 195.97 35.1131 195.97 35.1656C195.888 35.8942 195.679 36.7103 194.991 36.8619V36.9027C195.807 36.8969 196.075 35.8126 196.034 35.1131Z" fill="#263238"/>
<path d="M195.492 34.2679C194.326 34.0172 193.93 36.3314 194.991 36.5646C196.052 36.7978 196.454 34.4777 195.492 34.2679Z" fill="#263238"/>
<path d="M201.881 33.9881C201.588 33.8568 201.301 33.7088 201.024 33.545C200.7 33.4305 200.422 33.2136 200.232 32.9271C200.192 32.8254 200.186 32.7135 200.215 32.6082C200.245 32.503 200.308 32.4103 200.395 32.3442C200.589 32.24 200.808 32.1894 201.028 32.1976C201.248 32.2058 201.462 32.2725 201.648 32.3908C202.06 32.5717 202.388 32.9004 202.569 33.3119C202.604 33.4074 202.61 33.5108 202.588 33.6099C202.565 33.709 202.515 33.7995 202.442 33.8707C202.37 33.9419 202.278 33.9909 202.179 34.0117C202.08 34.0325 201.976 34.0243 201.881 33.9881Z" fill="#263238"/>
<path d="M194.775 32.9679C195.096 32.9483 195.415 32.9113 195.731 32.8572C196.076 32.8652 196.413 32.7608 196.693 32.5599C196.761 32.48 196.802 32.3811 196.812 32.2767C196.821 32.1723 196.798 32.0676 196.745 31.9769C196.603 31.8137 196.421 31.6906 196.216 31.62C196.012 31.5494 195.792 31.5338 195.58 31.5747C195.128 31.5983 194.702 31.7896 194.385 32.111C194.325 32.1875 194.287 32.279 194.275 32.3755C194.264 32.4719 194.279 32.5697 194.32 32.6581C194.36 32.7465 194.424 32.8222 194.504 32.8768C194.584 32.9315 194.678 32.963 194.775 32.9679Z" fill="#263238"/>
<path d="M199.963 42.3706C199.765 42.5164 199.561 42.7262 199.293 42.7146C199.025 42.6689 198.769 42.5697 198.541 42.4231C198.541 42.4231 198.494 42.4231 198.506 42.4522C198.588 42.6098 198.712 42.7419 198.864 42.8343C199.016 42.9268 199.191 42.976 199.369 42.9769C199.524 42.9563 199.67 42.8899 199.787 42.786C199.904 42.6822 199.988 42.5457 200.027 42.3939C200.021 42.3765 199.986 42.3531 199.963 42.3706Z" fill="#263238"/>
<path d="M199.503 40.103C199.28 40.3643 199.005 40.5764 198.696 40.7259C198.387 40.8755 198.05 40.9591 197.707 40.9716C197.409 40.9849 197.111 40.9575 196.821 40.89L196.652 40.8433C196.6 40.8332 196.549 40.8175 196.5 40.7967C196.462 40.7859 196.429 40.7618 196.406 40.7287C196.384 40.6957 196.374 40.6557 196.378 40.616C196.375 40.5927 196.375 40.5693 196.378 40.546V40.4819C196.436 39.899 196.611 39.0829 196.611 39.0829C196.396 39.1587 195.294 39.4793 195.352 39.1936C195.765 36.6958 196.431 34.2466 197.34 31.8837C197.369 31.8079 197.491 31.8429 197.474 31.9186C197.101 34.2504 196.308 36.4597 195.918 38.7739C196.31 38.6519 196.719 38.5871 197.13 38.5816C197.206 38.6165 196.769 40.1963 196.757 40.4528C197.205 40.5632 197.671 40.582 198.127 40.5078C198.583 40.4337 199.019 40.2682 199.409 40.0214C199.503 39.9981 199.555 40.0564 199.503 40.103Z" fill="#263238"/>
<path d="M197.188 40.651C197.436 41.0903 197.794 41.4579 198.226 41.7177C198.467 41.8543 198.744 41.9115 199.019 41.8809C199.602 41.811 199.707 41.298 199.66 40.8142C199.638 40.5657 199.585 40.3209 199.503 40.0855C198.811 40.5152 198 40.7133 197.188 40.651Z" fill="#263238"/>
<path d="M198.226 41.7177C198.467 41.8544 198.744 41.9115 199.019 41.881C199.602 41.811 199.707 41.298 199.66 40.8142C199.354 40.782 199.047 40.8537 198.787 41.0176C198.526 41.1814 198.329 41.4281 198.226 41.7177Z" fill="#FF98B9"/>
<path d="M209.762 37.7655C208.544 37.9403 207.751 34.2329 207.582 32.8222C207.431 31.5864 207.635 27.7623 207.617 27.4942C207.6 27.226 202.021 30.0358 199.217 28.7183C196.413 27.4009 194.868 24.4571 195.02 23.2213C195.172 21.9855 199.305 19.4381 202.481 19.7703C205.658 20.1026 209.302 24.7777 209.302 24.7777C208.878 24.1104 208.508 23.4106 208.194 22.685C208.27 22.5509 210.176 23.6818 210.328 25.1916C210.328 25.1916 210.205 23.3087 210.369 23.2971C210.532 23.2854 211.867 25.0983 211.325 26.2117C211.325 26.2117 212.904 28.083 212.805 29.8492C212.706 31.6155 211.196 37.5614 209.762 37.7655Z" fill="#263238"/>
<path d="M197.229 27.7798C198.026 28.3819 198.908 28.8614 199.847 29.2022C200.912 29.4704 202.028 29.4704 203.094 29.2022C204.162 28.9655 205.186 28.558 206.125 27.9955C206.953 27.5059 207.716 26.8763 208.585 26.4624C208.801 26.3575 208.987 26.6723 208.836 26.8355C207.239 28.4771 205.156 29.5605 202.896 29.925C201.847 30.096 200.772 29.9907 199.776 29.6197C198.781 29.2486 197.899 28.6246 197.218 27.809C197.218 27.809 197.218 27.7682 197.229 27.7798Z" fill="#263238"/>
<path d="M200.476 39.0246C199.678 38.8075 198.999 38.2834 198.586 37.567C198.173 36.8505 198.061 35.9998 198.273 35.2006C198.425 34.637 198.731 34.1274 199.158 33.7295C199.585 33.3316 200.115 33.0615 200.688 32.9499C201.261 32.8383 201.853 32.8897 202.398 33.0982C202.944 33.3066 203.419 33.6639 203.771 34.1292C204.123 34.5946 204.338 35.1495 204.39 35.7307C204.443 36.3119 204.331 36.8962 204.068 37.4171C203.805 37.938 203.401 38.3746 202.902 38.6774C202.403 38.9801 201.829 39.1367 201.246 39.1295C200.986 39.129 200.727 39.0937 200.476 39.0246ZM198.675 35.3055C198.536 35.8219 198.553 36.3681 198.723 36.875C198.894 37.3819 199.212 37.8267 199.636 38.1531C200.059 38.4796 200.57 38.6731 201.104 38.7091C201.638 38.7451 202.17 38.6221 202.634 38.3556C203.098 38.089 203.472 37.691 203.71 37.2117C203.947 36.7324 204.038 36.1934 203.969 35.6629C203.9 35.1324 203.676 34.6342 203.324 34.2313C202.972 33.8284 202.508 33.5388 201.992 33.3993C201.773 33.343 201.548 33.3117 201.322 33.306C200.721 33.2992 200.136 33.4918 199.657 33.8537C199.178 34.2156 198.833 34.7262 198.675 35.3055Z" fill="#8ACBFF"/>
<path d="M193.947 38.1502C192.677 37.9811 191.826 36.4597 192.047 34.7517C192.132 33.9781 192.461 33.2515 192.986 32.6765C193.194 32.4142 193.467 32.2102 193.777 32.0845C194.087 31.9588 194.425 31.9155 194.757 31.959C195.089 32.0024 195.405 32.131 195.672 32.3323C195.94 32.5336 196.151 32.8008 196.285 33.1078C196.64 33.8008 196.769 34.588 196.652 35.3579C196.442 36.9727 195.346 38.1793 194.151 38.1618L193.947 38.1502ZM193.289 32.9621C192.826 33.4761 192.536 34.1225 192.461 34.81C192.269 36.2848 192.956 37.5964 194 37.7246C195.043 37.8529 196.046 36.7686 196.244 35.288C196.344 34.6057 196.23 33.9092 195.918 33.2944C195.805 33.0524 195.635 32.8413 195.423 32.6789C195.211 32.5166 194.962 32.4078 194.699 32.3617H194.542C194.303 32.3687 194.068 32.4257 193.852 32.5291C193.636 32.6326 193.444 32.78 193.289 32.9621Z" fill="#8ACBFF"/>
<path d="M198.331 35.5853L198.64 35.2997C198.22 34.845 197.206 34.1746 196.343 34.8858L196.606 35.2064C197.381 34.5535 198.273 35.5328 198.331 35.5853Z" fill="#8ACBFF"/>
<path d="M212.012 38.1735L212.409 38.0336C212.339 37.8471 211.733 36.2382 210.829 35.9642C209.925 35.6902 204.37 35.5095 204.131 35.4978V35.9176C205.74 35.9759 210.071 36.1682 210.718 36.3664C211.365 36.5646 211.855 37.7305 212.012 38.1735Z" fill="#8ACBFF"/>
<path d="M208.328 37.8063C208.328 37.8063 210.812 34.4194 212.356 35.3113C213.901 36.2032 211.977 41.1406 210.13 41.7993C209.898 41.898 209.649 41.9488 209.397 41.9485C209.145 41.9483 208.896 41.897 208.664 41.7979C208.433 41.6988 208.224 41.5538 208.05 41.3717C207.876 41.1896 207.741 40.9742 207.652 40.7384L208.328 37.8063Z" fill="#EB9481"/>
<path d="M211.773 36.7162V36.7628C210.479 37.2583 209.774 38.4358 209.273 39.6775C209.35 39.5504 209.454 39.4416 209.578 39.3588C209.701 39.2759 209.841 39.2209 209.988 39.1977C210.135 39.1744 210.286 39.1833 210.429 39.2239C210.572 39.2645 210.704 39.3357 210.817 39.4326C210.852 39.4326 210.817 39.5084 210.782 39.4968C210.558 39.4227 210.316 39.4187 210.089 39.4853C209.862 39.552 209.661 39.6861 209.512 39.8698C209.27 40.1851 209.059 40.5228 208.882 40.8783C208.824 40.9949 208.614 40.9249 208.661 40.7967C208.684 39.0829 210.007 36.8444 211.773 36.7162Z" fill="#263238"/>
<path d="M212.63 35.3521C212.455 35.2231 212.25 35.1396 212.034 35.109C211.819 35.0785 211.599 35.1019 211.394 35.1772C211.336 35.1772 211.33 35.2297 211.394 35.2122C211.64 35.1395 211.901 35.1395 212.146 35.2122C212.35 35.2763 212.927 35.5153 212.922 36.722C212.833 37.675 212.57 38.6036 212.146 39.4618C212.146 39.4909 212.181 39.5201 212.199 39.4909C212.481 38.9538 212.707 38.3893 212.875 37.8063C213.038 37.1534 213.254 35.8826 212.63 35.3521Z" fill="#263238"/>
<path d="M209.156 53.1141C208.742 53.5746 208.375 54.0584 207.938 54.4956C207.498 54.9394 207.034 55.3597 206.55 55.7547C205.613 56.5216 204.597 57.1861 203.519 57.7367C202.405 58.3999 201.108 58.6899 199.817 58.5645C199.232 58.4649 198.685 58.2077 198.235 57.8204C197.785 57.4332 197.45 56.9306 197.264 56.3668C196.722 54.9095 197.089 53.3589 197.445 51.8316C197.445 51.7791 197.375 51.7558 197.357 51.8316C196.955 53.3997 196.652 54.688 196.926 56.1628C197.016 56.7384 197.248 57.2824 197.601 57.7456C197.954 58.2088 198.417 58.5764 198.949 58.8151C201.531 59.8877 204.283 58.0282 206.195 56.4368C206.754 55.9694 207.286 55.4691 207.786 54.9386C208.321 54.399 208.809 53.8139 209.243 53.1898C209.261 53.1199 209.191 53.0732 209.156 53.1141Z" fill="#263238"/>
<path d="M230.491 109.734H21.4868V117.167H230.491V109.734Z" fill="#37474F"/>
<path d="M230.491 114.264H21.4868V117.167H230.491V114.264Z" fill="#455A64"/>
<path d="M28.9835 221.453H25.9814L34.7254 117.167H42.391L28.9835 221.453Z" fill="#455A64"/>
<path d="M42.3908 117.167L41.4931 124.144H34.1423L34.7253 117.167H42.3908Z" fill="#263238"/>
<path d="M222.995 221.453H225.997L217.253 117.167H209.588L222.995 221.453Z" fill="#455A64"/>
<path d="M209.588 117.167L210.485 124.144H217.836L217.253 117.167H209.588Z" fill="#263238"/>
<path d="M150.665 109.728H182.953V107.216L150.665 106.173V109.728Z" fill="#455A64"/>
<path d="M125.284 109.682H146.59C148.408 109.682 145.774 104.505 139.14 102.523C132.506 100.541 123.197 107.741 125.284 109.682Z" fill="#37474F"/>
<path d="M133.643 109.682C133.296 108.593 132.831 107.545 132.256 106.557C131.971 106.075 131.639 105.621 131.265 105.205C130.877 104.784 130.458 104.395 130.011 104.039C130.588 104.209 131.123 104.499 131.579 104.89C132.042 105.282 132.437 105.749 132.745 106.272C133.056 106.79 133.294 107.349 133.451 107.933C133.614 108.501 133.679 109.092 133.643 109.682Z" fill="#263238"/>
<path d="M131.119 104.756C130 105.485 128.881 106.138 127.831 106.89C127.306 107.254 126.811 107.659 126.351 108.102C125.878 108.54 125.513 109.08 125.284 109.682C125.299 108.99 125.557 108.325 126.013 107.805C126.436 107.272 126.935 106.805 127.493 106.417C128.045 106.032 128.63 105.696 129.242 105.415C129.843 105.129 130.472 104.908 131.119 104.756Z" fill="#263238"/>
<path d="M109.999 99.6612H161.781L153.55 61.1119H101.762L109.999 99.6612Z" fill="#455A64"/>
<path d="M108.087 99.6612H159.869L151.632 61.1119H99.8503L108.087 99.6612Z" fill="#37474F"/>
<path d="M136.016 85.8399H137.228L135.386 77.195H134.174L136.016 85.8399Z" fill="#263238"/>
<path d="M133.62 85.8399H134.832L132.99 77.195H131.772L133.62 85.8399Z" fill="#263238"/>
<path d="M131.224 85.8399H132.436L130.594 77.195H129.376L131.224 85.8399Z" fill="#263238"/>
<path d="M128.828 85.8399H130.041L128.199 77.195H126.98L128.828 85.8399Z" fill="#263238"/>
<path d="M126.426 85.8399H127.645L125.803 77.195H124.584L126.426 85.8399Z" fill="#263238"/>
<path d="M124.031 85.8399H125.249L123.401 77.195H122.188L124.031 85.8399Z" fill="#263238"/>
<path d="M121.635 85.8399H122.853L121.005 77.195H119.792L121.635 85.8399Z" fill="#263238"/>
<path d="M122.731 109.734H148.199V107.752L122.731 106.93V109.734Z" fill="#455A64"/>
<path d="M115.805 109.728H129.481L137.718 88.125H124.042L115.805 109.728Z" fill="#455A64"/>
<path d="M113.555 109.728H127.231L135.462 88.125H121.792L113.555 109.728Z" fill="#263238"/>
<path d="M111.066 30.1407C111.066 30.1407 107.918 55.5507 102.672 61.2693C96.4111 68.1246 91.8701 67.0986 89.3402 70.6603C86.8161 67.1161 82.2692 68.1246 76.0027 61.2635C70.7563 55.5449 67.6201 30.1349 67.6201 30.1349C81.3657 23.4661 89.3402 15.9871 89.3402 15.9871C89.585 16.2261 97.5304 23.5769 111.066 30.1407Z" fill="#8ACBFF"/>
<path opacity="0.2" d="M89.3402 15.9988V70.6603C86.8161 67.1161 82.2692 68.1246 76.0027 61.2635C70.7563 55.5449 67.6201 30.1349 67.6201 30.1349C81.3657 23.4661 89.3402 15.9871 89.3402 15.9871V15.9988Z" fill="black"/>
<path opacity="0.1" d="M111.066 30.1407C111.066 30.1407 107.918 55.5507 102.672 61.2693C96.4111 68.1246 91.87 67.0986 89.3401 70.6603V15.9988C89.5849 16.2261 97.5303 23.5769 111.066 30.1407Z" fill="black"/>
<path d="M107.691 32.1868C107.691 32.1868 105.003 53.6562 100.608 58.4829C95.315 64.3122 91.4735 63.432 89.3341 66.4224C87.2006 63.432 83.359 64.2889 78.066 58.4829C73.6591 53.6504 70.9834 32.1868 70.9834 32.1868C82.5954 26.5499 89.3341 20.2367 89.3341 20.2367C89.3341 20.2367 96.0845 26.5499 107.691 32.1868Z" fill="#8ACBFF"/>
<path d="M94.8429 40.2838H83.8313V50.2752H94.8429V40.2838Z" fill="white"/>
<path d="M93.7412 43.3616H92.622V38.9022C92.5863 38.0549 92.2246 37.2543 91.6125 36.6674C91.0004 36.0805 90.1852 35.7529 89.3372 35.7529C88.4892 35.7529 87.674 36.0805 87.0618 36.6674C86.4497 37.2543 86.088 38.0549 86.0523 38.9022V43.3616H84.9331V38.9022C84.9746 37.7619 85.4568 36.6821 86.2781 35.8901C87.0995 35.0981 88.1961 34.6555 89.3372 34.6555C90.4782 34.6555 91.5748 35.0981 92.3962 35.8901C93.2176 36.6821 93.6997 37.7619 93.7412 38.9022V43.3616Z" fill="white"/>
<path d="M89.8062 45.4019L90.2668 47.5879H88.3081L88.7686 45.4019C88.5882 45.2892 88.4494 45.1209 88.3732 44.9224C88.297 44.7238 88.2874 44.5059 88.346 44.3014C88.4046 44.097 88.5282 43.9172 88.698 43.7892C88.8679 43.6612 89.0748 43.5919 89.2874 43.5919C89.5001 43.5919 89.707 43.6612 89.8768 43.7892C90.0467 43.9172 90.1702 44.097 90.2289 44.3014C90.2875 44.5059 90.2779 44.7238 90.2017 44.9224C90.1254 45.1209 89.9866 45.2892 89.8062 45.4019Z" fill="#37474F"/>
<path d="M31.8749 176.02C31.8749 176.02 18.9513 173.105 11.8686 166.564C4.78602 160.024 0.83374 148.348 0.83374 148.348C5.74471 149.295 10.5862 150.573 15.3254 152.172C16.4913 153.408 18.6831 155.955 19.7091 158.368C19.8295 156.894 19.8412 155.414 19.7441 153.938C21.397 154.655 22.9443 155.595 24.3434 156.73C30.2135 161.854 31.8749 176.02 31.8749 176.02Z" fill="#8ACBFF"/>
<path d="M8.90134 154.031C7.15254 152.807 5.34545 151.635 3.59083 150.405C3.57407 150.389 3.56336 150.367 3.5604 150.344C3.55745 150.321 3.56242 150.297 3.57453 150.277C3.58663 150.257 3.60516 150.241 3.62715 150.233C3.64914 150.224 3.6733 150.224 3.69576 150.231C7.0243 152.218 10.312 154.346 13.4832 156.573C14.5908 157.348 15.6808 158.158 16.7534 158.98L16.5319 158.596C16.1414 157.949 15.7333 157.313 15.3253 156.678C14.5148 155.381 13.5963 154.154 12.5796 153.011C12.5447 152.97 12.5796 152.912 12.6438 152.953C13.6522 154.119 14.6549 155.285 15.5584 156.491C15.9956 157.074 16.3978 157.657 16.7826 158.304C16.9866 158.625 17.179 158.951 17.3655 159.278L17.5579 159.61C19.2309 160.922 20.8573 162.291 22.4079 163.737C23.3697 164.635 24.2907 165.556 25.1826 166.512C24.6871 164.95 24.2499 163.37 23.667 161.848C23.667 161.796 23.737 161.778 23.7545 161.848C24.3374 163.463 24.9203 165.084 25.3692 166.745C26.3602 167.81 27.3026 168.919 28.1964 170.074C28.1964 170.004 28.1964 169.934 28.1498 169.864C28.004 169.281 27.8525 168.645 27.6892 168.045C27.3745 166.879 27.0305 165.713 26.6341 164.547C25.8861 162.165 24.6999 159.943 23.1365 157.995C23.1016 157.949 23.1365 157.89 23.2007 157.931C25.7248 160.922 27.2054 164.507 28.1498 168.267C28.2838 168.82 28.4179 169.368 28.5403 169.922C28.6103 170.214 28.6861 170.505 28.7385 170.814C29.1291 171.344 29.508 171.875 29.9044 172.423C32.1074 175.791 33.9407 179.387 35.3723 183.149C36.9897 187.371 38.3734 191.68 39.5169 196.055C39.5169 196.142 39.412 196.171 39.3829 196.09C36.8529 188.512 34.2764 180.858 29.9452 174.102C29.0324 172.675 28.0479 171.296 26.9956 169.969C24.8551 169.831 22.7422 169.412 20.7115 168.721C18.4942 167.974 16.3792 166.951 14.4159 165.678C13.3048 164.923 12.2327 164.112 11.2039 163.247C11.1977 163.244 11.1923 163.24 11.1881 163.234C11.1839 163.229 11.181 163.222 11.1796 163.215C11.1782 163.208 11.1784 163.201 11.1801 163.195C11.1818 163.188 11.185 163.182 11.1895 163.176C11.194 163.171 11.1996 163.167 11.2059 163.164C11.2123 163.161 11.2192 163.159 11.2262 163.159C11.2332 163.16 11.24 163.161 11.2463 163.164C11.2525 163.167 11.2579 163.172 11.2622 163.178C13.0663 164.629 15.0586 165.829 17.1848 166.745C19.2737 167.702 21.4583 168.435 23.702 168.931C24.658 169.141 25.6257 169.292 26.6166 169.427C25.421 167.95 24.1504 166.535 22.8101 165.189C22.3729 164.757 21.924 164.338 21.4752 163.918C19.9681 162.863 18.3681 161.948 16.6951 161.184C14.5791 160.158 12.498 159.074 10.3995 158.007C9.23361 157.424 8.06775 156.789 6.84942 156.211C6.80278 156.182 6.84942 156.112 6.89605 156.136C9.02376 157.162 11.1806 158.118 13.3083 159.103C15.3311 160.024 17.3888 160.951 19.3067 162.017L19.5515 162.163C17.7988 160.64 15.9937 159.181 14.1361 157.785C12.4048 156.515 10.6676 155.25 8.90134 154.031Z" fill="#263238"/>
<path d="M9.6358 160.688C10.6851 161.149 11.7577 161.557 12.7953 162.047C13.8329 162.536 14.8764 163.131 15.8965 163.731C15.9373 163.76 15.8965 163.819 15.8499 163.801C14.8239 163.306 13.7804 162.845 12.7603 162.332C11.7402 161.819 10.6792 161.242 9.60665 160.776C9.56001 160.753 9.58333 160.665 9.6358 160.688Z" fill="#263238"/>
<path d="M73.8519 110.9C71.4644 113.98 70.1135 117.737 69.9929 121.632C69.9462 122.798 70.1328 124.401 70.2668 126.295C65.446 128.854 61.8318 133.518 61.8318 133.518C64.5716 131.874 68.3257 131.186 70.3543 131.478C70.2882 132.775 70.1226 134.065 69.8588 135.337C68.9669 135.284 67.2356 135.407 64.3792 136.421C66.0768 136.403 67.7598 136.737 69.3225 137.4C67.0199 144.734 60.1704 152.259 41.266 155.471C39.2574 146.48 40.4404 137.069 44.612 128.854C50.2781 117.703 73.8519 110.9 73.8519 110.9Z" fill="#8ACBFF"/>
<path d="M34.7196 186.81C35.046 183.677 35.4541 180.555 35.9437 177.442C36.9019 171.214 38.1743 165.039 39.7561 158.94C40.4973 156.076 41.4083 153.26 42.4842 150.505C42.4308 150.001 42.4093 149.495 42.4201 148.989C42.4201 148.406 42.4201 147.776 42.4201 147.176C42.4201 145.964 42.4784 144.753 42.595 143.544C42.7881 141.154 43.178 138.783 43.7609 136.456C44.1048 135.109 44.507 133.786 44.9267 132.451C44.9267 132.399 45.0258 132.422 45.0083 132.451C44.3841 134.776 43.9186 137.14 43.6151 139.528C43.2778 141.882 43.0657 144.252 42.9797 146.628C42.9797 147.275 42.9448 147.922 42.9448 148.575C42.9448 148.849 42.9448 149.129 42.9448 149.409C43.8706 147.158 44.9336 144.966 46.1276 142.845C48.0491 139.466 50.2115 136.23 52.5981 133.162C52.6042 132.805 52.6571 132.451 52.7555 132.107C52.8429 131.682 52.9362 131.262 53.0295 130.842C53.2218 129.98 53.4375 129.093 53.6765 128.266C54.1429 126.552 54.7666 124.896 55.3029 123.206C55.3029 123.148 55.402 123.177 55.3845 123.206C54.8832 124.879 54.5509 126.616 54.172 128.318C53.9797 129.163 53.799 130.009 53.5891 130.854C53.4958 131.274 53.4026 131.693 53.3151 132.119V132.212C54.0788 131.25 54.8599 130.294 55.6468 129.362C59.2552 125.13 63.225 121.201 67.2006 117.347C67.6902 116.869 68.1915 116.403 68.687 115.931C68.696 115.925 68.7065 115.923 68.7169 115.924C68.7273 115.926 68.737 115.93 68.7444 115.938C68.7518 115.945 68.7565 115.955 68.7577 115.965C68.7589 115.976 68.7566 115.986 68.7512 115.995C64.9446 119.971 61.173 123.987 57.6405 128.19C56.8011 129.193 55.9675 130.201 55.1514 131.227C55.5827 130.936 56.0141 130.644 56.4396 130.376C57.5414 129.653 58.6548 128.954 59.8032 128.312C60.9515 127.671 62.1057 127.042 63.3008 126.453C64.4958 125.864 65.8132 125.363 66.979 124.704C67.0315 124.675 67.0723 124.756 67.0257 124.78C65.8301 125.332 64.6767 125.971 63.5747 126.692C62.4089 127.374 61.243 128.062 60.1413 128.779C59.0395 129.496 57.9145 130.178 56.8127 130.895C55.8917 131.478 54.9881 132.142 54.0321 132.696C51.8399 135.511 49.8174 138.454 47.9755 141.51C46.8303 143.435 45.7854 145.417 44.8451 147.45L45.5213 147.159L47.2701 146.389C48.3835 145.894 49.5027 145.41 50.6161 144.926C52.738 144.005 54.889 143.177 56.9701 142.145C58.1422 141.595 59.2756 140.966 60.3628 140.262C60.4094 140.227 60.4502 140.303 60.4094 140.338C56.5329 143.008 52.1842 144.891 47.8938 146.791L46.0343 147.613C45.5213 147.841 45.0083 148.091 44.4837 148.289C43.2152 151.126 42.1459 154.048 41.2834 157.033C39.6041 163.055 38.2421 169.161 37.2029 175.326C36.1186 181.499 35.3841 187.719 34.8187 193.98C34.7429 194.761 34.6729 195.536 34.5855 196.311C34.5855 196.376 34.5597 196.439 34.5138 196.485C34.4679 196.53 34.4056 196.556 34.3407 196.556C34.2757 196.556 34.2135 196.53 34.1676 196.485C34.1216 196.439 34.0958 196.376 34.0958 196.311C34.0667 193.134 34.3873 189.957 34.7196 186.81Z" fill="#263238"/>
<path d="M46.2205 134.596C46.5703 132.673 47.0833 130.796 47.6021 128.913C47.6021 128.854 47.6954 128.884 47.6837 128.913C47.2057 130.761 46.8618 132.644 46.5178 134.521C46.1739 136.398 45.8475 138.35 45.5793 140.274C45.5793 140.303 45.5269 140.309 45.5269 140.274C45.6533 138.37 45.8849 136.475 46.2205 134.596Z" fill="#263238"/>
<path d="M54.3702 139.808C55.6854 138.935 57.0607 138.155 58.4857 137.476C59.1736 137.12 59.8731 136.782 60.5668 136.444C61.2605 136.106 62.0358 135.803 62.747 135.447C62.7566 135.445 62.7667 135.446 62.7759 135.449C62.7851 135.453 62.7929 135.46 62.7981 135.468C62.8033 135.477 62.8057 135.487 62.8049 135.496C62.804 135.506 62.8001 135.516 62.7936 135.523C62.0999 135.867 61.447 136.287 60.765 136.66C60.083 137.033 59.3718 137.429 58.6664 137.826C57.2849 138.566 55.9267 139.388 54.4752 139.994C54.4504 140.008 54.4212 140.012 54.3938 140.004C54.3665 139.996 54.3433 139.978 54.3294 139.954C54.3155 139.929 54.312 139.9 54.3196 139.872C54.3273 139.845 54.3455 139.822 54.3702 139.808Z" fill="#263238"/>
<path opacity="0.1" d="M31.6416 153.635C31.6416 153.635 19.6799 150.779 14.1945 142.757C8.94808 135.098 7.25175 122.04 7.11768 120.892C7.33336 121.941 9.80499 133.355 17.9427 138.671C24.1743 142.746 30.196 146.092 31.6416 153.635Z" fill="#263238"/>
<path d="M31.6416 153.635C31.6416 153.635 19.6799 150.779 14.1945 142.757C8.94808 135.098 7.25174 122.04 7.11767 120.892C7.1154 120.864 7.1154 120.837 7.11767 120.81C7.11767 120.81 12.8537 128.971 18.8812 131.04C24.9088 133.11 33.3671 140.309 31.6416 153.635Z" fill="#8ACBFF"/>
<path d="M9.22808 125.304C10.2906 127.501 11.5183 129.613 12.9006 131.623C14.2954 133.532 15.9493 135.237 17.8147 136.689C19.4411 137.977 21.1607 139.149 22.8046 140.408L22.7638 140.35C22.4548 139.895 22.1284 139.446 21.7844 139.015C21.1024 138.141 20.3563 137.313 19.5984 136.497C18.1178 134.882 16.5963 133.302 15.2673 131.559C14.5251 130.597 13.8826 129.562 13.3494 128.47C13.3494 128.417 13.4077 128.388 13.431 128.47C15.3722 132.509 19.2603 135.098 22.0118 138.508C22.4043 138.994 22.772 139.5 23.1135 140.023C23.3867 140.401 23.6174 140.808 23.8014 141.236C25.3152 142.449 26.6844 143.831 27.8819 145.357C27.7787 144.57 27.619 143.79 27.4039 143.026C27.1246 141.962 26.6968 140.944 26.1331 140C26.1331 139.953 26.1798 139.901 26.2089 139.948C26.7878 140.895 27.2553 141.907 27.6021 142.961C27.859 143.794 28.0118 144.656 28.0568 145.526C28.6475 146.329 29.1868 147.168 29.6715 148.039C29.619 147.782 29.5724 147.526 29.52 147.269C29.2868 146.103 29.0245 144.891 28.7155 143.719C28.1515 141.337 27.1813 139.069 25.8475 137.016C25.845 137.006 25.8458 136.996 25.8495 136.987C25.8532 136.977 25.8598 136.97 25.8682 136.964C25.8767 136.959 25.8866 136.957 25.8965 136.958C25.9064 136.958 25.9158 136.962 25.9233 136.969C27.2935 139.001 28.3653 141.22 29.1061 143.556C29.4908 144.722 29.7939 145.923 30.0621 147.129C30.1962 147.712 30.3127 148.295 30.4235 148.878C30.4818 149.181 30.5517 149.496 30.5984 149.811C31.7865 152.413 32.7102 155.127 33.3556 157.914C34.5323 162.894 35.3852 167.945 35.9089 173.035C36.5236 178.363 36.7981 183.725 36.7308 189.089C36.7308 189.759 36.6842 190.43 36.6434 191.106C36.6434 191.275 36.3752 191.304 36.3694 191.106C36.2528 188.453 36.1829 185.801 36.0255 183.149C35.8681 180.496 35.6349 177.85 35.3551 175.203C34.8096 170.01 33.9767 164.851 32.8602 159.75C31.8925 155.378 30.6334 150.977 28.2433 147.147C27.0552 145.242 25.6028 143.514 23.9296 142.017C22.2566 140.513 20.432 139.196 18.6832 137.802C16.8923 136.442 15.2665 134.877 13.8391 133.139C12.3597 131.212 11.0693 129.146 9.98589 126.972C9.70608 126.429 9.40296 125.893 9.12898 125.351C9.12315 125.304 9.19893 125.258 9.22808 125.304Z" fill="#263238"/>
<path d="M11.2915 127.059C12.0719 128.673 12.962 130.231 13.9555 131.723C13.9555 131.757 13.9205 131.792 13.8972 131.757C12.8721 130.28 11.9713 128.72 11.2041 127.094C11.1808 127.036 11.2624 127.007 11.2915 127.059Z" fill="#263238"/>
<path d="M75.5188 148.348C75.5188 148.348 75.7112 165.34 65.5507 170.243C55.3902 175.145 49.9398 171.065 43.0378 172.708C43.306 172.306 48.2318 165.224 56.0722 163.271C64.14 161.248 73.0763 155.425 75.5188 148.348Z" fill="#8ACBFF"/>
<path opacity="0.1" d="M75.5188 148.348C75.5188 148.348 75.7112 165.34 65.5507 170.243C55.3902 175.145 49.9398 171.065 43.0378 172.708C46.6865 170.974 50.5855 169.825 54.5916 169.304C61.0096 168.494 73.2454 164.343 75.5188 148.348Z" fill="black"/>
<path d="M42.3674 173.012C43.5759 171.91 44.9363 170.987 46.4071 170.272C46.6286 170.167 46.8501 170.085 47.0716 169.992C47.1785 169.855 47.2934 169.725 47.4155 169.601C47.7169 169.281 48.0361 168.977 48.3716 168.692C49.0062 168.141 49.689 167.647 50.4118 167.217C52.0965 166.226 53.9444 165.533 55.6582 164.617C55.6632 164.615 55.6686 164.613 55.6743 164.612C55.6799 164.612 55.6856 164.612 55.691 164.614C55.6964 164.616 55.7014 164.618 55.7058 164.622C55.7102 164.625 55.7138 164.63 55.7165 164.635C55.7192 164.64 55.7209 164.645 55.7214 164.651C55.722 164.657 55.7214 164.662 55.7198 164.668C55.7182 164.673 55.7155 164.678 55.712 164.682C55.7084 164.687 55.704 164.69 55.699 164.693C54.8479 165.136 54.026 165.62 53.1982 166.104C52.3705 166.588 51.5719 167.025 50.7849 167.526C50.078 167.979 49.4057 168.484 48.7738 169.036C48.5989 169.193 48.424 169.362 48.255 169.537C49.3778 169.156 50.5248 168.85 51.6884 168.622C53.548 168.249 55.425 167.981 57.2846 167.585C58.1951 167.392 59.0942 167.148 59.9777 166.856C60.823 166.18 61.6624 165.503 62.461 164.769C63.4303 163.885 64.3109 162.909 65.09 161.854C65.125 161.808 65.2008 161.854 65.1658 161.901C63.9331 163.569 62.5369 165.11 60.9979 166.5C61.4351 166.331 61.8723 166.156 62.2978 165.958C65.7873 164.393 68.7827 161.903 70.9602 158.759C70.9952 158.712 71.0709 158.759 71.036 158.8C69.1916 161.499 66.8103 163.789 64.0408 165.527C62.6503 166.394 61.1635 167.096 59.6105 167.619C57.8108 168.181 55.9739 168.615 54.1134 168.919C52.2898 169.218 50.4898 169.647 48.7271 170.202C47.1068 170.751 45.5839 171.554 44.2152 172.58C41.6206 174.595 39.5326 177.188 38.1178 180.153C36.1941 184.006 35.2789 188.314 34.7659 192.575C34.7659 192.756 34.4628 192.756 34.4744 192.575C34.9525 185.399 36.8645 177.972 42.3674 173.012Z" fill="#263238"/>
<path d="M54.1603 167.468C54.6917 166.676 55.408 166.026 56.2472 165.573C57.2116 165.074 58.0583 164.374 58.7304 163.521C58.7654 163.475 58.8412 163.521 58.8062 163.568C58.197 164.347 57.455 165.012 56.6144 165.533C55.6906 166.02 54.877 166.693 54.2244 167.509C54.1952 167.55 54.1311 167.509 54.1603 167.468Z" fill="#263238"/>
<path d="M48.768 185.55L48.3074 194.895L46.8909 223.441H25.5731L24.1566 194.895L23.696 185.55H48.768Z" fill="#37474F"/>
<path d="M48.768 185.55L48.3074 194.895H24.1566L23.696 185.55H48.768Z" fill="#263238"/>
<path d="M50.2606 181.651H22.1982V190.564H50.2606V181.651Z" fill="#37474F"/>
<path d="M53.3732 100.227H21.4868V73.2602L37.4242 63.1347L53.3732 73.2602V100.227Z" fill="#8ACBFF"/>
<path opacity="0.2" d="M53.3732 100.227H21.4868V73.2602L37.4242 63.1347L53.3732 73.2602V100.227Z" fill="black"/>
<path d="M51.5722 95.9363H23.2825V59.6255H44.2855L51.5722 66.5449V95.9363Z" fill="#EBEBEB"/>
<path d="M44.2854 59.6255L51.5721 66.5449H44.2854V59.6255Z" fill="#DBDBDB"/>
<path d="M26.0454 66.6498H41.7729V65.7171H26.0454V66.6498Z" fill="#DBDBDB"/>
<path d="M26.0454 69.0048H41.7729V68.0721H26.0454V69.0048Z" fill="#DBDBDB"/>
<path d="M26.0454 71.3541H41.7729V70.4214H26.0454V71.3541Z" fill="#DBDBDB"/>
<path d="M26.0456 73.7149H49.0889V72.7822H26.0456V73.7149Z" fill="#DBDBDB"/>
<path d="M26.0456 76.0641H49.0889V75.1314H26.0456V76.0641Z" fill="#DBDBDB"/>
<path d="M26.0456 78.4192H49.0889V77.4865H26.0456V78.4192Z" fill="#DBDBDB"/>
<path d="M26.0456 80.7684H49.0889V79.8357H26.0456V80.7684Z" fill="#DBDBDB"/>
<path d="M26.0456 83.1293H49.0889V82.1966H26.0456V83.1293Z" fill="#DBDBDB"/>
<path d="M26.0456 85.4785H49.0889V84.5458H26.0456V85.4785Z" fill="#DBDBDB"/>
<path d="M26.0456 87.8335H49.0889V86.9008H26.0456V87.8335Z" fill="#DBDBDB"/>
<path d="M26.0456 90.1828H49.0889V89.2501H26.0456V90.1828Z" fill="#DBDBDB"/>
<path d="M26.0456 92.5378H49.0889V91.6051H26.0456V92.5378Z" fill="#DBDBDB"/>
<path d="M53.3732 80.0106V100.227H21.4868V80.0106C22.8567 80.7859 24.2033 81.5962 25.5673 82.3948C26.9314 83.1934 28.2663 84.0095 29.6071 84.8373C31.1033 85.7466 32.5956 86.6677 34.084 87.6004H34.1364L34.0956 87.6353L37.4417 89.7281C38.5551 89.0286 39.6685 88.3232 40.7877 87.6353L40.7469 87.6004H40.7935C42.2858 86.6735 43.7723 85.7525 45.2704 84.8373C46.6112 84.0173 47.9578 83.2051 49.3102 82.4006C50.6567 81.5962 52.0033 80.7859 53.3732 80.0106Z" fill="#8ACBFF"/>
<path d="M53.3732 80.0106C52.0849 80.9141 50.7733 81.7594 49.4734 82.6688C48.1735 83.5781 46.856 84.4176 45.5386 85.2745C44.2212 86.1314 42.7813 87.0641 41.4056 87.9501L41.2832 88.0376L37.6107 90.3693L37.4242 90.48L37.2493 90.3693C36.0251 89.592 34.8029 88.8148 33.5827 88.0376C33.5378 88.0138 33.4949 87.9865 33.4544 87.9559C32.067 87.0699 30.6913 86.2072 29.3156 85.2745C27.9399 84.3418 26.6924 83.5257 25.3866 82.6746C24.0809 81.8235 22.7751 80.9258 21.4868 80.0164C22.8567 80.7917 24.2033 81.602 25.5673 82.4006C26.9314 83.1992 28.2663 84.0153 29.6071 84.8431C31.1033 85.7525 32.5956 86.6735 34.084 87.6062L37.43 89.6989C38.5434 88.9994 39.6568 88.2941 40.776 87.6062C42.2683 86.6793 43.7548 85.7583 45.253 84.8431C46.5937 84.0231 47.9403 83.2109 49.2927 82.4064C50.6567 81.5962 52.0033 80.7859 53.3732 80.0106Z" fill="white"/>
<path d="M34.1249 87.5712L34.0841 87.6062L33.5828 88.0317C32.7842 88.708 31.9623 89.355 31.1287 89.9846C30.1144 90.7599 29.0767 91.5002 28.0333 92.2347C26.9898 92.9692 25.9289 93.6804 24.8505 94.3682C23.7721 95.0561 22.6878 95.7323 21.5627 96.3502C22.5304 95.5049 23.5389 94.7122 24.5532 93.9427C25.5675 93.1732 26.6109 92.4212 27.6486 91.6867C28.6862 90.9522 29.7588 90.2411 30.8314 89.5532C31.6883 88.9703 32.5802 88.4573 33.4546 87.9501L34.0725 87.6004L34.1249 87.5712Z" fill="white"/>
<path d="M53.2917 96.3502C52.1666 95.7323 51.0766 95.0561 50.004 94.3682C48.9314 93.6804 47.8763 92.9575 46.8212 92.2347C45.7661 91.5119 44.7401 90.7599 43.72 89.9846C42.8922 89.355 42.0761 88.7138 41.2833 88.0376C41.1084 87.8918 40.9394 87.7519 40.7762 87.6062L40.7354 87.5712H40.782L41.4057 87.9268C42.2976 88.434 43.1545 88.9761 44.0231 89.5299C45.1015 90.2177 46.1566 90.9347 47.2059 91.6634C48.2552 92.3921 49.287 93.1441 50.3013 93.9194C51.3156 94.6947 52.324 95.5049 53.2917 96.3502Z" fill="white"/>
<path d="M53.2918 105.397C56.1893 105.397 58.5382 103.048 58.5382 100.151C58.5382 97.2534 56.1893 94.9045 53.2918 94.9045C50.3943 94.9045 48.0454 97.2534 48.0454 100.151C48.0454 103.048 50.3943 105.397 53.2918 105.397Z" fill="#37474F"/>
<path d="M55.8916 98.8277H50.6919V103.549H55.8916V98.8277Z" fill="white"/>
<path d="M55.373 100.291H54.8716V98.1806C54.8474 97.785 54.6732 97.4136 54.3845 97.1421C54.0958 96.8706 53.7144 96.7194 53.3181 96.7194C52.9218 96.7194 52.5404 96.8706 52.2518 97.1421C51.9631 97.4136 51.7889 97.785 51.7646 98.1806V100.291H51.24V98.1806C51.225 97.8984 51.2677 97.6162 51.3654 97.3511C51.4631 97.0859 51.6137 96.8434 51.8082 96.6384C52.0026 96.4334 52.2368 96.2701 52.4964 96.1586C52.756 96.047 53.0356 95.9894 53.3181 95.9894C53.6007 95.9894 53.8803 96.047 54.1399 96.1586C54.3995 96.2701 54.6336 96.4334 54.8281 96.6384C55.0225 96.8434 55.1732 97.0859 55.2709 97.3511C55.3686 97.6162 55.4112 97.8984 55.3963 98.1806L55.373 100.291Z" fill="white"/>
<path d="M77.1161 47.0865H23.5913V55.2009H77.1161V47.0865Z" fill="white"/>
<path d="M77.4017 55.4924H23.2998V46.7951H77.4017V55.4924ZM23.8827 54.9095H76.8188V47.378H23.8827V54.9095Z" fill="#EBEBEB"/>
<path d="M22.1631 56.3902C25.0606 56.3902 27.4095 54.0413 27.4095 51.1438C27.4095 48.2463 25.0606 45.8974 22.1631 45.8974C19.2656 45.8974 16.9167 48.2463 16.9167 51.1438C16.9167 54.0413 19.2656 56.3902 22.1631 56.3902Z" fill="#37474F"/>
<path d="M24.763 49.8147H19.5632V54.5364H24.763V49.8147Z" fill="white"/>
<path d="M24.2444 51.272H23.7139V49.1676C23.7139 48.7564 23.5506 48.362 23.2598 48.0712C22.969 47.7804 22.5746 47.617 22.1633 47.617C21.7521 47.617 21.3577 47.7804 21.0669 48.0712C20.7761 48.362 20.6127 48.7564 20.6127 49.1676V51.272H20.0823V49.1676C20.0823 48.6157 20.3015 48.0863 20.6918 47.6961C21.0821 47.3058 21.6114 47.0865 22.1633 47.0865C22.7153 47.0865 23.2446 47.3058 23.6349 47.6961C24.0252 48.0863 24.2444 48.6157 24.2444 49.1676V51.272Z" fill="white"/>
<path d="M22.3848 52.2338L22.6005 53.2715H21.6736L21.8951 52.2338C21.8271 52.1939 21.7709 52.1368 21.732 52.0682C21.6931 51.9997 21.673 51.9221 21.6736 51.8433C21.6864 51.7293 21.7407 51.6241 21.8262 51.5477C21.9117 51.4712 22.0224 51.429 22.137 51.429C22.2517 51.429 22.3623 51.4712 22.4478 51.5477C22.5333 51.6241 22.5877 51.7293 22.6005 51.8433C22.6005 51.9213 22.5808 51.9981 22.5431 52.0664C22.5053 52.1347 22.4509 52.1923 22.3848 52.2338Z" fill="#37474F"/>
<path d="M32.8715 49.4183H32.2886V53.1316H32.8715V49.4183Z" fill="#37474F"/>
<path d="M34.4337 50.9805H30.7205V51.5635H34.4337V50.9805Z" fill="#37474F"/>
<path d="M33.685 49.7532L31.0593 52.3789L31.4715 52.7911L34.0972 50.1654L33.685 49.7532Z" fill="#37474F"/>
<path d="M31.4754 49.7532L31.0632 50.1654L33.6889 52.7911L34.1011 52.3789L31.4754 49.7532Z" fill="#37474F"/>
<path d="M39.173 49.4183H38.5901V53.1316H39.173V49.4183Z" fill="#37474F"/>
<path d="M40.7411 50.9805H37.0278V51.5635H40.7411V50.9805Z" fill="#37474F"/>
<path d="M39.9926 49.7527L37.3669 52.3783L37.7791 52.7905L40.4048 50.1649L39.9926 49.7527Z" fill="#37474F"/>
<path d="M37.7791 49.7568L37.3669 50.169L39.9926 52.7947L40.4048 52.3825L37.7791 49.7568Z" fill="#37474F"/>
<path d="M45.4801 49.4183H44.8972V53.1316H45.4801V49.4183Z" fill="#37474F"/>
<path d="M47.0429 50.9805H43.3296V51.5635H47.0429V50.9805Z" fill="#37474F"/>
<path d="M46.2907 49.7563L43.665 52.3819L44.0772 52.7941L46.7029 50.1685L46.2907 49.7563Z" fill="#37474F"/>
<path d="M44.0811 49.7563L43.6689 50.1685L46.2946 52.7942L46.7068 52.382L44.0811 49.7563Z" fill="#37474F"/>
<path d="M51.7878 49.4183H51.2048V53.1316H51.7878V49.4183Z" fill="#37474F"/>
<path d="M53.35 50.9805H49.6367V51.5635H53.35V50.9805Z" fill="#37474F"/>
<path d="M52.5986 49.7557L49.9729 52.3814L50.3851 52.7936L53.0108 50.1679L52.5986 49.7557Z" fill="#37474F"/>
<path d="M50.3892 49.7558L49.9771 50.168L52.6027 52.7936L53.0149 52.3814L50.3892 49.7558Z" fill="#37474F"/>
<path d="M58.0893 49.4183H57.5063V53.1316H58.0893V49.4183Z" fill="#37474F"/>
<path d="M59.6574 50.9805H55.9441V51.5635H59.6574V50.9805Z" fill="#37474F"/>
<path d="M58.9062 49.7552L56.2805 52.3809L56.6927 52.7931L59.3184 50.1674L58.9062 49.7552Z" fill="#37474F"/>
<path d="M56.6927 49.7593L56.2805 50.1715L58.9062 52.7972L59.3184 52.385L56.6927 49.7593Z" fill="#37474F"/>
<path d="M64.3964 49.4183H63.8135V53.1316H64.3964V49.4183Z" fill="#37474F"/>
<path d="M65.9589 50.9805H62.2456V51.5635H65.9589V50.9805Z" fill="#37474F"/>
<path d="M65.2102 49.753L62.5845 52.3787L62.9967 52.7909L65.6224 50.1652L65.2102 49.753Z" fill="#37474F"/>
<path d="M63.0006 49.753L62.5884 50.1652L65.2141 52.7909L65.6263 52.3787L63.0006 49.753Z" fill="#37474F"/>
<path d="M35.8096 228.909C50.0653 228.909 61.6218 226.691 61.6218 223.954C61.6218 221.218 50.0653 218.999 35.8096 218.999C21.5539 218.999 9.99731 221.218 9.99731 223.954C9.99731 226.691 21.5539 228.909 35.8096 228.909Z" fill="#EBEBEB"/>
<path d="M131.801 233.456C187.504 233.456 232.66 229.027 232.66 223.563C232.66 218.1 187.504 213.671 131.801 213.671C76.0982 213.671 30.9421 218.1 30.9421 223.563C30.9421 229.027 76.0982 233.456 131.801 233.456Z" fill="#EBEBEB"/>
</svg>
