<svg width="62" height="81" viewBox="0 0 62 81" fill="none" xmlns="http://www.w3.org/2000/svg">
<path d="M28.0452 41.1246H15.9282V80.6119H28.0452V41.1246Z" fill="#4BB0FF"/>
<g opacity="0.1">
<path d="M28.0412 41.1246H25.2686V80.6119H28.0412V41.1246Z" fill="black"/>
</g>
<path d="M44.0059 28.276H31.8889V80.6079H44.0059V28.276Z" fill="#4BB0FF"/>
<g opacity="0.1">
<path d="M44.006 28.276H41.2334V80.6079H44.006V28.276Z" fill="black"/>
</g>
<path d="M12.117 48.7795H0V80.6119H12.117V48.7795Z" fill="#4BB0FF"/>
<g opacity="0.1">
<path d="M12.1129 48.7795H9.34033V80.6119H12.1129V48.7795Z" fill="black"/>
</g>
<path d="M59.9708 11.1715H47.8538V80.6079H59.9708V11.1715Z" fill="#4BB0FF"/>
<g opacity="0.1">
<path d="M59.9667 11.1715H57.1941V80.6079H59.9667V11.1715Z" fill="black"/>
</g>
<path d="M0 60.0518V53.9286C0 53.9286 41.2253 50.4164 57.8933 4.73712H59.6595C59.6595 4.73712 48.4842 51.9967 0 60.0518Z" fill="#C7C7C7"/>
<path d="M61.0943 6.7014L55.8845 4.9756L60.2011 0.675232L61.0943 6.7014Z" fill="#C7C7C7"/>
</svg>
