<svg width="183" height="148" viewBox="0 0 183 148" fill="none" xmlns="http://www.w3.org/2000/svg">
<path d="M113.644 29.5137C112.5 27.7625 111.17 26.1414 109.678 24.6789C109.623 24.6181 109.564 24.5607 109.502 24.5069L109.451 24.4558C109.405 24.4047 109.359 24.3535 109.308 24.307C109.178 24.1676 109.04 24.0374 108.906 23.9026L108.869 23.87L108.73 23.7306C108.714 23.7124 108.697 23.6953 108.679 23.6794C108.633 23.6283 108.587 23.5772 108.536 23.5307C108.406 23.3912 108.268 23.261 108.134 23.1262L108.097 23.0937L107.958 22.9542L107.907 22.9031C107.861 22.8519 107.815 22.8008 107.764 22.7543C107.635 22.6149 107.496 22.4847 107.362 22.3499L107.325 22.3173L107.186 22.1779C107.186 22.1779 107.154 22.1407 107.135 22.1267C107.09 22.0737 107.04 22.024 106.987 21.978C106.863 21.8339 106.724 21.7083 106.59 21.5735L106.553 21.541C106.51 21.4911 106.464 21.4445 106.414 21.4015C106.414 21.4015 106.382 21.3643 106.363 21.3504C102.291 17.1293 96.9843 14.3353 91.0305 14.3353C83.0197 14.3353 76.4373 19.1283 72.1754 25.6459C67.7147 32.1542 65.3895 40.6383 65.2878 50.0103C65.3895 59.3079 67.7147 67.8478 72.1754 74.3747C73.3176 76.0999 74.6327 77.7028 76.0999 79.1584L76.3033 79.3583V79.3815L76.6638 79.7441C76.7239 79.8139 76.7886 79.8743 76.8487 79.9347L77.0521 80.1346L77.0752 80.1579L77.4358 80.5205L77.6207 80.7157L77.8241 80.911C77.8339 80.9162 77.842 80.9243 77.8472 80.9342L78.2077 81.2968L78.3926 81.4921L78.596 81.6873C78.6015 81.6902 78.6064 81.6941 78.6104 81.6989C78.6144 81.7037 78.6173 81.7093 78.6191 81.7152L78.9797 82.0778L79.1692 82.2684L79.368 82.4637L79.3957 82.4916L79.7563 82.8542C83.7593 86.8754 88.9273 89.5764 94.8672 89.5764C102.67 89.5764 109.359 84.6812 113.621 78.2565C117.975 71.7482 120.411 63.1711 120.411 53.8967C120.425 44.5015 117.998 36.0406 113.644 29.5137ZM100.456 68.0384C97.5159 72.4176 94.1692 74.3561 91.0305 74.3561C89.0992 74.3091 87.2301 73.6593 85.6823 72.4966C85.539 72.3107 85.4003 72.1154 85.2616 71.9109C82.4234 67.6293 80.3942 61.107 80.3942 53.8688C80.3942 46.5284 82.4234 40.1083 85.2616 35.7385C88.3079 31.4569 91.7332 29.4207 94.8903 29.5184C96.7204 29.51 98.504 30.097 99.9751 31.1919C100.137 31.4104 100.294 31.6243 100.437 31.8521C103.276 36.2359 105.3 42.6559 105.3 49.9824C105.319 57.2206 103.294 63.7522 100.456 68.0384Z" fill="#45A9FF"/>
<path opacity="0.1" d="M113.644 29.5137C112.5 27.7625 111.17 26.1414 109.678 24.6789C109.623 24.6181 109.564 24.5607 109.502 24.5069L109.451 24.4558C109.405 24.4047 109.359 24.3535 109.308 24.307C109.178 24.1676 109.04 24.0374 108.906 23.9026L108.869 23.87L108.73 23.7306C108.714 23.7124 108.697 23.6953 108.679 23.6794C108.633 23.6283 108.587 23.5772 108.536 23.5307C108.406 23.3912 108.268 23.261 108.134 23.1262L108.097 23.0937L107.958 22.9542L107.907 22.9031C107.861 22.8519 107.815 22.8008 107.764 22.7543C107.635 22.6149 107.496 22.4847 107.362 22.3499L107.325 22.3173L107.186 22.1779C107.186 22.1779 107.154 22.1407 107.135 22.1267C107.09 22.0737 107.04 22.024 106.987 21.978C106.863 21.8339 106.724 21.7083 106.59 21.5735L106.553 21.541C106.51 21.4911 106.464 21.4445 106.414 21.4015C106.414 21.4015 106.382 21.3643 106.363 21.3504C102.291 17.1293 96.9843 14.3353 91.0305 14.3353C83.0197 14.3353 76.4373 19.1283 72.1754 25.6459C67.7147 32.1542 65.3895 40.6383 65.2878 50.0103C65.3895 59.3079 67.7147 67.8478 72.1754 74.3747C73.3176 76.0999 74.6327 77.7028 76.0999 79.1584L76.3033 79.3583V79.3815L76.6638 79.7441C76.7239 79.8139 76.7886 79.8743 76.8487 79.9347L77.0521 80.1346L77.0752 80.1579L77.4358 80.5205L77.6207 80.7157L77.8241 80.911C77.8339 80.9162 77.842 80.9243 77.8472 80.9342L78.2077 81.2968L78.3926 81.4921L78.596 81.6873C78.6015 81.6902 78.6064 81.6941 78.6104 81.6989C78.6144 81.7037 78.6173 81.7093 78.6191 81.7152L78.9797 82.0778L79.1692 82.2684L79.368 82.4637L79.3957 82.4916L79.7563 82.8542C83.7593 86.8754 88.9273 89.5764 94.8672 89.5764C102.67 89.5764 109.359 84.6812 113.621 78.2565C117.975 71.7482 120.411 63.1711 120.411 53.8967C120.425 44.5015 117.998 36.0406 113.644 29.5137ZM100.456 68.0384C97.5159 72.4176 94.1692 74.3561 91.0305 74.3561C89.0992 74.3091 87.2301 73.6593 85.6823 72.4966C85.539 72.3107 85.4003 72.1154 85.2616 71.9109C82.4234 67.6293 80.3942 61.107 80.3942 53.8688C80.3942 46.5284 82.4234 40.1083 85.2616 35.7385C88.3079 31.4569 91.7332 29.4207 94.8903 29.5184C96.7204 29.51 98.504 30.097 99.9751 31.1919C100.137 31.4104 100.294 31.6243 100.437 31.8521C103.276 36.2359 105.3 42.6559 105.3 49.9824C105.319 57.2206 103.294 63.7522 100.456 68.0384Z" fill="black"/>
<path d="M65.2834 49.9916C65.3851 40.6149 67.7195 32.1541 72.1756 25.6318C76.4329 19.1235 83.02 14.3166 91.0308 14.3166C98.8335 14.3166 105.522 19.1095 109.78 25.6318C114.139 32.1401 116.57 40.6149 116.57 49.9916C116.57 59.2892 114.139 67.8337 109.78 74.356C105.522 80.776 98.8335 85.6712 91.0308 85.6712C83.02 85.6712 76.4329 80.776 72.1756 74.356C67.7287 67.8337 65.3851 59.2706 65.2834 49.9916ZM105.319 49.9916C105.319 42.6558 103.294 36.2311 100.456 31.8612C97.5161 27.5797 94.1741 25.5435 91.0308 25.6458C87.8875 25.5435 84.4391 27.5797 81.4021 31.8612C78.5639 36.245 76.5346 42.6697 76.5346 49.9916C76.5346 57.2298 78.5639 63.7567 81.4021 68.0336C84.4391 72.4175 87.8736 74.356 91.0308 74.356C94.1879 74.356 97.5022 72.4175 100.456 68.0336C103.294 63.7567 105.319 57.2205 105.319 49.9916Z" fill="#45A9FF"/>
<path d="M105.758 72.4454C105.742 72.5518 105.763 72.6604 105.818 72.7528C105.873 72.8452 105.958 72.9157 106.059 72.9521C106.544 73.0265 107.136 73.1055 107.792 73.1985C109.747 68.9309 111.744 65.5698 111.18 66.8994C110.319 68.9882 109.754 71.1885 109.502 73.4356C110.265 73.5379 112.045 73.7564 112.932 73.8633C114.975 66.2485 117.227 60.6514 116.963 62.4086C115.891 69.4981 116.08 71.8132 116.325 74.291C124.613 75.3044 135.499 76.5038 143.39 77.1872C144.68 73.0033 145.886 68.4288 145.997 68.7635C146.861 71.2507 146.843 74.7652 146.626 77.4615C149.14 77.6614 151.156 77.7683 152.39 77.7683C152.39 77.7683 153.314 74.2259 153.481 73.0544C153.976 70.0569 153.948 66.9956 153.398 64.0078C152.829 60.9582 151.618 58.2154 150.485 55.4121C150.482 55.3948 150.477 55.3777 150.472 55.361C149.72 53.5245 149.181 51.6076 148.863 49.6476C148.86 49.6323 148.86 49.6165 148.863 49.6011C148.652 48.1718 148.56 46.7271 148.59 45.2824C148.692 39.992 146.334 35.2363 141.855 33.5162C134.205 25.6551 123.698 29.2626 120.73 35.9104C119.57 38.8903 118.419 42.7813 117.416 45.7798C117.419 45.7848 117.42 45.7904 117.42 45.7961C117.42 45.8018 117.419 45.8074 117.416 45.8124C117.038 46.9885 116.588 48.1404 116.071 49.2618C113.321 54.6172 108.023 57.3786 105.758 72.4454Z" fill="#263238"/>
<path d="M143.7 35.0782C146.57 36.9889 148.207 39.5969 148.322 43.474C148.396 45.7333 148.322 47.9322 148.955 50.1032C149.589 52.3439 150.735 54.2313 151.923 56.1141C153.804 59.1079 155.043 62.046 155.039 65.8394C155.034 69.6328 154.465 74.2073 152.945 77.6892C152.945 77.7125 152.908 77.6892 152.917 77.6892C154.211 74.1329 154.683 69.1215 154.419 65.2816C154.128 61.0604 152.168 58.2804 150.199 54.9472C148.612 52.3013 147.735 49.2869 147.652 46.1982C147.596 44.2829 147.8 42.3071 147.245 40.4662C146.589 38.272 145.017 36.789 143.445 35.4641C143.237 35.2735 143.482 34.9341 143.7 35.0782Z" fill="#263238"/>
<path d="M110.422 54.8078C112.817 51.9767 115.262 49.5918 116.843 45.975C118.281 42.679 119.247 39.1599 120.703 35.8732C120.703 35.8174 120.8 35.8453 120.777 35.9057C118.466 41.7632 117.578 47.7788 113.538 52.5531C111.338 55.1472 109.16 57.5413 107.58 60.7257C105.963 64.0841 104.952 67.7043 104.593 71.418C104.593 71.5482 104.422 71.5296 104.422 71.418C104.42 65.3443 106.544 59.4638 110.422 54.8078Z" fill="#263238"/>
<path d="M87.1434 126.953C87.1434 126.953 109.456 132.996 113.145 132.345C116.834 131.694 129.287 114.838 132.051 108.725C134.815 102.612 139.405 72.199 138.522 68.8518C137.64 65.5047 133.022 65.4582 129.125 74.0864C125.228 82.7146 116.015 101.682 114.374 103.244C112.734 104.806 85.3452 125.335 87.1434 126.953Z" fill="#EB9481"/>
<path d="M111.208 130.346C107.788 128.547 103.623 124.182 100.785 123.726C100.09 123.59 99.3706 123.681 98.7322 123.988C98.0937 124.294 97.5702 124.799 97.2391 125.428C97.2391 125.428 95.9355 122.513 93.2914 122.527C91.937 122.527 90.7537 124.721 90.7537 124.721C90.7537 124.721 89.6027 122.429 87.2591 122.587C85.387 122.713 84.4856 124.889 84.4856 124.889C84.4856 124.889 82.3685 123.206 80.501 123.959C76.7198 125.46 76.0911 141.624 81.9155 144.358C84.6289 145.632 84.5688 141.675 84.5688 141.675C84.5688 141.675 86.0203 147.347 89.33 147.561C92.6397 147.775 92.256 142.642 92.256 142.642C92.256 142.642 93.7121 148.123 97.1651 147.998C100.761 147.872 99.5041 142.8 99.5041 142.8C99.5041 142.8 101.788 146.492 104.409 145.785C108.74 144.623 104.085 135.874 105.065 132.355H110.506L111.208 130.346Z" fill="#EB9481"/>
<path d="M106.271 126.906C109.659 128.329 113.524 122.95 117.009 124.201C121.53 125.823 117.351 131.434 110.501 132.345H105.06L106.271 126.906Z" fill="#EB9481"/>
<path d="M84.2868 125.209C84.2868 125.198 84.2824 125.188 84.2746 125.18C84.2668 125.172 84.2562 125.168 84.2452 125.168C84.2341 125.168 84.2236 125.172 84.2158 125.18C84.208 125.188 84.2036 125.198 84.2036 125.209C82.7105 130.477 82.6689 136.725 84.541 141.903C84.6011 142.071 84.9062 142.047 84.8738 141.848C83.9586 136.12 83.598 130.979 84.2868 125.209Z" fill="#263238"/>
<path d="M90.7213 124.628C90.7213 124.563 90.6242 124.549 90.6057 124.628C89.0941 130.067 89.2189 137.101 92.0988 142.819C92.1958 143.014 92.4824 143.089 92.3854 142.856C90.7721 138.914 90.0741 129.83 90.7213 124.628Z" fill="#263238"/>
<path d="M99.8367 143.14C97.3082 137.561 96.8136 131.718 97.1649 125.646C97.1649 125.567 97.0586 125.567 97.0355 125.646C96.0601 128.571 96.2404 132.462 96.6333 135.479C96.9407 138.279 97.9719 140.949 99.6241 143.224C99.7073 143.321 99.8922 143.261 99.8367 143.14Z" fill="#263238"/>
<path d="M117.277 123.773C115.059 123.029 112.78 124.814 110.912 125.814C110.314 126.171 109.684 126.472 109.031 126.711C107.552 127.176 106.456 126.878 105.795 126.465C104.76 125.8 101.528 122.555 99.1941 123.633C98.3888 124.012 97.6992 124.602 97.1972 125.34C96.4853 124.038 95.5747 122.62 93.9984 122.36C93.6511 122.3 93.2953 122.316 92.9543 122.405C92.6133 122.494 92.2949 122.654 92.02 122.876C91.7262 123.104 91.4649 123.371 91.2434 123.671C91.0239 123.94 90.8434 124.239 90.7072 124.559C90.7066 124.548 90.7066 124.537 90.7072 124.526L90.6563 124.428L90.5593 124.229C90.4273 123.961 90.2397 123.724 90.0092 123.536C89.9653 123.491 89.9127 123.455 89.8547 123.431C89.7967 123.407 89.7345 123.395 89.6717 123.396C89.6619 123.396 89.6525 123.4 89.6456 123.407C89.6387 123.414 89.6348 123.424 89.6348 123.434C89.6348 123.443 89.6387 123.453 89.6456 123.46C89.6525 123.467 89.6619 123.471 89.6717 123.471C89.78 123.523 89.8679 123.609 89.9214 123.717C89.9953 123.829 90.0647 123.945 90.1432 124.052C90.2218 124.159 90.2958 124.27 90.3744 124.377L90.4899 124.549L90.5408 124.638C90.563 124.666 90.5878 124.693 90.6147 124.717C90.6212 124.725 90.6296 124.732 90.6392 124.737C90.6488 124.742 90.6594 124.745 90.6702 124.745C90.681 124.745 90.6916 124.742 90.7012 124.737C90.7108 124.732 90.7192 124.725 90.7257 124.717C90.9635 124.504 91.1788 124.267 91.3682 124.01C91.6011 123.738 91.8596 123.489 92.1402 123.266C92.4066 123.059 92.7135 122.91 93.0409 122.83C93.3682 122.75 93.7086 122.74 94.04 122.801C95.4545 123.08 96.3512 124.345 97.1047 125.474C97.1047 125.474 97.1047 125.474 97.1278 125.474C97.1047 125.512 97.1556 125.544 97.1833 125.516C97.9599 124.833 98.6995 124.066 99.7719 123.908C100.928 123.736 102.023 124.294 102.98 124.879C103.459 125.163 103.922 125.473 104.367 125.809C104.76 126.116 105.134 126.46 105.555 126.739C107.353 127.878 109.322 126.995 109.812 126.785C110.778 126.348 111.715 125.848 112.618 125.288C113.525 124.677 114.548 124.261 115.622 124.066C116.116 123.993 116.62 124.046 117.087 124.222C117.554 124.398 117.969 124.689 118.294 125.07C118.632 125.507 119.062 126.325 118.179 128.189C118.179 128.189 118.179 128.227 118.206 128.213C118.669 127.729 120.139 124.735 117.277 123.773Z" fill="#263238"/>
<path d="M136.77 97.0981L115.715 93.7137C115.715 93.7137 125.773 73.682 131.815 67.871C137.778 62.1343 140.681 68.0104 139.803 76.8711C138.832 86.694 136.77 97.0981 136.77 97.0981Z" fill="#37474F"/>
<path d="M136.086 93.1558C135.495 93.0164 134.889 92.928 134.297 92.7932C133.706 92.6584 133.137 92.5747 132.555 92.4864C131.367 92.3004 130.174 92.1331 128.986 91.9704C126.638 91.645 124.29 91.287 121.932 91.0406C120.592 90.8919 119.26 90.6873 117.915 90.5757C117.874 90.5757 117.869 90.6408 117.915 90.6501C120.25 91.1987 122.626 91.5799 124.992 91.9936C127.359 92.4074 129.689 92.7421 132.046 92.9978C132.707 93.0722 133.373 93.1558 134.034 93.1884C134.695 93.2209 135.398 93.286 136.077 93.2953C136.095 93.2965 136.114 93.2904 136.127 93.2782C136.141 93.266 136.15 93.2487 136.151 93.2302C136.152 93.2117 136.146 93.1935 136.134 93.1796C136.122 93.1656 136.105 93.1571 136.086 93.1558Z" fill="#263238"/>
<path d="M125.048 132.531H180.809C180.809 132.531 157.632 74.6814 145.849 66.2299C142.313 63.6916 136.678 63.408 132.878 68.5031C129.763 72.6871 121.114 89.3066 120.721 95.2849C120.328 101.263 124.992 107.172 124.992 107.172L125.048 132.531Z" fill="#455A64"/>
<path d="M143.51 93.3324C143.653 93.2953 143.792 93.2767 143.931 93.2488C144.053 93.2209 144.18 93.221 144.302 93.2491C144.424 93.2773 144.539 93.3326 144.637 93.4112C144.735 93.4897 144.814 93.5895 144.869 93.703C144.923 93.8165 144.952 93.9409 144.952 94.067C144.949 94.1791 144.974 94.2903 145.026 94.3897C145.078 94.489 145.154 94.5733 145.248 94.6341C145.353 94.7004 145.472 94.7418 145.595 94.755C145.736 94.7757 145.877 94.8036 146.015 94.8387C145.877 94.8759 145.738 94.8945 145.595 94.9224C145.44 94.9533 145.279 94.9388 145.133 94.8805C144.976 94.8134 144.843 94.7012 144.75 94.558C144.657 94.4149 144.608 94.2472 144.61 94.0763C144.608 93.9645 144.577 93.8553 144.521 93.7586C144.465 93.6619 144.386 93.5809 144.291 93.5231C144.181 93.4628 144.06 93.4264 143.935 93.4161C143.792 93.3882 143.653 93.3696 143.51 93.3324Z" fill="white"/>
<path d="M122.182 93.3324C122.321 93.2953 122.459 93.2767 122.598 93.2488C122.72 93.2209 122.847 93.221 122.969 93.2491C123.092 93.2773 123.206 93.3326 123.304 93.4112C123.402 93.4897 123.481 93.5895 123.536 93.703C123.591 93.8165 123.619 93.9409 123.619 94.067C123.617 94.1795 123.643 94.2908 123.696 94.3901C123.748 94.4894 123.826 94.5735 123.92 94.6341C124.024 94.7019 124.143 94.7433 124.267 94.755C124.405 94.7829 124.544 94.7968 124.683 94.8387C124.544 94.8759 124.405 94.8945 124.267 94.9224C124.112 94.9525 123.951 94.938 123.804 94.8805C123.649 94.8119 123.517 94.6993 123.424 94.5565C123.331 94.4137 123.282 94.2468 123.282 94.0763C123.279 93.9645 123.249 93.8553 123.193 93.7586C123.137 93.6619 123.058 93.5809 122.963 93.5231C122.853 93.4622 122.732 93.4257 122.607 93.4161C122.459 93.3882 122.321 93.3696 122.182 93.3324Z" fill="white"/>
<path d="M151.257 121.197C151.396 121.16 151.539 121.142 151.678 121.114C151.8 121.087 151.927 121.089 152.048 121.118C152.17 121.147 152.284 121.203 152.381 121.282C152.478 121.361 152.557 121.46 152.611 121.574C152.666 121.687 152.694 121.811 152.695 121.937C152.694 122.049 152.721 122.16 152.773 122.259C152.826 122.358 152.902 122.442 152.995 122.504C153.101 122.569 153.219 122.608 153.342 122.62C153.481 122.648 153.624 122.666 153.763 122.704C153.624 122.745 153.481 122.764 153.342 122.792C153.187 122.821 153.026 122.805 152.88 122.745C152.723 122.678 152.59 122.566 152.496 122.423C152.403 122.28 152.353 122.112 152.353 121.941C152.352 121.83 152.322 121.72 152.266 121.624C152.21 121.528 152.13 121.448 152.034 121.393C151.927 121.33 151.806 121.293 151.683 121.286C151.539 121.258 151.396 121.239 151.257 121.197Z" fill="white"/>
<path d="M160.9 94.8387C161.039 94.7969 161.182 94.7829 161.321 94.7551C161.443 94.7271 161.569 94.7272 161.691 94.7553C161.813 94.7834 161.927 94.8389 162.025 94.9175C162.123 94.9961 162.202 95.0959 162.256 95.2095C162.31 95.323 162.338 95.4474 162.338 95.5733C162.336 95.6856 162.363 95.7966 162.415 95.8958C162.468 95.9949 162.544 96.0791 162.638 96.1404C162.742 96.2079 162.861 96.2479 162.985 96.2566C163.123 96.2892 163.267 96.3031 163.405 96.345C163.267 96.3821 163.123 96.4007 162.985 96.4286C162.83 96.4598 162.669 96.4453 162.522 96.3868C162.366 96.3194 162.232 96.2072 162.139 96.0643C162.045 95.9213 161.995 95.7538 161.995 95.5825C161.995 95.4704 161.965 95.3605 161.909 95.2635C161.853 95.1665 161.773 95.0858 161.676 95.0293C161.569 94.9684 161.449 94.9319 161.325 94.9224C161.182 94.8759 161.039 94.8759 160.9 94.8387Z" fill="white"/>
<path d="M136.248 80.6645C136.391 80.6273 136.53 80.6087 136.669 80.5808C136.823 80.5469 136.983 80.5582 137.131 80.6133C137.291 80.6736 137.43 80.7814 137.528 80.9225C137.626 81.0636 137.68 81.2314 137.681 81.4036C137.681 81.5158 137.708 81.6263 137.76 81.7252C137.813 81.8242 137.889 81.9086 137.981 81.9708C138.088 82.0335 138.206 82.0731 138.328 82.087C138.471 82.1149 138.61 82.1335 138.749 82.1707C138.61 82.2125 138.471 82.2265 138.328 82.259C138.173 82.286 138.013 82.2699 137.866 82.2125C137.707 82.1445 137.573 82.0302 137.48 81.8843C137.386 81.7384 137.339 81.5677 137.344 81.3943C137.341 81.2831 137.311 81.1743 137.255 81.0783C137.199 80.9822 137.12 80.9022 137.025 80.8458C136.916 80.7818 136.794 80.7437 136.669 80.7342C136.53 80.7203 136.391 80.7063 136.248 80.6645Z" fill="white"/>
<path d="M151.424 80.3437C151.563 80.3065 151.701 80.2879 151.844 80.26C151.999 80.2274 152.159 80.2387 152.307 80.2926C152.467 80.3537 152.605 80.4616 152.704 80.6024C152.803 80.7432 152.858 80.9105 152.861 81.0829C152.859 81.1953 152.886 81.3064 152.938 81.4057C152.991 81.505 153.068 81.589 153.162 81.65C153.267 81.7155 153.386 81.7553 153.509 81.7662C153.647 81.7941 153.786 81.8127 153.929 81.8499C153.786 81.8918 153.647 81.9104 153.509 81.9382C153.353 81.9677 153.193 81.9516 153.046 81.8918C152.89 81.8244 152.756 81.7122 152.663 81.5692C152.569 81.4262 152.519 81.2587 152.519 81.0875C152.518 80.9762 152.487 80.8672 152.432 80.7711C152.376 80.675 152.296 80.595 152.2 80.5389C152.093 80.4759 151.973 80.4393 151.849 80.432C151.706 80.4099 151.564 80.3804 151.424 80.3437Z" fill="white"/>
<path d="M141.601 65.6952C141.74 65.658 141.883 65.6395 142.022 65.6116C142.144 65.5836 142.271 65.5837 142.393 65.6118C142.515 65.6399 142.629 65.6954 142.726 65.774C142.824 65.8526 142.903 65.9524 142.957 66.066C143.011 66.1795 143.039 66.3039 143.039 66.4298C143.036 66.5423 143.062 66.6536 143.115 66.7529C143.168 66.8522 143.245 66.9363 143.339 66.9969C143.444 67.064 143.562 67.1054 143.686 67.1178C143.824 67.1457 143.968 67.1596 144.106 67.2015C143.968 67.2386 143.824 67.2572 143.686 67.2851C143.531 67.3163 143.37 67.3018 143.224 67.2433C143.067 67.1759 142.934 67.0637 142.84 66.9208C142.746 66.7778 142.696 66.6103 142.697 66.439C142.696 66.3269 142.666 66.217 142.61 66.12C142.554 66.023 142.474 65.9423 142.378 65.8858C142.27 65.8249 142.15 65.7884 142.026 65.7789C141.883 65.751 141.74 65.7324 141.601 65.6952Z" fill="white"/>
<path d="M132.527 104.992C132.666 104.954 132.804 104.936 132.943 104.908C133.097 104.874 133.257 104.885 133.405 104.94C133.566 105 133.705 105.106 133.804 105.247C133.903 105.387 133.957 105.554 133.96 105.726C133.957 105.839 133.984 105.95 134.036 106.049C134.089 106.149 134.166 106.233 134.26 106.293C134.365 106.361 134.483 106.402 134.607 106.414C134.746 106.442 134.884 106.461 135.023 106.498C134.884 106.54 134.746 106.554 134.607 106.582C134.452 106.612 134.292 106.597 134.145 106.54C133.989 106.471 133.857 106.359 133.765 106.216C133.672 106.073 133.622 105.906 133.622 105.735C133.62 105.624 133.589 105.514 133.533 105.418C133.478 105.321 133.399 105.24 133.303 105.182C133.194 105.122 133.072 105.086 132.948 105.075C132.804 105.047 132.666 105.033 132.527 104.992Z" fill="white"/>
<path d="M149.085 130.528C149.223 130.486 149.367 130.467 149.505 130.439C149.628 130.413 149.754 130.415 149.876 130.444C149.997 130.473 150.111 130.529 150.208 130.608C150.306 130.686 150.385 130.786 150.439 130.899C150.493 131.012 150.522 131.136 150.522 131.262C150.521 131.374 150.548 131.485 150.6 131.584C150.653 131.683 150.729 131.768 150.823 131.829C150.927 131.896 151.046 131.936 151.169 131.946C151.308 131.973 151.451 131.992 151.59 132.029C151.451 132.071 151.308 132.09 151.169 132.118C151.014 132.147 150.854 132.131 150.707 132.071C150.55 132.004 150.417 131.892 150.323 131.749C150.229 131.606 150.179 131.438 150.18 131.267C150.179 131.155 150.15 131.046 150.094 130.95C150.038 130.853 149.958 130.774 149.861 130.718C149.754 130.655 149.634 130.619 149.51 130.611C149.353 130.583 149.21 130.565 149.085 130.528Z" fill="white"/>
<path d="M140.926 116.804C141.065 116.767 141.203 116.749 141.342 116.721C141.496 116.689 141.656 116.7 141.804 116.753C141.965 116.813 142.104 116.921 142.203 117.062C142.302 117.203 142.357 117.371 142.359 117.544C142.357 117.656 142.383 117.767 142.436 117.866C142.489 117.966 142.565 118.05 142.659 118.111C142.764 118.177 142.883 118.217 143.006 118.227C143.145 118.255 143.284 118.273 143.427 118.311C143.284 118.352 143.145 118.366 143.006 118.399C142.851 118.425 142.691 118.409 142.544 118.352C142.389 118.284 142.257 118.171 142.164 118.028C142.071 117.886 142.022 117.719 142.022 117.548C142.019 117.437 141.988 117.329 141.932 117.233C141.876 117.137 141.797 117.057 141.703 117C141.595 116.934 141.472 116.897 141.347 116.893C141.226 116.86 141.065 116.846 140.926 116.804Z" fill="white"/>
<path d="M125.852 119.301C125.995 119.259 126.134 119.24 126.273 119.212C126.395 119.186 126.521 119.188 126.643 119.217C126.765 119.246 126.878 119.302 126.976 119.381C127.073 119.459 127.152 119.559 127.206 119.672C127.26 119.786 127.289 119.909 127.29 120.035C127.288 120.148 127.315 120.258 127.368 120.357C127.42 120.457 127.497 120.541 127.59 120.602C127.694 120.669 127.814 120.709 127.937 120.719C128.08 120.746 128.219 120.765 128.357 120.802C128.219 120.839 128.078 120.868 127.937 120.891C127.781 120.92 127.621 120.904 127.475 120.844C127.318 120.777 127.184 120.665 127.09 120.522C126.996 120.379 126.947 120.211 126.948 120.04C126.947 119.929 126.917 119.82 126.862 119.724C126.807 119.628 126.728 119.548 126.633 119.491C126.524 119.429 126.402 119.392 126.277 119.384C126.134 119.356 125.995 119.338 125.852 119.301Z" fill="white"/>
<path d="M147.864 105.326C148.003 105.289 148.142 105.271 148.28 105.243C148.403 105.217 148.53 105.218 148.651 105.247C148.773 105.276 148.887 105.332 148.985 105.411C149.083 105.49 149.162 105.589 149.217 105.702C149.271 105.816 149.3 105.94 149.302 106.066C149.3 106.178 149.326 106.289 149.379 106.388C149.431 106.488 149.508 106.572 149.602 106.633C149.707 106.699 149.826 106.739 149.949 106.749C150.088 106.777 150.226 106.795 150.365 106.833C150.226 106.874 150.088 106.888 149.949 106.921C149.794 106.949 149.633 106.933 149.487 106.874C149.331 106.806 149.199 106.693 149.107 106.55C149.014 106.408 148.964 106.241 148.964 106.07C148.961 105.959 148.931 105.851 148.875 105.755C148.819 105.659 148.74 105.579 148.645 105.522C148.537 105.457 148.415 105.42 148.29 105.415C148.16 105.382 148.003 105.368 147.864 105.326Z" fill="white"/>
<path d="M167.136 124.112C167.274 124.075 167.418 124.056 167.556 124.029C167.71 123.995 167.871 124.006 168.019 124.061C168.179 124.121 168.318 124.229 168.416 124.37C168.514 124.511 168.567 124.679 168.569 124.851C168.568 124.964 168.596 125.074 168.648 125.173C168.7 125.272 168.776 125.356 168.869 125.419C168.975 125.481 169.093 125.521 169.216 125.535C169.359 125.563 169.498 125.581 169.637 125.618C169.498 125.66 169.359 125.674 169.216 125.707C169.093 125.73 168.967 125.725 168.846 125.692C168.725 125.66 168.613 125.601 168.518 125.519C168.423 125.438 168.347 125.336 168.296 125.221C168.244 125.106 168.219 124.982 168.222 124.856C168.221 124.745 168.191 124.635 168.135 124.539C168.079 124.443 167.999 124.363 167.903 124.307C167.796 124.243 167.676 124.205 167.552 124.196C167.418 124.163 167.274 124.163 167.136 124.112Z" fill="white"/>
<path d="M159.486 112.644C159.624 112.606 159.768 112.588 159.906 112.56C160.028 112.534 160.155 112.535 160.277 112.564C160.398 112.593 160.512 112.649 160.609 112.728C160.707 112.807 160.785 112.907 160.84 113.02C160.894 113.133 160.923 113.257 160.923 113.383C160.921 113.495 160.948 113.606 161 113.706C161.053 113.805 161.13 113.889 161.224 113.95C161.328 114.017 161.447 114.057 161.57 114.066C161.709 114.094 161.852 114.113 161.991 114.15C161.852 114.192 161.709 114.21 161.57 114.238C161.415 114.268 161.255 114.252 161.108 114.192C160.951 114.125 160.818 114.013 160.724 113.87C160.63 113.727 160.58 113.559 160.581 113.387C160.58 113.276 160.551 113.167 160.495 113.07C160.439 112.974 160.358 112.894 160.262 112.839C160.155 112.776 160.035 112.739 159.911 112.732C159.768 112.704 159.624 112.685 159.486 112.644Z" fill="white"/>
<path d="M175.747 129.356C175.891 129.319 176.029 129.3 176.168 129.272C176.29 129.246 176.417 129.248 176.538 129.277C176.66 129.306 176.774 129.362 176.871 129.441C176.968 129.519 177.047 129.619 177.101 129.732C177.156 129.846 177.184 129.97 177.185 130.095C177.184 130.208 177.211 130.318 177.263 130.417C177.316 130.517 177.392 130.601 177.485 130.662C177.59 130.729 177.709 130.769 177.832 130.779C177.975 130.807 178.114 130.825 178.253 130.862C178.114 130.899 177.974 130.928 177.832 130.951C177.677 130.98 177.516 130.964 177.37 130.904C177.213 130.838 177.08 130.725 176.987 130.582C176.894 130.439 176.845 130.271 176.847 130.1C176.844 129.989 176.814 129.88 176.758 129.785C176.702 129.689 176.623 129.608 176.529 129.551C176.419 129.489 176.298 129.452 176.173 129.444C176.029 129.417 175.895 129.398 175.747 129.356Z" fill="white"/>
<path d="M137.529 88.5814C137.459 88.7069 137.372 88.8185 137.293 88.9394C137.226 89.046 137.136 89.136 137.029 89.2028C136.923 89.2697 136.803 89.3115 136.678 89.3254C136.553 89.3392 136.427 89.3247 136.309 89.2828C136.19 89.2409 136.083 89.1728 135.994 89.0835C135.917 89.0021 135.82 88.9423 135.713 88.9097C135.606 88.8771 135.493 88.8729 135.384 88.8975C135.263 88.9247 135.151 88.9805 135.056 89.0602C134.941 89.1456 134.823 89.2248 134.7 89.2973C134.774 89.1718 134.857 89.0602 134.935 88.9394C135.026 88.8058 135.153 88.7009 135.301 88.6372C135.457 88.5754 135.628 88.561 135.792 88.5957C135.956 88.6304 136.107 88.7127 136.225 88.8324C136.305 88.9101 136.404 88.9658 136.511 88.9943C136.619 89.0228 136.732 89.0231 136.84 88.9951C136.96 88.9622 137.071 88.9017 137.163 88.8185C137.311 88.7394 137.422 88.6511 137.529 88.5814Z" fill="white"/>
<path d="M131.949 79.1675C131.88 79.293 131.792 79.4046 131.714 79.5255C131.646 79.6321 131.556 79.7221 131.45 79.789C131.343 79.8558 131.223 79.8977 131.099 79.9115C130.974 79.9253 130.848 79.9108 130.729 79.8689C130.611 79.827 130.503 79.7589 130.415 79.6696C130.338 79.5879 130.241 79.5277 130.134 79.4951C130.027 79.4625 129.913 79.4586 129.804 79.4836C129.684 79.5108 129.571 79.5666 129.476 79.6463C129.362 79.7317 129.243 79.8109 129.12 79.8834C129.194 79.7579 129.278 79.6463 129.356 79.5255C129.447 79.3919 129.573 79.2871 129.721 79.2233C129.878 79.1615 130.048 79.1471 130.213 79.1818C130.377 79.2165 130.527 79.2988 130.646 79.4185C130.726 79.4966 130.824 79.5526 130.932 79.5811C131.04 79.6096 131.153 79.6096 131.261 79.5813C131.381 79.5483 131.491 79.4879 131.584 79.4046C131.714 79.3256 131.825 79.2372 131.949 79.1675Z" fill="white"/>
<path d="M160.179 104.968C160.105 105.099 160.022 105.21 159.943 105.326C159.855 105.461 159.732 105.569 159.587 105.638C159.434 105.705 159.264 105.725 159.1 105.695C158.935 105.665 158.783 105.587 158.663 105.47C158.585 105.39 158.488 105.331 158.381 105.299C158.275 105.266 158.162 105.261 158.053 105.285C157.932 105.312 157.819 105.368 157.724 105.447C157.604 105.526 157.493 105.615 157.368 105.684C157.438 105.559 157.526 105.447 157.604 105.326C157.693 105.193 157.818 105.088 157.965 105.024C158.121 104.964 158.292 104.951 158.455 104.985C158.619 105.02 158.77 105.101 158.889 105.219C158.968 105.297 159.066 105.353 159.173 105.382C159.28 105.411 159.392 105.411 159.499 105.382C159.62 105.35 159.732 105.292 159.828 105.21C159.957 105.131 160.068 105.043 160.179 104.968Z" fill="white"/>
<path d="M146.062 74.4583C145.992 74.5838 145.904 74.6954 145.826 74.8162C145.739 74.9494 145.618 75.0556 145.475 75.1231C145.318 75.194 145.145 75.2163 144.976 75.1873C144.807 75.1584 144.651 75.0793 144.527 74.9604C144.45 74.8793 144.353 74.8193 144.246 74.786C144.14 74.7526 144.026 74.7471 143.917 74.7697C143.796 74.7979 143.684 74.8536 143.589 74.9325C143.468 75.0115 143.357 75.0998 143.233 75.1742C143.302 75.044 143.39 74.9325 143.468 74.8116C143.558 74.6781 143.685 74.5745 143.834 74.5141C143.99 74.4523 144.161 74.4379 144.325 74.4726C144.489 74.5073 144.64 74.5896 144.758 74.7093C144.839 74.7906 144.939 74.8495 145.049 74.8805C145.16 74.9114 145.276 74.9133 145.387 74.886C145.506 74.8511 145.616 74.7909 145.71 74.7093C145.849 74.6163 145.937 74.528 146.062 74.4583Z" fill="white"/>
<path d="M136.271 67.5037C136.202 67.6292 136.114 67.7408 136.036 67.8616C135.948 67.9952 135.827 68.1028 135.684 68.1731C135.528 68.2434 135.354 68.265 135.185 68.2352C135.016 68.2054 134.86 68.1255 134.737 68.0058C134.66 67.9244 134.563 67.8646 134.456 67.832C134.349 67.7994 134.236 67.7952 134.127 67.8198C134.005 67.8461 133.893 67.902 133.798 67.9825C133.678 68.0615 133.567 68.1499 133.442 68.2196C133.512 68.0941 133.6 67.9825 133.678 67.8616C133.768 67.727 133.895 67.6219 134.043 67.5595C134.2 67.4977 134.37 67.4833 134.535 67.518C134.699 67.5527 134.849 67.635 134.968 67.7547C135.047 67.8331 135.146 67.8894 135.254 67.9179C135.362 67.9464 135.475 67.9463 135.583 67.9174C135.703 67.8845 135.813 67.824 135.906 67.7408C136.036 67.6618 136.142 67.5734 136.271 67.5037Z" fill="white"/>
<path d="M145.512 83.3096C145.553 83.4491 145.567 83.5932 145.599 83.7327C145.628 83.8879 145.617 84.0479 145.567 84.1976C145.506 84.3582 145.399 84.4968 145.259 84.5954C145.119 84.694 144.952 84.7481 144.781 84.7508C144.67 84.7491 144.559 84.7759 144.461 84.8288C144.362 84.8816 144.278 84.9587 144.217 85.0529C144.15 85.1575 144.111 85.2774 144.102 85.4016C144.069 85.5411 144.056 85.6852 144.014 85.8246C143.977 85.6852 143.959 85.5411 143.931 85.4016C143.899 85.2455 143.915 85.0835 143.977 84.9367C144.043 84.7786 144.154 84.6438 144.297 84.5494C144.439 84.455 144.606 84.4054 144.777 84.4068C144.887 84.4055 144.996 84.3753 145.092 84.3191C145.187 84.2628 145.267 84.1825 145.322 84.086C145.383 83.9774 145.419 83.8568 145.428 83.7327C145.456 83.5932 145.475 83.4491 145.512 83.3096Z" fill="white"/>
<path d="M142.179 108.074C142.216 108.213 142.234 108.357 142.262 108.497C142.288 108.62 142.286 108.747 142.258 108.869C142.229 108.992 142.173 109.106 142.095 109.204C142.016 109.302 141.917 109.381 141.805 109.436C141.692 109.49 141.569 109.519 141.444 109.52C141.332 109.518 141.221 109.544 141.123 109.597C141.024 109.65 140.94 109.727 140.88 109.822C140.815 109.927 140.775 110.047 140.764 110.17C140.736 110.31 140.718 110.454 140.681 110.594C140.639 110.454 140.621 110.31 140.593 110.17C140.564 110.014 140.58 109.853 140.639 109.706C140.706 109.548 140.818 109.414 140.96 109.32C141.102 109.226 141.269 109.175 141.439 109.176C141.55 109.175 141.659 109.145 141.754 109.089C141.85 109.032 141.929 108.952 141.985 108.855C142.047 108.747 142.084 108.626 142.091 108.502C142.119 108.357 142.151 108.213 142.179 108.074Z" fill="white"/>
<path d="M174.509 119.547C174.55 119.687 174.569 119.826 174.596 119.966C174.622 120.089 174.621 120.216 174.592 120.339C174.563 120.461 174.507 120.576 174.429 120.674C174.351 120.772 174.252 120.852 174.139 120.907C174.027 120.962 173.903 120.992 173.778 120.993C173.666 120.991 173.556 121.017 173.457 121.07C173.359 121.123 173.275 121.201 173.214 121.295C173.146 121.399 173.107 121.519 173.099 121.644C173.071 121.783 173.052 121.923 173.015 122.062C172.974 121.923 172.955 121.783 172.928 121.644C172.899 121.487 172.915 121.326 172.974 121.179C173.042 121.022 173.153 120.889 173.296 120.796C173.438 120.702 173.604 120.653 173.774 120.654C173.884 120.651 173.992 120.62 174.087 120.563C174.183 120.507 174.262 120.428 174.319 120.333C174.381 120.223 174.417 120.101 174.425 119.975C174.458 119.826 174.476 119.687 174.509 119.547Z" fill="white"/>
<path d="M159.532 86.7405C159.569 86.8799 159.587 87.0194 159.615 87.1635C159.647 87.3185 159.636 87.4795 159.582 87.6284C159.522 87.7896 159.414 87.9288 159.274 88.0282C159.134 88.1276 158.968 88.1826 158.797 88.1863C158.685 88.1841 158.574 88.2108 158.476 88.2637C158.377 88.3166 158.293 88.3939 158.233 88.4884C158.168 88.594 158.128 88.7134 158.117 88.8371C158.089 88.9766 158.071 89.116 158.034 89.2601C157.992 89.116 157.978 88.9766 157.946 88.8371C157.923 88.7135 157.928 88.5863 157.961 88.4649C157.993 88.3435 158.052 88.2308 158.133 88.1351C158.214 88.0394 158.315 87.963 158.429 87.9115C158.543 87.8601 158.667 87.8348 158.792 87.8376C158.903 87.8359 159.011 87.8055 159.107 87.7493C159.202 87.6931 159.282 87.613 159.337 87.5168C159.402 87.41 159.439 87.2884 159.444 87.1635C159.476 87.0194 159.49 86.8799 159.532 86.7405Z" fill="white"/>
<path d="M159.532 126.488C159.569 126.627 159.587 126.767 159.615 126.906C159.641 127.029 159.64 127.157 159.611 127.279C159.582 127.402 159.526 127.516 159.448 127.615C159.37 127.713 159.271 127.793 159.158 127.848C159.045 127.903 158.922 127.932 158.797 127.934C158.685 127.931 158.575 127.958 158.476 128.011C158.377 128.064 158.294 128.141 158.233 128.236C158.167 128.341 158.127 128.461 158.117 128.584C158.09 128.724 158.071 128.863 158.034 129.003C157.993 128.863 157.979 128.724 157.946 128.584C157.92 128.428 157.936 128.268 157.993 128.12C158.061 127.963 158.173 127.831 158.315 127.737C158.457 127.644 158.623 127.594 158.792 127.594C158.903 127.591 159.011 127.56 159.106 127.504C159.201 127.448 159.281 127.369 159.338 127.273C159.403 127.165 159.44 127.042 159.444 126.915C159.476 126.781 159.49 126.641 159.532 126.488Z" fill="white"/>
<path d="M167.136 103.732C167.177 103.871 167.191 104.015 167.219 104.155C167.247 104.278 167.247 104.405 167.219 104.528C167.191 104.651 167.136 104.765 167.057 104.864C166.979 104.962 166.88 105.041 166.767 105.096C166.654 105.15 166.53 105.178 166.405 105.178C166.294 105.176 166.183 105.203 166.085 105.256C165.986 105.309 165.902 105.386 165.841 105.48C165.774 105.584 165.735 105.704 165.726 105.828C165.693 105.968 165.68 106.112 165.638 106.252C165.601 106.112 165.583 105.968 165.555 105.828C165.523 105.672 165.539 105.51 165.601 105.364C165.667 105.206 165.777 105.072 165.919 104.978C166.06 104.883 166.226 104.833 166.396 104.834C166.508 104.833 166.617 104.803 166.713 104.746C166.81 104.69 166.89 104.61 166.946 104.513C167.007 104.404 167.043 104.284 167.052 104.16C167.08 104.015 167.113 103.871 167.136 103.732Z" fill="white"/>
<path d="M128.603 108.962C128.644 109.101 128.658 109.241 128.686 109.38C128.714 109.503 128.714 109.631 128.686 109.754C128.658 109.877 128.603 109.992 128.524 110.09C128.446 110.189 128.347 110.269 128.234 110.324C128.121 110.379 127.998 110.407 127.872 110.408C127.76 110.405 127.65 110.431 127.551 110.484C127.452 110.537 127.369 110.615 127.308 110.71C127.241 110.814 127.201 110.934 127.193 111.058C127.161 111.198 127.147 111.337 127.105 111.477C127.068 111.337 127.05 111.198 127.022 111.058C126.991 110.902 127.008 110.741 127.068 110.594C127.134 110.437 127.245 110.304 127.387 110.21C127.528 110.117 127.694 110.067 127.863 110.068C127.974 110.066 128.083 110.035 128.179 109.979C128.275 109.923 128.356 109.843 128.413 109.747C128.474 109.637 128.511 109.515 128.52 109.389C128.547 109.241 128.566 109.101 128.603 108.962Z" fill="white"/>
<path d="M129.351 86.7405C129.386 86.88 129.414 87.0212 129.434 87.1635C129.469 87.318 129.459 87.4791 129.407 87.6284C129.346 87.7896 129.239 87.9288 129.099 88.0282C128.959 88.1276 128.792 88.1826 128.621 88.1863C128.509 88.1837 128.398 88.2102 128.3 88.2631C128.201 88.316 128.117 88.3936 128.057 88.4884C127.99 88.593 127.95 88.7129 127.941 88.8371C127.909 88.9766 127.895 89.116 127.854 89.2601C127.817 89.116 127.798 88.9766 127.77 88.8371C127.739 88.6813 127.754 88.5199 127.812 88.3722C127.879 88.2148 127.99 88.0807 128.133 87.9864C128.275 87.8922 128.441 87.8421 128.612 87.8422C128.723 87.8405 128.832 87.8101 128.928 87.7539C129.024 87.6978 129.105 87.6177 129.162 87.5215C129.222 87.4129 129.259 87.2923 129.268 87.1682C129.296 87.0194 129.314 86.8799 129.351 86.7405Z" fill="white"/>
<path d="M137.413 72.2966C137.45 72.436 137.469 72.5755 137.496 72.7196C137.529 72.8746 137.518 73.0356 137.464 73.1845C137.403 73.3457 137.296 73.4849 137.156 73.5843C137.016 73.6837 136.849 73.7387 136.678 73.7424C136.566 73.7402 136.456 73.7669 136.357 73.8198C136.258 73.8727 136.175 73.95 136.114 74.0445C136.049 74.1501 136.01 74.2695 135.999 74.3932C135.971 74.5327 135.952 74.6721 135.915 74.8162C135.874 74.6721 135.86 74.5327 135.828 74.3932C135.799 74.2369 135.815 74.0758 135.874 73.9283C135.942 73.7721 136.054 73.6393 136.196 73.546C136.338 73.4527 136.504 73.403 136.673 73.403C136.784 73.4013 136.893 73.3709 136.988 73.3147C137.084 73.2585 137.163 73.1784 137.219 73.0822C137.284 72.9754 137.32 72.8538 137.325 72.7289C137.358 72.5616 137.371 72.436 137.413 72.2966Z" fill="white"/>
<path d="M135.25 94.6248C135.286 94.7689 135.305 94.9084 135.333 95.0479C135.359 95.171 135.357 95.2985 135.328 95.421C135.299 95.5435 135.244 95.6581 135.166 95.7564C135.087 95.8547 134.988 95.9343 134.876 95.9894C134.763 96.0446 134.64 96.0739 134.515 96.0752C134.403 96.0731 134.292 96.0998 134.194 96.1527C134.095 96.2055 134.011 96.2829 133.951 96.3774C133.885 96.4826 133.845 96.6022 133.835 96.7261C133.807 96.8656 133.789 97.005 133.752 97.1445C133.71 97.005 133.692 96.8656 133.664 96.7261C133.636 96.5698 133.652 96.4087 133.71 96.2612C133.778 96.105 133.89 95.9722 134.032 95.8789C134.174 95.7856 134.34 95.7359 134.51 95.7359C134.62 95.7329 134.728 95.7019 134.824 95.6459C134.919 95.5898 134.999 95.5104 135.055 95.4151C135.117 95.3054 135.154 95.183 135.162 95.0572C135.189 94.9084 135.217 94.7689 135.25 94.6248Z" fill="white"/>
<path d="M154.678 97.628C154.715 97.7675 154.733 97.9116 154.761 98.051C154.787 98.174 154.786 98.3012 154.757 98.4235C154.728 98.5458 154.672 98.6601 154.594 98.7581C154.516 98.856 154.416 98.9352 154.304 98.9898C154.191 99.0444 154.068 99.0731 153.943 99.0738C153.831 99.0725 153.721 99.0995 153.623 99.1523C153.524 99.2052 153.44 99.282 153.379 99.3759C153.315 99.4818 153.275 99.601 153.264 99.7246C153.236 99.8641 153.217 100.008 153.18 100.148C153.139 100.008 153.125 99.8641 153.092 99.7246C153.063 99.5684 153.079 99.4071 153.139 99.2597C153.206 99.1023 153.317 98.9682 153.459 98.874C153.602 98.7797 153.768 98.7296 153.938 98.7298C154.049 98.729 154.158 98.699 154.254 98.6427C154.349 98.5864 154.429 98.5058 154.484 98.409C154.548 98.3022 154.585 98.1806 154.59 98.0557C154.632 97.9116 154.632 97.7675 154.678 97.628Z" fill="white"/>
<path d="M136.719 122.704C136.756 122.848 136.775 122.987 136.803 123.127C136.83 123.25 136.83 123.377 136.802 123.5C136.774 123.623 136.719 123.738 136.641 123.837C136.563 123.936 136.464 124.015 136.351 124.07C136.238 124.125 136.115 124.154 135.989 124.154C135.877 124.151 135.766 124.177 135.667 124.23C135.568 124.283 135.485 124.361 135.425 124.456C135.359 124.56 135.317 124.678 135.305 124.8C135.284 124.943 135.257 125.084 135.222 125.223C135.185 125.084 135.166 124.944 135.139 124.8C135.108 124.645 135.122 124.483 135.18 124.335C135.247 124.178 135.358 124.044 135.501 123.951C135.643 123.857 135.81 123.808 135.98 123.81C136.091 123.808 136.2 123.777 136.296 123.721C136.392 123.665 136.472 123.585 136.53 123.489C136.59 123.379 136.626 123.257 136.636 123.131C136.664 122.987 136.682 122.848 136.719 122.704Z" fill="white"/>
<path d="M151.345 90.5386C151.419 90.4131 151.507 90.3015 151.586 90.1806C151.671 90.0463 151.793 89.9397 151.937 89.8738C152.09 89.8067 152.259 89.7864 152.423 89.8153C152.588 89.8442 152.74 89.9212 152.861 90.0365C152.94 90.1176 153.037 90.1775 153.145 90.2108C153.252 90.2441 153.366 90.2497 153.476 90.2271C153.595 90.1988 153.706 90.1431 153.8 90.0644C153.92 89.9807 154.031 89.897 154.16 89.8227C154.086 89.9528 153.999 90.0644 153.92 90.1853C153.831 90.3173 153.706 90.4207 153.559 90.4828C153.403 90.5434 153.232 90.5572 153.068 90.5225C152.904 90.4879 152.754 90.4063 152.635 90.2875C152.555 90.211 152.457 90.156 152.351 90.1276C152.244 90.0991 152.132 90.0982 152.025 90.1248C151.905 90.1597 151.795 90.2199 151.701 90.3015C151.586 90.3805 151.475 90.4688 151.345 90.5386Z" fill="white"/>
<path d="M140.015 100.864C140.085 100.738 140.173 100.626 140.251 100.506C140.318 100.399 140.408 100.309 140.515 100.242C140.621 100.175 140.741 100.133 140.866 100.12C140.991 100.106 141.117 100.12 141.236 100.162C141.354 100.204 141.461 100.272 141.55 100.361C141.627 100.443 141.724 100.503 141.831 100.536C141.938 100.569 142.051 100.573 142.16 100.547C142.281 100.52 142.393 100.464 142.488 100.385C142.603 100.299 142.722 100.22 142.844 100.148C142.77 100.273 142.687 100.385 142.609 100.506C142.538 100.61 142.445 100.697 142.337 100.76C142.228 100.823 142.107 100.862 141.982 100.872C141.857 100.882 141.732 100.864 141.614 100.819C141.497 100.774 141.392 100.704 141.305 100.613C141.226 100.535 141.128 100.479 141.021 100.451C140.914 100.422 140.802 100.422 140.695 100.45C140.576 100.485 140.465 100.545 140.371 100.626C140.251 100.706 140.14 100.794 140.015 100.864Z" fill="white"/>
<path d="M132.333 116.074C132.407 115.944 132.495 115.833 132.573 115.716C132.641 115.61 132.731 115.52 132.837 115.453C132.944 115.386 133.064 115.344 133.188 115.33C133.313 115.317 133.439 115.331 133.558 115.373C133.676 115.415 133.784 115.483 133.872 115.572C133.95 115.653 134.047 115.712 134.153 115.745C134.26 115.777 134.373 115.782 134.482 115.758C134.603 115.731 134.716 115.675 134.811 115.596C134.925 115.51 135.044 115.431 135.167 115.359C135.093 115.484 135.009 115.596 134.931 115.716C134.861 115.821 134.768 115.907 134.66 115.971C134.552 116.034 134.431 116.072 134.307 116.083C134.182 116.093 134.057 116.075 133.94 116.03C133.823 115.985 133.718 115.915 133.632 115.823C133.552 115.745 133.453 115.689 133.346 115.661C133.238 115.632 133.125 115.632 133.017 115.661C132.897 115.692 132.787 115.751 132.694 115.833C132.573 115.916 132.444 116 132.333 116.074Z" fill="white"/>
<path d="M135.652 131.876C135.726 131.75 135.814 131.639 135.892 131.518C135.977 131.384 136.099 131.277 136.244 131.211C136.397 131.145 136.566 131.125 136.73 131.154C136.894 131.183 137.046 131.259 137.168 131.374C137.245 131.455 137.342 131.515 137.449 131.549C137.555 131.582 137.669 131.587 137.778 131.564C137.899 131.535 138.012 131.478 138.106 131.397C138.222 131.318 138.333 131.234 138.462 131.16C138.388 131.29 138.305 131.402 138.227 131.518C138.136 131.652 138.009 131.756 137.861 131.82C137.705 131.881 137.535 131.894 137.37 131.86C137.206 131.825 137.056 131.743 136.937 131.625C136.857 131.548 136.759 131.493 136.653 131.465C136.546 131.436 136.434 131.435 136.327 131.462C136.208 131.497 136.097 131.557 136.003 131.639C135.892 131.718 135.781 131.806 135.652 131.876Z" fill="white"/>
<path d="M150.513 114.508C150.583 114.382 150.671 114.271 150.749 114.15C150.836 114.017 150.957 113.91 151.1 113.843C151.257 113.772 151.43 113.75 151.599 113.779C151.768 113.808 151.924 113.887 152.048 114.006C152.125 114.087 152.222 114.147 152.329 114.181C152.435 114.214 152.549 114.219 152.658 114.196C152.778 114.167 152.89 114.112 152.986 114.034C153.102 113.955 153.213 113.866 153.342 113.792C153.268 113.922 153.185 114.034 153.107 114.154C153.017 114.288 152.89 114.392 152.741 114.452C152.585 114.514 152.414 114.528 152.25 114.493C152.086 114.459 151.935 114.376 151.817 114.257C151.736 114.18 151.638 114.125 151.53 114.097C151.423 114.068 151.31 114.067 151.202 114.094C151.083 114.129 150.973 114.189 150.879 114.271C150.749 114.35 150.638 114.438 150.513 114.508Z" fill="white"/>
<path d="M160.738 120.802C160.808 120.677 160.895 120.565 160.974 120.444C161.062 120.312 161.183 120.206 161.325 120.138C161.479 120.072 161.647 120.052 161.812 120.081C161.976 120.11 162.128 120.186 162.25 120.3C162.327 120.381 162.424 120.441 162.531 120.475C162.637 120.508 162.751 120.514 162.86 120.491C162.98 120.463 163.093 120.407 163.188 120.328C163.308 120.249 163.419 120.161 163.544 120.086C163.475 120.217 163.387 120.328 163.308 120.449C163.22 120.584 163.092 120.687 162.943 120.747C162.787 120.808 162.616 120.823 162.452 120.788C162.288 120.753 162.137 120.671 162.019 120.551C161.938 120.475 161.839 120.42 161.732 120.391C161.625 120.363 161.512 120.362 161.404 120.389C161.285 120.423 161.174 120.484 161.08 120.565C160.974 120.644 160.863 120.733 160.738 120.802Z" fill="white"/>
<path d="M143.538 125.581C143.607 125.456 143.695 125.344 143.774 125.223C143.859 125.089 143.981 124.983 144.125 124.917C144.281 124.846 144.455 124.823 144.623 124.852C144.792 124.881 144.949 124.96 145.073 125.079C145.15 125.161 145.246 125.221 145.353 125.254C145.46 125.288 145.573 125.293 145.683 125.27C145.804 125.241 145.916 125.184 146.011 125.103C146.126 125.024 146.237 124.94 146.367 124.865C146.293 124.996 146.21 125.107 146.131 125.223C146.042 125.358 145.915 125.463 145.766 125.526C145.61 125.587 145.439 125.602 145.275 125.567C145.11 125.532 144.96 125.45 144.841 125.33C144.761 125.254 144.662 125.199 144.555 125.17C144.447 125.142 144.334 125.141 144.227 125.168C144.107 125.202 143.997 125.263 143.903 125.344C143.774 125.423 143.663 125.512 143.538 125.581Z" fill="white"/>
<path d="M165.726 131.876C165.8 131.75 165.883 131.639 165.961 131.518C166.048 131.385 166.169 131.278 166.313 131.211C166.469 131.14 166.642 131.118 166.811 131.147C166.98 131.176 167.136 131.255 167.26 131.374C167.338 131.455 167.434 131.515 167.541 131.548C167.648 131.581 167.761 131.587 167.87 131.564C167.991 131.536 168.103 131.48 168.199 131.402C168.319 131.318 168.43 131.234 168.555 131.16C168.485 131.29 168.397 131.402 168.319 131.522C168.23 131.655 168.104 131.758 167.958 131.82C167.802 131.881 167.631 131.895 167.467 131.861C167.303 131.826 167.152 131.744 167.034 131.625C166.954 131.549 166.856 131.494 166.749 131.465C166.643 131.437 166.531 131.436 166.424 131.462C166.303 131.496 166.19 131.556 166.095 131.639C165.957 131.718 165.846 131.806 165.726 131.876Z" fill="white"/>
<path d="M168.227 114.866C168.296 114.736 168.384 114.624 168.463 114.503C168.55 114.371 168.671 114.265 168.814 114.196C168.97 114.126 169.144 114.103 169.312 114.132C169.481 114.161 169.638 114.24 169.761 114.359C169.839 114.44 169.935 114.5 170.042 114.533C170.149 114.567 170.262 114.572 170.372 114.55C170.492 114.522 170.604 114.466 170.7 114.387C170.82 114.308 170.931 114.22 171.056 114.145C170.986 114.275 170.899 114.387 170.82 114.508C170.732 114.642 170.604 114.746 170.455 114.805C170.299 114.867 170.128 114.882 169.964 114.847C169.799 114.812 169.649 114.73 169.53 114.61C169.45 114.534 169.352 114.479 169.246 114.451C169.139 114.422 169.027 114.421 168.92 114.447C168.799 114.481 168.687 114.541 168.592 114.624C168.463 114.708 168.352 114.796 168.227 114.866Z" fill="white"/>
<path d="M127.706 127.762C127.78 127.631 127.863 127.52 127.941 127.399C128.029 127.267 128.15 127.161 128.293 127.092C128.449 127.021 128.622 126.999 128.791 127.028C128.96 127.057 129.116 127.136 129.24 127.255C129.318 127.336 129.414 127.396 129.521 127.429C129.628 127.463 129.741 127.468 129.85 127.445C129.971 127.417 130.083 127.362 130.179 127.283C130.299 127.204 130.41 127.115 130.535 127.041C130.465 127.171 130.377 127.283 130.299 127.404C130.211 127.537 130.085 127.64 129.938 127.701C129.782 127.762 129.611 127.776 129.447 127.742C129.283 127.707 129.132 127.625 129.014 127.506C128.934 127.429 128.836 127.375 128.729 127.347C128.622 127.319 128.51 127.32 128.404 127.348C128.282 127.378 128.169 127.437 128.075 127.52C127.941 127.599 127.821 127.687 127.706 127.762Z" fill="white"/>
<path d="M126.435 101.221C126.504 101.096 126.592 100.984 126.67 100.863C126.758 100.73 126.879 100.622 127.022 100.552C127.178 100.482 127.352 100.46 127.521 100.49C127.69 100.52 127.846 100.6 127.969 100.719C128.046 100.801 128.143 100.861 128.25 100.893C128.357 100.926 128.47 100.93 128.579 100.905C128.701 100.881 128.814 100.825 128.908 100.743C129.028 100.664 129.139 100.575 129.264 100.506C129.191 100.629 129.113 100.749 129.028 100.863C128.939 100.997 128.814 101.102 128.667 101.166C128.511 101.227 128.34 101.241 128.176 101.206C128.012 101.172 127.861 101.09 127.743 100.97C127.663 100.893 127.566 100.838 127.459 100.809C127.352 100.781 127.24 100.78 127.133 100.808C127.011 100.841 126.899 100.902 126.804 100.984C126.675 101.063 126.564 101.152 126.435 101.221Z" fill="white"/>
<path d="M141.518 65.8115C141.347 66.6808 137.445 72.4035 133.525 72.3524C132.25 72.3292 132.046 65.3187 132.046 65.3187L131.912 64.8074L130.063 57.611L138.351 51.8604L139.553 51.098C139.553 51.098 139.928 53.1017 140.376 55.5981C140.376 55.7143 140.418 55.8305 140.436 55.956C140.455 56.0815 140.496 56.2257 140.515 56.3605C140.589 56.7324 140.658 57.1136 140.723 57.4948C140.774 57.783 140.82 58.0619 140.861 58.3688C140.903 58.6756 140.949 58.9731 141 59.2985C141.32 61.4551 141.493 63.6312 141.518 65.8115Z" fill="#EB9481"/>
<path d="M140.376 55.5981C139.714 57.6586 138.614 59.5497 137.152 61.1399C135.691 62.7302 133.903 63.9816 131.912 64.8074L130.063 57.611L138.351 51.8604L139.553 51.098C139.553 51.098 139.928 53.1017 140.376 55.5981Z" fill="#263238"/>
<path d="M119.903 46.9233C119.561 59.9679 127.299 61.6461 130.073 61.7158C132.61 61.7809 141.264 61.6786 142.946 48.741C144.629 35.8034 138.703 31.5404 132.906 31.0755C127.11 30.6106 120.245 33.8787 119.903 46.9233Z" fill="#EB9481"/>
<path d="M121.872 42.9765C122.177 42.9253 122.445 42.8324 122.741 42.7533C123.057 42.7146 123.352 42.5744 123.582 42.3535C123.641 42.2697 123.671 42.1686 123.667 42.066C123.663 41.9634 123.625 41.8651 123.559 41.7864C123.405 41.6514 123.219 41.56 123.018 41.5216C122.817 41.4832 122.61 41.4992 122.418 41.5679C122.008 41.6457 121.642 41.8745 121.391 42.2094C121.339 42.2893 121.31 42.3827 121.309 42.4784C121.308 42.5741 121.335 42.6681 121.386 42.749C121.436 42.83 121.509 42.8946 121.595 42.9349C121.682 42.9752 121.778 42.9897 121.872 42.9765Z" fill="#263238"/>
<path d="M130.544 44.8825C130.246 44.8495 129.949 44.7999 129.657 44.7337C129.34 44.725 129.035 44.6124 128.788 44.4129C128.721 44.3348 128.683 44.2367 128.678 44.1341C128.673 44.0315 128.701 43.9301 128.76 43.8458C128.901 43.6972 129.079 43.5892 129.276 43.5328C129.472 43.4765 129.68 43.4738 129.878 43.525C130.293 43.5679 130.678 43.7652 130.955 44.0782C131.016 44.1525 131.054 44.2431 131.064 44.3387C131.074 44.4343 131.056 44.5307 131.012 44.6162C130.969 44.7017 130.901 44.7725 130.818 44.8198C130.735 44.8671 130.639 44.8889 130.544 44.8825Z" fill="#263238"/>
<path d="M123.786 47.2209C123.786 47.1883 123.721 47.2674 123.721 47.3046C123.809 48.1878 123.763 49.2152 122.986 49.5639C122.959 49.5639 122.986 49.6197 122.986 49.615C123.957 49.4105 124.008 48.0437 123.786 47.2209Z" fill="#263238"/>
<path d="M122.935 46.3469C121.512 46.3469 121.59 49.2013 122.912 49.2152C124.234 49.2292 124.123 46.3609 122.935 46.3469Z" fill="#263238"/>
<path d="M122.348 46.5561C122.126 46.7142 121.914 46.9931 121.641 47.021C121.368 47.0489 121.091 46.7467 120.883 46.4538C120.883 46.4259 120.841 46.4538 120.841 46.4864C120.841 47.0349 121.04 47.6021 121.562 47.6904C122.085 47.7787 122.381 47.2953 122.487 46.7606C122.519 46.6444 122.436 46.491 122.348 46.5561Z" fill="#263238"/>
<path d="M129.587 54.8124C129.37 55.0123 129.148 55.2773 128.825 55.3098C128.502 55.2883 128.187 55.1996 127.9 55.0495C127.894 55.0464 127.887 55.0455 127.88 55.0468C127.873 55.0482 127.867 55.0517 127.862 55.057C127.857 55.0622 127.854 55.0689 127.854 55.0759C127.853 55.0829 127.855 55.09 127.858 55.096C127.979 55.2759 128.146 55.4194 128.341 55.5111C128.537 55.6028 128.753 55.6393 128.968 55.6166C129.151 55.5777 129.317 55.484 129.446 55.3479C129.575 55.2118 129.659 55.0397 129.689 54.8542C129.67 54.8031 129.62 54.7845 129.587 54.8124Z" fill="#263238"/>
<path d="M125.168 51.2467C125.168 51.2467 125.066 52.5763 125.099 53.1992C126.309 53.1324 127.523 53.2388 128.704 53.5154C128.982 53.5897 128.963 53.3619 128.649 53.1946C127.712 52.7039 126.651 52.5064 125.602 52.6274C125.547 52.4554 125.801 50.582 125.704 50.582C125.226 50.6525 124.76 50.787 124.317 50.9818C124.456 48.1925 125.039 45.4776 125.136 42.7115C125.137 42.6913 125.131 42.6712 125.119 42.6551C125.106 42.6389 125.089 42.6279 125.069 42.6239C125.049 42.6199 125.029 42.6233 125.011 42.6334C124.994 42.6436 124.98 42.6598 124.974 42.679C124.16 45.5008 123.929 48.6899 123.712 51.5536C123.684 51.9069 124.928 51.3676 125.168 51.2467Z" fill="#263238"/>
<path d="M131.339 47.2674C130.82 47.0627 130.252 47.0174 129.707 47.1372C129.415 47.2039 129.139 47.3271 128.894 47.4998C128.641 47.6896 128.434 47.9344 128.288 48.2157L128.016 48.7225L128.575 48.662C128.968 48.6201 129.365 48.6201 129.758 48.662C130.169 48.6981 130.563 48.8389 130.905 49.0711C130.681 48.6604 130.306 48.3548 129.86 48.2204C129.425 48.0759 128.966 48.0237 128.51 48.067L128.797 48.5319C129.036 48.1284 129.404 47.8186 129.842 47.6532C130.323 47.4626 130.826 47.333 131.339 47.2674Z" fill="#263238"/>
<path d="M129.735 49.5778C129.317 49.479 128.914 49.3226 128.538 49.1129C128.45 49.0571 128.113 48.8014 128.131 48.7271C128.179 48.5109 128.253 48.3016 128.353 48.1041C128.198 48.2796 128.08 48.4853 128.006 48.7085C128.032 48.8314 128.084 48.9471 128.16 49.0475C128.235 49.1479 128.331 49.2305 128.441 49.2896C128.838 49.5019 129.286 49.6015 129.735 49.5778Z" fill="#263238"/>
<path d="M126.666 53.1063C126.666 53.1063 127.47 54.2685 128.395 54.408C129.458 54.5753 129.583 53.613 128.395 53.0645C127.794 52.7809 126.666 53.1063 126.666 53.1063Z" fill="#263238"/>
<path d="M128.39 54.4312C127.987 54.3471 127.617 54.1487 127.322 53.8594C127.544 53.5293 128.053 53.1621 129.194 53.7804C129.361 54.1709 129.065 54.5149 128.39 54.4312Z" fill="#FF99BA"/>
<path d="M142.868 49.0526C140.732 49.3222 140.02 44.8268 140.02 44.8268C140.02 44.8268 135.666 45.0499 133.923 38.8205C134.139 40.7025 134.898 42.4799 136.105 43.9342C136.105 43.9342 128.381 43.4693 124.835 37.1795C124.835 37.1795 126.287 40.4104 127.553 41.5215C127.553 41.5215 124.285 40.7777 122.589 38.2208C122.589 38.2208 121.424 42.0189 120.439 43.1021C120.439 43.1021 120.102 29.5694 132.624 30.3969C132.624 30.3969 140.446 30.5363 143.547 36.6077C146.649 42.679 142.868 49.0526 142.868 49.0526Z" fill="#263238"/>
<path d="M140.871 49.6847C140.871 49.6847 143.455 45.4497 145.35 46.3515C147.245 47.2534 145.47 53.2783 143.367 54.2127C143.105 54.3518 142.818 54.4363 142.523 54.4609C142.229 54.4855 141.932 54.4499 141.651 54.356C141.37 54.2622 141.111 54.1121 140.89 53.9149C140.668 53.7177 140.489 53.4774 140.362 53.2085L140.871 49.6847Z" fill="#EB9481"/>
<path d="M144.8 48.067C144.832 48.067 144.841 48.1089 144.8 48.1228C143.325 48.8294 142.618 50.2845 142.146 51.7814C142.562 51.191 143.154 50.8517 143.935 51.3165C143.977 51.3398 143.935 51.4049 143.898 51.4002C143.628 51.3305 143.343 51.3473 143.083 51.4481C142.823 51.5489 142.601 51.7288 142.447 51.9627C142.188 52.3524 141.974 52.7704 141.809 53.2086C141.744 53.3481 141.499 53.2923 141.541 53.1342C141.538 53.122 141.538 53.1093 141.541 53.097C141.411 51.1771 142.743 48.3878 144.8 48.067Z" fill="#263238"/>
<path d="M142.151 53.534C142.158 53.6544 142.2 53.77 142.272 53.8664C142.344 53.9627 142.443 54.0354 142.556 54.0752C142.669 54.115 142.791 54.1201 142.907 54.0899C143.023 54.0597 143.128 53.9956 143.208 53.9056C143.288 53.8156 143.339 53.7038 143.355 53.5844C143.372 53.465 143.353 53.3433 143.301 53.2348C143.248 53.1263 143.165 53.0359 143.062 52.9749C142.958 52.914 142.839 52.8853 142.72 52.8924C142.64 52.8966 142.563 52.9165 142.491 52.9511C142.419 52.9857 142.355 53.0342 142.302 53.0939C142.249 53.1535 142.209 53.2231 142.183 53.2987C142.157 53.3742 142.146 53.4542 142.151 53.534Z" fill="white"/>
<path d="M143.603 52.5252C143.606 52.6025 143.633 52.6769 143.679 52.739C143.725 52.8011 143.788 52.8481 143.86 52.874C143.933 52.8999 144.011 52.9035 144.086 52.8844C144.161 52.8654 144.228 52.8244 144.279 52.7668C144.331 52.7093 144.364 52.6376 144.375 52.561C144.386 52.4844 144.374 52.4063 144.34 52.3365C144.307 52.2668 144.254 52.2087 144.187 52.1694C144.121 52.1302 144.045 52.1116 143.968 52.1161C143.917 52.1185 143.867 52.131 143.821 52.1529C143.775 52.1749 143.734 52.2058 143.7 52.2438C143.666 52.2819 143.64 52.3264 143.623 52.3747C143.606 52.423 143.599 52.4742 143.603 52.5252Z" fill="white"/>
<path d="M101.539 77.8962L94.8252 79.4648L99.6541 100.367L106.367 98.7984L101.539 77.8962Z" fill="#EBEBEB"/>
<path d="M85.1743 22.4148C79.5654 23.7272 74.4694 26.6824 70.5303 30.907C66.5913 35.1316 63.986 40.4358 63.044 46.1492C62.1019 51.8626 62.8653 57.7286 65.2376 63.0058C67.6099 68.2829 71.4847 72.7343 76.3721 75.7971C81.2595 78.8599 86.9401 80.3968 92.6958 80.2133C98.4516 80.0299 104.024 78.1344 108.709 74.7664C113.394 71.3985 116.98 66.7094 119.016 61.2917C121.051 55.8741 121.443 49.9713 120.143 44.3293C119.28 40.5804 117.69 37.0393 115.464 33.9087C113.239 30.778 110.422 28.1191 107.175 26.0839C103.927 24.0487 100.312 22.6771 96.5375 22.0475C92.7625 21.418 88.9012 21.5428 85.1743 22.4148ZM96.9709 73.4913C92.5393 74.528 87.9016 74.2195 83.6443 72.6051C79.3871 70.9906 75.7015 68.1426 73.0539 64.4214C70.4063 60.7002 68.9155 56.2728 68.7701 51.6994C68.6247 47.1259 69.8313 42.6119 72.2372 38.7282C74.6431 34.8445 78.1402 31.7656 82.2863 29.881C86.4323 27.9963 91.041 27.3907 95.5293 28.1405C100.018 28.8904 104.184 30.9621 107.502 34.0936C110.819 37.2252 113.138 41.2758 114.167 45.7333C115.544 51.7073 114.507 57.9872 111.283 63.1924C108.058 68.3975 102.91 72.102 96.9709 73.4913Z" fill="#A6A6A6"/>
<path d="M103.829 92.8834L99.3268 93.9354C97.7676 94.2998 96.7973 95.8662 97.1596 97.4343L102.918 122.362C103.281 123.93 104.838 124.906 106.398 124.542L110.9 123.489C112.459 123.125 113.43 121.559 113.067 119.991L107.308 95.0629C106.946 93.4949 105.388 92.519 103.829 92.8834Z" fill="#263238"/>
<g opacity="0.3">
<path d="M114.167 45.724C115.194 50.1796 114.885 54.8416 113.278 59.1206C111.671 63.3995 108.839 67.1032 105.139 69.7633C101.439 72.4234 97.0383 73.9206 92.4925 74.0654C87.9468 74.2102 83.4604 72.9963 79.6006 70.577C75.7408 68.1578 72.681 64.6418 70.808 60.4738C68.935 56.3057 68.333 51.6728 69.078 47.1606C69.823 42.6485 71.8816 38.4598 74.9935 35.1242C78.1055 31.7887 82.131 29.456 86.561 28.4211C89.5034 27.7331 92.5517 27.635 95.5318 28.1323C98.5119 28.6297 101.365 29.7128 103.929 31.3196C106.493 32.9265 108.716 35.0257 110.473 37.4973C112.23 39.9689 113.485 42.7643 114.167 45.724Z" fill="white"/>
<path d="M114.73 52.2416C114.391 58.3302 111.675 64.0379 107.174 68.1241C102.673 72.2103 96.7505 74.3446 90.6934 74.0631L114.73 52.2416Z" fill="#EBEBEB"/>
<path d="M104.15 31.4661L71.2235 61.3533C70.4043 59.7121 69.7835 57.9781 69.3745 56.1885C68.8953 54.138 68.7024 52.0305 68.8013 49.9265L93.111 27.8586C97.0369 28.0909 100.838 29.333 104.15 31.4661Z" fill="#EBEBEB"/>
<path d="M113.533 43.5065L82.1697 71.9711C80.7991 71.3377 79.4939 70.5701 78.2729 69.6793L111.67 39.369C112.429 40.681 113.054 42.0673 113.533 43.5065Z" fill="#EBEBEB"/>
<path d="M106.678 33.3535L72.8136 64.0821C72.6564 63.8497 72.4992 63.6172 72.3513 63.3801L106.022 32.8235C106.253 32.9908 106.47 33.1628 106.678 33.3535Z" fill="#EBEBEB"/>
<path d="M85.4423 28.714L70.4192 42.3443C70.6734 41.6981 70.96 41.0659 71.2743 40.4522L83.4916 29.3602C84.1249 29.1231 84.7767 28.9046 85.4423 28.714Z" fill="#EBEBEB"/>
</g>
<path d="M75.4391 54.9565C75.437 54.9256 75.437 54.8945 75.4391 54.8635C75.3559 54.3987 75.4992 55.3052 75.4391 55.003C75.379 54.7008 75.3467 54.2871 75.319 53.9291C75.2126 52.6669 75.2126 51.3979 75.319 50.1357C75.319 49.9544 75.3513 49.7777 75.3652 49.6011C75.3652 49.5453 75.3143 50.0195 75.3652 49.6429L75.4068 49.3175C75.4622 48.8991 75.5316 48.4807 75.6148 48.067C75.7901 47.1548 76.0264 46.2555 76.322 45.3753C76.3914 45.1661 76.47 44.9569 76.5439 44.7477C76.641 44.4641 76.4145 45.0592 76.567 44.6873L76.7196 44.32C76.9183 43.8552 77.1356 43.3903 77.3667 42.9254C77.5978 42.4605 77.8983 41.9631 78.1895 41.5029C78.3282 41.289 78.4669 41.0798 78.6102 40.8706C78.8552 40.5127 78.4946 41.0147 78.6841 40.7637L78.9569 40.4011C79.7986 39.3369 80.7397 38.3562 81.7673 37.4723C81.7673 37.4723 81.98 37.3003 81.8228 37.4305C81.6656 37.5607 81.906 37.3608 81.9337 37.3375L82.396 36.9703C82.7057 36.7378 83.02 36.5054 83.3436 36.3008C84.0214 35.8452 84.7218 35.4247 85.4422 35.041C85.6353 34.9189 85.8025 34.7598 85.9344 34.5727C86.0663 34.3856 86.1602 34.1742 86.2109 33.9506C86.2615 33.727 86.2679 33.4955 86.2296 33.2694C86.1913 33.0433 86.1091 32.8271 85.9877 32.6329C85.8663 32.4388 85.708 32.2706 85.522 32.138C85.336 32.0053 85.1258 31.9108 84.9034 31.8599C84.6811 31.809 84.4509 31.8026 84.2261 31.8411C84.0013 31.8796 83.7863 31.9623 83.5932 32.0844C79.0262 34.5343 75.2727 38.4021 73.3868 43.2787C72.1099 46.5582 71.5655 50.0799 71.792 53.5944C71.8381 54.3751 71.937 55.1517 72.0878 55.9188C72.2195 56.3613 72.52 56.7334 72.9236 56.9538C73.3272 57.1742 73.8012 57.2249 74.2419 57.095C74.6754 56.9514 75.038 56.6467 75.2554 56.2431C75.4728 55.8395 75.5286 55.3676 75.4114 54.924L75.4391 54.9565Z" fill="white"/>
<path d="M76.9738 59.9029C77.0694 60.2271 77.0673 60.5727 76.9678 60.8957C76.8682 61.2188 76.6757 61.505 76.4144 61.718C76.1532 61.9311 75.8351 62.0615 75.5002 62.0928C75.1653 62.124 74.8287 62.0548 74.5329 61.8937C74.2372 61.7327 73.9955 61.487 73.8386 61.1879C73.6816 60.8888 73.6163 60.5496 73.6509 60.2131C73.6855 59.8767 73.8186 59.5581 74.0332 59.2977C74.2478 59.0372 74.5344 58.8466 74.8567 58.75C75.0709 58.685 75.2959 58.6634 75.5185 58.6863C75.7411 58.7091 75.957 58.7761 76.1538 58.8833C76.3506 58.9904 76.5244 59.1357 76.6651 59.3107C76.8058 59.4857 76.9107 59.6869 76.9738 59.9029Z" fill="white"/>
<path d="M150.532 74.5605C154.692 89.6878 156.689 104.875 154.387 112.709C152.917 117.702 149.372 121.077 147.116 122.192C141.841 124.814 124.345 121.095 112.946 118.789C110.145 118.222 116.751 95.522 119.566 96.7261C123.726 98.4973 136.461 100.887 136.812 101.003C137.566 101.263 139.123 84.8484 140.224 75.2253C141.744 61.8181 148.133 65.8254 150.532 74.5605Z" fill="#EB9481"/>
<path d="M91.0402 92.4027C89.8014 94.4342 91.41 96.2938 91.41 96.2938C90.354 96.8249 89.5165 97.7116 89.0433 98.7995C88.2991 100.752 91.0171 102.784 91.0171 102.784C90.0362 103.563 89.3127 104.623 88.9416 105.824C88.4146 107.767 90.8692 110.208 90.8692 110.208C90.3623 111.425 90.3081 112.784 90.7166 114.038C91.9416 117.344 97.1881 118.427 100.516 119.152C103.845 119.877 113.959 118.78 115.909 118.771L120.694 97.3258C120.694 97.3258 106.683 89.818 102.666 89.5297C99.2497 89.2973 92.4316 90.1248 91.0402 92.4027Z" fill="#EB9481"/>
<path d="M91.6319 95.9823C95.3298 95.3733 98.9631 95.8847 102.638 96.1868C102.655 96.1868 102.672 96.1937 102.684 96.2059C102.696 96.2181 102.703 96.2346 102.703 96.2519C102.703 96.2692 102.696 96.2857 102.684 96.2979C102.672 96.3101 102.655 96.317 102.638 96.317C98.9816 95.973 95.3067 96.3588 91.6503 96.1636C91.6291 96.1615 91.6092 96.1521 91.5941 96.1369C91.579 96.1218 91.5696 96.1019 91.5674 96.0805C91.5652 96.0592 91.5704 96.0377 91.5822 96.0198C91.5939 96.0019 91.6115 95.9887 91.6319 95.9823Z" fill="#263238"/>
<path d="M91.1509 102.519C91.9987 102.459 92.8506 102.514 93.684 102.681C94.5746 102.799 95.4637 102.932 96.3512 103.081C98.1293 103.391 99.8982 103.733 101.658 104.108C101.736 104.108 101.732 104.248 101.658 104.234C99.8828 103.941 98.1077 103.676 96.3281 103.458C95.4359 103.346 94.5438 103.248 93.647 103.151C92.7987 103.116 91.9569 102.987 91.137 102.765C91.1118 102.755 91.0905 102.737 91.0759 102.714C91.0614 102.691 91.0543 102.664 91.0559 102.637C91.0574 102.61 91.0674 102.583 91.0844 102.562C91.1015 102.541 91.1247 102.526 91.1509 102.519Z" fill="#263238"/>
<path d="M90.9431 110.217C91.6642 110.091 92.5055 110.352 93.2174 110.487C94.0263 110.64 94.8306 110.784 95.6396 110.928C97.2574 111.216 98.8753 111.5 100.502 111.732C100.581 111.732 100.572 111.872 100.502 111.858C98.8476 111.635 97.1927 111.43 95.5425 111.193C94.7336 111.077 93.92 110.951 93.1111 110.826C92.4223 110.719 91.5533 110.663 90.9385 110.301C90.9309 110.296 90.9246 110.29 90.9203 110.282C90.9161 110.275 90.9141 110.266 90.9146 110.257C90.9151 110.249 90.918 110.24 90.9231 110.233C90.9281 110.226 90.9351 110.22 90.9431 110.217Z" fill="#263238"/>
<path d="M95.6072 90.1806C93.9292 90.3991 92.0063 90.771 90.92 92.2074C90.4178 92.8168 90.1708 93.5986 90.2312 94.3877C90.3268 95.1246 90.6969 95.7975 91.2667 96.2705C90.596 96.4878 89.9999 96.891 89.5469 97.4337C89.0939 97.9765 88.8024 98.6368 88.7058 99.3387C88.6777 99.6902 88.7218 100.044 88.8356 100.377C88.9493 100.711 89.1301 101.017 89.3668 101.277C89.598 101.552 89.8614 101.793 90.1157 102.044C90.3699 102.295 90.6519 102.509 90.9154 102.728C90.6304 102.952 90.3631 103.197 90.1157 103.462C89.8382 103.73 89.5889 104.026 89.3715 104.345C88.9216 104.978 88.6675 105.73 88.6411 106.507C88.6796 107.279 88.9468 108.023 89.4084 108.641C89.7838 109.28 90.3131 109.814 90.9477 110.194C90.9557 110.198 90.9647 110.198 90.9733 110.196C90.9818 110.194 90.9893 110.189 90.9943 110.181C90.9993 110.174 91.0016 110.165 91.0007 110.156C90.9998 110.148 90.9957 110.139 90.9893 110.133C90.4905 109.675 90.0676 109.14 89.7366 108.548C89.3368 107.916 89.1177 107.186 89.1034 106.437C89.1646 105.728 89.4031 105.045 89.7967 104.452C89.9925 104.131 90.2055 103.821 90.4346 103.523C90.6629 103.279 90.8759 103.021 91.0725 102.751C91.0725 102.751 90.5225 102.165 90.3283 101.914C90.1342 101.663 89.9447 101.393 89.769 101.119C89.3968 100.599 89.2319 99.9568 89.3067 99.3201C89.4158 98.7258 89.6844 98.1728 90.0833 97.7209C90.4716 97.2561 90.9755 96.8888 91.3823 96.4332C91.3968 96.4091 91.4064 96.3822 91.4104 96.3542C91.4143 96.3263 91.4126 96.2978 91.4054 96.2705C90.4809 94.8201 90.5964 93.444 91.5856 92.3701C92.0896 91.8494 92.6791 91.42 93.3283 91.101C94.0754 90.7595 94.8482 90.4781 95.6396 90.2596C95.6719 90.2549 95.6581 90.1759 95.6072 90.1806Z" fill="#263238"/>
<path d="M126.254 121.416C125.27 121.109 124.23 120.951 123.222 120.728C122.214 120.505 121.197 120.296 120.18 120.091C119.164 119.887 118.105 119.682 117.07 119.487C116.034 119.291 115.068 119.073 114.06 118.952C113.087 118.858 112.107 118.879 111.139 119.017C110.162 119.129 109.182 119.208 108.199 119.254C106.218 119.35 104.234 119.307 102.259 119.124C100.025 118.916 97.8124 118.519 95.6443 117.939C95.5981 117.939 95.5842 117.994 95.6443 118.008C99.4033 119.27 103.344 119.899 107.307 119.868C108.287 119.868 109.271 119.807 110.247 119.71C111.221 119.571 112.203 119.487 113.187 119.459C114.227 119.528 115.26 119.683 116.274 119.924C117.296 120.114 118.313 120.31 119.335 120.491C120.49 120.695 121.646 120.905 122.806 121.086C123.966 121.267 125.117 121.528 126.254 121.611C126.338 121.593 126.342 121.439 126.254 121.416Z" fill="#263238"/>
<path d="M140.612 101.942C139.132 101.435 137.57 101.119 136.049 100.752C134.528 100.385 132.989 100.031 131.459 99.6827C128.538 99.0179 125.579 98.4554 122.676 97.6419C121.914 97.428 121.16 97.177 120.416 96.9259C120.041 96.7911 119.676 96.6424 119.311 96.4611C118.946 96.2798 118.525 96.1682 118.165 95.9962C118.123 95.9683 118.091 96.0334 118.132 96.0613C118.424 96.2426 118.692 96.4611 118.992 96.6377C119.293 96.8144 119.658 96.991 120 97.1491C120.625 97.4365 121.266 97.6894 121.918 97.9068C123.277 98.3717 124.692 98.6925 126.078 99.0179C129.129 99.7199 132.185 100.413 135.245 101.077C136.105 101.263 136.969 101.449 137.833 101.621C138.698 101.793 139.641 102.007 140.556 102.109C140.578 102.115 140.601 102.113 140.621 102.102C140.641 102.092 140.656 102.074 140.663 102.052C140.67 102.031 140.669 102.007 140.659 101.987C140.65 101.966 140.633 101.95 140.612 101.942Z" fill="#263238"/>
<path d="M135.8 96.317L156.943 99.2086C156.943 99.2086 153.079 77.1035 148.969 69.7816C144.915 62.5574 140.441 67.3317 138.735 76.0714C136.821 85.7596 135.8 96.317 135.8 96.317Z" fill="#37474F"/>
<path d="M155.358 96.0056C154.766 95.8661 154.16 95.7778 153.569 95.6476C152.977 95.5174 152.409 95.4291 151.826 95.3361C150.638 95.1502 149.446 94.9828 148.253 94.8201C145.905 94.4947 143.561 94.1367 141.204 93.8904C139.863 93.7416 138.527 93.5417 137.187 93.4255C137.177 93.4255 137.167 93.4294 137.16 93.4364C137.154 93.4433 137.15 93.4528 137.15 93.4627C137.15 93.4725 137.154 93.482 137.16 93.489C137.167 93.4959 137.177 93.4999 137.187 93.4999C139.521 94.0484 141.902 94.4575 144.268 94.8434C146.635 95.2292 148.965 95.5918 151.322 95.8522C151.983 95.9219 152.644 96.0102 153.31 96.0428C153.976 96.0753 154.674 96.1357 155.353 96.1497C155.372 96.1503 155.391 96.1433 155.404 96.1302C155.418 96.1171 155.426 96.0991 155.427 96.0799C155.428 96.0608 155.421 96.0423 155.408 96.0283C155.395 96.0144 155.377 96.0062 155.358 96.0056Z" fill="#263238"/>
<path d="M166.941 15.8042C166.67 18.4194 165.681 20.9073 164.086 22.9902C162.49 25.0732 160.35 26.6693 157.905 27.6003C155.46 28.5314 152.806 28.7608 150.239 28.263C147.671 27.7652 145.292 26.5597 143.367 24.781L136.303 25.827L139.84 19.6859C139.029 17.6872 138.682 15.5287 138.825 13.3748C138.968 11.2208 139.598 9.1281 140.666 7.25575C141.735 5.3834 143.214 3.78073 144.991 2.56963C146.768 1.35853 148.796 0.570888 150.921 0.266614C153.046 -0.0376604 155.212 0.149445 157.254 0.813695C159.297 1.47795 161.162 2.60185 162.707 4.09993C164.253 5.59801 165.438 7.43083 166.174 9.45898C166.909 11.4871 167.175 13.6572 166.951 15.8042H166.941Z" fill="white"/>
<path d="M166.941 15.8042C166.671 18.4214 165.685 20.9121 164.094 23.0006C163.312 24.0518 162.377 24.9781 161.32 25.748C159.22 27.3334 156.727 28.3079 154.114 28.5652C153.462 28.6264 152.807 28.6389 152.154 28.6024C151.499 28.588 150.847 28.5195 150.203 28.3979C147.6 27.9184 145.182 26.7191 143.219 24.9345L143.385 24.9856L136.336 26.0735L135.823 26.1525L136.082 25.6876L139.595 19.5372V19.779C138.568 17.2387 138.286 14.4561 138.781 11.7597C139.276 9.06332 140.528 6.56571 142.389 4.56173C144.25 2.55775 146.642 1.13108 149.283 0.450143C151.925 -0.230795 154.704 -0.137566 157.294 0.718821C159.334 1.41579 161.193 2.56258 162.735 4.07526C164.274 5.58195 165.452 7.42071 166.181 9.45262C166.91 11.4845 167.17 13.6564 166.941 15.8042ZM166.941 15.8042C167.164 13.6683 166.897 11.5094 166.16 9.49374C165.422 7.47808 164.235 5.65936 162.69 4.17754C161.144 2.69572 159.281 1.59031 157.243 0.946356C155.206 0.302407 153.049 0.137096 150.938 0.463138C148.843 0.780477 146.848 1.57555 145.105 2.78754C143.379 4.01002 141.938 5.59651 140.884 7.43636C139.843 9.27658 139.23 11.33 139.091 13.4426C138.963 15.5522 139.302 17.664 140.085 19.6255L140.136 19.7557L140.071 19.8719L136.516 25.9991L136.262 25.6225L143.33 24.6277H143.427L143.496 24.6928C145.384 26.4674 147.726 27.6794 150.259 28.1933C150.889 28.3234 151.529 28.4027 152.173 28.4304C152.816 28.4746 153.461 28.4746 154.105 28.4304C155.393 28.3294 156.661 28.0477 157.872 27.5936C159.093 27.1468 160.241 26.5202 161.279 25.7341C161.801 25.3494 162.298 24.9317 162.767 24.4836C163.225 24.0221 163.654 23.533 164.052 23.0192C165.661 20.9298 166.662 18.4319 166.941 15.8042Z" fill="#263238"/>
<path d="M146.002 20.9597C145.993 20.7712 146.022 20.5828 146.088 20.406C146.154 20.2292 146.255 20.0677 146.384 19.9312C146.514 19.7947 146.67 19.6862 146.842 19.612C147.015 19.5379 147.201 19.4998 147.389 19.5C147.773 19.5 148.143 19.6538 148.415 19.9275C148.687 20.2013 148.84 20.5726 148.84 20.9597C148.84 21.3469 148.687 21.7182 148.415 21.9919C148.143 22.2657 147.773 22.4195 147.389 22.4195C147.201 22.4197 147.015 22.3816 146.842 22.3074C146.67 22.2333 146.514 22.1247 146.384 21.9882C146.255 21.8518 146.154 21.6902 146.088 21.5134C146.022 21.3367 145.993 21.1483 146.002 20.9597ZM146.589 17.594L146.261 6.29272H148.507L148.16 17.58L146.589 17.594Z" fill="#45A9FF"/>
<path d="M151.396 20.9597C151.387 20.7712 151.417 20.5828 151.482 20.406C151.548 20.2292 151.649 20.0677 151.779 19.9312C151.908 19.7947 152.064 19.6862 152.237 19.612C152.409 19.5379 152.595 19.4998 152.783 19.5C153.168 19.5 153.537 19.6538 153.809 19.9275C154.081 20.2013 154.234 20.5726 154.234 20.9597C154.234 21.3469 154.081 21.7182 153.809 21.9919C153.537 22.2657 153.168 22.4195 152.783 22.4195C152.595 22.4197 152.409 22.3816 152.237 22.3074C152.064 22.2333 151.908 22.1247 151.779 21.9882C151.649 21.8518 151.548 21.6902 151.482 21.5134C151.417 21.3367 151.387 21.1483 151.396 20.9597ZM151.983 17.594L151.655 6.29272H153.901L153.573 17.594H151.983Z" fill="#45A9FF"/>
<path d="M156.772 20.9597C156.763 20.7712 156.793 20.5828 156.858 20.406C156.924 20.2292 157.025 20.0677 157.155 19.9312C157.284 19.7947 157.44 19.6862 157.613 19.612C157.785 19.5379 157.971 19.4998 158.159 19.5C158.544 19.5 158.913 19.6538 159.185 19.9275C159.457 20.2013 159.61 20.5726 159.61 20.9597C159.61 21.3469 159.457 21.7182 159.185 21.9919C158.913 22.2657 158.544 22.4195 158.159 22.4195C157.971 22.4197 157.785 22.3816 157.613 22.3074C157.44 22.2333 157.284 22.1247 157.155 21.9882C157.025 21.8518 156.924 21.6902 156.858 21.5134C156.793 21.3367 156.763 21.1483 156.772 20.9597ZM157.359 17.594L157.031 6.29272H159.277L158.949 17.594H157.359Z" fill="#45A9FF"/>
</svg>
