<svg width="18" height="18" viewBox="0 0 18 18" fill="none" xmlns="http://www.w3.org/2000/svg">
<path d="M12.9375 6.75H2.25V12.9375C2.25 13.6834 2.54632 14.3988 3.07376 14.9262C3.60121 15.4537 4.31658 15.75 5.0625 15.75H7.425C6.94359 14.8066 6.71239 13.7555 6.75352 12.6972C6.79466 11.6389 7.10675 10.6088 7.65993 9.70569C8.21312 8.80254 8.98886 8.0565 9.91292 7.53898C10.837 7.02147 11.8784 6.7498 12.9375 6.75ZM15.75 5.0625C15.75 4.31658 15.4537 3.60121 14.9262 3.07376C14.3988 2.54632 13.6834 2.25 12.9375 2.25H5.0625C4.31658 2.25 3.60121 2.54632 3.07376 3.07376C2.54632 3.60121 2.25 4.31658 2.25 5.0625V5.625H15.75V5.0625ZM18 12.9375C18 14.2802 17.4666 15.5678 16.5172 16.5172C15.5678 17.4666 14.2802 18 12.9375 18C11.5948 18 10.3072 17.4666 9.35777 16.5172C8.40837 15.5678 7.875 14.2802 7.875 12.9375C7.875 11.5948 8.40837 10.3072 9.35777 9.35777C10.3072 8.40837 11.5948 7.875 12.9375 7.875C14.2802 7.875 15.5678 8.40837 16.5172 9.35777C17.4666 10.3072 18 11.5948 18 12.9375ZM13.5 10.6875C13.5 10.5383 13.4407 10.3952 13.3352 10.2898C13.2298 10.1843 13.0867 10.125 12.9375 10.125C12.7883 10.125 12.6452 10.1843 12.5398 10.2898C12.4343 10.3952 12.375 10.5383 12.375 10.6875V12.375H10.6875C10.5383 12.375 10.3952 12.4343 10.2898 12.5398C10.1843 12.6452 10.125 12.7883 10.125 12.9375C10.125 13.0867 10.1843 13.2298 10.2898 13.3352C10.3952 13.4407 10.5383 13.5 10.6875 13.5H12.375V15.1875C12.375 15.3367 12.4343 15.4798 12.5398 15.5852C12.6452 15.6907 12.7883 15.75 12.9375 15.75C13.0867 15.75 13.2298 15.6907 13.3352 15.5852C13.4407 15.4798 13.5 15.3367 13.5 15.1875V13.5H15.1875C15.3367 13.5 15.4798 13.4407 15.5852 13.3352C15.6907 13.2298 15.75 13.0867 15.75 12.9375C15.75 12.7883 15.6907 12.6452 15.5852 12.5398C15.4798 12.4343 15.3367 12.375 15.1875 12.375H13.5V10.6875Z" fill="#0959FF"/>
</svg>
