<svg width="16" height="16" viewBox="0 0 16 16" fill="none" xmlns="http://www.w3.org/2000/svg">
<path d="M7.85107 12.2082C7.96997 12.2082 8.08621 12.173 8.18507 12.1069C8.28394 12.0409 8.361 11.947 8.4065 11.8371C8.452 11.7273 8.46391 11.6064 8.44071 11.4898C8.41751 11.3731 8.36026 11.266 8.27618 11.1819C8.1921 11.0979 8.08498 11.0406 7.96836 11.0174C7.85173 10.9942 7.73085 11.0061 7.621 11.0516C7.51115 11.0971 7.41725 11.1742 7.35119 11.273C7.28513 11.3719 7.24987 11.4881 7.24987 11.607C7.24987 11.7665 7.31321 11.9194 7.42596 12.0322C7.5387 12.1449 7.69162 12.2082 7.85107 12.2082ZM10.857 12.2082C10.976 12.2082 11.0922 12.173 11.1911 12.1069C11.2899 12.0409 11.367 11.947 11.4125 11.8371C11.458 11.7273 11.4699 11.6064 11.4467 11.4898C11.4235 11.3731 11.3662 11.266 11.2822 11.1819C11.1981 11.0979 11.091 11.0406 10.9743 11.0174C10.8577 10.9942 10.7368 11.0061 10.627 11.0516C10.5171 11.0971 10.4232 11.1742 10.3572 11.273C10.2911 11.3719 10.2558 11.4881 10.2558 11.607C10.2558 11.7665 10.3192 11.9194 10.4319 12.0322C10.5447 12.1449 10.6976 12.2082 10.857 12.2082ZM10.857 9.80346C10.976 9.80346 11.0922 9.7682 11.1911 9.70214C11.2899 9.63608 11.367 9.54218 11.4125 9.43233C11.458 9.32247 11.4699 9.20159 11.4467 9.08497C11.4235 8.96835 11.3662 8.86123 11.2822 8.77715C11.1981 8.69307 11.091 8.63581 10.9743 8.61262C10.8577 8.58942 10.7368 8.60133 10.627 8.64683C10.5171 8.69233 10.4232 8.76939 10.3572 8.86825C10.2911 8.96712 10.2558 9.08336 10.2558 9.20226C10.2558 9.36171 10.3192 9.51462 10.4319 9.62737C10.5447 9.74012 10.6976 9.80346 10.857 9.80346ZM7.85107 9.80346C7.96997 9.80346 8.08621 9.7682 8.18507 9.70214C8.28394 9.63608 8.361 9.54218 8.4065 9.43233C8.452 9.32247 8.46391 9.20159 8.44071 9.08497C8.41751 8.96835 8.36026 8.86123 8.27618 8.77715C8.1921 8.69307 8.08498 8.63581 7.96836 8.61262C7.85173 8.58942 7.73085 8.60133 7.621 8.64683C7.51115 8.69233 7.41725 8.76939 7.35119 8.86825C7.28513 8.96712 7.24987 9.08336 7.24987 9.20226C7.24987 9.36171 7.31321 9.51462 7.42596 9.62737C7.5387 9.74012 7.69162 9.80346 7.85107 9.80346ZM12.0594 2.58911H11.4582V1.98791C11.4582 1.82847 11.3949 1.67555 11.2822 1.5628C11.1694 1.45006 11.0165 1.38672 10.857 1.38672C10.6976 1.38672 10.5447 1.45006 10.4319 1.5628C10.3192 1.67555 10.2558 1.82847 10.2558 1.98791V2.58911H5.44629V1.98791C5.44629 1.82847 5.38294 1.67555 5.2702 1.5628C5.15745 1.45006 5.00454 1.38672 4.84509 1.38672C4.68564 1.38672 4.53273 1.45006 4.41998 1.5628C4.30723 1.67555 4.24389 1.82847 4.24389 1.98791V2.58911H3.6427C3.16436 2.58911 2.70561 2.77913 2.36737 3.11737C2.02913 3.45561 1.83911 3.91436 1.83911 4.3927V12.8094C1.83911 13.2878 2.02913 13.7465 2.36737 14.0848C2.70561 14.423 3.16436 14.613 3.6427 14.613H12.0594C12.5378 14.613 12.9965 14.423 13.3348 14.0848C13.673 13.7465 13.863 13.2878 13.863 12.8094V4.3927C13.863 3.91436 13.673 3.45561 13.3348 3.11737C12.9965 2.77913 12.5378 2.58911 12.0594 2.58911ZM12.6606 12.8094C12.6606 12.9689 12.5973 13.1218 12.4845 13.2345C12.3718 13.3473 12.2189 13.4106 12.0594 13.4106H3.6427C3.48325 13.4106 3.33033 13.3473 3.21759 13.2345C3.10484 13.1218 3.0415 12.9689 3.0415 12.8094V7.39867H12.6606V12.8094ZM12.6606 6.19628H3.0415V4.3927C3.0415 4.23325 3.10484 4.08033 3.21759 3.96759C3.33033 3.85484 3.48325 3.7915 3.6427 3.7915H4.24389V4.3927C4.24389 4.55214 4.30723 4.70506 4.41998 4.81781C4.53273 4.93055 4.68564 4.99389 4.84509 4.99389C5.00454 4.99389 5.15745 4.93055 5.2702 4.81781C5.38294 4.70506 5.44629 4.55214 5.44629 4.3927V3.7915H10.2558V4.3927C10.2558 4.55214 10.3192 4.70506 10.4319 4.81781C10.5447 4.93055 10.6976 4.99389 10.857 4.99389C11.0165 4.99389 11.1694 4.93055 11.2822 4.81781C11.3949 4.70506 11.4582 4.55214 11.4582 4.3927V3.7915H12.0594C12.2189 3.7915 12.3718 3.85484 12.4845 3.96759C12.5973 4.08033 12.6606 4.23325 12.6606 4.3927V6.19628ZM4.84509 9.80346C4.96399 9.80346 5.08023 9.7682 5.1791 9.70214C5.27796 9.63608 5.35502 9.54218 5.40052 9.43233C5.44602 9.32247 5.45793 9.20159 5.43473 9.08497C5.41154 8.96835 5.35428 8.86123 5.2702 8.77715C5.18612 8.69307 5.079 8.63581 4.96238 8.61262C4.84576 8.58942 4.72488 8.60133 4.61502 8.64683C4.50517 8.69233 4.41127 8.76939 4.34521 8.86825C4.27915 8.96712 4.24389 9.08336 4.24389 9.20226C4.24389 9.36171 4.30723 9.51462 4.41998 9.62737C4.53273 9.74012 4.68564 9.80346 4.84509 9.80346ZM4.84509 12.2082C4.96399 12.2082 5.08023 12.173 5.1791 12.1069C5.27796 12.0409 5.35502 11.947 5.40052 11.8371C5.44602 11.7273 5.45793 11.6064 5.43473 11.4898C5.41154 11.3731 5.35428 11.266 5.2702 11.1819C5.18612 11.0979 5.079 11.0406 4.96238 11.0174C4.84576 10.9942 4.72488 11.0061 4.61502 11.0516C4.50517 11.0971 4.41127 11.1742 4.34521 11.273C4.27915 11.3719 4.24389 11.4881 4.24389 11.607C4.24389 11.7665 4.30723 11.9194 4.41998 12.0322C4.53273 12.1449 4.68564 12.2082 4.84509 12.2082Z" fill="white"/>
</svg>
