<svg width="124" height="20" viewBox="0 0 124 20" fill="none" xmlns="http://www.w3.org/2000/svg">
<path d="M21.1875 2.59375C21.1875 3.17708 20.9792 3.66667 20.5625 4.0625C20.1667 4.47917 19.6771 4.6875 19.0938 4.6875H6.59375C6.19792 4.70833 5.86458 4.80208 5.59375 4.96875C5.34375 5.11458 5.15625 5.29167 5.03125 5.5C4.90625 5.6875 4.84375 5.88542 4.84375 6.09375C4.84375 6.30208 4.90625 6.51042 5.03125 6.71875C5.15625 6.90625 5.34375 7.08333 5.59375 7.25C5.86458 7.39583 6.19792 7.47917 6.59375 7.5H15.4688C16.9271 7.54167 18.125 7.88542 19.0625 8.53125C20.0208 9.15625 20.6979 9.88542 21.0938 10.7188C21.5104 11.5312 21.7188 12.3646 21.7188 13.2188C21.7188 14.0521 21.5104 14.8854 21.0938 15.7188C20.6771 16.5312 20 17.2604 19.0625 17.9062C18.125 18.5312 16.9271 18.8438 15.4688 18.8438H15.2812C15.1562 18.8646 15.0312 18.875 14.9062 18.875H3.09375C2.51042 18.875 2.01042 18.6771 1.59375 18.2812C1.19792 17.8646 1 17.3646 1 16.7812C1 16.1979 1.20833 15.7083 1.625 15.3125C2.02083 14.8958 2.51042 14.6875 3.09375 14.6875H15.6562C16.0521 14.7083 16.375 14.6354 16.625 14.4688C16.8958 14.3021 17.0938 14.1146 17.2188 13.9062C17.3438 13.6771 17.4062 13.4479 17.4062 13.2188C17.4062 13.0729 17.3438 12.875 17.2188 12.625C17.0938 12.3542 16.8958 12.1354 16.625 11.9688C16.375 11.8021 16.0521 11.7083 15.6562 11.6875H6.78125C5.32292 11.6458 4.11458 11.3125 3.15625 10.6875C2.21875 10.0625 1.54167 9.35417 1.125 8.5625C0.729167 7.75 0.53125 6.92708 0.53125 6.09375C0.53125 5.28125 0.739583 4.47917 1.15625 3.6875C1.57292 2.875 2.25 2.15625 3.1875 1.53125C4.125 0.90625 5.32292 0.572917 6.78125 0.53125H6.96875C7.09375 0.510417 7.21875 0.5 7.34375 0.5H19.0938C19.6771 0.5 20.1667 0.708333 20.5625 1.125C20.9792 1.52083 21.1875 2.01042 21.1875 2.59375ZM27.375 0C27.9375 0.0208333 28.4167 0.229167 28.8125 0.625C29.2083 1 29.4167 1.46875 29.4375 2.03125V17.3438C29.3125 18.5938 28.625 19.2708 27.375 19.375C26.7917 19.375 26.2812 19.1875 25.8438 18.8125C25.4271 18.4167 25.2188 17.9271 25.2188 17.3438V2.03125C25.2396 1.44792 25.4583 0.96875 25.875 0.59375C26.2917 0.197917 26.7917 0 27.375 0ZM31.3438 8.71875C31.9479 7.73958 33.1042 7.02083 34.8125 6.5625L42.8438 4.40625C43.4062 4.23958 43.9375 4.29167 44.4375 4.5625C44.9583 4.8125 45.3021 5.21875 45.4688 5.78125C45.6562 6.32292 45.6146 6.85417 45.3438 7.375C45.0938 7.875 44.6875 8.21875 44.125 8.40625L35.5625 10.625C34.9583 10.8542 34.6667 11.25 34.6875 11.8125C34.6667 12.375 34.9583 12.7708 35.5625 13L44.125 15.2188C44.6875 15.4062 45.0938 15.7604 45.3438 16.2812C45.6146 16.7812 45.6562 17.3021 45.4688 17.8438C45.3021 18.4062 44.9583 18.8125 44.4375 19.0625C43.9375 19.3333 43.4062 19.3854 42.8438 19.2188L34.8125 17.0625C33.0833 16.5833 31.9167 15.8542 31.3125 14.875C30.7292 13.8958 30.4375 12.875 30.4375 11.8125C30.4375 10.75 30.7396 9.71875 31.3438 8.71875ZM55.25 18.9375C53.4167 18.875 52.0312 18.4479 51.0938 17.6562C50.1562 16.8438 49.4792 15.9375 49.0625 14.9375C48.6458 13.9167 48.4375 12.8854 48.4375 11.8438C48.4375 10.7604 48.6354 9.71875 49.0312 8.71875C49.4479 7.69792 50.125 6.79167 51.0625 6C52.0208 5.1875 53.2292 4.77083 54.6875 4.75H66.5625C67.1458 4.75 67.6354 4.94792 68.0312 5.34375C68.4479 5.71875 68.6562 6.17708 68.6562 6.71875C68.6562 7.28125 68.4479 7.76042 68.0312 8.15625C67.6354 8.53125 67.1458 8.71875 66.5625 8.71875H54.875C54.4167 8.71875 54.0104 8.875 53.6562 9.1875C53.3229 9.5 53.0729 9.90625 52.9062 10.4062C52.7604 10.9062 52.6875 11.3958 52.6875 11.875C52.6875 12.3958 52.7604 12.9062 52.9062 13.4062C53.0729 13.9062 53.3229 14.3125 53.6562 14.625C54.0104 14.9167 54.4167 15.0729 54.875 15.0938H66.5625C67.1458 15.0938 67.6354 15.2812 68.0312 15.6562C68.4479 16.0312 68.6562 16.4792 68.6562 17C68.6562 17.5417 68.4479 18 68.0312 18.375C67.6354 18.75 67.1458 18.9375 66.5625 18.9375H55.25ZM68.2812 11.7812C68.2812 12.1771 68.1042 12.5208 67.75 12.8125C67.4375 13.0833 67.0417 13.2188 66.5625 13.2188H56.3438C55.8646 13.2188 55.4583 13.0833 55.125 12.8125C54.7917 12.5208 54.625 12.1771 54.625 11.7812C54.625 11.4062 54.7917 11.0729 55.125 10.7812C55.4583 10.5104 55.8646 10.375 56.3438 10.375H66.5625C67.0417 10.375 67.4479 10.5208 67.7812 10.8125C68.1146 11.0833 68.2812 11.4062 68.2812 11.7812ZM81.7812 19.6562C80.6979 19.6562 79.625 19.5312 78.5625 19.2812C77.5208 19.0312 76.5208 18.6667 75.5625 18.1875C74.6042 17.6875 73.7604 17.0312 73.0312 16.2188C72.3021 15.4062 71.9062 14.4375 71.8438 13.3125V12V11.5312C71.8438 10.9479 72.0521 10.4688 72.4688 10.0938C72.9062 9.69792 73.4167 9.5 74 9.5C75.25 9.60417 75.9271 10.2812 76.0312 11.5312V12.3438C76.0729 12.9896 76.3125 13.5312 76.75 13.9688C77.2083 14.3854 77.7083 14.7188 78.25 14.9688C78.8125 15.2188 79.3854 15.4062 79.9688 15.5312C80.5729 15.6562 81.1771 15.7188 81.7812 15.7188C82.3854 15.7188 82.9792 15.6562 83.5625 15.5312C84.1667 15.4062 84.7396 15.2188 85.2812 14.9688C85.8438 14.7188 86.3438 14.3854 86.7812 13.9688C87.2396 13.5312 87.4896 12.9896 87.5312 12.3438V2.03125C87.5312 1.44792 87.7396 0.96875 88.1562 0.59375C88.5938 0.197917 89.1042 0 89.6875 0C90.9375 0.104167 91.625 0.78125 91.75 2.03125V12V13.3125C91.6875 14.4375 91.2812 15.4062 90.5312 16.2188C89.8021 17.0312 88.9583 17.6875 88 18.1875C87.0417 18.6667 86.0312 19.0312 84.9688 19.2812C83.9271 19.5312 82.8646 19.6562 81.7812 19.6562ZM105.75 19.4688C104.667 19.4688 103.594 19.3438 102.531 19.0938C101.49 18.8438 100.49 18.4792 99.5312 18C98.5729 17.5 97.7292 16.8438 97 16.0312C96.2708 15.2188 95.875 14.25 95.8125 13.125V11.8125V6.46875C95.8125 5.88542 96.0208 5.40625 96.4375 5.03125C96.875 4.63542 97.3854 4.4375 97.9688 4.4375C99.2188 4.54167 99.8958 5.21875 100 6.46875V7.84375V12.1562C100.042 12.8021 100.281 13.3438 100.719 13.7812C101.177 14.1979 101.677 14.5312 102.219 14.7812C102.781 15.0312 103.354 15.2188 103.938 15.3438C104.542 15.4688 105.146 15.5312 105.75 15.5312C106.354 15.5312 106.948 15.4688 107.531 15.3438C108.135 15.2188 108.708 15.0312 109.25 14.7812C109.812 14.5312 110.312 14.1979 110.75 13.7812C111.208 13.3438 111.458 12.8021 111.5 12.1562V7.84375V6.46875C111.5 5.88542 111.708 5.40625 112.125 5.03125C112.562 4.63542 113.073 4.4375 113.656 4.4375C114.906 4.54167 115.594 5.21875 115.719 6.46875V11.8125V13.125C115.656 14.25 115.25 15.2188 114.5 16.0312C113.771 16.8438 112.927 17.5 111.969 18C111.01 18.4792 110 18.8438 108.938 19.0938C107.896 19.3438 106.833 19.4688 105.75 19.4688ZM121.875 0C122.438 0.0208333 122.917 0.229167 123.312 0.625C123.708 1 123.917 1.46875 123.938 2.03125V17.3438C123.812 18.5938 123.125 19.2708 121.875 19.375C121.292 19.375 120.781 19.1875 120.344 18.8125C119.927 18.4167 119.719 17.9271 119.719 17.3438V2.03125C119.74 1.44792 119.958 0.96875 120.375 0.59375C120.792 0.197917 121.292 0 121.875 0Z" fill="url(#paint0_linear_107_8153)"/>
<defs>
<linearGradient id="paint0_linear_107_8153" x1="-1" y1="7" x2="126" y2="7" gradientUnits="userSpaceOnUse">
<stop stop-color="#0959FF"/>
</linearGradient>
</defs>
</svg>
