<svg width="22" height="22" viewBox="0 0 22 22" fill="none" xmlns="http://www.w3.org/2000/svg">
<path d="M11.0002 3.2085C11.3648 3.2085 11.7146 3.35336 11.9724 3.61122C12.2303 3.86909 12.3752 4.21882 12.3752 4.5835V9.62516H17.4168C17.7815 9.62516 18.1312 9.77003 18.3891 10.0279C18.647 10.2858 18.7918 10.6355 18.7918 11.0002C18.7918 11.3648 18.647 11.7146 18.3891 11.9724C18.1312 12.2303 17.7815 12.3752 17.4168 12.3752H12.3752V17.4168C12.3752 17.7815 12.2303 18.1312 11.9724 18.3891C11.7146 18.647 11.3648 18.7918 11.0002 18.7918C10.6355 18.7918 10.2858 18.647 10.0279 18.3891C9.77003 18.1312 9.62516 17.7815 9.62516 17.4168V12.3752H4.5835C4.21882 12.3752 3.86909 12.2303 3.61122 11.9724C3.35336 11.7146 3.2085 11.3648 3.2085 11.0002C3.2085 10.6355 3.35336 10.2858 3.61122 10.0279C3.86909 9.77003 4.21882 9.62516 4.5835 9.62516H9.62516V4.5835C9.62516 4.21882 9.77003 3.86909 10.0279 3.61122C10.2858 3.35336 10.6355 3.2085 11.0002 3.2085Z" fill="white"/>
</svg>
