<svg width="93" height="16" viewBox="0 0 93 16" fill="none" xmlns="http://www.w3.org/2000/svg">
<path d="M15.6406 2.69531C15.6406 3.13281 15.4844 3.5 15.1719 3.79688C14.875 4.10938 14.5078 4.26562 14.0703 4.26562H4.69531C4.39844 4.28125 4.14844 4.35156 3.94531 4.47656C3.75781 4.58594 3.61719 4.71875 3.52344 4.875C3.42969 5.01562 3.38281 5.16406 3.38281 5.32031C3.38281 5.47656 3.42969 5.63281 3.52344 5.78906C3.61719 5.92969 3.75781 6.0625 3.94531 6.1875C4.14844 6.29688 4.39844 6.35938 4.69531 6.375H11.3516C12.4453 6.40625 13.3438 6.66406 14.0469 7.14844C14.7656 7.61719 15.2734 8.16406 15.5703 8.78906C15.8828 9.39844 16.0391 10.0234 16.0391 10.6641C16.0391 11.2891 15.8828 11.9141 15.5703 12.5391C15.2578 13.1484 14.75 13.6953 14.0469 14.1797C13.3438 14.6484 12.4453 14.8828 11.3516 14.8828H11.2109C11.1172 14.8984 11.0234 14.9062 10.9297 14.9062H2.07031C1.63281 14.9062 1.25781 14.7578 0.945312 14.4609C0.648438 14.1484 0.5 13.7734 0.5 13.3359C0.5 12.8984 0.65625 12.5312 0.96875 12.2344C1.26562 11.9219 1.63281 11.7656 2.07031 11.7656H11.4922C11.7891 11.7812 12.0312 11.7266 12.2188 11.6016C12.4219 11.4766 12.5703 11.3359 12.6641 11.1797C12.7578 11.0078 12.8047 10.8359 12.8047 10.6641C12.8047 10.5547 12.7578 10.4062 12.6641 10.2188C12.5703 10.0156 12.4219 9.85156 12.2188 9.72656C12.0312 9.60156 11.7891 9.53125 11.4922 9.51562H4.83594C3.74219 9.48438 2.83594 9.23438 2.11719 8.76562C1.41406 8.29688 0.90625 7.76562 0.59375 7.17188C0.296875 6.5625 0.148438 5.94531 0.148438 5.32031C0.148438 4.71094 0.304688 4.10938 0.617188 3.51562C0.929688 2.90625 1.4375 2.36719 2.14062 1.89844C2.84375 1.42969 3.74219 1.17969 4.83594 1.14844H4.97656C5.07031 1.13281 5.16406 1.125 5.25781 1.125H14.0703C14.5078 1.125 14.875 1.28125 15.1719 1.59375C15.4844 1.89062 15.6406 2.25781 15.6406 2.69531ZM20.2812 0.75C20.7031 0.765625 21.0625 0.921875 21.3594 1.21875C21.6562 1.5 21.8125 1.85156 21.8281 2.27344V13.7578C21.7344 14.6953 21.2188 15.2031 20.2812 15.2812C19.8438 15.2812 19.4609 15.1406 19.1328 14.8594C18.8203 14.5625 18.6641 14.1953 18.6641 13.7578V2.27344C18.6797 1.83594 18.8438 1.47656 19.1562 1.19531C19.4688 0.898438 19.8438 0.75 20.2812 0.75ZM23.2578 7.28906C23.7109 6.55469 24.5781 6.01562 25.8594 5.67188L31.8828 4.05469C32.3047 3.92969 32.7031 3.96875 33.0781 4.17188C33.4688 4.35938 33.7266 4.66406 33.8516 5.08594C33.9922 5.49219 33.9609 5.89062 33.7578 6.28125C33.5703 6.65625 33.2656 6.91406 32.8438 7.05469L26.4219 8.71875C25.9688 8.89062 25.75 9.1875 25.7656 9.60938C25.75 10.0312 25.9688 10.3281 26.4219 10.5L32.8438 12.1641C33.2656 12.3047 33.5703 12.5703 33.7578 12.9609C33.9609 13.3359 33.9922 13.7266 33.8516 14.1328C33.7266 14.5547 33.4688 14.8594 33.0781 15.0469C32.7031 15.25 32.3047 15.2891 31.8828 15.1641L25.8594 13.5469C24.5625 13.1875 23.6875 12.6406 23.2344 11.9062C22.7969 11.1719 22.5781 10.4062 22.5781 9.60938C22.5781 8.8125 22.8047 8.03906 23.2578 7.28906ZM41.1875 14.9531C39.8125 14.9062 38.7734 14.5859 38.0703 13.9922C37.3672 13.3828 36.8594 12.7031 36.5469 11.9531C36.2344 11.1875 36.0781 10.4141 36.0781 9.63281C36.0781 8.82031 36.2266 8.03906 36.5234 7.28906C36.8359 6.52344 37.3438 5.84375 38.0469 5.25C38.7656 4.64062 39.6719 4.32812 40.7656 4.3125H49.6719C50.1094 4.3125 50.4766 4.46094 50.7734 4.75781C51.0859 5.03906 51.2422 5.38281 51.2422 5.78906C51.2422 6.21094 51.0859 6.57031 50.7734 6.86719C50.4766 7.14844 50.1094 7.28906 49.6719 7.28906H40.9062C40.5625 7.28906 40.2578 7.40625 39.9922 7.64062C39.7422 7.875 39.5547 8.17969 39.4297 8.55469C39.3203 8.92969 39.2656 9.29688 39.2656 9.65625C39.2656 10.0469 39.3203 10.4297 39.4297 10.8047C39.5547 11.1797 39.7422 11.4844 39.9922 11.7188C40.2578 11.9375 40.5625 12.0547 40.9062 12.0703H49.6719C50.1094 12.0703 50.4766 12.2109 50.7734 12.4922C51.0859 12.7734 51.2422 13.1094 51.2422 13.5C51.2422 13.9062 51.0859 14.25 50.7734 14.5312C50.4766 14.8125 50.1094 14.9531 49.6719 14.9531H41.1875ZM50.9609 9.58594C50.9609 9.88281 50.8281 10.1406 50.5625 10.3594C50.3281 10.5625 50.0312 10.6641 49.6719 10.6641H42.0078C41.6484 10.6641 41.3438 10.5625 41.0938 10.3594C40.8438 10.1406 40.7188 9.88281 40.7188 9.58594C40.7188 9.30469 40.8438 9.05469 41.0938 8.83594C41.3438 8.63281 41.6484 8.53125 42.0078 8.53125H49.6719C50.0312 8.53125 50.3359 8.64062 50.5859 8.85938C50.8359 9.0625 50.9609 9.30469 50.9609 9.58594ZM61.0859 15.4922C60.2734 15.4922 59.4688 15.3984 58.6719 15.2109C57.8906 15.0234 57.1406 14.75 56.4219 14.3906C55.7031 14.0156 55.0703 13.5234 54.5234 12.9141C53.9766 12.3047 53.6797 11.5781 53.6328 10.7344V9.75V9.39844C53.6328 8.96094 53.7891 8.60156 54.1016 8.32031C54.4297 8.02344 54.8125 7.875 55.25 7.875C56.1875 7.95312 56.6953 8.46094 56.7734 9.39844V10.0078C56.8047 10.4922 56.9844 10.8984 57.3125 11.2266C57.6562 11.5391 58.0312 11.7891 58.4375 11.9766C58.8594 12.1641 59.2891 12.3047 59.7266 12.3984C60.1797 12.4922 60.6328 12.5391 61.0859 12.5391C61.5391 12.5391 61.9844 12.4922 62.4219 12.3984C62.875 12.3047 63.3047 12.1641 63.7109 11.9766C64.1328 11.7891 64.5078 11.5391 64.8359 11.2266C65.1797 10.8984 65.3672 10.4922 65.3984 10.0078V2.27344C65.3984 1.83594 65.5547 1.47656 65.8672 1.19531C66.1953 0.898438 66.5781 0.75 67.0156 0.75C67.9531 0.828125 68.4688 1.33594 68.5625 2.27344V9.75V10.7344C68.5156 11.5781 68.2109 12.3047 67.6484 12.9141C67.1016 13.5234 66.4688 14.0156 65.75 14.3906C65.0312 14.75 64.2734 15.0234 63.4766 15.2109C62.6953 15.3984 61.8984 15.4922 61.0859 15.4922ZM79.0625 15.3516C78.25 15.3516 77.4453 15.2578 76.6484 15.0703C75.8672 14.8828 75.1172 14.6094 74.3984 14.25C73.6797 13.875 73.0469 13.3828 72.5 12.7734C71.9531 12.1641 71.6562 11.4375 71.6094 10.5938V9.60938V5.60156C71.6094 5.16406 71.7656 4.80469 72.0781 4.52344C72.4062 4.22656 72.7891 4.07812 73.2266 4.07812C74.1641 4.15625 74.6719 4.66406 74.75 5.60156V6.63281V9.86719C74.7812 10.3516 74.9609 10.7578 75.2891 11.0859C75.6328 11.3984 76.0078 11.6484 76.4141 11.8359C76.8359 12.0234 77.2656 12.1641 77.7031 12.2578C78.1562 12.3516 78.6094 12.3984 79.0625 12.3984C79.5156 12.3984 79.9609 12.3516 80.3984 12.2578C80.8516 12.1641 81.2812 12.0234 81.6875 11.8359C82.1094 11.6484 82.4844 11.3984 82.8125 11.0859C83.1562 10.7578 83.3438 10.3516 83.375 9.86719V6.63281V5.60156C83.375 5.16406 83.5312 4.80469 83.8438 4.52344C84.1719 4.22656 84.5547 4.07812 84.9922 4.07812C85.9297 4.15625 86.4453 4.66406 86.5391 5.60156V9.60938V10.5938C86.4922 11.4375 86.1875 12.1641 85.625 12.7734C85.0781 13.3828 84.4453 13.875 83.7266 14.25C83.0078 14.6094 82.25 14.8828 81.4531 15.0703C80.6719 15.2578 79.875 15.3516 79.0625 15.3516ZM91.1562 0.75C91.5781 0.765625 91.9375 0.921875 92.2344 1.21875C92.5312 1.5 92.6875 1.85156 92.7031 2.27344V13.7578C92.6094 14.6953 92.0938 15.2031 91.1562 15.2812C90.7188 15.2812 90.3359 15.1406 90.0078 14.8594C89.6953 14.5625 89.5391 14.1953 89.5391 13.7578V2.27344C89.5547 1.83594 89.7188 1.47656 90.0312 1.19531C90.3438 0.898438 90.7188 0.75 91.1562 0.75Z" fill="white"/>
</svg>
